<svg width="265" height="322" viewBox="0 0 265 322" fill="none" xmlns="http://www.w3.org/2000/svg">
<path fill-rule="evenodd" clip-rule="evenodd" d="M117.773 109.846C126.106 110.257 139.083 113.834 139.733 116.12C140.746 119.689 138.569 133.071 142.21 140.277C143.762 143.35 149.657 143.075 151.94 144.075C159.581 147.423 182.203 153.773 186.868 161.768C188.737 164.971 200.22 204.716 206.322 224.992C207.01 227.278 207.787 229.393 208.631 231.351L208.942 229.829C211.43 217.574 212.673 210.156 212.673 207.572C212.673 203.537 209.457 186.509 212.673 182.179C215.858 177.893 223.53 174.388 226.982 174.318L227.087 174.316C229.353 174.316 231.32 173.608 232.987 172.189L235.431 170.959C247.863 164.714 255.127 161.288 257.222 160.683C260.566 159.715 266.254 161.776 263.411 164.87C261.513 166.932 256.748 170.581 249.113 175.816L246.236 178.106L246.584 178.288C250.304 180.248 252.491 181.898 253.146 183.237C253.82 184.618 253.497 186.252 252.174 188.138L252.374 188.333C254.047 189.977 254.883 191.078 254.883 191.639V194.38C256.546 196.819 256.962 198.853 256.131 200.481C255.299 202.11 253.98 203.522 252.174 204.716C250.844 208.219 249.258 210.714 247.419 212.198C245.582 213.681 242.403 214.917 237.886 215.903L233.799 225.686L230.487 239.43L228.817 254.766L229.302 255.117C231.548 256.755 232.987 257.969 232.987 259.222C232.987 261.177 223.925 307.133 209.825 309.189C206.775 309.634 190.961 307.452 185.768 303.225L185.845 303.682C187.067 311.067 186.808 314.903 185.069 315.188C163.702 318.694 103.018 319.778 3.0154 318.438C2.42037 265.311 5.1107 229.93 11.0864 212.292C26.3694 167.186 43.2197 151.78 49.1146 150.46C54.2785 149.304 72.1845 142.172 77.1899 140.277C80.4573 139.042 81.1574 135.336 84.88 135.336L85.182 135.337C88.7828 135.374 91.9759 136.019 93.7702 134.165C98.4772 129.301 97.161 122.567 99.1151 116.12C100.19 112.568 107.545 109.34 117.773 109.846Z" fill="white"/>
<path fill-rule="evenodd" clip-rule="evenodd" d="M94.8752 122.583C95.364 121.613 96.6627 121.739 97.5199 122.18C100.09 124.06 97.4007 127.705 96.6898 130C94.8616 134.451 91.6848 138.802 87.3 140.882C87.6643 145.307 88.0759 149.723 88.2276 154.162C93.8325 161.12 103.285 163.661 111.675 165.615C124.852 169.262 139.725 161.79 144.172 148.751C139.11 145.872 137.472 138.334 138.983 133.076C139.114 132.706 139.686 132.543 139.889 132.955C141.276 135.809 141.092 139.291 142.666 142.109C157.791 143.559 177.311 149.272 187.221 161.515C191.611 167.64 193.352 175.607 195.514 182.706C200.129 197.342 203.806 212.273 208.331 226.924L208.865 224.152C210.327 216.516 211.656 208.776 210.669 201.01L210.651 200.639C210.327 194.46 208.396 182.977 213.183 178.805C217.514 175.492 223.788 172.831 229.222 174.358C238.892 170.051 247.239 162.797 257.539 159.972C260.709 159.318 265.269 160.092 264.52 164.395C262.444 171.925 253.747 174.846 247.804 178.728C251.613 179.762 256.259 184.4 253.282 188.444C253.256 188.516 253.233 188.57 253.211 188.614C255.624 189.685 255.963 192.376 255.371 194.685C255.31 195.295 255.15 194.77 255.508 195.323C258.232 197.895 257.029 205.064 252.924 205.306C253.194 208.702 251.013 212.001 248.252 213.855C245.277 215.851 240.975 215.936 238.51 218.667C232.727 228.877 230.732 240.928 230.101 252.618C233.914 254.046 237.335 258.318 233.871 261.941C233.802 261.95 233.734 261.958 233.665 261.963C231.657 267.327 230.881 273.045 229.819 278.648C228.186 288.206 223.927 296.983 218.49 304.944C212.203 315.486 195.295 313.814 186.777 307.012C186.811 308.797 187.105 310.57 186.535 312.295C185.691 314.157 183.637 313.352 183.432 311.52C178.93 314.054 177.869 305.687 182.874 307.015C182.49 300.966 182.266 294.91 182.085 288.851C176.419 290.686 176.174 281.276 181.971 283.157L181.964 280.556C181.921 260.607 182.142 240.59 184.772 220.799C185.015 219.318 185.427 217.886 185.667 216.414C185.692 216.262 185.931 216.306 185.931 216.451C186.338 244.161 184.529 271.929 186.417 299.647C187.988 300.126 188.615 301.931 189.778 302.983C192.362 305.37 195.88 306.532 199.319 306.938C208.952 308.288 213.11 305.344 217.4 296.964C215.465 298.258 212.852 295.972 214.031 293.923L214.068 293.862C215.292 291.692 218.75 292.993 218.313 295.423C222.626 288.51 224.883 280.714 226.55 272.805L226.775 271.861C227.586 268.503 228.637 264.655 230.583 261.618C218.716 258.589 207.107 249.365 205.249 236.71C202.236 246.186 198.155 255.449 194.264 264.664C193.063 267.868 192.562 271.314 190.84 274.286C190.439 274.973 189.423 274.796 189.197 274.071C187.648 267.139 192.341 260.546 194.779 254.306C196.768 250.779 202.481 234.675 206.022 234.635C202.043 217.177 196.734 199.849 191.68 182.606C186.792 159.325 176.831 154.836 155.73 147.506C159.535 166.921 176.913 185.713 167.666 206.076L167.441 206.604C166.496 208.85 165.71 211.112 166.37 213.577C167.012 215.967 168.47 218.044 169.637 220.194C176.163 232.343 171.671 246.529 169.149 259.18C165.961 274.017 162.812 288.865 159.518 303.679C158.869 306.634 158.448 309.679 157.467 312.542C156.961 314.02 154.434 313.879 154.598 312.155C154.909 308.81 155.848 305.549 156.534 302.264C160.638 280.999 166.187 259.984 169.717 238.624C171.987 222.814 163.049 220.384 163.384 210.169C164.599 204.943 167.813 200.281 167.629 194.713C168.343 177.67 155.941 163.609 154.41 147.033L151.705 146.067C150.355 145.583 149.005 145.096 147.659 144.596C154.742 194.173 152.591 244.833 149.051 294.655C148.328 296.954 149.016 313.013 145.983 311.588C145.83 312.486 145.354 313.368 144.319 313.363C134.914 313.449 125.508 313.598 116.104 313.711C111.58 313.294 105.363 315.022 101.516 312.41C97.0744 311.141 96.5625 299.099 95.3749 294.807L94.9131 291.685C87.3636 240.681 80.609 188.624 86.0352 137.115C78.4864 137.405 76.9283 145.56 76.3683 151.498C74.9685 164.603 66.5095 175.888 66.1037 189.143C66.0693 192.36 66.6759 195.475 67.9602 198.427C71.3675 205.661 77.2605 214.025 72.856 222.105C67.6472 228.395 68.098 230.05 70.0094 237.822C75.3871 263.519 84.3181 288.222 92.8128 312.998C90.9671 322.628 79.8647 286.879 78.8202 284.183C73.9054 286.657 71.2207 278.447 76.8579 277.863C73.2371 265.731 69.905 253.51 67.1307 241.154L67.0573 240.806C65.8318 235.096 63.4214 228.411 67.4918 223.347C77.9874 212.723 60.5578 200.849 62.7564 187.978C60.858 189.387 57.9842 187.905 58.0274 185.538C57.9412 182.874 61.5168 181.51 63.2374 183.542C65.0063 173.099 71.1609 163.985 73.0234 153.573L73.1075 153.084C73.7387 149.404 73.9166 145.533 75.7221 142.18C73.2643 143.777 70.6468 145.069 67.9548 146.208C72.7683 150.234 63.447 153.905 64.2183 147.689C37.8213 155.334 31.8548 165.994 22.1629 190.475C23.9733 188.715 27.0745 190.993 25.9908 193.238C25.1263 195.604 21.3546 194.913 21.3561 192.391L20.9144 193.445C15.0373 207.511 9.68821 221.919 7.00006 236.973C12.2733 236.227 10.9307 244.663 6.15289 242.284C4.23553 255.672 4.20519 269.25 4.43946 282.745C8.88736 280.411 9.02129 288.344 4.48239 286.081C4.64841 297.141 4.89148 308.2 5.0747 319.259C5.11181 321.614 1.48413 321.602 1.42699 319.259C1.00327 302.267 0.231117 285.242 0.598096 268.245C0.252784 238.741 8.72635 210.305 21.3515 183.875C32.5226 153.445 47.9532 149.984 76.3429 141.137C78.9636 137.242 84.5619 133.561 89.1308 136.005C91.6861 131.876 92.9834 126.984 94.8752 122.583ZM46.2345 228.642C46.3404 228.267 46.8753 228.361 46.8925 228.731C47.13 233.504 46.9182 238.31 46.5921 243.104C46.3944 246.03 46.1515 248.954 45.9455 251.861C45.3991 259.53 44.9584 267.207 44.6238 274.891C44.7411 274.842 44.8612 274.798 44.9871 274.765C45.565 274.606 46.1432 274.606 46.7207 274.765C47.2361 274.908 47.6867 275.16 48.0748 275.523L48.157 275.603C48.4745 275.897 48.7005 276.248 48.8322 276.652C49.0197 277.011 49.1145 277.395 49.1142 277.805L49.1122 277.908C49.1096 278.499 48.9638 279.045 48.6663 279.556C48.3773 280.045 47.9882 280.434 47.499 280.726C46.9897 281.022 46.443 281.168 45.8539 281.169C45.791 281.176 45.7277 281.182 45.6652 281.184C45.2271 281.202 44.8183 281.11 44.4403 280.912L44.3835 280.896C44.2405 284.792 44.1231 288.693 44.0373 292.593C43.96 295.992 43.8571 299.392 43.7884 302.79L43.7565 304.491L43.6942 308.249C43.674 309.794 43.6839 311.275 43.159 312.731L43.096 312.899C42.7184 313.874 42.424 315.228 41.4135 315.769C40.6071 316.201 39.5198 316.041 39.0564 315.199C38.6674 314.494 39.0046 313.481 39.5799 313.005C39.5686 312.974 39.5514 312.945 39.537 312.914C39.4483 312.655 39.3136 312.413 39.2338 312.153C38.9817 311.328 39.0507 310.448 39.0478 309.592C39.0478 308.08 39.0991 306.568 39.1394 305.058C39.228 301.846 39.3311 298.636 39.4566 295.426C39.8819 284.657 40.6826 273.888 41.5997 263.15L41.9109 259.526C42.3255 254.705 42.7547 249.88 43.3621 245.085C43.3904 244.856 43.4193 244.627 43.4508 244.398C43.1246 244.235 42.8214 244.009 42.5808 243.757C41.617 242.743 41.0323 241.229 40.4841 239.924L40.3582 239.627C39.763 238.235 39.2138 236.826 38.9305 235.332L38.9034 235.194C38.7742 234.558 38.5192 233.429 39.1937 233.121C39.5457 232.961 39.7684 233.074 39.8831 233.427C39.8978 233.473 39.8859 233.524 39.8603 233.565C40.1379 233.992 40.5727 234.39 40.8473 234.784L41.7874 236.13L42.252 236.806C42.8415 237.675 43.4708 238.505 44.1202 239.323C44.6321 235.727 45.2589 232.145 46.2345 228.642ZM84.7826 308.794C85.958 307.871 87.8728 308.372 87.8728 310.073C87.8728 311.783 85.9553 312.276 84.7826 311.353L84.7244 311.31L84.6688 311.264C84.0297 310.765 84.008 309.465 84.6201 308.923L84.6688 308.882C84.7054 308.851 84.7433 308.822 84.7826 308.794ZM33.56 305.469L33.661 305.472C34.1932 305.472 34.688 305.606 35.1487 305.875C35.349 306.027 35.5464 306.182 35.7466 306.336C36.1129 306.703 36.3646 307.138 36.5048 307.639L36.6109 308.424C36.6249 308.83 36.542 309.208 36.356 309.561C36.2358 309.927 36.0327 310.245 35.7466 310.512C35.4776 310.801 35.1631 311.004 34.797 311.122C34.4742 311.292 34.13 311.379 33.762 311.379L33.661 311.376C33.1263 311.376 32.631 311.242 32.1705 310.973C31.9702 310.821 31.7728 310.666 31.5725 310.512C31.2092 310.145 30.9546 309.71 30.8147 309.208C30.78 308.948 30.746 308.684 30.7085 308.424C30.6946 308.017 30.78 307.639 30.9631 307.287C31.0834 306.92 31.2865 306.603 31.5725 306.336C31.8417 306.047 32.1561 305.843 32.5224 305.726C32.845 305.556 33.1915 305.469 33.56 305.469ZM167.483 300.025L168.233 300.125C168.951 300.288 169.529 300.817 169.915 301.422C170.121 301.745 170.232 302.095 170.249 302.47C170.333 302.843 170.316 303.218 170.198 303.592C170.113 303.959 169.943 304.279 169.694 304.552C169.609 304.687 169.509 304.81 169.395 304.919C169.159 305.312 168.805 305.569 168.439 305.832C168.13 306.03 167.794 306.135 167.434 306.153C167.197 306.215 166.956 306.215 166.716 306.153C166.359 306.135 166.024 306.03 165.714 305.832C165.532 305.692 165.349 305.549 165.169 305.408C165.009 305.222 164.86 305.03 164.719 304.829C164.626 304.61 164.534 304.392 164.443 304.174C164.274 303.649 164.356 303.186 164.448 302.663C164.462 302.573 164.485 302.493 164.516 302.407L164.578 302.24C164.743 301.805 164.831 301.657 165.123 301.279L165.234 301.13C165.289 301.056 165.347 300.983 165.412 300.918C165.595 300.729 165.855 300.571 166.061 300.408C166.501 300.153 166.976 300.027 167.483 300.025ZM70.351 298.191H70.4464C70.8612 298.194 71.2505 298.299 71.6107 298.507L72.08 298.87C72.3661 299.16 72.5634 299.498 72.675 299.891C72.7007 300.097 72.7297 300.302 72.758 300.506C72.7694 300.824 72.704 301.121 72.5577 301.399C72.4664 301.686 72.306 301.931 72.08 302.144C71.8714 302.367 71.6222 302.527 71.3361 302.622C71.0864 302.752 70.8179 302.821 70.5324 302.821L70.4464 302.82C70.0287 302.82 69.6396 302.714 69.2791 302.504L68.8099 302.144C68.5238 301.855 68.3265 301.514 68.2149 301.121C68.1892 300.915 68.1605 300.712 68.1319 300.506C68.1204 300.187 68.1862 299.891 68.3322 299.615C68.4265 299.328 68.5839 299.08 68.8099 298.87C69.0187 298.644 69.2676 298.484 69.5538 298.392C69.8035 298.261 70.0671 298.194 70.351 298.191ZM51.4702 297.244C52.0679 297.239 52.6747 297.407 53.1639 297.754C53.6388 298.091 53.999 298.456 54.2311 299.002C54.2939 299.152 54.3566 299.297 54.4113 299.446C54.6572 300.102 54.703 300.76 54.3626 301.403C54.0337 302.023 53.3241 302.296 52.6887 302.481C52.1511 302.642 51.5417 302.668 51.0068 302.476C50.7407 302.381 50.4803 302.281 50.2401 302.136C49.7909 301.858 49.5477 301.527 49.2473 301.121C49.0127 300.721 48.8954 300.285 48.8954 299.821C48.8954 299.354 49.0127 298.922 49.2473 298.518C49.7076 297.731 50.5605 297.25 51.4702 297.244ZM21.1443 297.797C21.9 297.797 22.5634 298.147 23.0185 298.736C23.4789 299.335 23.6476 300.079 23.4445 300.821C23.23 301.606 22.5808 302.293 21.7766 302.491C21.1818 302.636 20.6952 302.63 20.103 302.53C19.6023 302.445 19.2192 302.147 18.8356 301.838C18.3978 301.479 18.2635 300.827 18.335 300.3C18.4036 299.773 18.6471 299.429 19.0161 299.117L19.0187 299.109L18.8814 299.214C18.9331 299.168 18.9843 299.12 19.0362 299.071C19.0531 299.042 19.0673 299.011 19.0817 298.98C19.2933 298.618 19.5795 298.335 19.9371 298.124C20.3118 297.906 20.7123 297.797 21.1443 297.797ZM197.26 289.123C197.674 289.012 198.091 289.012 198.507 289.123C198.813 289.195 199.078 289.334 199.304 289.543C199.535 289.693 199.722 289.884 199.862 290.121L199.908 290.203C200.235 290.758 200.286 291.394 200.145 292.012C199.972 292.777 199.268 293.472 198.507 293.652L198.481 293.658L198.455 293.665C198.147 293.762 197.834 293.776 197.525 293.705C197.214 293.69 196.924 293.598 196.658 293.428C196.321 293.209 196.038 292.929 195.82 292.59C195.648 292.322 195.557 292.032 195.543 291.72C195.488 291.514 195.488 291.308 195.543 291.101C195.557 290.789 195.648 290.499 195.82 290.231L196.186 289.758L196.224 289.727C196.516 289.434 196.862 289.234 197.26 289.123ZM168.455 273.968C172.206 273.968 172.201 279.793 168.455 279.793C164.706 279.793 164.711 273.968 168.455 273.968ZM31.1373 273.232C31.5324 273.144 31.9271 273.16 32.3192 273.284C32.5566 273.384 32.7912 273.484 33.0258 273.582L33.6266 274.046C33.7382 274.14 33.7925 274.243 33.8956 274.377L34.0242 274.546C34.2104 274.796 34.2147 274.849 34.4191 275.38C34.5564 275.889 34.5564 276.399 34.4191 276.909C34.353 277.156 34.2531 277.388 34.1244 277.602C34.0067 277.808 33.8659 277.989 33.7073 278.156L33.6266 278.237C33.3577 278.527 33.0401 278.73 32.6738 278.851C32.4421 278.985 32.1932 279.052 31.9271 279.052C31.5324 279.14 31.1373 279.123 30.7456 278.999C30.5083 278.9 30.2736 278.8 30.0388 278.702L29.4382 278.237L28.9748 277.637L28.8269 277.283L28.6772 276.93L28.5714 276.141C28.557 275.732 28.64 275.354 28.8257 274.999C28.8972 274.75 29.0234 274.529 29.2062 274.346C29.3381 274.122 29.5151 273.945 29.7385 273.813C29.9214 273.63 30.142 273.504 30.3908 273.433C30.6227 273.299 30.8716 273.232 31.1373 273.232ZM216.645 269.071C216.956 269.06 217.249 269.125 217.518 269.269C217.611 269.3 217.704 269.341 217.792 269.387C218.138 269.59 218.413 269.864 218.616 270.208C218.781 270.472 218.874 270.755 218.888 271.062C218.949 271.338 218.944 271.616 218.869 271.892L218.845 271.975C218.781 272.201 218.688 272.41 218.562 272.602C218.55 272.625 218.536 272.648 218.519 272.668C218.326 272.972 218.072 273.22 217.758 273.407C217.408 273.607 217.035 273.71 216.628 273.713C215.819 273.713 215.12 273.276 214.693 272.602C214.634 272.507 214.6 272.387 214.556 272.29C214.519 272.198 214.459 272.082 214.428 271.975C214.319 271.568 214.319 271.162 214.428 270.755C214.498 270.457 214.634 270.197 214.837 269.976C214.999 269.727 215.215 269.529 215.48 269.387C215.81 269.193 216.165 269.091 216.542 269.074L216.645 269.071ZM58.2875 266.222C58.6836 266.113 59.0775 266.105 59.471 266.197L59.5694 266.222C59.8838 266.296 60.1558 266.44 60.3902 266.651C60.6505 266.823 60.8597 267.05 61.011 267.33C61.2288 267.705 61.3375 268.112 61.3401 268.547C61.3375 268.983 61.2288 269.39 61.011 269.764C60.7965 270.128 60.5075 270.414 60.1445 270.629L59.8298 270.781C59.5665 270.946 59.2862 271.036 58.9826 271.049C58.7797 271.105 58.5763 271.105 58.3765 271.049C58.1701 271.049 57.9785 270.999 57.8014 270.895C57.6068 270.841 57.4406 270.743 57.2976 270.601C57.0487 270.44 56.8544 270.228 56.7114 269.961L56.4793 269.415L56.3995 268.808L56.4793 268.204L56.6055 267.906C56.7196 267.497 56.9259 267.142 57.2261 266.841C57.5265 266.543 57.8813 266.337 58.2875 266.222ZM200.166 261.391C200.583 261.26 200.999 261.242 201.413 261.333C201.693 261.333 201.957 261.405 202.2 261.549C202.466 261.623 202.695 261.754 202.889 261.95C203.23 262.169 203.496 262.462 203.693 262.825L204.007 263.573C204.197 264.056 204.128 264.771 204.014 265.257C203.919 265.658 203.737 266.008 203.464 266.304C203.328 266.537 203.145 266.72 202.912 266.857C202.648 267.1 202.342 267.27 201.995 267.372L201.899 267.399L201.865 267.407C201.86 267.41 201.854 267.41 201.848 267.41C201.845 267.413 201.839 267.413 201.837 267.413C201.7 267.448 201.559 267.467 201.413 267.474C200.999 267.564 200.583 267.548 200.166 267.417C199.921 267.312 199.671 267.207 199.422 267.101C199.211 266.941 199.001 266.777 198.79 266.615C198.627 266.402 198.464 266.191 198.301 265.982C198.072 265.624 197.949 265.234 197.931 264.818C197.857 264.542 197.857 264.267 197.931 263.989C197.931 263.704 198.003 263.444 198.143 263.2C198.27 262.811 198.484 262.477 198.79 262.193C199.001 262.03 199.211 261.866 199.422 261.706C199.671 261.6 199.921 261.494 200.166 261.391ZM17.6972 251.139C18.1289 251.022 18.5611 251.022 18.9931 251.139L19.5736 251.382C19.8598 251.537 20.086 251.746 20.2576 252.012C20.4751 252.247 20.6207 252.525 20.6952 252.843C20.8642 253.278 20.8441 253.968 20.7096 254.412C20.5581 254.916 20.3234 255.317 19.9601 255.695C19.3564 256.32 18.4292 256.5 17.6085 256.31C17.3822 256.259 17.1675 256.159 16.9731 256.035C16.3525 255.652 15.9348 254.982 15.9377 254.24C15.9377 254.16 15.9434 254.08 15.9549 254C15.9148 253.836 15.9002 253.668 15.9063 253.489L15.992 252.843L15.9975 252.825C16.1122 252.416 16.3182 252.061 16.6183 251.76C16.8959 251.485 17.2194 251.286 17.5894 251.167L17.6828 251.139H17.6972ZM233.578 186.836C232.797 180.422 229.859 173.522 220.897 177.288L220.23 177.538C218.014 178.378 215.429 179.483 214.08 181.423C213.149 182.76 213.464 185.352 213.335 186.913C212.751 191.987 213.064 197.055 213.674 202.107C214.459 213.951 211.971 226.223 207.018 236.986C211.975 245.016 218.609 252.503 227.659 255.85C228.043 246.721 229.827 237.761 231.727 228.854L231.803 228.466C232.563 224.449 232.943 220.327 235.579 216.987C240.94 211.161 248.312 214.459 251.841 205.1C251.099 204.725 251.509 203.442 252.401 203.689C255.496 204.237 255.998 198.496 253.88 197.113C251.674 195.766 253.895 193.281 252.957 191.489C252.432 190.715 251.302 190.689 250.79 189.799C249.432 186.52 256.227 184.42 248.236 180.724C246.6 180.141 244.772 180.502 243.123 180.496C240.696 180.722 238.768 182.434 236.548 182.972C238.965 189.234 232.867 195.265 227.366 190.264C224.37 193.096 221.021 199.555 228.301 196.544C231.864 194.163 234.931 191.088 239.067 189.622L239.154 189.595C240.689 189.09 247.407 185.824 247.074 188.651C244.558 191.082 240.407 191.054 237.493 193.027C233.452 194.898 230.869 199.429 226.032 199.366C224.917 206.144 232.601 202.021 235.462 200.151L236.254 199.72C240.291 197.539 244.387 195.517 249.093 195.49C250.393 195.48 250.386 197.486 249.093 197.502C242.96 197.541 237.967 201.378 232.83 204.232C232.323 208.188 238.111 206.457 240.307 205.873C242.611 205.549 246.309 203.056 248.324 204.373C249.112 206.4 245.644 206.249 244.436 206.865C249.95 209.515 245.119 211.184 243.641 207.11L243.208 207.257C239.516 208.5 230.563 211.057 231.628 204.797C230.277 205.394 228.629 205.752 227.137 205.42C223.413 210.933 217.473 208.799 226.106 205.042C224.16 204.137 223.512 200.64 225.38 199.338C218.584 198.923 223.629 191.787 226.442 189.408C226.177 189.139 225.919 188.866 225.68 188.588C224.057 189.361 222.352 189.83 220.53 189.997C218.786 190.154 218.397 187.181 220.118 186.939C221.964 186.677 223.663 186.185 225.288 185.257C227.75 184.192 228.591 188.767 231.056 188.929C232.4 189.195 233.31 188.015 233.578 186.836ZM176.366 245.853C176.962 245.853 177.49 246.102 177.922 246.497C178.354 246.892 178.541 247.486 178.567 248.052C178.578 248.355 178.515 248.639 178.377 248.903C178.289 249.174 178.137 249.41 177.922 249.61C177.523 250.007 176.93 250.254 176.366 250.254C175.772 250.254 175.242 250.004 174.81 249.61C174.378 249.212 174.191 248.622 174.166 248.052C174.155 247.751 174.219 247.468 174.355 247.204C174.435 246.96 174.565 246.742 174.748 246.557L174.81 246.497C175.211 246.095 175.803 245.853 176.366 245.853ZM194.398 232.271L194.493 232.272C194.997 232.276 195.463 232.402 195.897 232.654C196.087 232.799 196.275 232.943 196.462 233.089C196.807 233.439 197.044 233.848 197.177 234.321C197.311 234.813 197.311 235.309 197.177 235.801C197.131 236.085 197.025 236.36 196.859 236.597C196.612 237.007 196.287 237.336 195.874 237.58C195.449 237.829 194.987 237.952 194.493 237.955C193.999 237.952 193.537 237.829 193.11 237.58C192.699 237.336 192.372 237.007 192.13 236.597C191.961 236.36 191.855 236.085 191.809 235.801C191.675 235.309 191.675 234.813 191.809 234.321C191.931 233.882 192.145 233.497 192.452 233.165L192.524 233.089C192.776 232.817 193.074 232.626 193.421 232.514C193.724 232.354 194.05 232.272 194.398 232.271ZM56.788 232.424C57.0001 232.367 57.2089 232.367 57.4206 232.424C57.7353 232.439 58.0297 232.534 58.3019 232.706C58.462 232.832 58.6223 232.955 58.7824 233.079L58.9221 233.245C59.2207 233.61 59.2282 233.672 59.4574 234.226C59.552 234.535 59.5664 234.845 59.4977 235.154C59.4977 235.363 59.4433 235.558 59.34 235.738C59.2831 235.936 59.1858 236.108 59.0399 236.25C58.9367 236.425 58.7996 236.566 58.6248 236.669C58.4019 236.872 58.1387 237.012 57.8355 237.084L57.22 237.166C57.1403 237.156 57.0572 237.145 56.9772 237.135C56.8807 237.133 56.7868 237.122 56.695 237.104L56.6021 237.084L56.5175 237.061C56.4055 237.028 56.2963 236.985 56.1904 236.929C55.9902 236.872 55.8156 236.772 55.6666 236.623C55.4094 236.456 55.2034 236.233 55.0547 235.956L55.0146 235.864C54.9602 235.767 54.9144 235.666 54.8799 235.558C54.7828 235.386 54.7342 235.203 54.7313 235.005C54.6744 234.742 54.6782 234.482 54.7464 234.221L54.7714 234.134L54.9917 233.61C55.1062 233.434 55.2263 233.252 55.3805 233.106C55.4734 233.024 55.7006 232.847 55.8285 232.757L55.9069 232.706C56.1789 232.534 56.4736 232.439 56.788 232.424ZM22.2973 228.329C22.7092 226.706 24.8378 226.194 25.9964 227.354C27.1548 228.514 26.6431 230.644 25.0212 231.056L24.835 231.102C23.2671 231.5 21.8538 230.083 22.2515 228.514L22.2973 228.329ZM218.662 215.085C218.65 214.925 218.857 214.868 218.96 214.963C220.339 216.2 221.216 217.682 222.89 218.642C224.573 219.605 226.307 219.526 228.06 220.148C228.655 220.36 228.659 221.156 228.06 221.365C224.741 222.525 218.914 218.593 218.662 215.085ZM62.7278 214.833C63.0971 214.719 63.4691 214.702 63.8381 214.784C64.0898 214.784 64.3242 214.848 64.5387 214.974C64.7763 215.04 64.9797 215.16 65.1538 215.332C65.363 215.455 65.5289 215.624 65.6546 215.833C65.9009 216.103 66.0668 216.417 66.1524 216.777L66.2496 217.52L66.1524 218.261C66.0578 218.482 65.9635 218.705 65.8719 218.926L65.6162 219.272C65.4092 219.549 65.376 219.552 64.8735 219.925C64.5534 220.128 64.2072 220.241 63.8381 220.254C63.5918 220.323 63.3457 220.323 63.0971 220.254C62.8482 220.254 62.6134 220.192 62.3962 220.066C62.1614 219.999 61.9557 219.879 61.7808 219.708C61.4779 219.51 61.2404 219.249 61.0656 218.926C60.9712 218.705 60.8771 218.482 60.7855 218.261L60.6851 217.52L60.7855 216.777L60.791 216.756C60.9226 216.291 61.1574 215.887 61.4947 215.546L62.05 215.116C62.2673 214.977 62.4933 214.905 62.7278 214.833ZM196.279 215.388C197.071 215.172 197.941 215.401 198.522 215.982C199.103 216.563 199.332 217.43 199.114 218.224C198.9 218.997 198.278 219.624 197.503 219.834C197.272 219.896 197.036 219.93 196.799 219.919C196.401 219.917 196.03 219.816 195.683 219.616L195.237 219.269C195.02 219.068 194.868 218.831 194.779 218.556C194.639 218.293 194.576 218.009 194.588 217.703L194.585 217.649C194.576 217.54 194.591 217.43 194.624 217.325C194.624 217.214 194.642 217.104 194.67 216.998C194.879 216.226 195.509 215.601 196.279 215.388ZM25.4358 207.634C25.6904 207.626 25.9279 207.678 26.1481 207.794C26.3799 207.869 26.5772 207.995 26.7433 208.179C26.9263 208.344 27.0522 208.545 27.1266 208.774C27.2439 208.995 27.2954 209.233 27.2868 209.486C27.2868 209.822 27.201 210.134 27.0351 210.42C26.9377 210.547 26.8405 210.672 26.7433 210.795C26.5144 211.027 26.2426 211.185 25.9279 211.274L25.7447 211.337C25.4759 211.435 25.2126 211.44 24.9322 211.404C24.6375 211.363 24.3655 211.283 24.1255 211.099C23.8906 210.962 23.7049 210.775 23.5676 210.541L23.4103 210.168C23.376 210.043 23.3616 209.854 23.3531 209.722C23.3531 209.702 23.3531 209.684 23.3501 209.664C23.3501 209.553 23.3845 209.28 23.4128 209.169C23.4761 208.935 23.6046 208.711 23.7507 208.522C23.8766 208.325 24.0482 208.169 24.26 208.056L24.2788 208.041L24.2999 208.027C24.3655 207.981 24.4344 207.935 24.5031 207.886C24.7892 207.72 25.1011 207.634 25.4358 207.634ZM173.17 205.6C173.628 205.6 174.055 205.718 174.449 205.947C174.464 205.953 174.477 205.959 174.489 205.965C174.867 206.188 175.168 206.489 175.391 206.867C175.62 207.259 175.734 207.683 175.734 208.135C175.734 208.591 175.62 209.012 175.391 209.404C175.168 209.782 174.867 210.083 174.489 210.306C174.477 210.314 174.464 210.32 174.449 210.326C174.055 210.555 173.628 210.669 173.17 210.672C172.715 210.669 172.289 210.555 171.895 210.326C171.122 209.874 170.638 209.028 170.638 208.135C170.638 207.241 171.122 206.397 171.895 205.947C172.289 205.718 172.715 205.6 173.17 205.6ZM54.362 202.289L54.4399 202.288C54.7431 202.277 55.0261 202.339 55.2864 202.48C55.5582 202.568 55.7957 202.72 55.9962 202.935L56.4139 203.285L56.5352 203.382C56.5551 203.399 56.5747 203.416 56.5938 203.434C56.8746 203.717 57.0662 204.049 57.1749 204.432C57.2093 204.653 57.2376 204.87 57.2608 205.091C57.3235 205.664 56.9861 206.251 56.6142 206.657C56.4139 206.873 56.1762 207.024 55.9019 207.115C55.6386 207.253 55.3525 207.316 55.049 207.305C54.4281 207.251 53.8391 207.119 53.3929 206.637C53.341 206.58 53.2924 206.52 53.2412 206.459L52.8836 206.048C52.6118 205.772 52.4227 205.449 52.32 205.077C52.2911 204.88 52.2657 204.684 52.2399 204.489C52.2138 203.903 52.4999 203.353 52.8836 202.935C53.2378 202.548 53.8385 202.311 54.362 202.289ZM39.9209 196.259C42.8959 196.259 42.8902 200.878 39.9209 200.878C36.9481 200.878 36.9538 196.259 39.9209 196.259ZM189.512 189.783L189.606 189.786C190.099 189.788 190.559 189.912 190.986 190.16L191.54 190.586C191.878 190.93 192.112 191.332 192.244 191.795C192.275 192.039 192.307 192.283 192.341 192.523C192.356 192.901 192.275 193.253 192.104 193.579C191.996 193.917 191.806 194.212 191.54 194.461C191.292 194.727 190.999 194.917 190.659 195.025C190.333 195.197 189.981 195.277 189.606 195.264C189.112 195.26 188.651 195.138 188.225 194.888C188.039 194.745 187.855 194.601 187.669 194.461C187.358 194.144 187.135 193.779 187 193.359L186.969 193.253L186.869 192.523C186.854 192.147 186.934 191.795 187.106 191.468C187.214 191.128 187.404 190.836 187.669 190.586C187.919 190.321 188.214 190.131 188.551 190.023C188.849 189.866 189.17 189.784 189.512 189.783ZM176.112 181.137C176.377 181.128 176.624 181.182 176.855 181.302C177.092 181.38 177.299 181.515 177.473 181.701C177.842 181.996 178.068 182.585 178.068 183.064C178.068 183.542 177.842 184.133 177.473 184.427C177.233 184.664 176.95 184.831 176.624 184.923L176.112 184.992C175.613 185.015 175.107 184.753 174.752 184.427C174.68 184.362 174.613 184.295 174.541 184.232C174.217 183.935 174.078 183.491 174.057 183.064C174.049 182.837 174.098 182.626 174.201 182.428C174.266 182.222 174.381 182.048 174.541 181.896C174.613 181.832 174.68 181.767 174.752 181.701C175.139 181.343 175.59 181.163 176.112 181.137ZM261.018 165.733C262.897 163.442 261.803 161.81 258.979 162.377C254.112 163.035 249.532 166.113 245.246 168.322C240.567 170.795 235.746 172.834 230.974 175.158C232.943 176.368 234.409 178.262 235.527 180.424C237.76 178.727 240.613 177.915 243.4 177.809C248.455 172.963 256.827 171.853 261.018 165.733ZM38.9198 173.342C39.4295 173.345 39.9071 173.464 40.3545 173.704L40.45 173.757L41.0622 174.232C41.3599 174.507 41.5687 174.834 41.6916 175.209C41.8805 175.57 41.9663 175.962 41.952 176.38C41.9663 176.798 41.8805 177.187 41.6916 177.549C41.5687 177.927 41.3599 178.25 41.0622 178.525C40.8935 178.746 40.676 178.918 40.4157 179.044C40.1723 179.144 39.9322 179.247 39.6891 179.35C39.4172 179.435 39.1026 179.447 38.8078 179.461C38.2729 179.458 37.7754 179.324 37.3113 179.054L36.7109 178.591C36.4219 178.321 36.2157 178.004 36.0954 177.634C35.9252 177.309 35.8389 176.962 35.8389 176.591L35.8411 176.49C35.8411 176.467 35.8411 176.441 35.8442 176.415C35.8783 176.145 35.9157 175.876 35.9524 175.607C36.0471 175.212 36.2273 174.865 36.4962 174.574C36.5649 174.435 36.6564 174.324 36.774 174.232C37.1514 173.854 37.5975 173.597 38.1127 173.45C38.3817 173.417 38.6506 173.379 38.9198 173.342ZM171.665 165.754L171.751 165.756C172.137 165.756 172.496 165.853 172.828 166.046C172.973 166.157 173.116 166.268 173.26 166.38C173.525 166.646 173.709 166.962 173.808 167.322L173.887 167.888C173.895 168.184 173.834 168.456 173.7 168.711C173.615 168.975 173.468 169.204 173.26 169.399C173.067 169.608 172.839 169.754 172.573 169.84C172.321 169.974 172.046 170.035 171.751 170.022C171.368 170.022 171.008 169.925 170.676 169.731C170.532 169.621 170.386 169.51 170.244 169.399C170.003 169.154 169.828 168.869 169.724 168.546L169.697 168.456L169.62 167.888C169.609 167.594 169.669 167.322 169.803 167.067C169.889 166.802 170.038 166.573 170.244 166.38C170.439 166.17 170.668 166.025 170.931 165.939C171.159 165.818 171.405 165.757 171.665 165.754ZM55.6417 162.653L55.7415 162.654C56.3108 162.657 56.84 162.801 57.3321 163.087C57.5438 163.25 57.7558 163.413 57.9672 163.58C58.3593 163.971 58.6281 164.436 58.78 164.971L58.8913 165.807C58.9085 166.242 58.817 166.646 58.6195 167.021C58.494 167.414 58.2763 167.752 57.9672 168.039C57.6843 168.345 57.3465 168.562 56.9545 168.689C56.5798 168.886 56.1763 168.978 55.7415 168.96C55.1721 168.96 54.6429 168.817 54.1508 168.531C53.9394 168.368 53.7276 168.201 53.5131 168.039C53.1238 167.643 52.8549 167.178 52.7032 166.646L52.5916 165.807C52.5744 165.375 52.6659 164.969 52.8634 164.593C52.9893 164.204 53.2067 163.863 53.5131 163.58C53.7992 163.271 54.1364 163.053 54.5285 162.927C54.8745 162.744 55.2447 162.654 55.6417 162.653ZM161.575 154.779C161.836 154.71 162.096 154.71 162.356 154.779C162.745 154.797 163.109 154.914 163.446 155.129L164.038 155.587C164.047 155.595 164.056 155.605 164.064 155.615C164.422 155.976 164.67 156.404 164.808 156.893L164.911 157.663C164.925 158.061 164.842 158.434 164.662 158.778C164.555 159.108 164.378 159.396 164.133 159.644L164.038 159.736C163.772 160.023 163.46 160.226 163.097 160.344C162.868 160.478 162.619 160.545 162.356 160.545C161.967 160.633 161.575 160.616 161.186 160.492C160.954 160.392 160.72 160.295 160.486 160.198L160.41 160.154C159.527 159.671 158.98 158.657 158.98 157.663C158.98 156.67 159.527 155.653 160.41 155.168C160.437 155.157 160.459 155.142 160.486 155.129C160.823 154.914 161.186 154.797 161.575 154.779Z" fill="black"/>
<path fill-rule="evenodd" clip-rule="evenodd" d="M125.891 19.664C168.951 21.0285 171.548 41.5015 171.548 75.8352C171.548 110.169 149.21 131.805 140.985 135.583C132.76 139.36 111.102 155.587 91.5564 148.109C72.012 140.631 77.672 109.038 77.672 95.4642C77.672 81.8891 82.8302 18.2994 125.891 19.664Z" fill="white"/>
<path fill-rule="evenodd" clip-rule="evenodd" d="M143.36 124.307C135.453 128.725 126.398 128.896 117.892 126.116C112.791 124.453 108.114 121.88 103.736 118.804C99.9277 116.127 96.5301 113.158 93.1623 110.004C90.3903 103.885 87.9217 97.7771 86.7652 91.119C85.7293 85.1423 85.5925 78.9367 86.7936 72.9721C95.6797 65.6555 104.512 58.2787 113.331 50.8792C117.823 47.1103 122.327 43.3621 126.884 39.6734C129.198 37.8005 131.491 35.8991 133.795 34.0177C134.176 33.7083 134.554 33.3991 134.934 33.0898C139.696 36.5778 144.799 39.5678 149.525 43.1127C151.999 44.9713 154.406 46.95 156.697 49.0316C157.9 50.1229 159.072 51.2483 160.217 52.4024C161.263 53.4566 162.274 54.9683 163.759 55.3666C163.962 55.4207 164.153 55.4322 164.333 55.4065C166.318 72.806 167.729 91.5946 159.224 107.396C155.514 114.29 150.253 120.452 143.36 124.307ZM91.9178 130.701C90.8291 129.702 92.4514 128.087 93.536 129.08C100.348 135.325 109.251 138.635 118.244 140.168C119.696 140.416 119.077 142.623 117.636 142.376C108.246 140.777 99.0177 137.21 91.9178 130.701ZM83.7454 140.282C82.4454 139.584 83.6032 137.607 84.9005 138.303C90.2075 141.153 96.0263 142.632 101.931 143.631C103.382 143.878 102.763 146.085 101.322 145.841C95.2179 144.807 89.2284 143.226 83.7454 140.282ZM105.34 43.7689C109.744 39.8138 114.476 36.0506 119.474 32.8752C124.532 29.6621 130.057 27.7406 136.027 27.6948C135.61 28.0298 135.212 28.4021 134.808 28.7483C133.682 29.7137 132.556 30.6845 131.432 31.6524C129.183 33.5911 126.93 35.5267 124.709 37.4971C120.338 41.3803 115.952 45.2433 111.59 49.1351C103.203 56.6149 94.9985 64.2577 86.971 72.1216C87.0144 71.9298 87.0604 71.7379 87.1051 71.5463C89.7633 60.435 96.9932 51.2685 105.34 43.7689ZM139.855 28.1787C139.884 28.0928 139.904 28.0095 139.915 27.9295C151.374 29.4244 160.944 37.8633 164.107 48.9746C163.832 49.3584 163.681 49.8137 163.737 50.2974C163.767 50.541 163.796 50.7873 163.824 51.0307C163.431 50.6415 163.028 50.2776 162.685 49.9311C161.544 48.7742 160.374 47.6485 159.173 46.5517C156.715 44.3096 154.162 42.2135 151.473 40.2576C146.795 36.8556 141.732 33.7285 136.156 32.0962C136.523 31.7954 136.888 31.4948 137.258 31.1969C138.359 30.3004 139.38 29.5618 139.855 28.1787ZM160.397 16.2974C153.362 8.60268 143.62 2.96709 133.362 1.00825C123.566 -0.864542 113.423 0.369671 104.169 4.00944C84.803 11.6268 69.5227 28.3767 62.3676 47.7863C58.1964 59.0949 56.8288 71.4917 58.0822 83.4622C59.3292 95.3775 62.914 107.683 69.4369 117.821C70.0347 118.749 70.6899 119.639 71.3766 120.501C71.0704 123.999 69.9033 127.43 68.0665 130.415C67.9677 130.575 67.8636 130.731 67.7607 130.888C65.8799 132.298 63.9291 133.621 62.0246 134.986C60.3741 136.171 58.7405 137.385 57.1884 138.695C55.7234 139.932 54.022 141.31 53.0301 142.981C52.2173 144.348 51.8854 146.208 52.9949 147.513C54.3318 149.085 56.5971 148.53 58.408 148.53C58.5631 148.53 58.7178 148.533 58.8726 148.536C59.4165 148.877 59.9767 149.188 60.5194 149.475C66.0038 152.384 71.5082 155.263 77.0183 158.126C87.9934 163.833 98.9216 169.77 110.122 175.025C115.312 177.461 120.867 179.592 126.681 179.584C132.134 179.575 137.063 177.407 141.321 174.112C146.173 170.357 150.23 165.589 154.166 160.916C155.74 159.045 157.281 157.152 158.795 155.233C161.701 154.263 164.585 153.98 167.177 155.852C169.257 157.356 171.998 155.311 172.047 153.055C172.064 152.252 172.029 151.462 171.944 150.683C171.424 145.872 169.071 141.52 166.421 137.482C164.975 135.274 163.45 133.106 161.916 130.958C161.556 130.451 161.201 129.945 160.857 129.428C167.017 120.352 171.903 110.286 174.908 99.7675C178.063 88.699 179.136 77.2214 178.433 65.7529C177.351 48.1757 172.533 29.5733 160.397 16.2974Z" fill="black"/>
<path fill-rule="evenodd" clip-rule="evenodd" d="M145.847 111.584C143.74 112.195 141.479 112.249 139.33 111.618C137.381 111.046 135.381 109.786 133.947 108.119C132.673 106.638 131.848 104.839 131.881 102.919C131.883 102.7 131.962 102.517 132.082 102.374C132.212 102.221 132.394 102.116 132.587 102.071C132.788 102.023 132.999 102.04 133.179 102.122C133.342 102.195 133.481 102.322 133.568 102.504C133.789 102.794 134.008 103.08 134.229 103.358C136 105.548 137.716 107.184 140.381 107.772C141.827 108.091 143.27 107.95 144.595 107.463C146.014 106.943 147.295 106.029 148.3 104.858C148.755 104.328 149.29 104.113 149.814 104.109C150.408 104.105 150.996 104.381 151.437 104.823C151.872 105.256 152.163 105.846 152.19 106.464C152.213 107.004 152.036 107.571 151.567 108.075C150.021 109.737 148.017 110.955 145.847 111.584ZM145.784 84.1518C147.944 85.4661 151.236 88.5309 148.912 91.7896C146.176 94.6634 142.237 91.3682 140.297 89.8791C138.497 88.7247 136.474 91.6934 138.145 93.0415C152.17 103.435 157.862 84.4959 146.877 82.6058C145.667 82.3985 145.218 83.7453 145.784 84.1518ZM125.574 78.3675C124.88 77.9231 124.063 77.7714 123.158 78.1833C122.45 78.5057 121.21 79.5789 120.347 80.9893C119.755 81.9554 119.337 83.0881 119.424 84.2669C119.444 84.542 119.344 84.7439 119.184 84.8929C119.058 85.0108 118.875 85.0975 118.663 85.1246C118.481 85.1477 118.278 85.1273 118.113 85.0745C117.799 84.9769 117.632 84.7723 117.57 84.607C116.964 82.9987 117.224 81.2061 117.903 79.5883C118.817 77.4042 120.477 75.575 121.566 74.9856C123.428 73.9762 125.624 73.9301 127.488 74.9585C129.075 75.8338 130.067 77.247 131.055 78.6873C131.264 78.9935 131.473 79.297 131.688 79.5951C132.119 80.194 132.162 80.7875 131.996 81.2956C131.81 81.8606 131.339 82.3362 130.748 82.5841C130.203 82.8145 129.57 82.847 129.01 82.6112C128.537 82.4107 128.102 82.0218 127.828 81.3606C127.366 80.2482 126.594 79.0206 125.574 78.3675ZM160.839 80.843C160.363 81.091 159.992 81.1668 159.464 81.0083C159.172 80.9202 158.884 80.7522 158.658 80.526C158.434 80.3024 158.273 80.0233 158.21 79.7144C158.055 78.9529 157.64 78.2388 157.045 77.7741C156.537 77.3757 155.897 77.1657 155.186 77.2836C154.419 77.4123 153.689 77.9042 153.186 78.4854C153.018 78.6792 152.885 78.9 152.754 79.1195C152.505 79.5287 152.265 79.9095 151.922 80.2103C151.792 80.3254 151.597 80.404 151.408 80.404C151.332 80.404 151.253 80.3918 151.179 80.3688C150.415 79.6019 150.269 79.0193 150.293 78.4434C150.319 77.8378 150.557 77.2253 150.943 76.6535C151.846 75.3135 153.561 74.2133 154.719 73.964C156.304 73.6239 157.878 74.0331 159.14 74.9192C160.439 75.8311 161.401 77.247 161.701 78.8418C161.774 79.2266 161.743 79.6412 161.596 80.0002C161.453 80.3525 161.205 80.6533 160.839 80.843ZM129.069 64.0732C128.119 65.0009 126.993 65.1447 125.853 65.2725C125.221 65.3441 124.716 65.4019 124.219 65.5142C122.852 65.823 121.501 66.288 120.269 66.9576C118.981 67.6578 117.576 68.5021 116.568 69.5837C116.327 69.8412 116.1 70.1112 115.874 70.3818C115.667 70.6287 115.468 70.8663 115.258 71.0955C115.017 71.3586 114.788 71.6343 114.561 71.9095C114.42 72.1416 114.391 72.1986 114.363 72.2581C114.321 72.3474 114.271 72.4473 114.214 72.5546C114.137 72.7013 114.046 72.8622 113.951 73.0078C113.793 73.2742 113.708 73.3476 113.635 73.3804C113.513 73.4348 113.396 73.4614 113.285 73.447C113.18 73.4334 113.081 73.3829 112.982 73.3001C112.494 72.8871 112.349 72.2092 112.364 71.4897C112.387 70.3979 112.79 69.1891 113.161 68.4459C114.023 66.7193 115.219 64.9243 116.657 63.6354C118.298 62.1644 120.094 61.0508 122.155 60.2833C123.437 59.8062 124.92 59.3685 126.316 59.4237C127.322 59.4636 128.281 59.7625 129.073 60.5093C129.56 60.9677 129.794 61.6197 129.794 62.2712C129.794 62.9357 129.551 63.6041 129.069 64.0732ZM162.775 72.5683C162.714 72.6676 162.63 72.736 162.536 72.7771C162.439 72.8202 162.33 72.8325 162.225 72.8149C162.12 72.7973 162.022 72.75 161.943 72.6777C161.869 72.6085 161.81 72.5168 161.785 72.4042C161.154 69.6278 159.927 67.562 157.31 66.2299C156.023 65.5746 154.541 65.1582 153.14 64.8263C152.733 64.7298 152.303 64.6674 151.869 64.604C150.511 64.4055 149.142 64.1781 148.258 63.0791C147.724 62.4171 147.5 61.5705 147.627 60.7962C147.746 60.0672 148.171 59.3987 148.944 58.998C150.871 58.0012 153.264 58.9795 155.21 59.8126C155.354 59.8744 155.496 59.9351 155.634 59.9936C157.537 60.7974 159.271 61.8582 160.697 63.3753C161.828 64.5789 162.877 66.358 163.299 68.1884C163.651 69.7112 163.568 71.2658 162.775 72.5683Z" fill="black"/>
<path fill-rule="evenodd" clip-rule="evenodd" d="M165.859 89.0283C161.565 91.0986 155.575 88.0446 152.687 84.8469C151.637 83.6831 150.827 80.3513 151.23 78.2389C152.326 72.5169 156.44 69.0828 160.783 67.9101C166.803 66.2842 172.862 70.4032 172.156 75.2635C171.486 79.8703 170.472 86.5528 165.859 89.0283ZM136.634 78.037C136.29 84.2724 131.288 89.7301 125.308 91.3479C115.674 94.0388 110.913 87.2601 108.757 79.957C108.542 79.2321 108.038 77.0168 109.391 75.1171C114.707 67.6444 127.642 68.9182 134.103 70.9697C135.993 72.7797 136.767 75.3922 136.634 78.037ZM170.525 67.2821C170.522 67.2859 170.518 67.289 170.515 67.2928C170.493 67.2792 170.472 67.2655 170.449 67.2524C170.473 67.2627 170.5 67.2715 170.525 67.2821ZM178.585 68.0029C178.025 61.6541 158.123 64.0851 155.797 64.6054C149.447 66.4748 143.963 71.5607 136.863 69.325C129.505 61.1168 104.734 63.4708 99.5405 67.652C98.5574 67.2659 97.3616 67.4731 96.0955 67.8373C89.5914 67.6022 59.9 69.8464 65.9731 78.1549C66.8949 78.7958 67.8159 78.1441 67.8414 76.8257C99.5012 65.3862 96.4327 76.1008 100.186 74.8502C100.761 75.0155 101.358 75.1198 101.882 75.2296C104.788 76.1659 105.775 75.8759 106.157 79.1413C108.787 104.357 142.334 95.6539 139.582 74.9708C142.306 74.8218 144.688 73.6416 147.569 74.7933C149.569 94.2773 165.234 95.0632 169.948 88.3088C173.502 83.6221 172.093 76.5466 176.979 72.8593C178.907 74.4749 179.031 69.0219 178.585 68.0029Z" fill="black"/>
</svg>
