<svg width="60" height="60" viewBox="0 0 60 60" fill="none" xmlns="http://www.w3.org/2000/svg">
<path fill-rule="evenodd" clip-rule="evenodd" d="M30.0003 0.94397C45.8937 0.94397 58.779 13.9573 58.779 30C58.779 46.0426 45.8937 59.056 30.0003 59.056C14.107 59.056 1.22168 46.0426 1.22168 30C1.22168 13.9573 14.107 0.94397 30.0003 0.94397Z" fill="#FEFEFE"/>
<path d="M30.0005 0.133301C38.1711 0.133301 45.5738 3.48263 50.9285 8.87997C56.2831 14.2986 59.5898 21.744 59.5898 29.9786V30C59.5898 38.256 56.2831 45.7226 50.9285 51.12C45.5738 56.5173 38.1711 59.8666 30.0218 59.8666H30.0005C21.8298 59.8666 14.4271 56.5173 9.07247 51.12C3.7178 45.7013 0.411133 38.256 0.411133 30.0213V30C0.411133 21.744 3.7178 14.2773 9.07247 8.87997C14.4271 3.48263 21.8298 0.133301 29.9791 0.133301H30.0005ZM30.0005 1.75463H29.9791C22.2778 1.75463 15.2805 4.91197 10.2245 10.0106C5.14713 15.1306 2.01113 22.192 2.01113 30H2.03247V30.0213H2.01113C2.01113 37.808 5.14713 44.8693 10.2245 49.968C15.2805 55.088 22.2778 58.2453 30.0005 58.2453H30.0218C37.7231 58.2453 44.7205 55.088 49.7765 49.9893C54.8538 44.8693 57.9898 37.808 57.9898 30H57.9685V29.9786H57.9898C57.9898 22.192 54.8538 15.1306 49.7765 10.032C44.7205 4.91197 37.7231 1.75463 30.0005 1.75463Z" fill="#009B4C"/>
<path fill-rule="evenodd" clip-rule="evenodd" d="M7.79248 44.208L9.13648 43.3333C9.24315 43.2479 9.32848 43.1839 9.37115 43.1413C9.41381 43.0986 9.43515 43.0346 9.43515 42.9706C9.45648 42.9279 9.43515 42.8639 9.41381 42.7786C9.41381 42.7786 9.41381 42.7786 9.41381 42.7573H9.39248C9.39248 42.736 9.39248 42.736 9.37115 42.7146C9.37115 42.6933 9.37115 42.6719 9.39248 42.6506C9.39248 42.6506 9.41381 42.6293 9.41381 42.6079C9.43515 42.6079 9.45648 42.6079 9.47781 42.6079C9.52048 42.6079 9.52048 42.6293 9.54181 42.6506C9.54181 42.6506 9.54181 42.6506 9.56315 42.6719C9.56315 42.6719 9.56315 42.6719 9.56315 42.6933C9.60581 42.7786 9.64848 42.8426 9.69115 42.9279C9.75515 43.0133 9.79781 43.0986 9.86181 43.1839C9.90448 43.2479 9.94715 43.3333 9.98981 43.3973C10.0538 43.4613 10.0965 43.5253 10.1605 43.5893C10.1605 43.5893 10.1605 43.5893 10.1818 43.6106C10.2031 43.632 10.2031 43.6533 10.2245 43.6533C10.2245 43.6959 10.2458 43.7173 10.2458 43.7386C10.2458 43.7813 10.2245 43.7813 10.2031 43.8026C10.1605 43.8239 10.1178 43.8239 10.0538 43.7599C10.0111 43.7173 9.96848 43.7173 9.94715 43.6959C9.90448 43.6959 9.86181 43.6959 9.81915 43.6959C9.77648 43.7173 9.69115 43.7599 9.58448 43.8239L8.04848 44.8266C7.94181 44.8906 7.87781 44.9333 7.85648 44.9973C7.83515 45.0399 7.81381 45.0826 7.81381 45.1466C7.81381 45.1893 7.81381 45.2319 7.83515 45.2746C7.83515 45.2959 7.83515 45.2959 7.83515 45.3173C7.85648 45.3599 7.85648 45.4026 7.85648 45.424C7.85648 45.4666 7.85648 45.4879 7.81381 45.4879C7.79248 45.5093 7.77115 45.5093 7.74981 45.5093C7.72848 45.5093 7.70715 45.4879 7.68581 45.4666C7.68581 45.4666 7.66448 45.4453 7.66448 45.424C7.64315 45.4026 7.64315 45.3813 7.62181 45.3599C7.62181 45.3599 7.62181 45.3386 7.60048 45.3386C7.53648 45.1679 7.45115 45.0399 7.38715 44.9333C7.34448 44.8479 7.30181 44.784 7.23781 44.7199C7.19515 44.6559 7.15248 44.5919 7.08848 44.528C7.06715 44.5066 7.04581 44.4853 7.04581 44.4639C7.02448 44.4426 7.00315 44.4213 7.00315 44.3999C6.98181 44.3999 6.98181 44.3573 6.98181 44.3359C6.98181 44.3146 7.00315 44.2933 7.02448 44.2933C7.04581 44.2719 7.06715 44.2719 7.08848 44.2719C7.10981 44.2719 7.13115 44.2933 7.19515 44.3146C7.21648 44.3359 7.25915 44.3573 7.28048 44.3786C7.30181 44.3786 7.34448 44.3786 7.36581 44.3786C7.40848 44.3999 7.45115 44.3786 7.51515 44.3573C7.55781 44.3359 7.66448 44.2933 7.79248 44.208ZM5.08315 28.7626L3.84581 28.5493C3.82448 28.5279 3.80315 28.5279 3.78181 28.5279C3.76048 28.5279 3.71781 28.5279 3.67515 28.5066C3.52581 28.4853 3.41915 28.4853 3.31248 28.5066C3.22715 28.5066 3.14181 28.5493 3.07781 28.5919C3.03515 28.6346 2.99248 28.6773 2.94981 28.7626C2.92848 28.7839 2.92848 28.7839 2.92848 28.7839C2.92848 28.8053 2.90715 28.8266 2.88581 28.8479C2.88581 28.8479 2.86448 28.8479 2.82181 28.8479C2.80048 28.8479 2.77915 28.8266 2.75781 28.8266C2.75781 28.8053 2.75781 28.7839 2.75781 28.7626C2.75781 28.7199 2.77915 28.6773 2.80048 28.6133C2.80048 28.5919 2.80048 28.5706 2.82181 28.5493C2.82181 28.4853 2.84315 28.4426 2.84315 28.4213C2.84315 28.3786 2.84315 28.3146 2.86448 28.2293C2.86448 28.2079 2.86448 28.1866 2.86448 28.1653C2.86448 28.1013 2.86448 28.0373 2.86448 28.0159C2.88581 27.9733 2.88581 27.9306 2.90715 27.9093C2.92848 27.8879 2.99248 27.8666 3.07781 27.8453L5.01915 27.2479C5.06181 27.2266 5.08315 27.2266 5.10448 27.2053C5.10448 27.2053 5.12581 27.2053 5.12581 27.1839C5.12581 27.1839 5.12581 27.1626 5.10448 27.1413C5.08315 27.1413 5.06181 27.1199 5.04048 27.0986L3.22715 25.8826C3.20581 25.8613 3.20581 25.8613 3.18448 25.8399C3.18448 25.8186 3.18448 25.7973 3.18448 25.7546C3.18448 25.7546 3.18448 25.7546 3.18448 25.7333L3.20581 25.7119C3.20581 25.6479 3.22715 25.6053 3.22715 25.5626C3.24848 25.5199 3.24848 25.4773 3.24848 25.4346C3.26981 25.3919 3.26981 25.3493 3.26981 25.3066C3.26981 25.2639 3.26981 25.1999 3.26981 25.1573C3.26981 25.1146 3.26981 25.0933 3.26981 25.0719C3.26981 25.0506 3.29115 25.0293 3.29115 25.0079C3.29115 24.9866 3.29115 24.9653 3.31248 24.9439C3.33381 24.9439 3.35515 24.9439 3.39781 24.9439C3.44048 24.9439 3.46181 24.9866 3.46181 25.0506H3.44048C3.44048 25.0933 3.44048 25.136 3.46181 25.1573C3.46181 25.1999 3.46181 25.2213 3.48315 25.2426C3.50448 25.3279 3.54715 25.3706 3.61115 25.3919C3.67515 25.4346 3.76048 25.4559 3.88848 25.4773L3.99515 25.4986L5.42448 25.6479C5.63781 25.6693 5.78715 25.6693 5.87248 25.6479C5.97915 25.6266 6.06448 25.5626 6.10715 25.4986C6.12848 25.4773 6.14981 25.4559 6.17115 25.4133C6.17115 25.3919 6.17115 25.3919 6.17115 25.3919C6.17115 25.3706 6.19248 25.3279 6.21381 25.3279C6.21381 25.3066 6.23515 25.3066 6.25648 25.3066C6.29915 25.3279 6.32048 25.3279 6.34181 25.3493C6.34181 25.3706 6.34181 25.4133 6.34181 25.4773C6.34181 25.5199 6.32048 25.584 6.32048 25.6479C6.29915 25.6693 6.29915 25.6906 6.29915 25.6906C6.27781 25.7759 6.27781 25.8399 6.25648 25.9039C6.25648 25.9679 6.23515 26.0319 6.23515 26.0959C6.21381 26.2026 6.19248 26.3306 6.19248 26.4799C6.19248 26.5013 6.19248 26.5226 6.19248 26.5226C6.19248 26.5439 6.19248 26.5439 6.19248 26.5653C6.19248 26.5866 6.19248 26.608 6.19248 26.6293C6.19248 26.6506 6.17115 26.6719 6.17115 26.6933C6.14981 26.6933 6.12848 26.7146 6.08581 26.6933C6.06448 26.6933 6.04315 26.6933 6.04315 26.6719C6.02181 26.6719 6.02181 26.6293 6.00048 26.5866C6.00048 26.5439 5.97915 26.5013 5.95781 26.4799C5.93648 26.4373 5.91515 26.3946 5.87248 26.3733C5.82981 26.3519 5.76581 26.3306 5.70181 26.3306C5.68048 26.3306 5.65915 26.3306 5.61648 26.3093C5.57381 26.3093 5.53115 26.3093 5.50981 26.3093C5.48848 26.3093 5.48848 26.3093 5.46715 26.3093L4.22981 26.1813C4.18715 26.1813 4.16581 26.1813 4.16581 26.1813C4.14448 26.1813 4.14448 26.1813 4.14448 26.1813C4.12315 26.2026 4.14448 26.2026 4.14448 26.2239C4.14448 26.2239 4.16581 26.2453 4.18715 26.2453L5.95781 27.4613H5.97915C6.00048 27.4826 6.02181 27.504 6.04315 27.504C6.04315 27.5253 6.04315 27.5466 6.04315 27.5679C6.04315 27.5893 6.02181 27.6106 6.02181 27.6319C6.00048 27.6319 5.97915 27.6533 5.93648 27.6533C5.91515 27.6533 5.91515 27.6746 5.91515 27.6746L3.90981 28.2293C3.88848 28.2293 3.88848 28.2506 3.86715 28.2506C3.84581 28.2506 3.84581 28.2719 3.84581 28.2719C3.84581 28.2933 3.84581 28.2933 3.86715 28.3146C3.88848 28.3146 3.90981 28.3146 3.95248 28.3359L5.14715 28.5279L5.18981 28.5493C5.29648 28.5493 5.36048 28.5493 5.44581 28.5493C5.50981 28.5279 5.57381 28.5066 5.61648 28.4639C5.65915 28.4426 5.68048 28.3786 5.72315 28.3146C5.72315 28.2933 5.74448 28.2933 5.74448 28.2933V28.2719C5.74448 28.2719 5.74448 28.2506 5.76581 28.2506C5.76581 28.2079 5.78715 28.1866 5.80848 28.1653C5.82981 28.1653 5.85115 28.1653 5.87248 28.1653C5.91515 28.1653 5.93648 28.1866 5.95781 28.2079C5.95781 28.2079 5.95781 28.2506 5.95781 28.2933C5.95781 28.3573 5.93648 28.4213 5.91515 28.5279C5.89381 28.5493 5.89381 28.5493 5.89381 28.5706C5.87248 28.6559 5.85115 28.6986 5.85115 28.7199C5.85115 28.7626 5.85115 28.8266 5.85115 28.8693C5.82981 28.9119 5.82981 28.9759 5.85115 29.0186C5.85115 29.0399 5.85115 29.0613 5.82981 29.1039C5.82981 29.1253 5.82981 29.1466 5.82981 29.1679C5.82981 29.1893 5.80848 29.2319 5.80848 29.2319C5.78715 29.2533 5.76581 29.2533 5.72315 29.2533C5.68048 29.2319 5.65915 29.2106 5.63781 29.1253C5.63781 29.1039 5.63781 29.0826 5.63781 29.0613C5.61648 29.0399 5.61648 29.0186 5.59515 28.9973C5.57381 28.9546 5.50981 28.8906 5.42448 28.8479C5.33915 28.8053 5.21115 28.7839 5.08315 28.7626ZM38.5125 6.12795C38.5338 6.08528 38.5551 6.02128 38.5765 5.95728C38.5978 5.89328 38.6405 5.80795 38.6831 5.67995C38.7258 5.57328 38.7685 5.48795 38.7898 5.42395C38.8111 5.38128 38.8325 5.31728 38.8538 5.27462L38.8751 5.21062C38.9391 5.01862 38.9818 4.91195 38.9818 4.82662C38.9818 4.76262 38.9605 4.69862 38.9178 4.63462C38.8965 4.61328 38.8751 4.61328 38.8538 4.59195C38.8538 4.57062 38.8325 4.57062 38.7898 4.54928C38.7258 4.50662 38.7045 4.46395 38.7258 4.42128C38.7258 4.37862 38.7471 4.35728 38.7685 4.35728C38.7898 4.35728 38.8111 4.35728 38.8538 4.35728C38.8751 4.37862 38.8965 4.37862 38.9178 4.39995C38.9391 4.39995 38.9818 4.42128 39.0031 4.44262C39.0245 4.44262 39.0245 4.44262 39.0458 4.46395C39.1951 4.52795 39.3231 4.59195 39.4298 4.63462C39.5151 4.65595 39.5791 4.67728 39.6431 4.69862C39.7071 4.71995 39.7711 4.74128 39.8565 4.76262L39.8778 4.78395C39.9418 4.80528 39.9845 4.80528 40.0058 4.80528C40.0485 4.82662 40.0698 4.84795 40.0698 4.86928C40.0698 4.86928 40.0698 4.89062 40.0698 4.93328C40.0485 4.97595 39.9845 4.99728 39.9205 4.97595C39.8778 4.97595 39.8351 4.97595 39.8138 4.97595C39.7925 4.97595 39.7711 4.99728 39.7498 4.99728C39.7071 5.01862 39.6431 5.08262 39.5791 5.21062C39.5365 5.33862 39.4085 5.59462 39.2591 5.99995C39.0458 6.57595 38.9391 6.95995 38.9818 7.17328C39.0031 7.36528 39.1525 7.51462 39.4085 7.59995C39.5578 7.66395 39.7071 7.70662 39.8351 7.70662C39.9631 7.68528 40.0911 7.66395 40.1978 7.59995C40.3258 7.53595 40.4325 7.42928 40.5391 7.27995C40.6458 7.10928 40.7738 6.83195 40.9231 6.40528C41.0511 6.06395 41.1365 5.85062 41.1365 5.74395C41.1578 5.63728 41.1365 5.55195 41.0938 5.50928C41.0725 5.46662 41.0511 5.44528 41.0298 5.42395C40.9871 5.40262 40.9658 5.38128 40.9231 5.35995C40.9018 5.35995 40.9018 5.33862 40.9018 5.33862C40.8591 5.31728 40.8378 5.29595 40.8378 5.29595C40.8378 5.27462 40.8378 5.25328 40.8591 5.23195C40.8591 5.18928 40.8805 5.18928 40.8805 5.16795C40.9018 5.16795 40.9231 5.16795 40.9445 5.18928C40.9658 5.18928 40.9658 5.18928 41.0085 5.21062C41.0085 5.21062 41.0085 5.21062 41.0298 5.21062C41.0725 5.23195 41.1151 5.27462 41.1791 5.29595C41.2431 5.31728 41.3071 5.33862 41.3711 5.38128C41.4351 5.40262 41.4778 5.40262 41.5205 5.42395C41.5845 5.44528 41.6271 5.46662 41.6698 5.46662C41.6911 5.46662 41.6911 5.46662 41.7125 5.48795C41.7338 5.48795 41.7551 5.48795 41.7765 5.48795C41.7978 5.50928 41.8191 5.50928 41.8191 5.53062C41.8191 5.55195 41.8191 5.57328 41.8191 5.61595C41.7978 5.65862 41.7551 5.67995 41.6911 5.65862C41.6698 5.65862 41.6485 5.65862 41.6271 5.65862C41.6271 5.65862 41.6058 5.65862 41.5845 5.65862C41.4991 5.67995 41.3925 5.82928 41.2858 6.08528L41.2645 6.12795L41.1791 6.38395L41.0938 6.59728C40.9871 6.89595 40.8805 7.10928 40.8165 7.25862C40.7311 7.40795 40.6458 7.51462 40.5605 7.62128C40.4111 7.81328 40.1978 7.91995 39.9631 7.96262C39.7285 8.00528 39.4725 7.96262 39.1525 7.85595C38.7471 7.70662 38.5125 7.49328 38.4058 7.21595C38.2991 6.95995 38.3205 6.59728 38.5125 6.12795ZM44.4431 9.77595L45.4458 8.49595C45.5098 8.41062 45.5738 8.32528 45.5951 8.26128C45.6165 8.19728 45.6165 8.13328 45.6165 8.06928C45.5951 8.04795 45.5951 8.02662 45.5738 7.98395C45.5738 7.96262 45.5311 7.94128 45.5098 7.89862C45.5098 7.87728 45.4885 7.87728 45.4885 7.87728C45.4885 7.87728 45.4671 7.85595 45.4671 7.83462C45.4458 7.83462 45.4458 7.81328 45.4458 7.79195C45.4458 7.77062 45.4671 7.74928 45.4671 7.74928C45.4885 7.72795 45.5098 7.70662 45.5311 7.70662C45.5525 7.70662 45.5951 7.72795 45.6165 7.72795C45.6165 7.74928 45.6378 7.74928 45.6378 7.74928C45.6378 7.77062 45.6591 7.77062 45.6591 7.77062C45.6591 7.79195 45.6591 7.79195 45.6591 7.79195C45.8085 7.91995 45.9365 8.02662 46.0858 8.15462C46.1925 8.23995 46.3205 8.32528 46.4698 8.41062C46.4911 8.43195 46.4911 8.43195 46.4911 8.43195C46.5125 8.43195 46.5125 8.45328 46.5338 8.45328L46.5551 8.47462C46.5978 8.49595 46.6191 8.51728 46.6191 8.53862C46.6191 8.58128 46.6191 8.60262 46.5978 8.62395C46.5765 8.64528 46.5338 8.64528 46.4698 8.62395C46.4485 8.62395 46.4485 8.62395 46.4485 8.62395C46.4271 8.62395 46.4058 8.60262 46.3845 8.60262C46.3631 8.60262 46.3418 8.60262 46.3205 8.60262C46.2778 8.60262 46.2351 8.62395 46.1925 8.64528C46.1711 8.66662 46.1071 8.73062 46.0218 8.83728L44.9125 10.2666C44.8058 10.3946 44.7418 10.5013 44.7418 10.5653C44.7418 10.6079 44.7845 10.6719 44.8698 10.7359C45.0191 10.8639 45.1898 10.9493 45.3391 10.9919C45.5098 11.0346 45.6591 11.0559 45.8298 11.0346C45.8725 11.0133 45.9151 11.0133 45.9791 10.9706C46.0431 10.9493 46.0858 10.9493 46.1071 10.9706C46.1285 10.9919 46.1285 10.9919 46.1285 11.0346C46.1285 11.0559 46.1285 11.0773 46.1071 11.0986C46.0645 11.1626 46.0218 11.2053 45.9578 11.2479C45.8938 11.2906 45.8298 11.3119 45.7445 11.3546C45.6165 11.3973 45.5098 11.4186 45.4245 11.4186C45.3178 11.3973 45.2325 11.3546 45.1258 11.2906C45.1045 11.2693 45.0831 11.2479 45.0405 11.2053C45.0191 11.1839 44.9765 11.1413 44.9338 11.1199C44.9125 11.0986 44.8698 11.0773 44.8271 11.0346C44.6351 10.8639 44.4645 10.7146 44.3365 10.6079C44.2298 10.5226 44.0805 10.4373 43.9098 10.3306L43.8885 10.3093C43.8671 10.2879 43.8458 10.2879 43.8245 10.2666C43.8031 10.2453 43.7818 10.2453 43.7605 10.2239C43.7391 10.2026 43.7391 10.2026 43.7391 10.1599C43.7178 10.1386 43.7391 10.1173 43.7391 10.0959C43.7605 10.0746 43.7818 10.0746 43.8031 10.0746C43.8245 10.0533 43.8671 10.0746 43.9098 10.0746C43.9525 10.0959 43.9951 10.0959 44.0165 10.0959C44.0591 10.0959 44.0805 10.0959 44.1018 10.0959C44.1445 10.0746 44.1871 10.0533 44.2298 10.0106C44.2725 9.96795 44.3578 9.90395 44.4431 9.77595ZM49.6698 13.9359L50.0111 14.3626C50.0538 14.4053 50.0751 14.4266 50.0965 14.4479C50.1178 14.4479 50.1391 14.4479 50.1391 14.4479C50.1605 14.4266 50.1818 14.4266 50.1818 14.3839C50.2031 14.3626 50.2245 14.3413 50.2458 14.2986L50.5658 13.6373C50.5871 13.6373 50.5871 13.6159 50.5871 13.5946V13.5733C50.5658 13.5733 50.5658 13.5519 50.5445 13.5519C50.5445 13.5519 50.5231 13.5519 50.4805 13.5733L49.7338 13.7653C49.7125 13.7653 49.6911 13.7653 49.6698 13.7653C49.6485 13.7866 49.6485 13.7866 49.6271 13.7866C49.6058 13.8079 49.6058 13.8293 49.6271 13.8506C49.6271 13.8719 49.6485 13.8933 49.6698 13.9359ZM48.6458 13.8079L51.3338 13.1466C51.3765 13.1253 51.3978 13.1253 51.4191 13.1253C51.4405 13.1253 51.4405 13.1466 51.4618 13.1466C51.4618 13.1679 51.4831 13.1893 51.4831 13.2106C51.4618 13.2106 51.4618 13.2319 51.4405 13.2746L50.1818 15.8346C50.1605 15.8986 50.1178 15.9626 50.1178 16.0053C50.0965 16.0693 50.0965 16.0906 50.1178 16.1333V16.1546C50.1178 16.1759 50.1178 16.1759 50.1178 16.1759C50.1391 16.2399 50.1605 16.2826 50.1391 16.2826C50.1391 16.3039 50.1391 16.3253 50.1178 16.3466C50.0965 16.3679 50.0751 16.3679 50.0325 16.3679C50.0111 16.3466 49.9898 16.3253 49.9471 16.2826C49.9045 16.2399 49.8831 16.1973 49.8618 16.1759C49.8191 16.1333 49.7978 16.0906 49.7765 16.0479C49.7125 15.9626 49.6698 15.8986 49.6271 15.8559C49.6058 15.7919 49.5631 15.7493 49.5205 15.7066C49.4778 15.6639 49.4351 15.6213 49.3925 15.5573C49.3498 15.5146 49.3071 15.4719 49.2645 15.4293C49.2645 15.4293 49.2431 15.4293 49.2431 15.4079C49.2218 15.3866 49.2005 15.3866 49.2005 15.3866C49.1791 15.3439 49.1791 15.3226 49.1791 15.3013C49.1791 15.2799 49.1791 15.2799 49.2005 15.2586C49.2431 15.2373 49.2858 15.2373 49.3498 15.2586C49.3498 15.2586 49.3498 15.2799 49.3711 15.2799C49.3711 15.2799 49.3925 15.2799 49.3925 15.3013C49.4565 15.3226 49.4991 15.3226 49.5418 15.3226C49.5845 15.3226 49.6271 15.3013 49.6698 15.2586C49.6911 15.2586 49.6911 15.2373 49.7125 15.2159C49.7338 15.2159 49.7338 15.1946 49.7551 15.1733L49.9045 14.8959C49.9471 14.8319 49.9685 14.7893 49.9471 14.7466C49.9471 14.7039 49.9045 14.6399 49.8405 14.5546L49.4351 14.0639C49.3711 13.9573 49.3071 13.9146 49.2858 13.9146C49.2431 13.8933 49.2005 13.8933 49.1365 13.9146L48.9018 13.9786C48.8591 13.9786 48.8378 13.9999 48.8165 14.0213C48.7738 14.0213 48.7525 14.0426 48.7311 14.0639C48.6885 14.1066 48.6458 14.1493 48.6458 14.2133C48.6245 14.2559 48.6458 14.3199 48.6671 14.3839C48.6671 14.4053 48.6885 14.4266 48.6885 14.4479C48.7098 14.4693 48.7098 14.4906 48.7098 14.4906C48.7525 14.5546 48.7525 14.5759 48.7525 14.5973C48.7525 14.6186 48.7525 14.6399 48.7311 14.6613C48.7098 14.6826 48.6885 14.6826 48.6671 14.6826C48.6458 14.6826 48.6245 14.6613 48.6031 14.6399C48.5818 14.6186 48.5605 14.5973 48.5605 14.5759C48.5391 14.5546 48.5178 14.5119 48.4965 14.4906C48.4538 14.4266 48.4111 14.3839 48.3898 14.3199C48.3471 14.2773 48.3045 14.2346 48.2618 14.1919C48.2405 14.1493 48.1978 14.0853 48.1338 14.0213C48.1125 14.0213 48.1125 13.9999 48.1125 13.9999C48.0911 13.9786 48.0911 13.9786 48.0698 13.9573C48.0485 13.9359 48.0485 13.9359 48.0271 13.9146C48.0058 13.8933 48.0058 13.8719 48.0058 13.8506C48.0058 13.8293 48.0058 13.8079 48.0271 13.7866C48.0485 13.7866 48.0698 13.7653 48.0911 13.7653C48.1125 13.7653 48.1338 13.7866 48.1765 13.7866C48.1765 13.7866 48.1765 13.7866 48.1978 13.7866C48.2618 13.8293 48.3045 13.8293 48.3685 13.8293C48.4325 13.8506 48.5178 13.8293 48.6245 13.8079C48.6245 13.7866 48.6458 13.8079 48.6458 13.8079ZM52.6138 19.2693L53.7871 18.8639C53.8085 18.8426 53.8298 18.8426 53.8511 18.8426C53.8725 18.8213 53.9151 18.7999 53.9578 18.7999C54.0858 18.7359 54.1925 18.6719 54.2565 18.6293C54.3418 18.5653 54.3845 18.5013 54.4271 18.4159C54.4485 18.3733 54.4698 18.2879 54.4485 18.2026C54.4485 18.2026 54.4485 18.2026 54.4698 18.2026H54.4485C54.4485 18.2026 54.4698 18.2026 54.4485 18.1813C54.4485 18.1599 54.4485 18.1386 54.4698 18.1173C54.4698 18.0959 54.4911 18.0959 54.5125 18.0746C54.5551 18.0746 54.5765 18.0746 54.5765 18.0746C54.5978 18.0746 54.6191 18.0959 54.6191 18.1173C54.6405 18.1386 54.6405 18.2026 54.6618 18.2666C54.6618 18.2879 54.6831 18.3093 54.6831 18.3306C54.7045 18.3946 54.7045 18.4373 54.7258 18.4586C54.7471 18.5013 54.7685 18.5653 54.8111 18.6293C54.8111 18.6506 54.8325 18.6719 54.8325 18.6719V18.6933C54.8538 18.7573 54.8751 18.7999 54.8965 18.8213C54.9178 18.8639 54.9178 18.9066 54.9178 18.9279C54.8965 18.9706 54.8751 19.0133 54.7898 19.0773L53.4245 20.5493C53.4031 20.5919 53.3818 20.6133 53.3818 20.6346C53.3605 20.6346 53.3605 20.6559 53.3605 20.6559C53.3605 20.6773 53.3818 20.6773 53.4031 20.6773C53.4245 20.6986 53.4458 20.6986 53.4885 20.6986L55.6431 20.8479C55.6645 20.8479 55.7071 20.8479 55.7071 20.8693C55.7285 20.8906 55.7498 20.8906 55.7498 20.9333C55.7498 20.9333 55.7498 20.9333 55.7711 20.9546V20.976C55.7925 21.0399 55.7925 21.0826 55.8138 21.1253C55.8138 21.1679 55.8351 21.2106 55.8565 21.2533C55.8778 21.2959 55.8778 21.3386 55.8991 21.3813C55.9205 21.4026 55.9418 21.4453 55.9845 21.5093C55.9845 21.5306 56.0058 21.5519 56.0058 21.5733C56.0271 21.5946 56.0271 21.6159 56.0271 21.6159C56.0485 21.6586 56.0485 21.6799 56.0485 21.7013C56.0271 21.7013 56.0058 21.7226 55.9845 21.7439C55.9418 21.7653 55.8991 21.7226 55.8778 21.6799C55.8565 21.6373 55.8351 21.5946 55.8138 21.5733C55.7925 21.5519 55.7711 21.5306 55.7498 21.5093C55.6858 21.4666 55.6218 21.4453 55.5578 21.4453C55.4938 21.4453 55.4085 21.4879 55.2805 21.5306L55.1738 21.5733L53.8725 22.1493C53.6805 22.2346 53.5525 22.32 53.4885 22.3839C53.4031 22.4479 53.3605 22.5333 53.3391 22.6186C53.3391 22.6399 53.3391 22.6826 53.3391 22.7253C53.3391 22.7253 53.3391 22.7253 53.3605 22.7466C53.3605 22.768 53.3605 22.8106 53.3605 22.8106C53.3605 22.8319 53.3391 22.8319 53.3178 22.8533C53.2751 22.8533 53.2538 22.8746 53.2325 22.8533C53.2111 22.8319 53.1898 22.8106 53.1471 22.7466C53.1471 22.7253 53.1258 22.6613 53.1045 22.5759C53.0831 22.5759 53.0831 22.5546 53.0831 22.5546C53.0618 22.4693 53.0405 22.4053 53.0191 22.3413C52.9978 22.2773 52.9765 22.2133 52.9551 22.1706C52.9125 22.0639 52.8485 21.9359 52.7845 21.8079C52.7631 21.7866 52.7631 21.7653 52.7631 21.7653L52.7418 21.7439C52.7205 21.7013 52.7205 21.7013 52.7205 21.6799C52.6991 21.6586 52.6991 21.6373 52.6991 21.6159C52.7205 21.5946 52.7418 21.5733 52.7631 21.5733C52.7845 21.5519 52.8058 21.5519 52.8271 21.5733C52.8485 21.5733 52.8698 21.5946 52.8911 21.6159C52.8911 21.6159 52.8911 21.6159 52.9125 21.6373C52.9338 21.6586 52.9551 21.6799 52.9765 21.7013C53.0405 21.7226 53.0831 21.7439 53.1258 21.7439C53.1685 21.7439 53.2325 21.7226 53.2965 21.7013C53.3178 21.6799 53.3391 21.6799 53.3818 21.6586C53.4031 21.6373 53.4458 21.6373 53.4671 21.6159C53.4885 21.6159 53.4885 21.6159 53.4885 21.5946L54.6405 21.0826C54.6618 21.0826 54.6831 21.0613 54.7045 21.0613C54.7045 21.0399 54.7258 21.0399 54.7258 21.0399C54.7045 21.0186 54.7045 21.0186 54.6831 21.0186C54.6831 20.9973 54.6618 20.9973 54.6405 20.9973L52.5071 20.8479C52.4858 20.8479 52.4858 20.8479 52.4858 20.8479C52.4431 20.8479 52.4218 20.8479 52.4005 20.8266C52.4005 20.8266 52.3791 20.8053 52.3791 20.7839C52.3578 20.7626 52.3578 20.7413 52.3791 20.7413C52.3791 20.7199 52.4005 20.6986 52.4218 20.6559C52.4218 20.6559 52.4218 20.6559 52.4431 20.6346L53.8938 19.1626C53.8938 19.1413 53.9151 19.1199 53.9151 19.1199C53.9151 19.0986 53.9365 19.0986 53.9151 19.0773C53.9151 19.0773 53.9151 19.0773 53.8938 19.0773C53.8725 19.0773 53.8511 19.0773 53.8085 19.0773L52.6778 19.504L52.6138 19.5253C52.5285 19.5679 52.4645 19.5893 52.4005 19.6533C52.3578 19.6959 52.3151 19.7386 52.2938 19.8026C52.2725 19.8453 52.2725 19.9093 52.2725 19.9946V20.0159C52.2725 20.0159 52.2725 20.0159 52.2725 20.0373V20.0586C52.2938 20.1013 52.2938 20.1439 52.2725 20.1653C52.2725 20.1653 52.2511 20.1866 52.2298 20.2079C52.1871 20.2079 52.1658 20.2079 52.1445 20.2079C52.1231 20.1866 52.1018 20.1653 52.0805 20.1226C52.0591 20.0586 52.0378 19.9946 52.0165 19.8879L51.9951 19.8666C51.9951 19.8453 51.9951 19.8453 51.9951 19.8453C51.9738 19.7813 51.9738 19.7173 51.9525 19.6959C51.9311 19.6533 51.9098 19.6106 51.8885 19.5679C51.8671 19.5253 51.8458 19.4826 51.8245 19.4399C51.8031 19.4186 51.8031 19.3973 51.7818 19.3759C51.7818 19.3546 51.7605 19.3333 51.7605 19.3119C51.7391 19.2693 51.7391 19.2479 51.7605 19.2266C51.7605 19.2053 51.7818 19.1839 51.8245 19.1839C51.8458 19.1626 51.8885 19.1839 51.9311 19.2266C51.9525 19.2693 51.9738 19.2693 51.9951 19.2906C51.9951 19.3119 52.0165 19.3119 52.0378 19.3333C52.1018 19.3546 52.1658 19.3759 52.2725 19.3546C52.3578 19.3546 52.4858 19.3333 52.6138 19.2693ZM55.3231 26.9919L55.3871 27.504C55.3871 27.5679 55.4085 27.6106 55.4085 27.6319C55.4298 27.6533 55.4511 27.6533 55.4511 27.6533C55.4725 27.6533 55.4938 27.6533 55.5151 27.6319C55.5365 27.6319 55.5791 27.6106 55.6005 27.5893L56.2405 27.2053C56.2405 27.1839 56.2618 27.1839 56.2618 27.1626C56.2831 27.1626 56.2831 27.1413 56.2831 27.1413C56.2831 27.1199 56.2618 27.1199 56.2618 27.0986C56.2405 27.0986 56.2191 27.0986 56.1978 27.0773L55.4511 26.8426C55.4298 26.8426 55.4085 26.8426 55.3871 26.8426C55.3658 26.8426 55.3658 26.8426 55.3445 26.8426C55.3231 26.8426 55.3231 26.8639 55.3018 26.8853C55.3018 26.9066 55.3018 26.9279 55.3231 26.9919ZM54.5125 26.3306L57.1578 27.1626C57.1791 27.1626 57.2005 27.1839 57.2218 27.1839C57.2431 27.2053 57.2431 27.2053 57.2431 27.2266C57.2431 27.2479 57.2431 27.2693 57.2431 27.2693C57.2218 27.2906 57.2005 27.3119 57.1791 27.3333L54.7685 28.8693C54.7045 28.9119 54.6618 28.9546 54.6191 28.9759C54.5978 29.0186 54.5765 29.0613 54.5551 29.0826C54.5551 29.1039 54.5551 29.1039 54.5551 29.1253C54.5551 29.1253 54.5338 29.1253 54.5338 29.1466C54.5338 29.1893 54.5125 29.2319 54.5125 29.2533C54.4911 29.2533 54.4698 29.2746 54.4485 29.2746C54.4271 29.2746 54.3845 29.2746 54.3845 29.2533C54.3631 29.2319 54.3418 29.1893 54.3418 29.1253C54.3418 29.0826 54.3205 29.0399 54.3205 28.9973C54.3205 28.9333 54.3205 28.8906 54.3205 28.8266C54.2991 28.7413 54.2991 28.6559 54.2991 28.5919C54.2778 28.5493 54.2778 28.4853 54.2778 28.4213C54.2565 28.3573 54.2565 28.2933 54.2351 28.2293C54.2138 28.1653 54.2138 28.1226 54.1925 28.0586C54.1925 28.0373 54.1925 28.0373 54.1711 28.0159C54.1711 27.9946 54.1711 27.9946 54.1711 27.9733C54.1711 27.952 54.1711 27.9306 54.1711 27.9093C54.1925 27.8879 54.2138 27.8666 54.2351 27.8666C54.2778 27.8666 54.3205 27.8879 54.3418 27.952C54.3631 27.952 54.3631 27.9733 54.3631 27.9733C54.3631 27.9733 54.3631 27.9946 54.3845 28.0159C54.4058 28.0586 54.4485 28.0799 54.4911 28.1013C54.5338 28.1226 54.5765 28.1226 54.6191 28.1226C54.6405 28.1226 54.6618 28.1013 54.6831 28.1013C54.7045 28.1013 54.7258 28.0799 54.7471 28.0799L55.0245 27.9306C55.0885 27.8879 55.1311 27.8453 55.1311 27.8239C55.1525 27.7813 55.1525 27.7173 55.1525 27.6106L55.0458 26.9706C55.0458 26.8639 55.0245 26.7786 55.0031 26.7573C54.9605 26.7146 54.9178 26.6933 54.8538 26.6719L54.6191 26.608C54.5978 26.608 54.5765 26.608 54.5338 26.608C54.5125 26.608 54.4698 26.608 54.4485 26.608C54.3845 26.608 54.3205 26.6293 54.2991 26.6719C54.2565 26.7146 54.2351 26.7786 54.2138 26.8426C54.2138 26.8639 54.2138 26.8853 54.2138 26.9279C54.2138 26.9493 54.2138 26.9706 54.2138 26.9706C54.1925 27.0346 54.1925 27.056 54.1925 27.0773C54.1711 27.0986 54.1498 27.0986 54.1285 27.1199C54.1071 27.1199 54.0645 27.1199 54.0645 27.0986C54.0431 27.0986 54.0431 27.056 54.0218 27.0346C54.0218 27.0133 54.0218 26.9706 54.0218 26.9493C54.0218 26.9066 54.0218 26.8853 54.0218 26.8426C54.0218 26.7786 54.0005 26.7146 54.0005 26.6506C54.0005 26.5866 54.0005 26.5226 53.9791 26.4799C53.9791 26.4159 53.9578 26.3519 53.9365 26.2666C53.9365 26.2453 53.9365 26.2239 53.9365 26.2239C53.9365 26.2239 53.9365 26.2026 53.9365 26.1813C53.9151 26.1599 53.9151 26.1386 53.9151 26.1173C53.9151 26.0959 53.9151 26.0533 53.9151 26.0533C53.9365 26.0319 53.9578 26.0106 53.9791 26.0106C54.0005 26.0106 54.0218 26.0106 54.0431 26.0319C54.0645 26.0319 54.0645 26.0533 54.1071 26.0746V26.0959C54.1498 26.1599 54.1925 26.2026 54.2565 26.2239C54.2991 26.2666 54.3845 26.2879 54.4911 26.3306C54.4911 26.3306 54.4911 26.3306 54.5125 26.3306ZM6.49115 20.6133L6.72581 20.1226C6.74715 20.0799 6.76848 20.0373 6.76848 20.0159C6.76848 19.9946 6.76848 19.9733 6.74715 19.9733C6.72581 19.952 6.70448 19.952 6.68315 19.952C6.66181 19.952 6.61915 19.952 6.57648 19.952L5.85115 19.9306C5.82981 19.9306 5.80848 19.9306 5.80848 19.952C5.78715 19.952 5.78715 19.952 5.76581 19.9733C5.76581 19.9733 5.76581 19.9733 5.76581 19.9946C5.78715 20.0159 5.78715 20.0159 5.80848 20.0373L6.32048 20.6559C6.32048 20.6773 6.34181 20.6773 6.36315 20.6986L6.38448 20.7199C6.40581 20.7199 6.42715 20.7199 6.44848 20.6986C6.46981 20.6986 6.46981 20.6559 6.49115 20.6133ZM6.83248 21.5946L5.06181 19.4613C5.04048 19.4399 5.01915 19.4186 5.01915 19.3973C4.99781 19.3973 5.01915 19.3759 5.01915 19.3546C5.01915 19.3333 5.04048 19.3333 5.04048 19.3119C5.06181 19.3119 5.08315 19.3119 5.12581 19.3119L7.98448 19.3333C8.04848 19.3333 8.11248 19.3333 8.17648 19.3119C8.21915 19.2906 8.26181 19.2906 8.28315 19.2693C8.28315 19.2479 8.30448 19.2479 8.30448 19.2479C8.30448 19.2266 8.32581 19.2266 8.32581 19.2266C8.36848 19.1839 8.38981 19.1626 8.41115 19.1626C8.43248 19.1413 8.45381 19.1413 8.47515 19.1626C8.49648 19.1839 8.51781 19.2053 8.51781 19.2266C8.51781 19.2479 8.51781 19.2906 8.47515 19.3546C8.47515 19.3973 8.45381 19.4399 8.43248 19.4826C8.41115 19.5253 8.36848 19.5679 8.34715 19.6106C8.30448 19.6959 8.26181 19.7599 8.24048 19.8239C8.21915 19.8666 8.17648 19.9306 8.15515 19.9733C8.13381 20.0373 8.11248 20.1013 8.09115 20.1439C8.06981 20.2079 8.04848 20.2719 8.02715 20.3359V20.3573C8.00581 20.3786 8.00581 20.4 8.00581 20.4C7.98448 20.4426 7.96315 20.4426 7.96315 20.4639C7.94181 20.4639 7.92048 20.4639 7.89915 20.4639C7.85648 20.4426 7.83515 20.4 7.83515 20.3359C7.83515 20.3146 7.83515 20.3146 7.83515 20.3146C7.83515 20.2933 7.83515 20.2933 7.83515 20.2719C7.83515 20.2079 7.81381 20.1653 7.79248 20.1226C7.77115 20.0799 7.74981 20.0586 7.70715 20.0373C7.68581 20.0373 7.66448 20.0159 7.64315 20.0159C7.62181 20.0159 7.60048 20.0159 7.55781 20.0159L7.25915 19.9946C7.19515 19.9733 7.13115 19.9946 7.10981 20.0159C7.06715 20.0373 7.02448 20.1013 6.98181 20.1866L6.70448 20.7626C6.66181 20.8693 6.64048 20.9546 6.64048 20.976C6.64048 21.0186 6.68315 21.0613 6.72581 21.1253L6.87515 21.2959C6.89648 21.3173 6.91781 21.3386 6.93915 21.3599C6.96048 21.3813 7.00315 21.4026 7.02448 21.4026C7.08848 21.424 7.13115 21.4453 7.19515 21.424C7.23781 21.424 7.30181 21.3813 7.34448 21.3386C7.36581 21.3173 7.36581 21.2959 7.38715 21.2746C7.40848 21.2533 7.42981 21.2319 7.42981 21.2319C7.45115 21.1893 7.47248 21.1466 7.49381 21.1466C7.51515 21.1466 7.53648 21.1466 7.55781 21.1466C7.60048 21.1679 7.60048 21.1893 7.62181 21.1893C7.62181 21.2106 7.62181 21.2533 7.60048 21.2746C7.60048 21.2959 7.57915 21.3173 7.55781 21.3386C7.55781 21.3813 7.53648 21.4026 7.51515 21.424C7.47248 21.4879 7.45115 21.5519 7.40848 21.6159C7.38715 21.6586 7.36581 21.7226 7.34448 21.7653C7.32315 21.8293 7.28048 21.8933 7.25915 21.9573C7.25915 21.9786 7.23781 21.9999 7.23781 21.9999C7.23781 22.0213 7.23781 22.0213 7.21648 22.0426C7.21648 22.0639 7.21648 22.0853 7.19515 22.0853C7.19515 22.1279 7.17381 22.1493 7.15248 22.1706C7.13115 22.1706 7.10981 22.1706 7.08848 22.1493C7.06715 22.1493 7.06715 22.1279 7.04581 22.1279C7.04581 22.1066 7.02448 22.0639 7.02448 22.0426V22.0213C7.02448 21.9359 7.00315 21.872 6.98181 21.8293C6.96048 21.7653 6.91781 21.7013 6.83248 21.6159C6.83248 21.6159 6.83248 21.6159 6.83248 21.5946ZM8.56048 14.6613C8.45381 14.5759 8.36848 14.5333 8.30448 14.5119C8.24048 14.4906 8.17648 14.4906 8.13381 14.4906C8.06981 14.5119 8.02715 14.5546 7.96315 14.5973C7.94181 14.6186 7.94181 14.6186 7.94181 14.6186L7.89915 14.6613C7.87781 14.6613 7.87781 14.6826 7.85648 14.6826C7.83515 14.6613 7.81381 14.6613 7.79248 14.6613C7.77115 14.6399 7.77115 14.6186 7.77115 14.5973C7.77115 14.5546 7.77115 14.5333 7.79248 14.5119C7.79248 14.5119 7.81381 14.4906 7.81381 14.4693C7.83515 14.4693 7.83515 14.4479 7.85648 14.4479C7.89915 14.3839 7.94181 14.3413 8.00581 14.2773C8.04848 14.2346 8.09115 14.1706 8.13381 14.1066C8.17648 14.0426 8.24048 13.9573 8.28315 13.8933C8.32581 13.8293 8.36848 13.7439 8.41115 13.6586C8.43248 13.6373 8.43248 13.6159 8.45381 13.5946C8.45381 13.5946 8.47515 13.5733 8.49648 13.5306C8.51781 13.5093 8.53915 13.4879 8.56048 13.4879C8.58181 13.4666 8.60315 13.4879 8.62448 13.4879C8.66715 13.5093 8.66715 13.5733 8.64581 13.6373C8.64581 13.6799 8.62448 13.7013 8.62448 13.7226C8.62448 13.7439 8.62448 13.7653 8.62448 13.7653C8.62448 13.8079 8.64581 13.8506 8.66715 13.8933C8.70981 13.9359 8.77381 13.9786 8.85915 14.0639L10.2031 15.0239C10.4378 15.2159 10.6085 15.3653 10.7151 15.4719C10.8005 15.5999 10.8858 15.7493 10.9285 15.8986C10.9925 16.0906 11.0138 16.2613 11.0138 16.4319C10.9925 16.5813 10.9498 16.7306 10.8645 16.8373C10.8005 16.9226 10.7365 16.9866 10.6511 17.0293C10.5871 17.0719 10.5231 17.0719 10.4591 17.0293C10.4591 17.0293 10.4378 17.0079 10.3951 16.9653C10.3525 16.9226 10.3098 16.8799 10.2671 16.8373C10.2671 16.8159 10.2671 16.8159 10.2458 16.8159C10.2458 16.7946 10.2458 16.7946 10.2458 16.7946C10.1818 16.7306 10.1605 16.6879 10.1391 16.6666C10.1391 16.6453 10.1605 16.6239 10.1605 16.6026C10.2031 16.5599 10.2671 16.5386 10.3738 16.5386H10.3951C10.3951 16.5386 10.3951 16.5386 10.4165 16.5386C10.4165 16.5386 10.4378 16.5173 10.4591 16.5173C10.5445 16.5173 10.6085 16.5173 10.6298 16.4959C10.6725 16.4959 10.7151 16.4746 10.7365 16.4533C10.7578 16.3893 10.7578 16.3466 10.7365 16.2826C10.6938 16.2399 10.5871 16.1333 10.3738 15.9839L8.56048 14.6613ZM13.1258 11.8879L12.0805 10.6719C12.0165 10.5653 11.9311 10.5013 11.8885 10.4586C11.8245 10.4159 11.7605 10.3946 11.6965 10.3946C11.6751 10.3946 11.6538 10.4159 11.6111 10.4159C11.5898 10.4159 11.5471 10.4373 11.5045 10.4586C11.5045 10.4799 11.4831 10.4799 11.4831 10.4799C11.4831 10.4799 11.4618 10.4799 11.4405 10.5013C11.4405 10.5013 11.4191 10.5013 11.3978 10.5013C11.3765 10.5013 11.3551 10.4799 11.3551 10.4799C11.3338 10.4586 11.3338 10.4159 11.3338 10.3946C11.3338 10.3733 11.3551 10.3519 11.3765 10.3306C11.3978 10.3306 11.3978 10.3093 11.3978 10.3093C11.3978 10.3093 11.4191 10.3093 11.4191 10.2879C11.5045 10.2453 11.5685 10.1813 11.6538 10.1386C11.7178 10.0959 11.7818 10.0319 11.8458 9.96795C12.2085 9.66928 12.5711 9.34928 12.8911 9.05062V9.02928C12.9125 9.02928 12.9338 9.00795 12.9551 8.98662C12.9765 8.96528 12.9765 8.96528 12.9978 8.96528C13.0405 8.92262 13.0831 8.92262 13.1258 8.96528L13.1471 8.98662L13.4458 9.30662C13.4458 9.30662 13.4458 9.30662 13.4671 9.30662C13.4671 9.30662 13.4671 9.30662 13.4671 9.32795C13.4885 9.32795 13.4885 9.34928 13.5098 9.34928C13.5098 9.37062 13.5311 9.37062 13.5311 9.37062C13.5525 9.41328 13.5525 9.43462 13.5525 9.45595C13.5525 9.47728 13.5525 9.47728 13.5098 9.51995C13.5098 9.51995 13.4885 9.54128 13.4671 9.51995C13.4458 9.51995 13.4245 9.49862 13.3818 9.47728C13.3391 9.43462 13.3178 9.41328 13.2965 9.41328C13.1898 9.34928 13.1045 9.32795 12.9978 9.37062C12.8911 9.39195 12.7418 9.47728 12.5498 9.64795C12.4218 9.75462 12.3791 9.81862 12.3578 9.86128C12.3578 9.92528 12.4005 9.98928 12.4858 10.0959L12.8698 10.5439C12.9338 10.6293 12.9765 10.6506 12.9978 10.6506C13.0405 10.6506 13.1045 10.6079 13.2111 10.5226C13.2965 10.4373 13.3391 10.3733 13.3818 10.3093C13.4031 10.2453 13.4245 10.1813 13.4031 10.0959C13.4031 10.0746 13.4031 10.0319 13.3818 9.98928C13.3818 9.98928 13.3818 9.98928 13.3818 9.96795H13.3605C13.3391 9.90395 13.3391 9.86128 13.3818 9.83995C13.4031 9.81862 13.4245 9.81862 13.4458 9.81862C13.4671 9.81862 13.4885 9.83995 13.5098 9.86128C13.5311 9.88262 13.5525 9.90395 13.5738 9.94662C13.5951 9.96795 13.5951 9.96795 13.5951 9.96795C13.6378 10.0319 13.6591 10.0533 13.6805 10.0959C13.7018 10.1173 13.7231 10.1599 13.7658 10.1813C13.8085 10.2239 13.8511 10.2879 13.8938 10.3306C13.9365 10.3733 13.9791 10.4159 14.0218 10.4586C14.0431 10.4586 14.0431 10.4586 14.0431 10.4799C14.0645 10.5013 14.0858 10.5013 14.0858 10.5226C14.1071 10.5439 14.1285 10.5653 14.1285 10.5866C14.1285 10.6079 14.1071 10.6079 14.0858 10.6293C14.0645 10.6506 14.0431 10.6506 14.0431 10.6506C14.0218 10.6506 13.9791 10.6293 13.9578 10.6079L13.9365 10.5866C13.8938 10.5653 13.8725 10.5439 13.8511 10.5439C13.7658 10.5013 13.7018 10.5013 13.6165 10.5226C13.5311 10.5439 13.4458 10.6079 13.3178 10.7146C13.2325 10.7786 13.1898 10.8213 13.1898 10.8639C13.1898 10.9066 13.2325 10.9919 13.3178 11.0986L13.7018 11.5466C13.8085 11.6746 13.8938 11.7599 13.9578 11.7599C14.0005 11.7813 14.0645 11.7599 14.1498 11.6746C14.2991 11.5466 14.4271 11.4186 14.5125 11.2693C14.5765 11.1199 14.6405 10.9706 14.6405 10.7999C14.6405 10.7786 14.6405 10.7359 14.6191 10.6719V10.6506C14.6191 10.6079 14.5978 10.5866 14.6191 10.5653C14.6191 10.5439 14.6191 10.5226 14.6405 10.5226C14.6618 10.5013 14.6831 10.5013 14.7045 10.5013C14.7258 10.5013 14.7471 10.5226 14.7685 10.5439C14.8111 10.6079 14.8538 10.6506 14.8751 10.7146C14.8965 10.7999 14.9178 10.8639 14.9391 10.9493C14.9605 11.0773 14.9605 11.1839 14.9391 11.2906C14.8965 11.3759 14.8325 11.4613 14.7471 11.5466C14.7258 11.5679 14.6831 11.5893 14.6618 11.6106C14.6191 11.6319 14.5765 11.6746 14.5338 11.6959C14.5125 11.7173 14.4698 11.7386 14.4271 11.7813C14.2351 11.9306 14.0431 12.0799 13.9151 12.1866C13.8085 12.2719 13.7018 12.3786 13.5525 12.5279L13.5311 12.5493C13.5098 12.5706 13.4885 12.5919 13.4671 12.6133C13.4671 12.6346 13.4458 12.6559 13.4245 12.6559C13.4031 12.6773 13.3818 12.6773 13.3605 12.6773C13.3391 12.6773 13.3178 12.6559 13.2965 12.6559C13.2751 12.6346 13.2751 12.6133 13.2751 12.5919C13.2751 12.5706 13.2965 12.5279 13.3178 12.4853C13.3391 12.4426 13.3391 12.3999 13.3605 12.3786C13.3605 12.3573 13.3605 12.3146 13.3605 12.2933C13.3605 12.2506 13.3391 12.2079 13.3178 12.1439C13.2751 12.1013 13.2111 12.0159 13.1258 11.8879ZM17.9258 8.38928L17.2005 6.95995C17.1365 6.83195 17.0938 6.74662 17.0298 6.70395C16.9871 6.66128 16.9445 6.61862 16.8805 6.61862C16.8591 6.59728 16.8165 6.59728 16.7951 6.59728C16.7738 6.61862 16.7311 6.61862 16.6671 6.63995C16.6671 6.63995 16.6671 6.63995 16.6458 6.63995C16.6458 6.63995 16.6245 6.63995 16.6031 6.63995C16.6031 6.66128 16.5818 6.63995 16.5605 6.63995C16.5391 6.63995 16.5391 6.61862 16.5178 6.59728C16.5178 6.57595 16.5178 6.55462 16.5178 6.53328C16.5391 6.51195 16.5391 6.49062 16.5818 6.46928C16.5818 6.46928 16.6031 6.46928 16.6031 6.44795C16.6245 6.44795 16.6245 6.44795 16.6458 6.44795C16.8165 6.36262 16.9871 6.29862 17.1578 6.21328C17.2858 6.14928 17.4138 6.06395 17.5631 5.97862L17.5845 5.95728C17.5845 5.95728 17.6058 5.95728 17.6058 5.93595C17.6271 5.93595 17.6485 5.93595 17.6485 5.91462C17.6911 5.89328 17.7125 5.89328 17.7338 5.89328C17.7551 5.91462 17.7765 5.91462 17.7978 5.93595C17.8191 5.97862 17.7978 6.02128 17.7551 6.08528H17.7338C17.7125 6.10662 17.6911 6.12795 17.6911 6.14928C17.6698 6.14928 17.6698 6.17062 17.6698 6.19195C17.6485 6.23462 17.6485 6.27728 17.6485 6.31995C17.6698 6.36262 17.6911 6.44795 17.7551 6.55462L18.5658 8.17595C18.6511 8.32528 18.7151 8.43195 18.7578 8.45328C18.8218 8.47462 18.8858 8.45328 18.9925 8.41062C19.1631 8.32528 19.3125 8.21862 19.4191 8.09062C19.5258 7.96262 19.6111 7.83462 19.6538 7.66395C19.6538 7.62128 19.6751 7.57862 19.6751 7.51462V7.49328C19.6751 7.42928 19.6965 7.40795 19.7178 7.38662C19.7391 7.36528 19.7605 7.36528 19.7818 7.38662C19.8031 7.38662 19.8245 7.40795 19.8458 7.45062C19.8671 7.49328 19.8885 7.55728 19.8885 7.64262C19.9098 7.70662 19.9098 7.79195 19.9098 7.87728C19.9098 8.00528 19.8885 8.11195 19.8245 8.19728C19.7818 8.28262 19.6965 8.34662 19.5898 8.41062C19.5685 8.41062 19.5258 8.43195 19.4831 8.45328C19.4405 8.47462 19.3978 8.49595 19.3551 8.51728C19.3338 8.51728 19.2911 8.53862 19.2271 8.55995C18.9925 8.66662 18.8005 8.77328 18.6298 8.83728C18.5231 8.90128 18.3738 8.98662 18.2031 9.09328C18.2031 9.11462 18.1818 9.11462 18.1818 9.11462C18.1605 9.13595 18.1391 9.15728 18.1178 9.15728C18.0965 9.17862 18.0751 9.17862 18.0538 9.19995C18.0325 9.19995 18.0111 9.19995 17.9898 9.19995C17.9685 9.19995 17.9471 9.17862 17.9258 9.15728C17.9258 9.13595 17.9258 9.11462 17.9258 9.09328C17.9258 9.07195 17.9471 9.05062 17.9898 9.00795C18.0111 8.96528 18.0325 8.94395 18.0325 8.90128C18.0538 8.87995 18.0751 8.85862 18.0751 8.83728C18.0751 8.79462 18.0751 8.73062 18.0538 8.68795C18.0325 8.62395 17.9898 8.51728 17.9258 8.38928ZM23.4085 6.14928L23.0031 4.59195C22.9605 4.46395 22.9391 4.37862 22.8965 4.31462C22.8538 4.27195 22.8111 4.22928 22.7685 4.18662C22.7258 4.16528 22.6618 4.16528 22.5765 4.16528C22.5551 4.16528 22.5551 4.16528 22.5551 4.16528H22.5338C22.5338 4.16528 22.5125 4.16528 22.4911 4.16528C22.4698 4.16528 22.4698 4.16528 22.4485 4.16528C22.4271 4.14395 22.4271 4.12262 22.4058 4.10128C22.4058 4.07995 22.4058 4.05862 22.4271 4.03728C22.4271 4.01595 22.4485 4.01595 22.4698 3.99462C22.4911 3.99462 22.4911 3.99462 22.5125 3.99462C22.5125 3.99462 22.5125 3.99462 22.5338 3.99462C22.6191 3.97328 22.7045 3.95195 22.8111 3.93062C22.8965 3.93062 22.9818 3.88795 23.0885 3.86662C23.1738 3.84528 23.2591 3.82395 23.3231 3.80262C23.4085 3.78128 23.4938 3.73862 23.5578 3.71728L23.5791 3.69595C23.6218 3.69595 23.6431 3.67462 23.6645 3.67462C23.6858 3.67462 23.7285 3.67462 23.7498 3.67462C23.7711 3.69595 23.7711 3.69595 23.7925 3.73862C23.7925 3.78128 23.7711 3.80262 23.7071 3.86662C23.6431 3.88795 23.6218 3.93062 23.6005 3.95195C23.5791 3.97328 23.5791 4.01595 23.5791 4.07995C23.5578 4.12262 23.5791 4.20795 23.6218 4.31462L24.0911 6.08528C24.1125 6.21328 24.1551 6.27728 24.1978 6.31995C24.2191 6.36262 24.2618 6.40528 24.3258 6.42662C24.3471 6.44795 24.3898 6.44795 24.4538 6.44795C24.4751 6.44795 24.4751 6.44795 24.4965 6.44795C24.5391 6.44795 24.5818 6.44795 24.6031 6.46928C24.6245 6.46928 24.6458 6.49062 24.6671 6.51195C24.6671 6.55462 24.6671 6.57595 24.6458 6.59728C24.6458 6.61862 24.6245 6.63995 24.6031 6.63995C24.5818 6.63995 24.5605 6.63995 24.5391 6.66128C24.5178 6.66128 24.4965 6.66128 24.4538 6.66128C24.4538 6.66128 24.4538 6.66128 24.4325 6.66128C24.2618 6.70395 24.1125 6.72528 23.9845 6.74662C23.8991 6.78928 23.8138 6.81062 23.7498 6.83195C23.6645 6.85328 23.6005 6.87462 23.5151 6.91728C23.4938 6.91728 23.4725 6.93862 23.4298 6.93862C23.4085 6.95995 23.3871 6.95995 23.3658 6.95995C23.3445 6.98128 23.3231 6.95995 23.3018 6.95995C23.2805 6.93862 23.2591 6.91728 23.2591 6.89595C23.2591 6.87462 23.2591 6.85328 23.2591 6.83195C23.2805 6.81062 23.3018 6.78928 23.3445 6.76795C23.3658 6.72528 23.4085 6.70395 23.4298 6.68262C23.4298 6.66128 23.4511 6.63995 23.4725 6.61862C23.4725 6.57595 23.4938 6.51195 23.4938 6.46928C23.4725 6.40528 23.4511 6.29862 23.4085 6.14928ZM28.1445 5.80795L28.0165 5.23195C28.0165 5.23195 27.9951 5.23195 27.9951 5.21062C27.9951 5.21062 27.9951 5.21062 27.9951 5.18928C27.9951 5.18928 27.9951 5.16795 27.9951 5.14662C27.9738 5.12528 27.9738 5.12528 27.9738 5.10395C27.9738 5.08262 27.9951 5.08262 28.0165 5.06128C28.0165 5.06128 28.0378 5.06128 28.0805 5.06128C28.1018 5.06128 28.1018 5.06128 28.1231 5.06128C28.1231 5.08262 28.1445 5.12528 28.1658 5.16795C28.1658 5.16795 28.1871 5.16795 28.1871 5.18928C28.2298 5.27462 28.2725 5.33862 28.3151 5.40262C28.4005 5.55195 28.5285 5.67995 28.6778 5.76528C28.8058 5.82928 28.9551 5.87195 29.1045 5.87195C29.2965 5.87195 29.4245 5.82928 29.5098 5.74395C29.6165 5.63728 29.6591 5.53062 29.6591 5.35995C29.6591 5.31728 29.6378 5.25328 29.6165 5.21062C29.6165 5.14662 29.5738 5.10395 29.5525 5.08262C29.4885 5.01862 29.3818 4.95462 29.2111 4.91195C29.1898 4.89062 29.1685 4.89062 29.1258 4.86928C29.0831 4.84795 29.0618 4.84795 29.0405 4.84795C28.6351 4.67728 28.3578 4.52795 28.2298 4.39995C28.1018 4.25062 28.0378 4.07995 28.0378 3.84528C28.0378 3.56795 28.1231 3.35462 28.2725 3.18395C28.4431 3.01328 28.6565 2.92795 28.9338 2.90662C29.0831 2.90662 29.2538 2.94928 29.4458 3.01328L29.4671 3.03462C29.4671 3.03462 29.4671 3.03462 29.4885 3.03462C29.5525 3.05595 29.5951 3.07728 29.6165 3.07728C29.6591 3.07728 29.7018 3.05595 29.7445 3.03462C29.7658 3.01328 29.7658 3.01328 29.7871 3.01328C29.8085 3.01328 29.8085 3.01328 29.8085 3.01328C29.8298 3.01328 29.8511 3.01328 29.8725 3.01328C29.8725 3.03462 29.8725 3.05595 29.8725 3.07728V3.09862V3.11995C29.8725 3.14128 29.8725 3.16262 29.8725 3.18395C29.8725 3.18395 29.8725 3.20528 29.8725 3.22662C29.8725 3.29062 29.8725 3.35462 29.8725 3.39728C29.8938 3.46128 29.8938 3.52528 29.9151 3.61062C29.9151 3.65328 29.9365 3.69595 29.9365 3.71728C29.9365 3.75995 29.9365 3.78128 29.9365 3.80262C29.9365 3.84528 29.9365 3.86662 29.9151 3.86662C29.9151 3.88795 29.8938 3.88795 29.8725 3.88795C29.8298 3.88795 29.8085 3.88795 29.8085 3.86662C29.7871 3.84528 29.7658 3.80262 29.7445 3.75995C29.7445 3.73862 29.7445 3.73862 29.7445 3.73862C29.7018 3.67462 29.6805 3.61062 29.6805 3.58928C29.5738 3.43995 29.4671 3.31195 29.3391 3.22662C29.2111 3.16262 29.0831 3.11995 28.9338 3.11995C28.7845 3.11995 28.6778 3.16262 28.5925 3.24795C28.5071 3.31195 28.4645 3.41862 28.4645 3.54662C28.4645 3.65328 28.4858 3.73862 28.5711 3.82395C28.6351 3.88795 28.7845 3.95195 29.0405 4.03728C29.0405 4.03728 29.0405 4.05862 29.0618 4.05862H29.0831C29.2965 4.14395 29.4458 4.18662 29.5311 4.22928C29.6165 4.27195 29.7018 4.31462 29.7445 4.37862C29.8511 4.46395 29.9151 4.54928 29.9791 4.67728C30.0218 4.80528 30.0431 4.93328 30.0645 5.06128C30.0645 5.38128 29.9791 5.63728 29.7871 5.80795C29.6165 5.99995 29.3605 6.08528 29.0405 6.08528C28.9338 6.08528 28.8058 6.06395 28.6138 6.02128C28.6138 6.02128 28.6138 6.02128 28.5925 6.02128C28.5925 6.02128 28.5711 6.02128 28.5285 5.99995C28.4431 5.97862 28.3578 5.97862 28.3151 5.95728C28.2511 5.95728 28.2085 5.93595 28.1871 5.91462C28.1658 5.89328 28.1658 5.87195 28.1445 5.80795ZM51.0138 45.2959L51.3125 44.8693C51.3551 44.8266 51.3765 44.784 51.3765 44.7626C51.3765 44.7413 51.3765 44.7199 51.3551 44.6986C51.3551 44.6986 51.3338 44.6986 51.3125 44.6773C51.2698 44.6773 51.2485 44.6559 51.2058 44.6559L50.4805 44.528C50.4591 44.528 50.4591 44.528 50.4378 44.528C50.4165 44.528 50.4165 44.528 50.4165 44.528C50.3951 44.5493 50.3951 44.5493 50.3951 44.5706C50.4165 44.5706 50.4165 44.5919 50.4378 44.6133L50.8218 45.2959C50.8218 45.3173 50.8431 45.3386 50.8645 45.3599L50.8858 45.3813C50.9071 45.4026 50.9285 45.4026 50.9285 45.3813C50.9498 45.3599 50.9711 45.3386 51.0138 45.2959ZM51.1631 46.3413L49.7765 43.9093C49.7765 43.888 49.7551 43.8666 49.7551 43.8453C49.7551 43.8453 49.7551 43.8239 49.7765 43.8026C49.7765 43.7813 49.7978 43.7813 49.7978 43.7813C49.8191 43.7813 49.8405 43.7813 49.8831 43.7813L52.6991 44.2933C52.7631 44.3146 52.8271 44.3146 52.8698 44.3146C52.9338 44.3146 52.9765 44.2933 52.9978 44.2719H53.0191C53.0405 44.2506 53.0405 44.2506 53.0405 44.2506C53.0831 44.2293 53.1258 44.208 53.1471 44.1866C53.1685 44.1866 53.1898 44.208 53.2111 44.208C53.2325 44.2293 53.2538 44.2506 53.2325 44.2719C53.2325 44.3146 53.2111 44.3359 53.1898 44.3999C53.1471 44.4426 53.1258 44.4853 53.1045 44.5066C53.0618 44.5493 53.0405 44.5919 52.9978 44.6346C52.9338 44.6986 52.8911 44.7626 52.8485 44.8266C52.8271 44.8693 52.7845 44.9119 52.7631 44.9546C52.7205 45.0186 52.6778 45.0613 52.6565 45.1253C52.6138 45.1679 52.5925 45.2319 52.5711 45.2959C52.5498 45.2959 52.5498 45.2959 52.5498 45.3173C52.5285 45.3386 52.5285 45.3599 52.5285 45.3599C52.5071 45.3813 52.4858 45.4026 52.4645 45.4026C52.4431 45.4026 52.4218 45.4026 52.4005 45.3813C52.3791 45.3599 52.3578 45.3173 52.3791 45.2533V45.2319C52.3791 45.2319 52.3791 45.2106 52.3791 45.1893C52.4005 45.1253 52.4005 45.0826 52.3791 45.0399C52.3578 44.9973 52.3365 44.9759 52.2938 44.9333C52.2725 44.9333 52.2511 44.9119 52.2298 44.9119C52.2085 44.9119 52.1871 44.8906 52.1658 44.8906L51.8671 44.8053C51.8031 44.8053 51.7391 44.8053 51.6965 44.8053C51.6751 44.8266 51.6111 44.8693 51.5471 44.9759L51.1845 45.4879C51.1205 45.5946 51.0778 45.6586 51.0778 45.7013C51.0778 45.7226 51.0991 45.7866 51.1418 45.8293L51.2698 46.0426C51.2698 46.0639 51.2911 46.0853 51.3125 46.1066C51.3338 46.1279 51.3551 46.1493 51.3978 46.1706C51.4405 46.2133 51.4831 46.2346 51.5471 46.2133C51.6111 46.2133 51.6538 46.1919 51.7178 46.1493C51.7391 46.1279 51.7605 46.1279 51.7818 46.1066C51.8031 46.0853 51.8031 46.0639 51.8031 46.0639C51.8458 46.0213 51.8885 46 51.9098 46C51.9311 46 51.9525 46 51.9738 46.0213C51.9951 46.0426 51.9951 46.0639 52.0165 46.0639C52.0165 46.0853 51.9951 46.1066 51.9738 46.1493C51.9738 46.1706 51.9525 46.1919 51.9311 46.2133C51.9098 46.2346 51.8885 46.256 51.8671 46.2773C51.8245 46.3413 51.7818 46.3839 51.7391 46.4479C51.6965 46.4906 51.6751 46.5333 51.6325 46.576C51.6111 46.6399 51.5685 46.6826 51.5258 46.7679C51.5045 46.7679 51.5045 46.7893 51.5045 46.7893C51.4831 46.8106 51.4831 46.8319 51.4618 46.8319C51.4618 46.8533 51.4405 46.8746 51.4405 46.8746C51.4191 46.9173 51.3978 46.9386 51.3765 46.9386C51.3765 46.9386 51.3551 46.9386 51.3338 46.9173C51.3125 46.9173 51.2911 46.896 51.2911 46.8746C51.2911 46.8533 51.2698 46.8319 51.2911 46.7893V46.7679C51.2911 46.7039 51.2911 46.6399 51.2698 46.576C51.2485 46.5119 51.2271 46.4479 51.1631 46.3413ZM12.1018 47.152C12.2085 47.0453 12.2725 46.9599 12.2938 46.8746C12.3151 46.8106 12.3365 46.7253 12.3151 46.6399C12.3151 46.6186 12.3151 46.5973 12.2938 46.576C12.2938 46.5546 12.2725 46.5119 12.2725 46.4906C12.2511 46.4479 12.2298 46.4266 12.2298 46.4053C12.2511 46.4053 12.2511 46.3839 12.2725 46.3626C12.2938 46.3413 12.3151 46.32 12.3365 46.32C12.3578 46.32 12.3578 46.3413 12.4005 46.3626C12.4005 46.3626 12.4005 46.3626 12.4005 46.3839C12.4218 46.3839 12.4218 46.4053 12.4431 46.4053C12.4858 46.4693 12.5071 46.5119 12.5498 46.5546C12.5925 46.5973 12.6351 46.6186 12.6778 46.6613C12.6991 46.7039 12.7418 46.7253 12.7631 46.7466C12.8058 46.7893 12.8271 46.8106 12.8698 46.8319C12.8911 46.8533 12.8911 46.8533 12.9125 46.8746C12.9338 46.896 12.9551 46.896 12.9551 46.896C12.9978 46.9386 13.0191 46.9813 13.0191 47.0453V47.0666L12.9551 49.6053C12.9551 49.6266 12.9551 49.6266 12.9551 49.6479C12.9765 49.6693 12.9765 49.6693 12.9765 49.6906C12.9978 49.6906 12.9978 49.6906 13.0191 49.6906C13.0405 49.6693 13.0618 49.6479 13.1045 49.6053L13.8298 48.8586C13.9578 48.7093 14.0431 48.624 14.0858 48.5386C14.1071 48.4746 14.1071 48.3893 14.0858 48.3253C14.0858 48.2826 14.0645 48.2613 14.0645 48.2399C14.0431 48.2186 14.0218 48.1759 13.9791 48.1546C13.9151 48.048 13.9151 47.9839 13.9365 47.9626C13.9578 47.9413 13.9791 47.9199 14.0005 47.9199C14.0218 47.9199 14.0431 47.9413 14.0645 47.9626C14.0858 47.9839 14.1071 48.0053 14.1071 48.0266C14.1285 48.0266 14.1285 48.048 14.1498 48.048C14.1498 48.0693 14.1711 48.0906 14.1711 48.1119C14.2565 48.1973 14.3205 48.2613 14.3845 48.3253C14.4271 48.368 14.4698 48.4106 14.5125 48.4533C14.5551 48.4959 14.6191 48.5173 14.6618 48.5599L14.6831 48.5813C14.7258 48.6026 14.7471 48.624 14.7685 48.6453C14.7898 48.6666 14.8111 48.688 14.8111 48.7093C14.8111 48.7306 14.8111 48.7519 14.7898 48.7733C14.7471 48.7946 14.7045 48.7946 14.6405 48.7733C14.6191 48.7733 14.6191 48.7733 14.6191 48.7733C14.5765 48.7519 14.5551 48.7306 14.5338 48.7306C14.4485 48.7306 14.3845 48.7306 14.2991 48.7733C14.2138 48.8159 14.1285 48.9013 14.0005 49.0293L12.4858 50.5439C12.4431 50.5866 12.4005 50.6079 12.3791 50.6293C12.3365 50.6293 12.3151 50.6293 12.3151 50.6293C12.2938 50.6079 12.2725 50.5653 12.2725 50.5013V50.4586L12.3365 47.3866C12.3365 47.3653 12.3365 47.3439 12.3365 47.3226C12.3365 47.3013 12.3365 47.3013 12.3151 47.2799C12.3151 47.2799 12.2938 47.2799 12.2938 47.3013C12.2725 47.3013 12.2511 47.3226 12.2085 47.3439L11.3125 48.3039C11.1418 48.4746 11.0351 48.6026 10.9925 48.688C10.9711 48.7733 10.9711 48.8586 10.9925 48.9653C10.9925 48.9866 11.0138 49.0293 11.0351 49.0506C11.0565 49.0719 11.0565 49.0933 11.0778 49.1146C11.0778 49.1359 11.0778 49.1359 11.0991 49.1359C11.1205 49.1999 11.1205 49.2426 11.0991 49.264C11.0778 49.2853 11.0565 49.3066 11.0351 49.3066C11.0138 49.3066 10.9925 49.3066 10.9711 49.264C10.9498 49.2426 10.9285 49.2213 10.8858 49.1999C10.8645 49.1786 10.8431 49.1359 10.8005 49.0719C10.7791 49.0719 10.7578 49.0506 10.7151 49.0079C10.6938 48.9653 10.6511 48.9226 10.6298 48.9013C10.5658 48.8373 10.4591 48.7519 10.3525 48.6666L10.3311 48.6453C10.3311 48.6453 10.3311 48.6453 10.3098 48.6453C10.2885 48.6026 10.2458 48.5813 10.2458 48.5813C10.2245 48.5599 10.2031 48.5386 10.2031 48.5173C10.2031 48.5173 10.2245 48.4959 10.2458 48.4746C10.2671 48.4533 10.2885 48.4319 10.3098 48.4319C10.3311 48.4319 10.3525 48.4319 10.3951 48.4533C10.4378 48.4746 10.4805 48.4959 10.5018 48.4959C10.6085 48.4959 10.7151 48.4746 10.8218 48.4106C10.9285 48.3466 11.0565 48.2399 11.2058 48.0906L12.1018 47.152ZM17.1365 52.9333C17.0298 53.1253 16.9871 53.2959 17.0298 53.3813C17.0511 53.4879 17.1578 53.5733 17.3071 53.6586C17.5631 53.7866 17.8405 53.7866 18.0965 53.6586C18.3525 53.5519 18.5871 53.3173 18.7578 52.9759C18.9498 52.5919 19.0138 52.2506 18.9498 51.9306C18.8858 51.6106 18.7151 51.3759 18.4165 51.2266C18.2885 51.1626 18.2031 51.1413 18.1178 51.1839C18.0538 51.2053 17.9685 51.312 17.8831 51.4826L17.1365 52.9333ZM16.5178 52.6986L17.3071 51.1413C17.3498 51.056 17.3711 50.9706 17.3925 50.9066C17.3925 50.8426 17.3711 50.7786 17.3285 50.7146C17.3285 50.6933 17.2858 50.6506 17.2431 50.6079H17.2218C17.1578 50.5653 17.1365 50.5013 17.1578 50.4586C17.1791 50.4373 17.2005 50.416 17.2218 50.416C17.2431 50.416 17.2858 50.416 17.3071 50.4373C17.3285 50.4373 17.3285 50.4586 17.3498 50.4586C17.3498 50.4586 17.3498 50.4586 17.3711 50.4799C17.3711 50.4799 17.3925 50.4799 17.4138 50.5013C17.5631 50.5866 17.7125 50.6719 17.8405 50.736C17.8831 50.7573 17.9471 50.7999 18.0111 50.8213C18.0965 50.8426 18.1605 50.8853 18.2458 50.9066V50.9279C18.4165 50.9919 18.5445 51.056 18.6298 51.0986C19.0991 51.3333 19.4191 51.632 19.5685 51.9733C19.7178 52.3359 19.6751 52.6986 19.4831 53.104C19.3765 53.2959 19.2485 53.4666 19.0991 53.5946C18.9285 53.7439 18.7578 53.8506 18.5445 53.9146C18.3098 54 18.0751 54.0426 17.8405 54.0213C17.6058 54 17.3498 53.9146 17.0938 53.7866C17.0725 53.7653 17.0298 53.7439 16.9658 53.7226C16.9018 53.68 16.8805 53.6586 16.8591 53.6373C16.7738 53.5946 16.7098 53.5733 16.6885 53.5519C16.6458 53.5306 16.6031 53.5093 16.5605 53.4879C16.4325 53.424 16.3045 53.3599 16.1338 53.2959C16.1125 53.2959 16.1125 53.2959 16.1125 53.2959C16.0911 53.2746 16.0485 53.2746 16.0271 53.2533C16.0271 53.2533 16.0058 53.2533 15.9845 53.2319C15.9631 53.2319 15.9418 53.2106 15.9418 53.1893C15.9205 53.1679 15.9205 53.1466 15.9418 53.104C15.9418 53.0826 15.9631 53.0826 15.9845 53.0613C16.0058 53.0613 16.0485 53.0613 16.0911 53.0613C16.1125 53.0613 16.1338 53.0613 16.1551 53.0613C16.1765 53.0399 16.1978 53.0399 16.2191 53.0399C16.2618 53.0186 16.3258 52.9973 16.3685 52.9333C16.4111 52.8906 16.4538 52.8053 16.5178 52.6986ZM23.4725 54.4053C23.3658 54.8533 23.3658 55.2373 23.4938 55.5786C23.6005 55.9199 23.8138 56.1119 24.0911 56.1759C24.3685 56.2613 24.6031 56.1973 24.7951 56.048C24.9871 55.8986 25.1151 55.6426 25.2005 55.3013C25.2431 55.1306 25.2858 54.9386 25.2858 54.7679C25.2858 54.5973 25.2645 54.4266 25.2431 54.2559C25.2005 54.0426 25.1151 53.8933 25.0085 53.7653C24.9231 53.6373 24.7951 53.5519 24.6458 53.5093C24.3471 53.4453 24.1125 53.4666 23.9205 53.6373C23.7071 53.7866 23.5578 54.0426 23.4725 54.4053ZM23.8991 56.3893C23.4298 56.2613 23.0885 56.0266 22.8751 55.6853C22.6618 55.3439 22.5978 54.9386 22.7258 54.4906C22.7685 54.32 22.8325 54.1493 22.9178 54C23.0245 53.8506 23.1311 53.7226 23.2591 53.6159C23.4725 53.4453 23.7071 53.3386 23.9631 53.2746C24.2405 53.2319 24.4965 53.2319 24.7738 53.2959C25.2431 53.424 25.5845 53.6373 25.8191 54C26.0325 54.3413 26.0965 54.7466 25.9685 55.1733C25.9471 55.3439 25.8618 55.4933 25.7765 55.6426C25.6911 55.792 25.5845 55.9199 25.4565 56.0266C25.2431 56.2186 24.9871 56.3466 24.7311 56.3893C24.4751 56.4533 24.1978 56.4533 23.8991 56.3893ZM29.8085 54.7679C29.8085 54.6186 29.7871 54.4906 29.7445 54.4266C29.7231 54.3626 29.6591 54.2986 29.5951 54.2559C29.5738 54.2346 29.5525 54.2133 29.5311 54.2133C29.5098 54.1919 29.4885 54.1919 29.4458 54.1706C29.4031 54.1706 29.3818 54.1493 29.3605 54.1493C29.3605 54.1279 29.3605 54.1279 29.3605 54.1066C29.3605 54.0639 29.3605 54.0426 29.3605 54.0213C29.3818 54 29.4031 54 29.4245 54C29.4245 54 29.4458 54 29.4671 54C29.4671 54 29.4885 54 29.5098 54C29.5738 54 29.6378 54.0213 29.6805 54.0213C29.7445 54.0213 29.7871 54.0213 29.8511 54.0213C29.8938 54.0213 29.9365 54.0213 29.9791 54C30.0218 54 30.0645 54 30.1071 53.9786C30.1285 53.9786 30.1498 53.9786 30.1711 53.9786C30.1925 53.9786 30.2138 53.9786 30.2138 53.9786C30.2778 53.9786 30.3205 53.9786 30.3631 54.0213L30.3845 54.0426L32.1551 55.8346C32.1765 55.8559 32.1765 55.8773 32.1978 55.8773C32.2191 55.8773 32.2191 55.8773 32.2405 55.8773C32.2618 55.8773 32.2618 55.8773 32.2618 55.8559C32.2831 55.8346 32.2831 55.8133 32.2618 55.7493L32.2405 54.7039C32.2191 54.5119 32.2191 54.3839 32.1765 54.2986C32.1551 54.2346 32.0911 54.1706 32.0271 54.1493C32.0058 54.1279 31.9845 54.1066 31.9418 54.1066C31.9205 54.1066 31.8778 54.1066 31.8351 54.1066C31.7285 54.0853 31.6645 54.0426 31.6645 54C31.6645 53.9573 31.6645 53.9573 31.6858 53.9359C31.6858 53.9146 31.7285 53.9146 31.7498 53.9146C31.7925 53.9146 31.8138 53.9146 31.8351 53.9146C31.8351 53.9146 31.8565 53.9146 31.8778 53.9146C31.8778 53.9146 31.8991 53.9146 31.9418 53.9359C32.0485 53.9359 32.1551 53.9359 32.2405 53.9359C32.3045 53.9359 32.3471 53.9359 32.4111 53.9146C32.4751 53.9146 32.5391 53.9146 32.6031 53.8933C32.6031 53.8933 32.6245 53.8933 32.6458 53.8933C32.6885 53.8933 32.7098 53.8933 32.7311 53.8933C32.7738 53.8719 32.7951 53.8933 32.8165 53.8933C32.8165 53.9146 32.8378 53.9146 32.8378 53.9573C32.8378 54 32.7951 54.0426 32.7311 54.0639C32.7311 54.0639 32.7098 54.0639 32.7098 54.0853C32.6671 54.0853 32.6458 54.1066 32.6458 54.1066C32.5818 54.1493 32.5391 54.2346 32.4965 54.32C32.4751 54.4053 32.4751 54.5333 32.4751 54.7039L32.4965 56.8373C32.5178 56.9013 32.4965 56.944 32.4965 56.9866C32.4751 57.0079 32.4751 57.0293 32.4538 57.0293C32.4111 57.0293 32.3898 57.0079 32.3471 56.9653C32.3471 56.9653 32.3471 56.944 32.3258 56.944L32.3045 56.9226L30.1498 54.7466C30.1285 54.7253 30.1071 54.7253 30.0858 54.7039H30.0645C30.0431 54.7039 30.0431 54.7039 30.0431 54.7253C30.0218 54.7466 30.0218 54.7679 30.0218 54.8106L30.0645 56.1333C30.0858 56.368 30.1071 56.5386 30.1498 56.6239C30.1711 56.7093 30.2351 56.7733 30.3418 56.8159C30.3631 56.8373 30.4058 56.8373 30.4271 56.8373C30.4485 56.8586 30.4911 56.8586 30.5125 56.8586H30.5338C30.5978 56.8799 30.6405 56.9013 30.6405 56.944C30.6405 56.9866 30.6191 57.0079 30.6191 57.0293C30.5978 57.0293 30.5765 57.0506 30.5551 57.0506C30.5125 57.0506 30.4698 57.0506 30.4485 57.0506C30.4058 57.0506 30.3418 57.0506 30.2778 57.0506C30.2778 57.0506 30.2351 57.0506 30.1711 57.0293C30.1285 57.0293 30.0858 57.0293 30.0431 57.0293C29.9365 57.0506 29.8085 57.0506 29.6805 57.0719C29.6591 57.0719 29.6591 57.0719 29.6591 57.0719H29.6378C29.5951 57.0719 29.5525 57.0933 29.5311 57.0933C29.5098 57.0933 29.4885 57.0719 29.4885 57.0719C29.4671 57.0719 29.4671 57.0506 29.4671 57.0079C29.4671 56.9866 29.4671 56.9653 29.4671 56.944C29.4885 56.9226 29.5098 56.9013 29.5525 56.9013C29.6165 56.8799 29.6378 56.8586 29.6591 56.8373C29.7445 56.7733 29.7871 56.688 29.8298 56.5599C29.8511 56.4319 29.8511 56.2613 29.8511 56.048L29.8085 54.7679ZM36.8485 55.4293L36.4005 53.8933C36.3578 53.7653 36.3151 53.68 36.2938 53.6159C36.2511 53.5519 36.2085 53.5093 36.1445 53.4879C36.1231 53.4879 36.1018 53.4666 36.0591 53.4666C36.0378 53.4666 35.9951 53.4666 35.9311 53.4666C35.9311 53.4666 35.9311 53.4666 35.9098 53.4666C35.9098 53.4666 35.8885 53.4666 35.8671 53.4666C35.8671 53.4666 35.8458 53.4666 35.8245 53.4666C35.8245 53.4453 35.8031 53.424 35.8031 53.4026C35.8031 53.3813 35.8031 53.3599 35.8031 53.3386C35.8245 53.3173 35.8458 53.2959 35.8885 53.2959C35.8885 53.2959 35.9098 53.2959 35.9098 53.2746H35.9311C36.0378 53.2533 36.1231 53.2533 36.2085 53.2319C36.2938 53.2106 36.3791 53.1893 36.4645 53.1679C36.9125 53.0186 37.3605 52.8906 37.7871 52.7413L37.8085 52.7199C37.8298 52.7199 37.8511 52.7199 37.8725 52.6986C37.8938 52.6986 37.9151 52.6986 37.9151 52.6986C37.9791 52.6773 38.0218 52.6986 38.0431 52.7626V52.784L38.1925 53.1893V53.2106C38.1925 53.2106 38.2138 53.2106 38.2138 53.2319C38.2138 53.2319 38.2138 53.2533 38.2138 53.2746C38.2351 53.2746 38.2351 53.2959 38.2351 53.2959C38.2351 53.3386 38.2351 53.3599 38.2351 53.3813C38.2138 53.3813 38.1925 53.4026 38.1711 53.424C38.1498 53.424 38.1285 53.424 38.1071 53.4026C38.1071 53.4026 38.0858 53.3813 38.0645 53.3173C38.0431 53.2746 38.0218 53.2533 38.0005 53.2319C37.9365 53.1253 37.8511 53.0826 37.7445 53.0613C37.6378 53.0399 37.4671 53.0826 37.2325 53.1466C37.0831 53.1893 36.9978 53.2319 36.9765 53.2746C36.9551 53.3173 36.9551 53.4026 36.9978 53.5306L37.1471 54.1066C37.1685 54.1919 37.2111 54.2346 37.2325 54.2559C37.2538 54.2559 37.3391 54.2346 37.4885 54.2133C37.5738 54.1706 37.6591 54.1279 37.7231 54.0853C37.7658 54.0426 37.8085 53.9786 37.8298 53.9146C37.8298 53.8719 37.8511 53.8506 37.8511 53.8079C37.8511 53.7866 37.8511 53.7866 37.8511 53.7866V53.7653C37.8511 53.7013 37.8725 53.6586 37.9151 53.6586C37.9365 53.6373 37.9578 53.6586 37.9791 53.6586C38.0005 53.68 38.0005 53.7013 38.0218 53.7226C38.0218 53.7439 38.0431 53.7866 38.0431 53.8506V53.8719C38.0645 53.9359 38.0645 53.9786 38.0858 54.0213C38.0858 54.0426 38.1071 54.0853 38.1071 54.1279C38.1285 54.1919 38.1498 54.2559 38.1711 54.32C38.1925 54.3626 38.2138 54.4266 38.2565 54.4906C38.2565 54.4906 38.2565 54.4906 38.2565 54.5119C38.2778 54.5333 38.2778 54.5546 38.2778 54.576C38.2991 54.5973 38.2991 54.6186 38.2778 54.6399C38.2778 54.6613 38.2565 54.6613 38.2351 54.6826C38.2138 54.6826 38.1925 54.6826 38.1711 54.6826C38.1498 54.6613 38.1498 54.6399 38.1285 54.5973C38.1285 54.576 38.1071 54.576 38.1071 54.576C38.0858 54.5333 38.0858 54.5119 38.0645 54.4906C38.0005 54.4266 37.9365 54.3839 37.8511 54.3626C37.7658 54.3626 37.6591 54.3839 37.4885 54.4266C37.4031 54.4479 37.3391 54.4906 37.3178 54.5119C37.2965 54.5546 37.3178 54.6399 37.3391 54.7893L37.5098 55.3439C37.5525 55.5146 37.5951 55.6213 37.6591 55.6426C37.7018 55.6853 37.7658 55.6853 37.8725 55.6639C38.0645 55.5999 38.2138 55.5146 38.3631 55.4293C38.4911 55.3226 38.5978 55.1946 38.6618 55.0666C38.6831 55.0239 38.7045 54.9813 38.7045 54.9173C38.7045 54.9173 38.7045 54.9173 38.7045 54.896C38.7258 54.8746 38.7258 54.8319 38.7471 54.8319C38.7471 54.8106 38.7685 54.7893 38.7898 54.7893C38.8111 54.7893 38.8325 54.7893 38.8538 54.8106C38.8751 54.8106 38.8751 54.8319 38.8965 54.8746C38.9178 54.9386 38.9178 55.0026 38.9178 55.0666C38.9178 55.152 38.8965 55.2373 38.8965 55.3013C38.8538 55.4293 38.8111 55.5359 38.7471 55.5999C38.6831 55.6853 38.5765 55.7279 38.4698 55.7706C38.4271 55.7706 38.4058 55.792 38.3631 55.792C38.2991 55.8133 38.2565 55.8133 38.2138 55.8346C38.1711 55.8346 38.1498 55.8346 38.0858 55.8559C37.8298 55.9199 37.6165 55.9626 37.4458 56.0266C37.3178 56.048 37.1685 56.1119 36.9765 56.1973C36.9551 56.1973 36.9551 56.1973 36.9551 56.1973C36.9125 56.2186 36.8911 56.2186 36.8698 56.2399C36.8485 56.2399 36.8271 56.2399 36.8058 56.2613C36.7845 56.2613 36.7631 56.2613 36.7418 56.2399C36.7205 56.2399 36.6991 56.2186 36.6991 56.1973C36.6778 56.1759 36.6778 56.1546 36.6991 56.1333C36.6991 56.1119 36.7418 56.0693 36.7845 56.048C36.8058 56.0053 36.8271 55.9839 36.8485 55.9626C36.8698 55.9413 36.8911 55.9199 36.8911 55.8986C36.9125 55.8559 36.9125 55.792 36.9125 55.7493C36.9125 55.6853 36.8698 55.5786 36.8485 55.4293ZM42.6725 53.7653L42.2671 53.3386C42.2458 53.3173 42.2458 53.3173 42.2458 53.3173C42.2458 53.3173 42.2458 53.2959 42.2245 53.2959L42.2031 53.2746C42.1818 53.2533 42.1818 53.2533 42.1818 53.2319C42.1605 53.2106 42.1605 53.2106 42.1818 53.1893C42.1818 53.1679 42.2031 53.1466 42.2245 53.1466C42.2458 53.1253 42.2671 53.1253 42.2671 53.1253C42.2885 53.1253 42.3311 53.1466 42.3738 53.1893C42.4591 53.2533 42.5231 53.2959 42.6085 53.3173C42.7791 53.4026 42.9285 53.4453 43.0991 53.4453C43.2485 53.4453 43.3978 53.4026 43.5258 53.3173C43.6751 53.2319 43.7818 53.1253 43.8245 52.9973C43.8458 52.8906 43.8458 52.7413 43.7605 52.6133C43.7178 52.5706 43.6965 52.528 43.6538 52.4853C43.6111 52.4639 43.5685 52.4426 43.5045 52.4213C43.4405 52.3999 43.3125 52.3999 43.1418 52.4426C43.1205 52.4426 43.0778 52.4426 43.0351 52.4639C42.9925 52.4639 42.9711 52.4639 42.9711 52.4639C42.5231 52.528 42.2031 52.5493 42.0325 52.4853C41.8618 52.4426 41.7125 52.3146 41.5845 52.1013C41.4565 51.888 41.4138 51.6533 41.4778 51.4186C41.5205 51.1839 41.6698 50.9919 41.8831 50.8639C42.0325 50.7786 42.2031 50.7146 42.3951 50.6933C42.4165 50.6933 42.4165 50.6933 42.4165 50.6933H42.4378C42.5018 50.6719 42.5445 50.6719 42.5658 50.6506C42.6085 50.6293 42.6298 50.6079 42.6725 50.5439C42.6725 50.5439 42.6725 50.5226 42.6938 50.5226C42.6938 50.5013 42.6938 50.5013 42.7151 50.5013C42.7365 50.4799 42.7365 50.4799 42.7578 50.4799C42.7791 50.4799 42.7791 50.5013 42.8005 50.5226C42.8005 50.5226 42.8005 50.5439 42.8218 50.5439V50.5653C42.8218 50.5866 42.8431 50.5866 42.8431 50.6079C42.8431 50.6293 42.8645 50.6506 42.8645 50.6719C42.9071 50.7146 42.9285 50.7573 42.9711 50.7999C42.9925 50.8639 43.0351 50.9066 43.0991 50.9706C43.1205 51.0133 43.1418 51.0346 43.1631 51.056C43.1845 51.0773 43.2058 51.0986 43.2058 51.1199C43.2271 51.1413 43.2271 51.1626 43.2271 51.1839C43.2271 51.2053 43.2271 51.2266 43.1845 51.2266C43.1631 51.2479 43.1418 51.2479 43.1205 51.2479C43.0991 51.2479 43.0778 51.2266 43.0138 51.1839C43.0138 51.1626 43.0138 51.1626 42.9925 51.1626C42.9498 51.1199 42.9071 51.0986 42.8645 51.0773C42.7151 50.9919 42.5658 50.9279 42.4165 50.9279C42.2671 50.9279 42.1178 50.9493 41.9898 51.0346C41.8831 51.0986 41.7978 51.2053 41.7551 51.312C41.7338 51.4186 41.7338 51.5253 41.7978 51.632C41.8618 51.7386 41.9258 51.8026 42.0325 51.8239C42.1178 51.8453 42.3098 51.8239 42.5445 51.7813C42.5658 51.7813 42.5658 51.7813 42.5658 51.7813C42.5871 51.7813 42.5871 51.7813 42.6085 51.7599C42.8218 51.7173 42.9925 51.6959 43.0778 51.6959C43.1845 51.6959 43.2698 51.6959 43.3338 51.7173C43.4618 51.7386 43.5685 51.7813 43.6751 51.8666C43.7818 51.9306 43.8671 52.0373 43.9525 52.1653C44.1018 52.4213 44.1658 52.6773 44.0805 52.9333C44.0165 53.1893 43.8458 53.4026 43.5898 53.5519C43.5045 53.6159 43.3765 53.6586 43.1845 53.7013L43.1631 53.7226C43.1418 53.7226 43.1205 53.7226 43.0991 53.7439C42.9925 53.7653 42.9285 53.7866 42.8858 53.8079C42.8218 53.8293 42.7791 53.8293 42.7578 53.8293C42.7365 53.8293 42.6938 53.8079 42.6725 53.7653ZM47.4511 49.84L46.4058 48.624C46.3205 48.5173 46.2565 48.4533 46.1925 48.4106C46.1285 48.3893 46.0645 48.368 46.0218 48.368C45.9578 48.368 45.8938 48.3893 45.8298 48.4319H45.8085C45.8085 48.4319 45.8085 48.4319 45.7871 48.4533C45.7871 48.4533 45.7871 48.4533 45.7658 48.4746C45.7445 48.4746 45.7231 48.4746 45.7018 48.4746C45.7018 48.4533 45.6805 48.4533 45.6591 48.4319C45.6378 48.4106 45.6378 48.3893 45.6378 48.368C45.6378 48.3466 45.6591 48.3253 45.6805 48.3253C45.6805 48.3039 45.6805 48.3039 45.7018 48.3039C45.7018 48.3039 45.7018 48.2826 45.7231 48.2826C45.7871 48.2399 45.8725 48.1759 45.9365 48.1119C46.0005 48.0693 46.0858 48.0053 46.1711 47.9199C46.2351 47.8773 46.2991 47.8133 46.3418 47.7493C46.4058 47.7066 46.4698 47.6426 46.5125 47.5786C46.5338 47.5786 46.5338 47.5786 46.5338 47.5573C46.5551 47.5359 46.5765 47.5146 46.5978 47.5146C46.6191 47.4933 46.6405 47.472 46.6618 47.472C46.6831 47.472 46.7045 47.472 46.7258 47.4933C46.7471 47.5359 46.7471 47.5786 46.7045 47.6426V47.6639C46.6831 47.7066 46.6618 47.7493 46.6618 47.7706C46.6618 47.8133 46.6618 47.8559 46.6831 47.8986C46.7045 47.9413 46.7471 48.0053 46.8325 48.1119L48.0485 49.4773C48.1125 49.584 48.1765 49.6266 48.2191 49.6479C48.2831 49.6906 48.3258 49.6906 48.3898 49.6906C48.4325 49.6906 48.4751 49.6693 48.5178 49.6479C48.5391 49.6479 48.5391 49.6479 48.5605 49.6266C48.6031 49.6053 48.6458 49.584 48.6671 49.584C48.6885 49.584 48.7098 49.6053 48.7311 49.6266C48.7525 49.6479 48.7738 49.6693 48.7525 49.6906C48.7525 49.7119 48.7525 49.7333 48.7311 49.7546C48.7311 49.7759 48.7098 49.7759 48.6885 49.7973C48.6671 49.7973 48.6458 49.8186 48.6245 49.84C48.6245 49.84 48.6031 49.84 48.6031 49.8613C48.4538 49.9466 48.3258 50.0533 48.2405 50.1386C48.1765 50.1813 48.1125 50.2453 48.0485 50.3093C47.9845 50.3519 47.9418 50.416 47.8778 50.4799C47.8565 50.5013 47.8351 50.5226 47.8351 50.5439C47.8138 50.5653 47.7925 50.5866 47.7711 50.5866C47.7498 50.6079 47.7285 50.6079 47.7071 50.6079C47.6858 50.6079 47.6645 50.6079 47.6431 50.5866C47.6431 50.5653 47.6218 50.5439 47.6218 50.5226C47.6218 50.5013 47.6431 50.4586 47.6645 50.416C47.6858 50.3733 47.6858 50.3306 47.6858 50.3093C47.7071 50.2879 47.7071 50.2666 47.7071 50.2239C47.7071 50.1813 47.6858 50.1386 47.6645 50.0959C47.6218 50.0319 47.5578 49.9466 47.4511 49.84Z" fill="#009B4C"/>
<path fill-rule="evenodd" clip-rule="evenodd" d="M30.0008 7.77063C42.2462 7.77063 52.2302 17.7546 52.2302 30C52.2302 42.2453 42.2462 52.2293 30.0008 52.2293C17.7555 52.2293 7.77148 42.2453 7.77148 30C7.77148 17.7546 17.7555 7.77063 30.0008 7.77063Z" fill="#029249"/>
<path fill-rule="evenodd" clip-rule="evenodd" d="M8.70965 31.3013C8.73098 31.2373 8.73098 31.1733 8.73098 31.1306C9.30698 29.4026 10.3523 28.0799 11.675 27.0133C9.81898 29.2533 9.17898 31.1093 9.13632 32.8159C9.09365 34.3093 9.79765 36.8053 11.2483 37.7866C12.827 38.8746 15.4296 39.7706 18.3096 37.4026C19.3976 36.5279 20.4216 35.5039 21.211 34.3093C20.9123 35.8026 20.6136 37.5519 20.4216 37.7653C20.2296 37.5519 20.0376 37.3173 19.867 37.1039C19.0136 37.8933 18.1816 38.6613 17.307 39.0666C17.5203 39.5146 17.8403 39.8773 18.331 40.1759L22.235 36.5279L22.171 39.1306L21.2963 38.4693C20.5923 39.3439 19.8883 40.1973 19.1843 41.0506C19.419 41.3919 19.739 41.6906 20.1656 41.9039L23.6003 38.1066V40.2399L22.811 39.9626C22.2776 40.8586 21.7656 41.7546 21.2323 42.6506C22.0643 43.2906 22.5123 43.5893 23.8563 44.0159L27.5043 36.2079L28.2296 38.5119L26.9923 38.2986L25.6056 44.7413C26.1603 44.9119 27.291 45.1679 28.2083 45.04L27.2483 43.6746L31.259 43.7599L32.7523 41.9893L34.8856 43.6959L33.0083 45.9146L31.7283 44.9119L29.2536 45.1466L30.0856 46.512C25.435 47.0453 19.9096 44.6346 16.0483 39.9626C16.0056 39.9199 15.9843 39.8773 15.9416 39.8559C14.1283 40.0906 10.9923 39.6853 9.52032 37.0399C9.49898 36.9973 9.47765 36.9546 9.45632 36.9119C8.49632 35.2693 8.21898 33.0933 8.70965 31.3013ZM37.3176 31.1093L37.2963 31.3013C37.147 32.3039 37.2536 32.7946 38.7043 32.8799C38.2776 32.0479 39.643 30.9599 37.4456 30.3839C37.403 30.6399 37.3603 30.8959 37.3176 31.1093ZM38.3843 32.3679C37.3603 32.3253 37.5523 31.8986 37.6803 30.9813C38.939 31.3013 38.1496 31.9199 38.3843 32.3679ZM34.075 22.8319C34.075 22.4053 34.4163 22.0426 34.843 22.0426C35.2696 22.0426 35.6323 22.3839 35.6323 22.8106C35.6323 23.0879 35.5043 23.3439 35.2696 23.4933C35.4616 23.6213 35.611 23.8559 35.611 24.1333C35.611 24.5599 35.2696 24.9226 34.8216 24.9439C34.3736 24.9439 34.0323 24.5813 34.011 24.1546C34.011 23.8559 34.1603 23.5999 34.395 23.4506C34.203 23.3226 34.075 23.0879 34.075 22.8319ZM34.3736 22.8319C34.3736 22.5546 34.587 22.3413 34.843 22.3413C35.099 22.3413 35.3336 22.5546 35.3336 22.8106C35.3336 23.0666 35.1203 23.2799 34.8643 23.3013C34.587 23.3013 34.3736 23.0879 34.3736 22.8319ZM34.331 24.1333C34.331 23.8773 34.5443 23.6426 34.8003 23.6426C35.0776 23.6426 35.291 23.8559 35.291 24.1333C35.291 24.3893 35.0776 24.6026 34.8216 24.6239C34.5443 24.6239 34.331 24.4106 34.331 24.1333ZM22.2563 34.3306L22.5336 34.2666L22.6616 34.6506C23.579 34.5439 23.771 34.0533 23.771 33.3493C23.8563 33.4559 23.9203 33.3279 23.9843 33.4346C24.219 33.8826 23.9203 34.7999 23.195 35.3119C23.0243 35.4399 24.7523 36.9119 25.0296 36.4639C24.987 35.2479 25.7976 34.9279 26.5443 35.3973C27.2057 36.0373 26.843 37.5946 25.0723 37.3813C24.283 37.1466 22.747 36.2719 22.2563 34.3306ZM25.5416 36.2933C25.5203 36.0373 25.7123 35.8453 25.947 35.8239C26.1603 35.8239 26.3523 36.0373 26.3523 36.2719C26.3523 36.5279 26.1817 36.7199 25.947 36.7199C25.7123 36.7413 25.5416 36.5279 25.5416 36.2933ZM20.6136 25.4133C20.6136 24.6666 20.6776 24.2613 20.571 23.6853C20.4643 23.1733 19.7603 22.5973 18.8856 22.0426C19.2696 21.6799 20.7203 22.3626 21.1043 23.5999L21.9576 23.7066L22.2776 22.5546C22.3843 22.5973 22.6616 22.6613 22.7896 22.7039C22.5336 23.1519 22.299 23.4719 22.1923 23.8773C22.0643 24.3039 22.0856 24.7946 22.107 25.3493L20.6136 25.4133ZM21.0403 24.9653V24.2399L21.6376 24.2186V24.9439L21.0403 24.9653ZM20.635 13.9573V13.3599C21.7016 13.4453 22.9816 11.5466 24.5176 11.7173L24.539 12.2933C23.451 11.8239 22.0643 13.7226 20.635 13.9573ZM41.0723 15.0666C40.731 13.8079 38.427 13.7866 37.6163 12.7199C37.851 12.6559 37.9363 12.4639 38.107 12.4853C38.5763 13.3386 40.7736 13.1679 41.4563 14.7253C41.3283 14.8533 41.2003 14.9599 41.0723 15.0666ZM47.707 23.2799C47.8776 21.9786 45.7656 21.0826 45.3816 19.8026C45.6376 19.8453 45.8936 19.6319 46.043 19.7173C45.4456 20.4853 48.155 21.4026 48.1976 23.1093C48.027 23.1733 47.8776 23.2159 47.707 23.2799ZM48.603 31.9199L47.835 31.3226L48.3683 30.6613L49.115 31.2586L48.603 31.9199ZM48.7736 30.1493L48.027 29.5519L48.539 28.8906L49.307 29.4879L48.7736 30.1493ZM40.283 44.0159L40.347 43.2693L41.0936 43.3333L41.0296 44.0799L40.283 44.0159ZM39.3443 44.8906L39.4296 43.952L40.1976 44.0799L40.1123 45.0186L39.3443 44.8906ZM26.2243 48.2826L25.9683 47.3653L26.907 47.1093L27.163 48.0266L26.2243 48.2826ZM20.9763 45.8506L20.8696 45.424C22.8536 44.8906 23.387 46.5333 24.6243 46.576C24.6243 46.7679 24.6243 46.9599 24.6243 47.1306C23.2376 46.896 22.747 45.5733 20.9763 45.8506ZM28.3576 39.3226L28.4003 38.8106C29.8937 38.7893 31.259 37.9573 32.6243 38.0639C32.6243 38.3199 32.6243 38.5546 32.6243 38.8106C31.7496 38.2346 29.8296 39.2799 28.3576 39.3226ZM35.291 36.1653L36.9976 34.3093C37.275 34.0106 37.5523 33.7759 37.5736 33.7973L37.7656 33.9679C37.787 34.0106 37.595 34.2879 37.2963 34.5866L35.5043 36.5493C35.2056 36.8479 34.9496 37.0826 34.9283 37.0613L34.7576 36.8906C34.715 36.8693 34.9496 36.5279 35.291 36.1653ZM38.1923 25.6053C37.787 26.0746 36.6563 26.3519 36.1016 25.2426C35.6323 23.3439 37.2536 22.6613 37.8936 22.6399C37.6803 24.2826 38.107 24.9866 38.8323 25.9893C39.2803 27.1413 38.619 28.3573 39.6216 29.3173L38.7896 29.8933C38.1283 29.6159 38.5976 28.4853 38.6403 28.0373C38.7896 27.1839 38.619 26.3093 38.1923 25.6053ZM37.0616 24.2613C37.403 24.2613 37.659 24.5386 37.659 24.8586C37.659 25.1999 37.403 25.4773 37.083 25.4773C36.763 25.4773 36.4856 25.1999 36.4856 24.8799C36.4856 24.5386 36.7416 24.2613 37.0616 24.2613ZM27.0777 40.8373C27.0777 40.0906 27.675 39.4719 28.443 39.4506C29.1896 39.4506 29.8083 40.0479 29.8296 40.8159C29.8296 41.5626 29.2323 42.1813 28.4643 42.2026C27.7176 42.2026 27.099 41.584 27.0777 40.8373ZM27.7603 40.8373C27.7603 40.4959 28.059 40.1973 28.4003 40.1973C28.763 40.1973 29.0403 40.4746 29.0616 40.8373C29.0616 41.1786 28.763 41.4773 28.4216 41.4773C28.059 41.4773 27.7816 41.1999 27.7603 40.8373ZM20.5923 29.3386C20.571 28.6986 20.9763 28.1439 21.4883 28.1439C22.0003 28.1439 22.4056 28.6773 22.427 29.3173C22.427 29.9786 22.0216 30.5119 21.5096 30.5119C21.019 30.5333 20.5923 29.9999 20.5923 29.3386ZM21.0403 29.3599C21.0403 29.0399 21.2323 28.7839 21.467 28.7839C21.7016 28.7839 21.8937 29.0399 21.8937 29.3386C21.915 29.6373 21.723 29.8933 21.4883 29.8933C21.2323 29.8933 21.0403 29.6586 21.0403 29.3599ZM30.5763 21.1253C30.555 20.4853 31.0883 19.9519 31.7496 19.9306C32.3896 19.9306 32.923 20.4639 32.9443 21.1039C32.9443 21.7653 32.4323 22.2986 31.771 22.2986C31.1096 22.3199 30.5763 21.7866 30.5763 21.1253ZM31.1736 21.1466C31.1523 20.8266 31.4083 20.5919 31.707 20.5706C32.027 20.5706 32.2616 20.8266 32.283 21.1253C32.283 21.4239 32.027 21.6799 31.7283 21.6799C31.4296 21.7013 31.1736 21.4453 31.1736 21.1466ZM35.4403 46.3413C38.8323 47.9199 39.0883 44.464 36.6776 44.2933C35.1203 44.3146 35.5043 40.6026 36.5496 40.4533C36.7843 40.4106 37.2323 40.9226 37.4883 41.0719C42.2456 43.8026 42.5016 39.1306 37.659 36.4426L39.6643 36.2506L39.707 37.3386C43.5256 40.0479 43.0563 38.2559 42.2883 37.0399C41.1576 36.2933 40.411 35.5679 38.875 34.8426L40.859 34.3093L40.923 35.4399C43.1416 36.8906 44.0163 36.7413 44.059 36.1439C44.123 35.5466 43.4403 34.6506 42.3096 34.0959L39.7496 33.2213L41.0723 32.6453C41.435 31.2586 42.4376 32.6453 42.651 33.4133C44.0803 34.0746 44.8056 33.8826 45.1256 33.4133C45.659 32.6239 45.8083 31.0666 44.635 30.9386L42.2883 30.5759L43.4616 29.2746L43.8456 30.1919L45.851 30.1279L45.8723 28.4639L41.4136 28.6133C41.4776 27.5893 41.4776 27.1199 42.2883 26.5653L42.8856 27.4613L45.6376 27.3759L45.7016 26.9066L44.1656 25.3706C44.9336 24.5813 45.915 24.2826 46.5336 24.1973C44.9976 23.4293 42.331 23.5146 41.499 24.1119C41.1363 24.3679 41.179 25.0079 41.499 25.6479C40.3896 26.2026 40.3896 24.6666 40.3043 23.6639L39.2376 23.5786L39.4296 21.2746C39.7283 21.7226 40.0696 22.0213 40.4536 22.2773C41.1576 21.4453 42.0323 20.8053 42.9923 20.2293L41.179 18.1386L37.4243 21.3813L37.1256 19.0986L38.043 19.7386L41.4136 16.2186C43.9523 18.3733 45.0616 20.7626 46.0856 23.1519L47.1096 24.0906C53.5096 25.0506 52.571 35.0773 46.747 37.1253L46.5123 36.7413C50.9496 35.2053 51.867 30.1493 50.0323 26.5013C49.3496 25.4559 47.771 24.7519 46.7896 25.3919C48.731 32.7093 43.7603 41.0506 40.603 42.8426C39.0456 42.9493 38.1923 42.7999 37.2536 42.2453C36.827 41.9466 36.379 43.2693 37.1256 43.504C41.9896 44.208 37.659 51.1199 35.4403 46.3413ZM43.8456 21.1253C44.251 21.5306 44.699 22.4266 44.763 22.8746L41.307 22.9386C41.7123 21.7653 42.9923 21.2533 43.8456 21.1253ZM45.6376 25.5413C45.6163 25.2853 45.787 25.0719 46.0216 25.0719C46.235 25.0506 46.427 25.2639 46.427 25.5199C46.427 25.7759 46.2563 26.0106 46.0216 26.0106C45.8083 26.0106 45.6376 25.7973 45.6376 25.5413ZM31.707 12.0799C32.9016 12.0586 34.3096 12.3999 35.5683 12.8479C35.1416 13.6799 34.0536 14.5333 33.435 15.2586C33.179 18.0533 34.4803 19.8026 35.099 19.9733L34.2456 21.2319C33.691 20.2719 32.8376 18.3093 32.859 15.6639L32.7096 15.6213C31.963 17.2639 30.9816 18.7573 30.0217 20.1439L29.2323 18.6506L29.979 18.6293C30.939 17.5839 31.6003 16.7733 32.1976 15.4079C32.795 14.4266 31.579 13.5519 31.707 12.0799ZM32.795 13.3173L34.1176 13.5733L33.0083 14.8959L32.795 13.3173ZM26.9923 12.2079L28.0163 12.1866C28.4216 15.4719 28.7843 18.5013 28.891 22.5119L27.3976 20.5706L28.2936 20.4426L26.9923 12.2079ZM36.5283 13.1893C38.0856 13.9786 39.4723 14.8106 40.7096 15.7919L39.4083 16.4533L36.9763 15.0026C37.531 15.9199 37.339 16.7306 36.955 17.1146C36.4216 17.6053 34.6723 17.5199 34.0963 16.2399L34.6723 15.9626C36.0803 17.5413 37.6163 15.4506 35.5043 14.3413C35.8456 13.9573 36.187 13.5733 36.5283 13.1893ZM20.8056 14.5119C22.171 13.7653 23.8776 12.9333 25.4776 12.5919L25.5203 14.1919L23.1523 15.0239C24.2403 15.1519 24.5176 15.7706 24.5816 16.2399C24.667 16.9439 24.0696 18.0533 21.979 18.1173L21.723 17.5413C23.0456 17.1999 23.323 16.6666 23.1523 16.2613C22.8963 15.6426 22.2776 15.3013 21.019 15.8986C20.955 15.4506 20.8696 14.9813 20.8056 14.5119ZM14.7043 21.2106L14.5976 18.9706L16.219 18.8426L19.3763 15.6426C20.9763 17.8186 23.1736 20.2719 24.1976 22.2986C25.1363 22.5973 25.6483 23.2159 26.0536 23.8346C24.9656 23.5573 23.323 23.4933 22.7683 24.9226C22.5336 24.0479 22.683 23.1519 23.515 22.5759C23.8563 21.2533 20.5283 18.9706 19.291 17.7119L17.563 19.4826L17.8403 21.5093L15.8563 22.0853L15.0883 23.8773L23.6856 26.8426L21.1896 27.6533L21.147 26.7359L14.619 25.1999L14.1283 27.6959C14.8536 27.9946 15.963 27.0133 16.8803 26.6719L16.8163 31.6853L15.2163 30.0853C14.8323 30.0853 14.4483 30.1066 14.0643 30.1066C13.979 30.7039 14.0003 31.3013 14.171 31.9626C14.5336 32.5173 15.643 32.2613 16.1763 32.1119L18.651 31.4506V30.6399L17.819 30.5546L17.9896 27.6319L19.163 28.9759L18.459 29.0613L18.4376 29.8506L19.547 29.6373L19.6963 31.1946L22.747 30.6399L21.2323 32.2613L20.9763 31.6426C18.843 32.2826 16.731 32.9226 14.5976 33.5839C14.427 34.1813 14.8536 34.7999 15.1736 35.2479L22.8963 32.0693L21.787 34.0106L21.3176 33.5839L14.2563 36.9333L13.7656 35.7599C14.0643 35.6533 14.363 35.5466 14.6616 35.4399C14.2776 34.8426 14.1283 34.1386 14.2563 33.6693L12.955 34.0106L12.6136 29.5306L15.643 29.5093V28.1013C14.811 28.4213 13.595 28.8906 12.8056 27.8879C12.7416 25.5626 13.4883 23.5573 14.7043 21.2106ZM16.1336 19.6106C16.4963 19.5893 16.7736 19.8879 16.7736 20.2719C16.795 20.6346 16.4963 20.9333 16.1336 20.9333C15.7923 20.9333 15.4936 20.6346 15.4936 20.2719C15.4936 19.9093 15.771 19.6106 16.1336 19.6106ZM32.9016 43.1626C33.307 43.1626 33.6483 43.504 33.6483 43.9306C33.6483 44.3573 33.3283 44.6986 32.9016 44.6986C32.4963 44.6986 32.155 44.3573 32.155 43.9306C32.155 43.504 32.4963 43.1626 32.9016 43.1626Z" fill="#FEFEFE"/>
</svg>
