<?xml version="1.0" encoding="UTF-8" standalone="no"?><!DOCTYPE svg PUBLIC "-//W3C//DTD SVG 1.1//EN" "http://www.w3.org/Graphics/SVG/1.1/DTD/svg11.dtd"><svg width="100%" height="100%" viewBox="0 0 541 540" version="1.1" xmlns="http://www.w3.org/2000/svg" xmlns:xlink="http://www.w3.org/1999/xlink" xml:space="preserve" xmlns:serif="http://www.serif.com/" style="fill-rule:evenodd;clip-rule:evenodd;stroke-linecap:round;stroke-linejoin:round;stroke-miterlimit:1.5;"><rect id="Artboard3" x="0.187" y="0" width="540" height="540" style="fill:none;"/><g id="Artboard31" serif:id="Artboard3"><path d="M167.096,226.685c3.027,5.819 6.61,11.35 10.678,15.711" style="fill:none;stroke:#000;stroke-width:0.8px;"/><path d="M220.219,168.752c3.371,0 6.109,4.573 6.109,10.205c-0,5.633 -2.738,10.205 -6.109,10.205c-3.372,0 -6.11,-4.572 -6.11,-10.205c0,-5.632 2.738,-10.205 6.11,-10.205Zm4.436,6.261c0.014,-0.151 0.022,-0.306 0.022,-0.465c0,-1.567 -0.75,-2.84 -1.673,-2.84c-0.748,-0 -1.382,0.836 -1.596,1.987c-0.015,0.151 -0.022,0.306 -0.022,0.465c-0,1.567 0.749,2.84 1.673,2.84c0.748,0 1.382,-0.836 1.596,-1.987Zm0.036,6.575c-0.575,3.048 -2.282,5.261 -4.295,5.261c-2.485,-0 -4.503,-3.37 -4.503,-7.521c0,-0.419 0.021,-0.83 0.061,-1.23c-0.135,0.713 -0.208,1.472 -0.208,2.26c0,4.15 2.018,7.52 4.503,7.52c2.234,0 4.09,-2.724 4.442,-6.29Zm-18.641,-17.038c-0.866,0.871 -2.277,0.876 -3.149,0.01c-0.872,-0.866 -0.876,-2.276 -0.011,-3.148c0,-0 15.221,-15.096 28.506,-1.747c0.867,0.871 0.864,2.281 -0.007,3.148c-0.871,0.867 -2.282,0.864 -3.148,-0.007c-10.356,-10.404 -22.191,1.744 -22.191,1.744Zm69.83,-2.522c0.525,0.807 0.297,1.89 -0.511,2.415c-0.807,0.526 -1.889,0.298 -2.415,-0.51c0,0 -1.418,-2.172 -3.58,-3.898c-1.287,-1.028 -2.845,-1.937 -4.547,-1.915c-1.826,0.024 -3.689,1.188 -5.57,4.069c-0.526,0.807 -1.609,1.034 -2.415,0.508c-0.807,-0.527 -1.035,-1.609 -0.508,-2.416c2.771,-4.245 5.757,-5.616 8.447,-5.651c2.512,-0.033 4.872,1.161 6.771,2.676c2.616,2.089 4.328,4.722 4.328,4.722Zm-42.747,58.516c1.405,0.503 12.125,4.244 18.383,3.549c5.125,-0.569 7.865,-3.243 9.035,-5.333c0.281,-0.502 0.484,-1.124 0.563,-1.382c-0.153,-0.717 0.066,-1.494 0.643,-2.027c0.871,-0.802 2.229,-0.747 3.031,0.123c0.317,0.344 0.785,1.147 0.607,2.397c-0.227,1.588 -1.72,5.198 -5.613,7.781c-1.942,1.288 -4.492,2.338 -7.792,2.705c-6.827,0.758 -16.673,-2.011 -20.203,-3.653c-1.222,-0.568 -1.901,-1.214 -2.12,-1.559c-0.428,-0.674 -0.432,-1.308 -0.291,-1.833c0.308,-1.143 1.485,-1.822 2.629,-1.514c0.464,0.125 0.852,0.394 1.128,0.746Zm32.973,-51.792c1.927,0 3.491,4.188 3.491,9.346c0,5.158 -1.564,9.345 -3.491,9.345c-1.926,0 -3.491,-4.187 -3.491,-9.345c0,-5.158 1.565,-9.346 3.491,-9.346Zm2.396,12.499c-0.308,2.39 -1.222,4.125 -2.301,4.125c-1.331,-0 -2.412,-2.643 -2.412,-5.897c0,-0.329 0.011,-0.651 0.032,-0.965c-0.072,0.559 -0.111,1.155 -0.111,1.772c0,3.255 1.081,5.897 2.412,5.897c1.197,-0 2.192,-2.136 2.38,-4.932Zm-0.019,-5.156c0.008,-0.118 0.012,-0.24 0.012,-0.364c0,-1.229 -0.402,-2.227 -0.896,-2.227c-0.401,-0 -0.741,0.655 -0.855,1.558c-0.008,0.118 -0.012,0.24 -0.012,0.364c-0,1.229 0.401,2.227 0.896,2.227c0.401,0 0.741,-0.655 0.855,-1.558Z"/><path d="M218.505,300.23l3.217,15.015" style="fill:none;stroke:#000;stroke-width:1px;"/><path d="M225.64,504.279c0.02,6.274 -0.13,10.548 -0.13,10.548c-21.584,0.462 -125.893,7.419 -142.647,-23.595c-16.755,-31.015 -4.291,-176.969 -4.291,-176.969c4.291,-24.668 69.715,-58.989 69.715,-58.989l-12.199,36.599c-0.414,1.242 -0.122,2.611 0.762,3.576l32.339,35.279c0.982,1.071 1.225,2.627 0.616,3.947l-4.304,9.326c-0.68,1.472 -0.292,3.217 0.947,4.264c15.78,14.793 46.191,62.526 46.191,62.526l1.576,36.376l0.569,8.671l-74.004,-13.943c4.29,-13.943 -9.653,-80.44 -9.653,-80.44c-1.328,-9.521 -15.887,-34.157 -20.378,-38.611c-4.492,-4.455 -5.363,-1.073 -5.363,-1.073c13.943,10.725 23.596,39.684 23.596,39.684c-0,-0 16.235,84.202 8.58,80.44c-7.655,-3.762 -22.554,-1.727 -26.813,-0c-4.26,1.727 -2.146,3.218 -2.146,3.218c5.684,-3.389 23.596,-3.218 23.596,-3.218c23.951,4.832 87.948,17.16 87.948,17.16c4.17,8.62 5.246,27.515 5.453,40.919c0.445,-0.088 0.921,-0.036 1.359,0.18c-0,-0 13.463,6.668 20.638,7.477c6.019,0.679 16.407,0.229 19.839,0.052c0.479,-0.878 1.171,-2.303 1.58,-3.869c0.365,-1.397 0.573,-2.937 -0.147,-4.17c-0.817,-1.4 -2.725,-2.158 -6.203,-2.251c-0.197,-0.005 -0.393,-0.038 -0.582,-0.097l-13.66,-4.269c-1.13,-0.353 -1.761,-1.557 -1.408,-2.687c0.353,-1.13 1.558,-1.761 2.688,-1.408c-0,0 13.381,4.182 13.379,4.182c5.452,0.211 8.187,2.132 9.492,4.367c1.048,1.796 1.213,3.946 0.883,6.032c4.063,-1.248 12.188,-3.854 18.948,-6.716c3.836,-1.625 7.228,-3.3 9.035,-4.874c2.818,-2.453 4.473,-4.69 5.078,-6.605c0.376,-1.188 0.31,-2.178 -0.394,-2.785c-0.897,-0.773 -0.998,-2.128 -0.225,-3.025c0.773,-0.897 2.129,-0.997 3.026,-0.224c1.555,1.34 2.349,3.28 2.048,5.69c-0.343,2.748 -2.314,6.353 -6.715,10.185c-2.045,1.78 -5.841,3.751 -10.18,5.588c-9.644,4.084 -22.007,7.661 -22.007,7.661c-0.075,0.022 -0.151,0.039 -0.227,0.053c-0.703,1.488 -1.35,2.476 -1.35,2.476c-0.372,0.568 -0.989,0.926 -1.666,0.967c-0,-0 -14.171,0.841 -21.713,-0.01c-6.745,-0.761 -18.726,-6.308 -21.476,-7.615Zm3.611,-212.539l-2.143,4.285c-0.166,0.332 -0.524,0.523 -0.892,0.475c-0.368,-0.047 -0.666,-0.322 -0.742,-0.685c-0.475,-2.255 -1.046,-4.295 -1.69,-6.142c-0.908,6.528 -4.515,11.142 -4.693,11.366c-0.003,0.004 -0.005,0.007 -0.007,0.008c-0.035,0.044 -0.074,0.086 -0.116,0.124c-0.439,0.397 -1.118,0.363 -0.719,0.277c-0.284,-0 -0.555,-0.113 -0.755,-0.311c-0,0 -0.904,-0.655 -3.31,-1.123c-0.292,-0.024 -0.593,-0.041 -0.901,-0.051c-4.018,-0.128 -9.175,0.87 -11.114,1.283c-1.274,24.839 -2.211,48.363 -2.895,68.712c-0.011,0.336 -0.176,0.631 -0.425,0.819c7.648,21.045 13.79,37.869 13.79,37.869c-7.988,-18.365 -37.025,-52.838 -43.68,-60.619c-0.844,-0.982 -1.095,-2.341 -0.66,-3.56c1.017,-2.853 2.892,-8.103 3.926,-10.996c0.449,-1.259 0.165,-2.664 -0.738,-3.649l-32.48,-35.433c-0.891,-0.972 -1.181,-2.352 -0.755,-3.6l15.053,-44.157c-0.148,-7.469 -0.303,-15.312 -0.303,-15.311c-2.62,1.938 -7.283,4.367 -13.465,3.484c-9.492,-1.357 -18.163,-10.351 -22.115,-17.202c-3.957,-6.861 -4.201,-19.808 -0.71,-27.91c0.158,-0.366 0.344,-0.732 0.557,-1.098c-2.686,-4.712 -14.724,-27.112 -11.263,-44.321c3.887,-19.331 23.346,-26.491 23.346,-26.491c0,0 18.556,-59.161 83.898,-58.781c61.076,0.355 73.785,43.949 75.121,49.408c1.656,6.762 1.678,22.899 -0.258,29.645c-1.996,6.956 -7.52,13.717 -10.206,16.711c0.427,11.275 1.504,38.423 2.241,45.761c1.209,12.042 -4.341,34.607 -9.937,41.729c-5.616,7.148 -13.154,15.123 -34.347,17.582c-2.489,0.288 -5.071,0.434 -7.706,0.448l0.083,3.689c6.922,1.427 63.799,15.123 72.849,23.384l20.91,22.524l-78.827,-0l7.615,-11.302c0.584,-0.949 0.538,-2.157 -0.117,-3.059l-22.414,-30.844l0.01,0.433c0.083,0.019 0.164,0.051 0.24,0.094c0.251,0.144 0.414,0.402 0.436,0.69l0.129,1.672l19.505,27.966c0.626,0.898 0.66,2.082 0.086,3.015l-7.635,11.335l-17.161,-0l5.384,-18.143Zm-65.746,-18.378c11.07,13.323 20.301,20.438 23.291,22.585c4.048,-13.205 11.829,-20.994 15.389,-24.012c-26.045,-1.862 -41.21,-14.67 -45.969,-19.393l0.047,2.389c1.839,5.129 4.433,11.391 7.242,18.431Zm58.625,12.284c-5.272,-10.979 -13.295,-13.085 -15.865,-13.483l-1.738,0.156c-1.897,1.447 -8.284,6.802 -13.02,16.545c0.291,0.032 0.569,0.183 0.754,0.44c-0,-0 4.819,6.716 9.11,9.915c1.92,-0.442 9.004,-1.984 12.377,-1.459c0.264,0.042 0.516,0.085 0.756,0.13c1,0.092 1.904,0.267 2.651,0.54c0.319,0.116 0.612,0.252 0.877,0.404c1.244,-1.87 3.916,-6.584 3.81,-12.437c-0.005,-0.29 0.105,-0.554 0.288,-0.751Zm-24.88,80.73c0.675,-19.602 1.581,-41.952 2.789,-65.475c-4.074,-3.071 -8.589,-9.082 -9.393,-10.172c-0.923,2.107 -1.761,4.399 -2.461,6.881c-0.077,0.271 -0.284,0.49 -0.556,0.588c-0.273,0.098 -0.578,0.063 -0.819,-0.093c-0,-0 -8.232,-3.447 -19.368,-14.626c1.139,3.023 2.273,6.141 3.368,9.334c3.956,11.523 16.21,45.401 26.44,73.563Zm13.471,-94.9c-0.1,0.014 -0.2,0.027 -0.301,0.041c2.048,0.815 4.519,2.19 6.979,4.503c3.535,3.324 7.07,8.614 9.23,17.06c0,0 3.057,-7.745 3.171,-10.993c0.084,-2.404 1.609,-6.231 1.072,-8.58c-1.028,-4.504 -3.472,-4.907 -3.554,-5.975c-0.851,0.296 -1.817,0.583 -2.852,0.862c-3.531,1.236 -7.9,2.265 -13.332,3.025c-0.142,0.035 -0.281,0.07 -0.416,0.104c-0,-0 0,-0.017 0.003,-0.047Zm1.258,-1.943c0.413,-0.293 0.96,-0.558 1.685,-0.745c3.799,-0.975 7.735,-2.171 11.812,-3.573c-0,-0 -0.112,-4.955 -0.112,-4.955c-18.948,-0.53 -39.865,-7.535 -48.611,-16.912c-4.353,-4.666 -8.168,-10.643 -11.349,-16.898c-0.349,-0.687 -0.075,-1.528 0.612,-1.878c0.687,-0.349 1.529,-0.075 1.878,0.612c3.059,6.016 6.715,11.772 10.901,16.26c8.583,9.201 29.456,15.834 47.951,16.05c0.04,0 0.08,0.002 0.119,0.006c2.975,0.027 5.887,-0.113 8.677,-0.436c20.014,-2.323 27.169,-9.783 32.473,-16.533c5.324,-6.777 10.505,-28.269 9.354,-39.725c-0.915,-9.106 -2.354,-48.61 -2.433,-50.804l-2.498,-14.393c-1.146,-4.086 -2.945,-10.096 -4.014,-13.034c-2.099,-5.771 -8.62,-15.561 -14.799,-15.341c-6.178,0.219 -13.732,7.879 -23.713,8.82c-9.981,0.942 -26.264,-3.39 -32.386,-3.655c-6.123,-0.264 -11.067,3.631 -19.951,15.253c-8.884,11.622 -7.237,28.528 -6.594,33.234c0.644,4.707 0.042,23.872 0.081,22.052c0.021,-0.974 -1.921,9.58 -6.544,14.06c-3.307,3.204 -9.691,0.743 -9.878,0.482c-4.534,-6.331 -9.728,-14.093 -18.271,-15.728c-4.632,-0.887 -8.696,0.917 -11.744,3.063c-2.402,1.871 -4.451,3.9 -5.348,5.983c-3.178,7.376 -3.038,19.164 0.564,25.41c3.608,6.255 11.425,14.593 20.091,15.832c8.291,1.185 13.347,-4.672 13.347,-4.672c0.377,-0.44 0.986,-0.601 1.531,-0.405c0.545,0.195 0.913,0.707 0.925,1.286l0.358,18.114c1.429,1.937 17.353,22.565 48.512,23.964c0.15,0.007 0.293,0.049 0.417,0.12c0.107,-0.063 0.23,-0.105 0.362,-0.117c2.367,-0.224 4.561,-0.491 6.595,-0.797Z"/><path d="M422.161,466.92l0,3.947c0,2.664 -1.057,5.217 -2.941,7.1c-0.945,0.946 -2.059,1.683 -3.272,2.183c-1.202,0.496 -2.501,0.758 -3.828,0.758l-135.172,0c-0.116,0 -0.231,-0.01 -0.344,-0.03l-51.494,-9.335c-0.055,-1.337 -0.226,-2.692 -0.466,-4.004c13.554,2.457 50.376,9.132 50.376,9.132l-0,-151.658l-50.015,-9.066c-1.31,-0.238 -2.658,0.118 -3.679,0.971c-1.022,0.853 -1.613,2.116 -1.613,3.447l0,136.793l-3.856,-1.411l-0,-135.382c-0,-2.474 1.098,-4.821 2.997,-6.407c1.254,-1.047 2.772,-1.691 4.359,-1.881c0.152,-0.038 0.311,-0.059 0.475,-0.059l143.528,0c0.07,0 0.141,0.004 0.21,0.012c0,-0 17.074,1.876 31.41,4.355c-0.04,0.685 -0.061,1.375 -0.061,2.071c0,0.617 0.016,1.231 0.048,1.84c-13.697,-2.402 -30.251,-4.259 -31.713,-4.422l-120.884,0l31.066,5.632c0.366,0.067 0.693,0.234 0.953,0.47l120.706,0c0.132,1.308 0.336,2.595 0.608,3.857l-120.683,-0l0,151.219l133.244,0c1.159,0 2.285,-0.325 3.254,-0.925c0.403,-0.249 0.779,-0.546 1.12,-0.886c1.16,-1.16 1.811,-2.733 1.811,-4.373l0,-3.891c-0.463,-0.019 -0.928,-0.049 -1.394,-0.09c-4.54,-0.4 -9.084,-1.923 -12.146,-5.452c-2.062,-2.379 -3.5,-5.681 -3.72,-10.276c-0.276,-5.78 0.312,-16.293 13.898,-22.577l3.362,-2.95l0,-75.881c1.246,0.611 2.533,1.15 3.856,1.611l0,60.85c0.366,-0.162 0.777,-0.238 1.204,-0.204c7.464,0.592 11.603,5.153 11.603,5.153c0.2,0.216 0.36,0.464 0.473,0.735c7.525,18.042 6.537,29.7 3.836,36.83c-2.94,7.761 -8.016,10.546 -8.016,10.546c-0.17,0.097 -0.35,0.174 -0.537,0.228c-0,0 -3.77,1.103 -8.563,1.42Zm5.03,-42.45l-9.235,8.102c-0.186,0.163 -0.396,0.298 -0.621,0.399c-11.009,4.955 -11.53,13.341 -11.31,17.95c0.154,3.224 1.06,5.578 2.507,7.246c2.204,2.541 5.549,3.465 8.817,3.753c0.319,0.029 0.638,0.05 0.956,0.066c1.327,0.068 2.633,0.034 3.856,-0.056c3.254,-0.24 5.923,-0.885 6.831,-1.125c1.77,-1.249 14.073,-11.25 2.042,-40.516c-0.856,-0.765 -3.67,-2.962 -8.064,-3.311c-0.287,-0.022 -0.559,-0.093 -0.809,-0.203l0,5.474l1.741,-1.527c1.034,-0.908 2.611,-0.805 3.518,0.229c0.908,1.035 0.805,2.611 -0.229,3.519Zm-77.636,-84.738c29.447,0 53.506,27.579 53.506,61.71c-0,34.131 -24.059,61.71 -53.506,61.71c-29.447,0 -53.506,-27.579 -53.506,-61.71c-0,-34.131 24.059,-61.71 53.506,-61.71Zm-0,3.857c-27.487,-0 -49.65,25.995 -49.65,57.853c0,31.859 22.163,57.854 49.65,57.854c27.486,0 49.649,-25.995 49.649,-57.854c0,-31.858 -22.163,-57.853 -49.649,-57.853Zm84.054,-57.784c18.021,-0 32.651,14.63 32.651,32.651c0,18.02 -14.63,32.651 -32.651,32.651c-18.02,-0 -32.651,-14.631 -32.651,-32.651c0,-18.021 14.631,-32.651 32.651,-32.651Zm-21.8,34.953l15.857,12.533c1.551,1.226 3.778,1.08 5.156,-0.338l22.961,-23.619c1.484,-1.526 1.449,-3.97 -0.077,-5.453c-1.526,-1.484 -3.969,-1.449 -5.453,0.077l-20.535,21.124l-13.126,-10.375c-1.67,-1.32 -4.097,-1.035 -5.417,0.634c-0.789,0.998 -1.005,2.267 -0.694,3.408c0.209,0.768 0.656,1.478 1.328,2.009Z"/><path d="M392.5,393.689l-0,23.364l-45.591,14.95l-34.409,-1.55l0.205,-23.425l45.828,-15.028l33.967,1.689Zm-45.676,36.134l44.792,-14.398l-0.116,-0.845l-44.591,13.711l-33.083,-1.374l-0.116,1.368l33.114,1.538Zm-0,-15.155l44.792,-13.963l-0.116,-1.152l-44.591,13.583l-33.083,-1.246l-0.116,1.24l33.114,1.538Zm-0,8.66l44.792,-13.963l-0.116,-1.414l-44.591,13.845l-33.083,-1.509l-0.116,1.503l33.114,1.538Zm-0,4.33l44.792,-13.963l-0.116,-1.325l-44.591,13.756l-33.083,-1.419l-0.116,1.413l33.114,1.538Zm-0,-2.165l44.792,-13.963l-0.116,-1.369l-44.591,13.8l-33.083,-1.464l-0.116,1.458l33.114,1.538Zm-0,-17.32l44.792,-13.963l-32.998,-1.576l-42.698,14.001l30.904,1.538Zm-0,12.99l44.792,-13.963l-0.116,-1.017l-44.591,13.448l-33.083,-1.554l-0.116,1.548l33.114,1.538Zm-32.998,7.964l-0.116,0.705l33.114,1.537l45.234,-14.618l-0.116,-0.616l-45.033,14.321l-33.083,-1.329Zm32.998,-18.789l44.792,-13.963l-0.116,-0.8l-44.591,13.231l-33.083,-1.336l-0.116,1.33l33.114,1.538Zm-0,6.495l44.792,-13.963l-0.116,-1.107l-44.591,13.538l-33.083,-1.202l-0.116,1.196l33.114,1.538Zm-0,2.165l44.792,-13.963l-0.116,-1.062l-44.591,13.493l-33.083,-1.157l-0.116,1.151l33.114,1.538Zm-0,-6.495l44.792,-13.963l-0.116,-0.755l-44.591,13.186l-33.083,-1.291l-0.116,1.285l33.114,1.538Z"/><ellipse cx="353" cy="400.5" rx="13.5" ry="2"/></g></svg>