<?xml version="1.0" encoding="UTF-8" standalone="no"?><!DOCTYPE svg PUBLIC "-//W3C//DTD SVG 1.1//EN" "http://www.w3.org/Graphics/SVG/1.1/DTD/svg11.dtd"><svg width="100%" height="100%" viewBox="0 0 278 278" version="1.1" xmlns="http://www.w3.org/2000/svg" xmlns:xlink="http://www.w3.org/1999/xlink" xml:space="preserve" xmlns:serif="http://www.serif.com/" style="fill-rule:evenodd;clip-rule:evenodd;stroke-linecap:round;stroke-linejoin:round;stroke-miterlimit:1.5;"><rect id="Artboard3" x="-67.5" y="-74.5" width="540" height="540" style="fill:none;"/><g id="Artboard31" serif:id="Artboard3"><path d="M132.26,206.478c-1.428,-0.184 -3.732,-0.739 -6.26,-3.875l0.635,-7.618c3.108,-2.994 9.841,-7.185 13.727,-5.714c0,0 8.59,6.362 9.128,12.697c0.538,6.335 -20.788,36.941 -28.568,36.822c-0,-0 -14.602,0.635 -20.951,-5.714c0,0 -3.902,-6.444 -1.269,-10.158c-0,0 6.983,-8.253 12.062,-8.253c-0,0 7.198,5.008 11.427,3.809c0,0 12.662,-13.526 13.775,-15.504c0.306,-0.543 0.532,-1.059 0.629,-1.491c0.08,-0.361 0.072,-0.678 -0.018,-0.93c-0.083,-0.231 -0.338,-0.352 -0.569,-0.269c-0.23,0.083 -0.351,0.337 -0.268,0.568c0.042,0.119 0.025,0.267 -0.013,0.437c-0.081,0.364 -0.279,0.793 -0.535,1.249c-0.852,1.514 -2.351,3.281 -2.932,3.944Zm-1.273,-8.882c-1.818,-1.064 -1.711,0.144 0.502,1.293c0.99,0.515 1.971,0.902 2.743,0.982c0.244,0.025 0.462,-0.152 0.488,-0.396c0.025,-0.244 -0.152,-0.463 -0.396,-0.488c-0.924,-0.096 -2.169,-0.708 -3.337,-1.391Zm7.829,11.575c2.146,-3.648 1.319,-3.98 -0.862,-0.287c-1.182,2.001 -2.613,4.271 -4.213,6.511c-3.009,4.211 -6.615,8.323 -10.307,10.306c-0.216,0.116 -0.297,0.386 -0.181,0.602c0.116,0.216 0.386,0.297 0.602,0.181c3.793,-2.037 7.517,-6.245 10.609,-10.572c1.66,-2.324 3.14,-4.68 4.352,-6.741Zm-39.054,17.314c0,-0 9.68,5.152 18.713,3.216c0.24,-0.051 0.393,-0.287 0.342,-0.527c-0.052,-0.24 -0.288,-0.393 -0.528,-0.342c-8.743,1.874 -18.109,-3.131 -18.109,-3.131c-0.216,-0.116 -0.485,-0.034 -0.601,0.183c-0.115,0.216 -0.033,0.485 0.183,0.601Z"/><path d="M111.832,212.687c-2.44,-5.138 -3.832,-10.679 -3.832,-16.004c-0,-7.94 3.131,-14.132 8.129,-17.751c4.995,-3.617 11.889,-4.686 19.505,-2.265c14.918,4.742 27.027,21.213 27.027,36.756c0,7.272 -1.096,26.5 -1.096,26.5c-0.02,0.351 -0.222,0.665 -0.533,0.828c-0.311,0.164 -0.685,0.152 -0.985,-0.031c-0,0 -11.857,-7.217 -11.857,-7.217c-1.48,0.504 -6.121,1.702 -13.102,-0.047c-0.706,-0.176 -1.404,-0.382 -2.094,-0.616c0.487,-0.526 0.977,-1.07 1.468,-1.63c0.368,0.111 0.739,0.213 1.112,0.306c7.751,1.941 12.314,-0.034 12.314,-0.034c0.299,-0.134 0.645,-0.111 0.926,0.059c-0,0 10.847,6.603 10.847,6.603c0.264,-4.813 1,-18.777 1,-24.721c0,-14.738 -11.487,-30.353 -25.633,-34.85c-6.917,-2.199 -13.189,-1.306 -17.726,1.979c-4.533,3.282 -7.302,8.93 -7.302,16.131c0,6.003 1.86,12.302 5.039,17.903c-1.737,-0.894 -2.991,-1.766 -2.991,-1.766c-0.07,-0.049 -0.142,-0.093 -0.216,-0.133Z"/><path d="M200.584,199.988c-0.135,0.015 -0.27,0.029 -0.405,0.043c-0.321,0.034 -0.641,0.067 -0.961,0.1c-1.704,-1.912 -3.176,-4.036 -4.372,-6.326c-0.101,-0.194 -0.328,-0.287 -0.537,-0.218c-1.73,0.569 -3.147,0.986 -4.191,1.228c-0.205,0.047 -0.399,0.087 -0.581,0.12c-0.148,0.026 -0.272,0.124 -0.332,0.261c-0.06,0.137 -0.047,0.295 0.033,0.421c1.35,2.105 3.458,3.73 6.128,4.873c-0.037,0.004 -0.075,0.007 -0.113,0.01c-0.509,0.044 -0.971,0.233 -1.348,0.525c-3.018,-1.512 -5.261,-3.67 -6.461,-6.432c-1.819,-4.189 -0.987,-9.178 1.972,-14.196c0.559,-0.948 1.195,-1.898 1.903,-2.844c0.051,-0.069 0.082,-0.152 0.088,-0.238c0.723,-10.686 6.854,-19.899 15.674,-24.922c0.012,-0.008 0.025,-0.016 0.037,-0.024c1.258,-0.891 2.637,-1.581 4.128,-2.042c0.301,-0.094 0.603,-0.176 0.907,-0.249c0.015,-0.004 0.029,-0.008 0.043,-0.013c3.21,-1.121 6.658,-1.73 10.248,-1.73c7.504,0 14.392,2.663 19.768,7.096c0.066,0.054 0.147,0.089 0.232,0.099c1.058,0.126 2.076,0.297 3.051,0.514c4.041,0.898 7.337,2.57 9.562,4.969c0.055,0.367 0.103,0.735 0.144,1.104c0.127,1.132 0.975,2.01 2.034,2.226c0.131,0.306 0.248,0.616 0.352,0.93c-0.666,0.067 -1.264,0.393 -1.684,0.881c-0.11,0.079 -0.228,0.162 -0.352,0.245c-0.854,0.574 -2.061,1.289 -3.57,2.121c-0.192,0.106 -0.279,0.335 -0.206,0.542c0.872,2.461 1.443,5.065 1.669,7.766c-0.403,0.158 -0.768,0.418 -1.052,0.768c-0.167,-2.737 -0.701,-5.376 -1.554,-7.866c-0.043,-0.124 -0.137,-0.224 -0.259,-0.272c-0.122,-0.048 -0.259,-0.04 -0.375,0.021c-2.525,1.339 -5.657,2.905 -9.238,4.62c-0.198,0.094 -0.298,0.318 -0.237,0.529c1.366,4.702 1.918,9.36 1.748,13.683c-0.37,0.249 -0.749,0.493 -1.136,0.732c0.26,-4.327 -0.236,-9.033 -1.582,-13.791c-0.035,-0.127 -0.125,-0.232 -0.245,-0.286c-0.12,-0.055 -0.258,-0.054 -0.377,0.003c-3.266,1.543 -6.857,3.19 -10.668,4.886c-0.221,0.098 -0.324,0.355 -0.232,0.579c1.873,4.579 3.406,8.926 4.523,12.725c-0.341,0.13 -0.686,0.257 -1.032,0.382c-1.103,-3.761 -2.627,-8.08 -4.49,-12.636c-0.046,-0.112 -0.135,-0.201 -0.247,-0.246c-0.112,-0.045 -0.238,-0.043 -0.349,0.005c-1.045,0.461 -2.105,0.926 -3.178,1.391c-1.597,0.694 -3.172,1.37 -4.717,2.025c-0.619,0.263 -1.233,0.522 -1.841,0.778c-4.864,2.044 -9.397,3.869 -13.364,5.392c-0.115,0.044 -0.206,0.133 -0.253,0.247c-0.047,0.113 -0.046,0.241 0.004,0.353c1.345,3.038 2.979,5.794 4.814,8.195c-0.354,0.052 -0.708,0.102 -1.063,0.151c-0.059,0.008 -0.117,0.018 -0.175,0.03c-1.758,-2.377 -3.326,-5.073 -4.627,-8.027c-0.096,-0.217 -0.346,-0.322 -0.568,-0.238c-1.998,0.752 -3.827,1.416 -5.452,1.979c-0.124,0.043 -0.223,0.138 -0.271,0.26c-0.047,0.122 -0.039,0.259 0.023,0.375c1.253,2.34 2.807,4.495 4.61,6.413Zm8.98,-47.15c-0.552,0.268 -1.095,0.553 -1.627,0.853c-2.256,1.62 -4.074,3.959 -5.405,6.791c-1.066,2.269 -1.82,4.85 -2.234,7.64c3.931,-2.971 8.548,-5.681 13.68,-7.91c0.621,-0.27 1.242,-0.529 1.863,-0.779c-1.416,-2.152 -2.728,-3.858 -3.864,-5.011c-0.627,-0.637 -1.182,-1.094 -1.667,-1.319c-0.096,-0.044 -0.185,-0.078 -0.271,-0.096c-0.042,-0.009 -0.08,-0.033 -0.11,-0.011c-0.054,0.041 -0.195,-0.028 -0.365,-0.158Zm19.598,4.791c-3.342,0.6 -6.819,1.533 -10.334,2.805c2.305,3.767 4.803,8.5 7.229,13.825c0.22,0.485 0.44,0.974 0.66,1.468c0.053,0.119 0.105,0.238 0.158,0.357c0.345,0.782 0.681,1.56 1.008,2.333c3.887,-1.729 7.543,-3.406 10.854,-4.972c-0.219,-0.66 -0.45,-1.308 -0.695,-1.947c-0.24,-0.626 -0.492,-1.242 -0.756,-1.847c-2.095,-4.807 -4.918,-8.912 -8.124,-12.022Zm22.302,9.408c0.65,-0.361 1.239,-0.699 1.763,-1.011c-0.586,0.169 -1.236,0.37 -1.944,0.598c0.061,0.137 0.122,0.275 0.181,0.413Zm-49.137,20.129c0.193,0.561 0.397,1.114 0.609,1.659c3.945,-1.515 8.463,-3.336 13.317,-5.376c0.609,-0.256 1.224,-0.515 1.843,-0.778c1.555,-0.66 3.141,-1.341 4.749,-2.039c1.084,-0.471 2.154,-0.939 3.21,-1.405c-0.331,-0.781 -0.671,-1.568 -1.021,-2.36c-0.048,-0.109 -0.097,-0.219 -0.145,-0.329c-0.224,-0.503 -0.448,-1.002 -0.673,-1.496c-2.456,-5.389 -4.976,-10.159 -7.281,-13.892c-0.72,0.285 -1.44,0.584 -2.161,0.896c-5.647,2.453 -10.655,5.501 -14.768,8.836c-0.295,4.493 0.24,9.406 1.707,14.364c0.053,0.181 0.108,0.363 0.164,0.545c0.144,0.463 0.294,0.921 0.45,1.375Zm-1.382,-27.997c-3.91,4.145 -6.637,9.418 -7.636,15.278c1.411,-1.555 3.009,-3.084 4.774,-4.562c0.338,-3.788 1.239,-7.275 2.639,-10.254c0.073,-0.155 0.147,-0.309 0.223,-0.462Zm-3.007,13.481c-1.925,1.739 -3.608,3.537 -5.016,5.356c-0.023,0.476 -0.035,0.956 -0.035,1.438c0,3.31 0.546,6.494 1.551,9.466c0.216,0.637 0.453,1.265 0.71,1.881c0.107,0.258 0.218,0.515 0.333,0.769c1.651,-0.569 3.526,-1.248 5.586,-2.024c-0.19,-0.488 -0.373,-0.983 -0.549,-1.484c-0.193,-0.549 -0.377,-1.106 -0.551,-1.67c-0.025,-0.082 -0.051,-0.164 -0.075,-0.245c-1.402,-4.617 -2.024,-9.202 -1.954,-13.487Zm50.545,-7.193c-1.736,-3.223 -4.053,-6.088 -6.811,-8.453c-3.083,-0.315 -6.487,-0.236 -10.085,0.245c2.966,3.146 5.578,7.107 7.561,11.67c0.263,0.605 0.515,1.221 0.755,1.848c0.228,0.595 0.446,1.199 0.653,1.812c3.563,-1.708 6.664,-3.262 9.142,-4.583c-0.104,-0.247 -0.211,-0.493 -0.322,-0.736c-0.278,-0.613 -0.576,-1.214 -0.893,-1.803Zm-9.677,-10.625c-4.686,-3.124 -10.313,-4.945 -16.362,-4.945c-0.684,0 -1.362,0.024 -2.034,0.069c1.612,0.478 3.213,1.186 4.776,2.104c1.589,0.933 3.14,2.087 4.622,3.437c3.149,-0.507 6.174,-0.727 8.998,-0.665Zm-45.426,36.916c-0.724,0.4 -1.375,0.772 -1.948,1.114c0.641,-0.186 1.357,-0.408 2.143,-0.663c-0.066,-0.15 -0.131,-0.3 -0.195,-0.451Zm61.663,-28.236c-1.913,-2.984 -5.412,-4.957 -9.87,-5.95c2.068,2.147 3.834,4.586 5.232,7.249c1.658,-0.541 3.02,-0.94 4.034,-1.175c0.214,-0.049 0.415,-0.09 0.604,-0.124Zm-64.122,17.393c-0.057,0.094 -0.113,0.187 -0.168,0.281c-2.323,3.94 -3.273,7.848 -2.398,11.287c0.154,-0.115 0.322,-0.234 0.503,-0.357c0.898,-0.603 2.182,-1.361 3.795,-2.246c-0.99,-2.827 -1.589,-5.837 -1.732,-8.965Zm36.366,-24.945c-1.012,-0.825 -2.053,-1.553 -3.115,-2.176c-3.764,-2.212 -7.771,-3.095 -11.558,-2.22c-0.209,0.074 -0.417,0.15 -0.624,0.228c0.441,0.313 0.915,0.722 1.412,1.227c1.261,1.28 2.739,3.22 4.337,5.684c3.233,-1.191 6.439,-2.103 9.548,-2.743Zm29.136,20.289c-0.146,0.315 -0.301,0.631 -0.464,0.947c-0.102,-0.08 -0.212,-0.154 -0.329,-0.219c-0.214,-0.12 -0.439,-0.206 -0.667,-0.259c0.145,-0.279 0.283,-0.558 0.414,-0.836c0.186,0.115 0.389,0.208 0.608,0.275c0.145,0.044 0.292,0.075 0.438,0.092Zm-16.641,17.131c-0.286,0.18 -0.574,0.359 -0.866,0.536c-0.034,-0.163 -0.085,-0.325 -0.154,-0.483c-0.082,-0.191 -0.185,-0.367 -0.305,-0.527c0.28,-0.17 0.557,-0.342 0.832,-0.516c0.057,0.229 0.146,0.453 0.27,0.666c0.067,0.115 0.142,0.223 0.223,0.324Zm0.879,0.696c0.334,0.161 0.699,0.248 1.07,0.255c-0.461,2.136 -1.123,4.131 -1.971,5.936c-0.769,1.636 -1.691,3.118 -2.754,4.414c-0.138,0.167 -0.135,0.41 0.006,0.575c0.14,0.165 0.379,0.205 0.567,0.095c6.905,-4.045 12.052,-10.772 14.008,-18.747c0.494,-0.127 0.955,-0.402 1.311,-0.82l0.008,-0.01c-2.403,11.606 -11.28,20.855 -22.68,23.795c-0.013,0.004 -0.026,0.007 -0.038,0.012c-0.18,0.063 -0.362,0.124 -0.546,0.181c-1.37,0.424 -2.772,0.635 -4.187,0.648c-0.013,-0 -0.026,0 -0.039,0.002c-0.978,0.093 -1.97,0.14 -2.972,0.14c-7.152,0 -13.743,-2.418 -19,-6.482c0.363,-0.455 0.573,-1.033 0.56,-1.649c0.31,0.023 0.624,0.041 0.94,0.056c0.152,0.504 0.452,0.935 0.844,1.251c-0.058,0.052 -0.103,0.12 -0.127,0.199c-0.059,0.19 0.014,0.396 0.179,0.506c3.091,2.059 6.586,3.56 10.338,4.358c0.218,0.047 0.436,-0.073 0.513,-0.281c0.078,-0.208 -0.009,-0.442 -0.203,-0.549c-0.187,-0.103 -0.374,-0.209 -0.559,-0.318c-1.739,-1.021 -3.43,-2.31 -5.033,-3.835c0.568,-0.088 1.136,-0.179 1.704,-0.273c-0.046,0.166 0.008,0.345 0.14,0.458c1.21,1.04 2.465,1.944 3.748,2.698c2.884,1.694 5.907,2.623 8.871,2.615c0.014,-0 0.028,-0.001 0.043,-0.002c1.524,-0.15 3.015,-0.414 4.463,-0.783c0.014,-0.003 0.028,-0.008 0.042,-0.013c1.346,-0.486 2.587,-1.18 3.716,-2.054c0.134,-0.104 0.198,-0.275 0.165,-0.442c-0.086,-0.43 -0.139,-0.841 -0.119,-0.987c0.103,-0.737 0.084,-1.696 -0.04,-2.841c-0.117,-1.072 -0.324,-2.301 -0.617,-3.66c0.35,-0.124 0.698,-0.25 1.043,-0.378c0.322,1.463 0.548,2.779 0.671,3.919c0.091,0.835 0.126,1.581 0.106,2.228c-0.006,0.188 0.106,0.359 0.28,0.429c0.174,0.071 0.373,0.025 0.499,-0.114c1.239,-1.366 2.293,-2.989 3.15,-4.811c0.818,-1.741 1.456,-3.663 1.9,-5.721Zm-13.395,5.501c0.229,-0.393 0.354,-0.847 0.349,-1.316c0.325,-0.127 0.65,-0.257 0.976,-0.39c0.206,0.353 0.49,0.643 0.821,0.856c-0.716,0.297 -1.431,0.581 -2.146,0.85Zm-12.534,3.379c0.468,-0.308 0.822,-0.762 1.008,-1.287c0.513,-0.093 1.028,-0.194 1.547,-0.303c0.361,0.413 0.849,0.702 1.388,0.819c-1.332,0.307 -2.648,0.563 -3.943,0.771Zm33.853,-16.339c-0.262,-0.288 -0.576,-0.504 -0.916,-0.644c0.31,-0.29 0.613,-0.582 0.909,-0.874c0.139,0.338 0.352,0.65 0.637,0.912c-0.207,0.203 -0.417,0.405 -0.63,0.606Z"/><path d="M176.489,203.525c0.328,-0.007 0.66,-0.014 0.998,-0.021c0.276,-0.007 0.505,0.212 0.511,0.488c0.007,0.276 -0.212,0.505 -0.488,0.511c-0.339,0.008 -0.673,0.015 -1.001,0.021c-1.845,0.036 -3.526,0.053 -5.008,0.057c-0.276,0 -0.501,-0.223 -0.502,-0.499c-0.001,-0.276 0.223,-0.501 0.499,-0.501c1.477,-0.004 3.152,-0.021 4.991,-0.056Zm11.97,-0.469c0.33,-0.019 0.663,-0.04 0.997,-0.061c0.275,-0.017 0.513,0.193 0.53,0.468c0.017,0.276 -0.192,0.513 -0.468,0.53c-0.335,0.021 -0.668,0.042 -1,0.061c-1.724,0.103 -3.396,0.186 -5.002,0.254c-0.275,0.012 -0.509,-0.203 -0.52,-0.478c-0.012,-0.276 0.202,-0.509 0.478,-0.521c1.6,-0.068 3.266,-0.151 4.985,-0.253Zm11.936,-0.974c0.33,-0.035 0.661,-0.071 0.992,-0.107c0.275,-0.03 0.522,0.168 0.552,0.442c0.03,0.275 -0.168,0.522 -0.442,0.552c-0.333,0.037 -0.665,0.072 -0.997,0.107c-1.682,0.178 -3.348,0.336 -4.987,0.475c-0.275,0.024 -0.517,-0.181 -0.541,-0.456c-0.023,-0.275 0.181,-0.517 0.456,-0.54c1.632,-0.139 3.291,-0.296 4.967,-0.473Zm11.862,-1.594c0.328,-0.055 0.656,-0.11 0.983,-0.167c0.272,-0.047 0.531,0.136 0.578,0.408c0.047,0.272 -0.136,0.531 -0.408,0.578c-0.329,0.057 -0.659,0.112 -0.989,0.167c-1.649,0.275 -3.304,0.526 -4.956,0.755c-0.273,0.038 -0.526,-0.153 -0.564,-0.427c-0.038,-0.273 0.153,-0.526 0.427,-0.564c1.643,-0.228 3.289,-0.477 4.929,-0.75Zm11.704,-2.431c0.322,-0.083 0.643,-0.166 0.963,-0.251c0.267,-0.071 0.541,0.088 0.612,0.354c0.071,0.267 -0.088,0.541 -0.355,0.612c-0.323,0.086 -0.647,0.17 -0.972,0.254c-1.603,0.41 -3.236,0.791 -4.888,1.144c-0.27,0.057 -0.536,-0.115 -0.593,-0.385c-0.058,-0.27 0.114,-0.536 0.384,-0.593c1.639,-0.35 3.258,-0.728 4.849,-1.135Zm11.337,-3.683c0.307,-0.127 0.612,-0.256 0.914,-0.386c0.253,-0.109 0.548,0.008 0.657,0.261c0.109,0.254 -0.008,0.548 -0.261,0.658c-0.307,0.132 -0.617,0.262 -0.929,0.391c-1.514,0.624 -3.091,1.207 -4.719,1.751c-0.262,0.088 -0.545,-0.054 -0.633,-0.315c-0.087,-0.262 0.054,-0.546 0.316,-0.633c1.606,-0.537 3.161,-1.112 4.655,-1.727Zm10.308,-5.792c0.194,-0.154 0.386,-0.309 0.574,-0.466c0.062,-0.052 0.125,-0.105 0.187,-0.157c0.211,-0.178 0.526,-0.152 0.704,0.059c0.179,0.211 0.152,0.527 -0.059,0.705c-0.064,0.054 -0.127,0.107 -0.192,0.161c-0.195,0.162 -0.393,0.323 -0.594,0.483c-1.276,1.009 -2.683,1.952 -4.2,2.834c-0.239,0.139 -0.545,0.058 -0.684,-0.181c-0.138,-0.238 -0.057,-0.545 0.181,-0.683c1.475,-0.857 2.842,-1.774 4.083,-2.755Zm7.842,-8.764c0.171,-0.282 0.336,-0.565 0.495,-0.849c0.134,-0.241 0.439,-0.327 0.68,-0.192c0.241,0.134 0.327,0.439 0.193,0.68c-0.165,0.294 -0.335,0.587 -0.512,0.879c-0.846,1.397 -1.834,2.77 -2.976,4.111c-0.179,0.21 -0.495,0.236 -0.705,0.057c-0.21,-0.179 -0.235,-0.495 -0.056,-0.705c1.106,-1.299 2.062,-2.628 2.881,-3.981Zm3.804,-11.059c0.038,-0.326 0.07,-0.652 0.097,-0.978c0.023,-0.275 0.264,-0.48 0.539,-0.457c0.276,0.022 0.48,0.264 0.458,0.539c-0.028,0.337 -0.062,0.675 -0.101,1.012c-0.195,1.665 -0.535,3.327 -1.036,4.976c-0.081,0.264 -0.36,0.413 -0.624,0.333c-0.264,-0.081 -0.413,-0.36 -0.333,-0.624c0.484,-1.591 0.811,-3.195 1,-4.801Zm0.067,-11.964c0.423,1.636 0.737,3.3 0.925,4.982c0.031,0.274 -0.167,0.521 -0.441,0.552c-0.274,0.031 -0.522,-0.167 -0.553,-0.441c-0.182,-1.634 -0.488,-3.253 -0.899,-4.842c-0.083,-0.319 -0.169,-0.636 -0.26,-0.952c-0.076,-0.266 0.077,-0.543 0.343,-0.619c0.265,-0.076 0.542,0.078 0.618,0.343c0.093,0.324 0.182,0.65 0.267,0.977Zm-4.709,-11.148c0.853,1.435 1.639,2.932 2.34,4.479c0.113,0.251 0.002,0.548 -0.25,0.662c-0.251,0.114 -0.547,0.002 -0.661,-0.249c-0.686,-1.513 -1.455,-2.978 -2.288,-4.381c-0.169,-0.284 -0.341,-0.565 -0.515,-0.844c-0.146,-0.235 -0.075,-0.543 0.16,-0.689c0.234,-0.146 0.542,-0.075 0.688,0.159c0.178,0.285 0.354,0.573 0.526,0.863Zm-7.491,-9.501c1.174,1.126 2.326,2.37 3.431,3.714c0.176,0.214 0.145,0.529 -0.068,0.704c-0.214,0.175 -0.529,0.144 -0.704,-0.069c-1.079,-1.313 -2.204,-2.528 -3.351,-3.627c-0.239,-0.229 -0.48,-0.454 -0.721,-0.673c-0.204,-0.186 -0.219,-0.502 -0.034,-0.707c0.186,-0.204 0.503,-0.219 0.707,-0.033c0.247,0.225 0.494,0.456 0.74,0.691Zm-80.637,68.354c-0.275,-0.01 -0.491,-0.242 -0.482,-0.518c0.01,-0.275 0.242,-0.491 0.518,-0.482c-0,0 0.345,0.012 0.993,0.027c0.276,0.007 0.495,0.236 0.488,0.512c-0.006,0.276 -0.235,0.494 -0.511,0.488c-0.656,-0.015 -1.006,-0.027 -1.006,-0.027Z"/><path d="M235.412,128.384l-9.875,6.285c-0.282,0.179 -0.635,0.206 -0.941,0.071c-0.306,-0.135 -0.524,-0.414 -0.581,-0.744l-4,-23c-0.066,-0.377 0.09,-0.758 0.4,-0.982c0.31,-0.224 0.721,-0.251 1.058,-0.07l31.723,6.4c0.436,0.087 0.761,0.451 0.8,0.893c0.039,0.442 -0.218,0.857 -0.632,1.019l-10.882,4.258l-1.996,11.975c-0.071,0.427 -0.409,0.76 -0.837,0.825c-0.429,0.064 -0.85,-0.155 -1.043,-0.542l-3.194,-6.388Zm5.06,-5.976l-13.894,-7.455l10.163,11.2c0.198,0.218 0.289,0.513 0.25,0.805c-0.004,0.028 -0.009,0.056 -0.015,0.083l2.043,4.086l1.453,-8.719Zm-18.01,-9.016l3.266,18.784l8.734,-5.558l-12,-13.226Zm5.219,-0.117l13.885,7.45l7.895,-3.089l-21.78,-4.361Z"/><path d="M143.5,64.531l0,78.82c-0,0.877 -0.443,1.696 -1.178,2.175c-0.735,0.48 -1.662,0.556 -2.466,0.202l-46.305,-20.377c-0.942,-0.415 -1.551,-1.348 -1.551,-2.377l-0,-78.82c0,-0.877 0.443,-1.696 1.178,-2.175c0.735,-0.48 1.662,-0.556 2.466,-0.202l46.305,20.377c0.942,0.415 1.551,1.347 1.551,2.377Z" style="fill:none;stroke:#000;stroke-width:1px;"/><path d="M219.562,59.416c-1.229,-0.515 -2.226,-2.127 -2.226,-3.599c-0,-1.471 0.997,-2.247 2.226,-1.733c15.323,6.422 27.764,26.532 27.764,44.881c0,1.472 -0.997,2.248 -2.226,1.733c-1.229,-0.515 -2.226,-2.127 -2.226,-3.599c-0,-15.406 -10.446,-32.291 -23.312,-37.683Zm-0.61,7.781c-1.222,-0.67 -2.106,-2.356 -1.975,-3.764c0.132,-1.408 1.231,-2.007 2.453,-1.337c11.686,6.406 20.22,19.966 21.171,32.114c0.118,1.514 -0.778,2.443 -2.001,2.072c-1.223,-0.37 -2.313,-1.9 -2.431,-3.415c-0.765,-9.773 -7.815,-20.516 -17.217,-25.67Zm-0.505,8.93c-1.159,-0.977 -1.765,-2.756 -1.354,-3.971c0.41,-1.214 1.684,-1.407 2.842,-0.43c7.328,6.184 12.244,14.447 13.254,21.741c0.213,1.539 -0.596,2.583 -1.806,2.331c-1.21,-0.252 -2.366,-1.705 -2.579,-3.244c-0.772,-5.572 -4.76,-11.703 -10.357,-16.427Zm0.744,7.517c2.037,0.854 3.691,3.527 3.691,5.966c-0,2.44 -1.654,3.727 -3.691,2.873c-2.037,-0.853 -3.691,-3.527 -3.691,-5.966c0,-2.439 1.654,-3.727 3.691,-2.873Z"/><path d="M197.751,156.537l-45.693,-20.108c-0.339,-0.149 -0.558,-0.485 -0.558,-0.856l-0,-1.532c-0,-0.316 0.159,-0.61 0.424,-0.783c0.265,-0.172 0.598,-0.2 0.887,-0.072l47.474,20.891c-0.887,0.775 -1.733,1.596 -2.534,2.46Zm-6.446,10.038l-39.247,-17.271c-0.339,-0.149 -0.558,-0.484 -0.558,-0.855l-0,-1.532c-0,-0.316 0.159,-0.611 0.424,-0.783c0.265,-0.173 0.598,-0.2 0.887,-0.073l39.892,17.555c-0.512,0.96 -0.979,1.947 -1.398,2.959Zm2.73,-5.236l-41.977,-18.472c-0.339,-0.15 -0.558,-0.485 -0.558,-0.856l-0,-1.532c-0,-0.316 0.159,-0.61 0.424,-0.783c0.265,-0.173 0.598,-0.2 0.887,-0.073l43.16,18.993c-0.688,0.874 -1.335,1.783 -1.936,2.723Zm8.465,-72.075l0,20.025c-0,0.316 -0.159,0.61 -0.424,0.783c-0.265,0.172 -0.598,0.2 -0.887,0.073l-49.131,-21.621c-0.339,-0.149 -0.558,-0.485 -0.558,-0.856l-0,-20.025c0,-0.316 0.159,-0.61 0.424,-0.783c0.265,-0.172 0.598,-0.2 0.887,-0.073l49.131,21.621c0.339,0.149 0.558,0.485 0.558,0.856Zm-0,27.771l0,1.532c0,0.316 -0.159,0.611 -0.424,0.783c-0.265,0.173 -0.598,0.2 -0.887,0.073l-49.131,-21.621c-0.339,-0.149 -0.558,-0.485 -0.558,-0.855l-0,-1.532c-0,-0.316 0.159,-0.611 0.424,-0.783c0.265,-0.173 0.598,-0.2 0.887,-0.073l49.131,21.62c0.339,0.15 0.558,0.485 0.558,0.856Zm-0,6.438l0,1.532c0,0.316 -0.159,0.61 -0.424,0.783c-0.265,0.173 -0.598,0.2 -0.887,0.073l-49.131,-21.621c-0.339,-0.149 -0.558,-0.485 -0.558,-0.856l-0,-1.532c-0,-0.315 0.159,-0.61 0.424,-0.783c0.265,-0.172 0.598,-0.199 0.887,-0.072l49.131,21.62c0.339,0.15 0.558,0.485 0.558,0.856Zm-0,6.438l0,1.532c0,0.316 -0.159,0.61 -0.424,0.783c-0.265,0.172 -0.598,0.2 -0.887,0.072l-49.131,-21.62c-0.339,-0.149 -0.558,-0.485 -0.558,-0.856l-0,-1.532c-0,-0.316 0.159,-0.61 0.424,-0.783c0.265,-0.172 0.598,-0.2 0.887,-0.072l49.131,21.62c0.339,0.149 0.558,0.485 0.558,0.856Zm-0,6.437l0,1.533c0,0.315 -0.159,0.61 -0.424,0.782c-0.265,0.173 -0.598,0.2 -0.887,0.073l-49.131,-21.62c-0.339,-0.15 -0.558,-0.485 -0.558,-0.856l-0,-1.532c-0,-0.316 0.159,-0.61 0.424,-0.783c0.265,-0.173 0.598,-0.2 0.887,-0.073l49.131,21.621c0.339,0.149 0.558,0.485 0.558,0.855Zm-0,6.438l0,1.532c0,0.316 -0.159,0.611 -0.424,0.783c-0.265,0.173 -0.598,0.2 -0.887,0.073l-49.131,-21.621c-0.339,-0.149 -0.558,-0.485 -0.558,-0.855l-0,-1.532c-0,-0.316 0.159,-0.611 0.424,-0.783c0.265,-0.173 0.598,-0.2 0.887,-0.073l49.131,21.621c0.339,0.149 0.558,0.485 0.558,0.855Zm-0,6.438l0,1.532c0,0.316 -0.159,0.61 -0.424,0.783c-0.265,0.173 -0.598,0.2 -0.887,0.073l-49.131,-21.621c-0.339,-0.149 -0.558,-0.485 -0.558,-0.855l-0,-1.533c-0,-0.315 0.159,-0.61 0.424,-0.782c0.265,-0.173 0.598,-0.2 0.887,-0.073l49.131,21.62c0.339,0.15 0.558,0.485 0.558,0.856Z"/><path d="M92.308,132.913l-0.863,1.805l-3.54,-1.577c-2.702,-1.204 -4.923,-4.794 -4.923,-8.032l-0,-93.419c-0,-1.813 0.675,-3.156 1.667,-3.903c1.043,-0.785 2.48,-0.98 4.07,-0.271l118.531,52.806c2.703,1.204 4.924,4.794 4.924,8.033l-0,58.998c-0.244,0.078 -0.487,0.159 -0.728,0.242c-0.323,0.079 -0.644,0.168 -0.963,0.267c-0.104,0.032 -0.207,0.065 -0.309,0.099l-0,-59.606c-0,-2.49 -1.66,-5.28 -3.738,-6.206l-118.531,-52.806c-0.8,-0.357 -1.528,-0.353 -2.053,0.042c-0.576,0.434 -0.87,1.253 -0.87,2.305l-0,93.419c-0,2.49 1.659,5.28 3.737,6.205l3.589,1.599Zm12.969,7.967l-0.453,-2.391l84.11,37.472c-0.019,0.184 -0.036,0.368 -0.052,0.552c-0.297,0.411 -0.581,0.823 -0.852,1.235l-82.753,-36.868Z"/><path d="M111.147,88.08l13.206,5.677c7.675,3.299 13.897,12.195 13.897,19.87l0,21.726c0,0.97 -0.487,1.874 -1.297,2.408c-0.81,0.533 -1.834,0.624 -2.724,0.241l-35.235,-15.146c-1.058,-0.455 -1.744,-1.497 -1.744,-2.649l0,-24.204c0,-7.675 6.222,-11.223 13.897,-7.923Z" style="fill:none;stroke:#000;stroke-width:0.8px;"/><path d="M117.75,90.418c-8.831,-3.796 -16,-14.047 -16,-22.878c0,-8.83 7.169,-12.918 16,-9.122c8.831,3.796 16,14.047 16,22.878c0,8.831 -7.169,12.918 -16,9.122Z"/><path d="M89.847,143.049c0.995,-7.244 4.867,-13.077 4.867,-13.077c0.038,-0.058 0.088,-0.107 0.147,-0.144c2.347,-1.502 4.483,-0.737 6.031,0.425c1.479,1.111 2.397,2.58 2.397,2.58c0.038,0.062 0.062,0.13 0.072,0.202c-0,0 0.94,7.375 0.818,11.882c-0.188,6.92 -5.455,9.53 -5.455,9.53c-0.247,0.124 -0.548,0.023 -0.671,-0.223c-0.124,-0.247 -0.023,-0.548 0.223,-0.671c0,-0 4.733,-2.39 4.903,-8.663c0.112,-4.122 -0.679,-10.674 -0.796,-11.615c-0.209,-0.311 -0.971,-1.381 -2.091,-2.222c-1.236,-0.928 -2.933,-1.581 -4.803,-0.438c-0.5,0.781 -4.087,6.587 -4.764,13.499c-0.001,0.022 -0.004,0.044 -0.006,0.066c-0.069,0.722 -0.106,1.455 -0.104,2.196c0.007,0.594 0.03,1.056 0.032,1.096c-0,0.002 -0,0.003 -0,0.003c0.014,0.275 -0.198,0.51 -0.473,0.524c-0.275,0.015 -0.51,-0.196 -0.526,-0.471c0,-0.001 0,-0.002 0,-0.003c-0.026,-0.468 -0.036,-0.934 -0.032,-1.397c-0.001,-0.608 0.016,-1.305 0.08,-1.851c-0.415,-0.408 -1.492,-1.428 -2.277,-1.832c-0.069,-0.036 -0.166,0 -0.274,0.039c-0.301,0.106 -0.631,0.37 -0.859,0.766c-0.313,0.544 -0.419,1.328 -0.056,2.324c0.408,1.121 1.382,2.472 3.24,4.044c0.211,0.179 0.237,0.494 0.059,0.705c-0.178,0.211 -0.494,0.237 -0.705,0.059c-4.948,-4.187 -4.094,-7.145 -2.885,-8.293c0.364,-0.346 0.778,-0.55 1.134,-0.62c0.313,-0.062 0.593,-0.022 0.803,0.086c0.619,0.319 1.405,0.981 1.971,1.494Z"/><path d="M29.532,111.853c-0.47,-1.038 -2.032,-4.853 -2.032,-9.853c0,-11.747 8.5,-12 8.5,-12c0.156,-0.018 0.302,0.055 0.39,0.18c1.11,-7.18 7.988,-14.11 19.61,-13.18c12.5,1 17.659,9.294 18.178,12.95c0.319,2.248 -0.395,4.331 -1.754,6.103c0.077,1.724 0.637,15.427 -0.674,24.569c-0.366,2.559 -0.883,4.764 -1.587,6.272c-0.516,1.105 -1.148,1.847 -1.87,2.154c-3.357,1.426 -7.045,1.253 -9.719,0.651l0.089,2.253c0.01,0.251 -0.174,0.463 -0.41,0.473c-0.236,0.011 -0.436,-0.184 -0.446,-0.435l-0.098,-2.509c-0.477,-0.135 -0.909,-0.281 -1.285,-0.429c-0.222,-0.087 -0.335,-0.349 -0.252,-0.584c0.082,-0.235 0.329,-0.355 0.55,-0.268c2.378,0.937 7.085,1.774 11.253,0.004c0.563,-0.239 1.018,-0.853 1.421,-1.714c0.674,-1.443 1.157,-3.557 1.508,-6.004c1.165,-8.129 0.838,-19.891 0.702,-23.484c-2.053,2.136 -5.064,3.696 -8.098,4.34c-0.543,0.115 -0.901,0.336 -1.103,0.667c-0.325,0.537 -0.254,1.297 -0.038,2.156c0.372,1.486 1.225,3.231 1.877,4.767c0.465,1.093 0.827,2.089 0.891,2.833c0.067,0.772 -0.367,1.676 -1.011,2.33c-0.659,0.671 -1.522,1.052 -2.192,0.881c-0.626,-0.161 -1.053,-0.587 -1.514,-1.029c-0.533,-0.512 -1.142,-1.022 -2.49,-0.783c-0.545,0.096 -1.151,0.457 -1.676,0.985c-0.802,0.807 -1.414,2.017 -1.298,3.369c0.135,1.561 1.232,3.263 3.96,4.797c0.209,0.117 0.289,0.392 0.178,0.614c-0.11,0.222 -0.369,0.307 -0.578,0.189c-0.731,-0.41 -1.353,-0.836 -1.881,-1.269c-7.155,4.722 -12.708,3.553 -17.163,1.09c0.108,0.846 0.283,2.459 0.257,3.841c-0.017,0.921 -0.135,1.744 -0.385,2.228c-0.114,0.22 -0.375,0.3 -0.582,0.18c-0.207,-0.121 -0.283,-0.398 -0.169,-0.618c0.202,-0.391 0.266,-1.063 0.28,-1.808c0.036,-1.906 -0.327,-4.264 -0.327,-4.264c-0.006,-0.034 -0.007,-0.067 -0.005,-0.1c-0.352,-0.215 -0.696,-0.435 -1.034,-0.66c-2.547,-1.696 -5.703,-4.622 -7.973,-9.885Zm4.89,-20.092c0.261,-0.234 0.536,-0.47 0.825,-0.706c-2.434,0.523 -5.479,1.509 -6.713,9.157c1.963,-7.24 3.841,-7.864 5.888,-8.451Z"/><path d="M18.514,207.382c-0.223,-0.144 -0.402,-0.274 -0.514,-0.382c0,0 -0.043,-47.675 3,-59c0,0 1.5,-9.5 7.5,-13.5c3.188,-2.125 7,-4.5 7,-4.5c0,0 0.323,-2.188 1,-3c0,0 12.017,5.824 16.5,5c0,0 7.05,-0.121 7.5,-1l1.5,2l3.5,2c0,0 12,8.5 14,12c1.6,2.799 2.474,5.614 2.946,7.695c0.082,0.429 0.195,1.008 0.333,1.698c0.164,1.004 0.203,1.607 0.203,1.607l0.071,-0.254c0.134,0.652 0.286,1.359 0.447,2.1c1.272,5.845 3.093,13.874 3.093,13.874c0.02,0.097 0.115,0.159 0.212,0.138c0.096,-0.02 0.158,-0.115 0.138,-0.212c-0,0 -1.582,-8.079 -2.783,-13.939c-0.175,-0.853 -0.343,-1.659 -0.502,-2.384c-0.075,-0.344 -0.147,-0.669 -0.214,-0.974l2.056,-7.349c-0,-0 9.894,2.415 12.5,4c2.606,1.585 3.75,4.5 3.75,4.5c-0,-0 -5.626,33.431 -11.75,36.5c-6.033,3.024 -6.147,2.279 -14.613,0.099c0.035,-0.136 -0.003,-0.286 -0.112,-0.389c0,-0 -3.757,-3.572 -9.425,-13.864c-2.476,-4.497 -3.954,-14.405 -3.954,-14.405c-0.033,-0.219 -0.237,-0.369 -0.455,-0.337c-0.219,0.033 -0.369,0.237 -0.337,0.455c0,0 1.522,10.092 4.046,14.673c5.75,10.442 9.575,14.058 9.575,14.058c0.077,0.074 0.176,0.11 0.276,0.11c0.006,3.448 0.104,28.137 1.499,32.6c-0,-0 -8.929,6.887 -15.5,6c-6.571,-0.887 -17.59,-2.448 -20.5,-5l-0.5,-11l-1,10.5c-0,-0 -10,-2.5 -16,-9c-0,-0 -0.001,-1.874 -0.002,-4c-0.011,-0 -0.022,-0 -0.033,-0.001c-1.592,-0.113 -2.664,-1.277 -3.342,-2.676c-0.938,-1.936 -1.122,-4.284 -1.122,-4.284c-0.004,-0.054 0.001,-0.107 0.013,-0.157Zm4.484,6.116c-0.001,-2.46 -0.001,-4.92 0.002,-4.998c-0,-0 -0.8,-55.873 0.015,-59.366c-0.089,-0.2 -0.218,-0.265 -0.414,-0.098c-0.85,3.529 -0.072,59.397 -0.101,60.464c-0.227,-0.138 -1.712,-0.84 -2.94,-1.509c0.104,0.749 0.366,2.164 0.963,3.396c0.515,1.062 1.275,2.009 2.475,2.111Zm16.986,-2.598c0.221,0.008 1.553,-29.581 0.915,-40.423c-0.499,-8.481 2.997,-33.422 2.997,-33.422c0.031,-0.218 -0.122,-0.421 -0.341,-0.451c-0.218,-0.031 -0.421,0.122 -0.451,0.341c-0,-0 -3.504,25.059 -3.003,33.578c0.636,10.822 -0.337,40.368 -0.117,40.377Zm21.903,-52.169c0,-0 2.901,-11.331 13.113,-11.331c0.221,-0 0.4,-0.179 0.4,-0.4c-0,-0.221 -0.179,-0.4 -0.4,-0.4c-10.788,-0 -13.887,11.931 -13.887,11.931c-0.055,0.214 0.073,0.432 0.287,0.487c0.214,0.056 0.432,-0.073 0.487,-0.287Z"/></g></svg>