<?xml version="1.0" encoding="UTF-8" standalone="no"?><!DOCTYPE svg PUBLIC "-//W3C//DTD SVG 1.1//EN" "http://www.w3.org/Graphics/SVG/1.1/DTD/svg11.dtd"><svg width="100%" height="100%" viewBox="0 0 294 293" version="1.1" xmlns="http://www.w3.org/2000/svg" xmlns:xlink="http://www.w3.org/1999/xlink" xml:space="preserve" xmlns:serif="http://www.serif.com/" style="fill-rule:evenodd;clip-rule:evenodd;stroke-linejoin:round;stroke-miterlimit:2;"><rect id="Artboard2" x="-125.994" y="-110.5" width="540" height="540" style="fill:none;"/><g id="Artboard21" serif:id="Artboard2"><path d="M19.444,208.768c-1.533,-0.375 -2.851,-0.644 -3.944,-0.768c-0.005,0.107 -6,-14 15.5,-48.5c8.537,-13.698 -3.009,-30.488 -1.501,-52.515c1.509,-22.027 10.381,-42.184 27.76,-50.072c21.753,-9.874 45.754,-3.794 45.754,-3.794c0,-0 21.826,10.706 23.561,39.668c0.534,8.914 0.353,19.035 -0.893,28.04c-1,7.23 -3.442,13.881 -4.633,17.655c-2.829,8.962 -6.52,14.621 -6.52,14.621c0,-0 2.62,3.689 16.082,16.362c9.219,8.679 15.032,30.194 12.642,30.535c-10.063,1.437 -33.049,-1.501 -34.252,-1.5c-1.016,0.001 -2.392,0.86 -2.674,1.894c-0.553,2.022 -1.826,8.606 -1.826,8.606c-10.162,2.112 -17.009,5.325 -22.708,10.604c-0,0 -2.292,-4.104 -3.292,-4.104c-2.044,0 -8.963,3.644 -8.963,3.644c-4.316,-0.327 -8.432,-0.812 -12.335,-1.398l0.856,6.875l19.623,-8.06c0.349,-0.144 0.751,-0.023 0.963,0.29c0,-0 1.118,1.645 2.642,4.504c1.869,-1.337 8.469,-5.992 11.915,-7.587c3.433,-1.589 10.328,-3.582 12.373,-4.159l2.075,-9.482c0.087,-0.399 0.463,-0.668 0.87,-0.622c-0,0 18.025,2.055 26.712,1.932c7.791,-0.11 24.077,-1.293 24.077,-1.293c0.257,-0.018 0.507,0.088 0.672,0.286c0.164,0.198 0.223,0.463 0.158,0.712l-6.46,24.684c0.135,0.158 3.478,4.092 5.265,7.527c0.747,1.434 1.197,2.804 1.163,3.837c0.014,0.046 0.026,0.091 0.036,0.136c0.598,2.515 1.169,5.607 0.849,8.221c-0.234,1.906 -0.938,3.565 -2.341,4.666c-3.364,2.641 -7.976,3.652 -11.436,1.489c-0.084,-0.053 -0.172,-0.113 -0.262,-0.18l-1.493,5.707c-0.05,0.188 -0.166,0.352 -0.328,0.461c-0,-0 -10.249,6.878 -24.768,6.156c-14.482,-0.72 -24.472,-7.687 -24.472,-7.687c-0.265,-0.185 -0.393,-0.511 -0.324,-0.826l4.025,-18.389c-5.471,0.844 -10.545,1.023 -11.28,1.045l-0.315,0.081c1.943,6.167 2.623,9.474 2.623,9.474c0.075,0.366 -0.113,0.735 -0.453,0.888c-0,0 -31.25,14.089 -41.279,15.557c-5.966,0.874 -17.968,3.857 -23.885,-9.163c-5.669,-12.475 -5.563,-45.254 -5.559,-46.058Zm36.118,8.724c-15.181,-2.427 -26.992,-6.328 -34.524,-8.317c-0.004,3.832 0.135,33.364 5.418,44.99c5.478,12.054 16.678,9.054 22.201,8.245c9.117,-1.334 35.934,-13.229 40.261,-15.166c-0.294,-1.265 -1.084,-4.439 -2.64,-9.313c-0.036,-0.059 -0.065,-0.124 -0.086,-0.194c-0.699,-2.361 -1.767,-5.142 -3.36,-9.427c-0.696,-1.648 -1.395,-3.141 -2.05,-4.452c-0.161,-0.284 -0.321,-0.552 -0.478,-0.805c-0.071,-0.113 -0.11,-0.238 -0.119,-0.364c-1.108,-2.125 -2.032,-3.645 -2.51,-4.401l-38.215,15.698c-0.408,0.168 -0.874,-0.027 -1.041,-0.435c-0.168,-0.407 0.027,-0.873 0.435,-1.041l17.674,-7.26l-0.966,-7.758Zm97.618,10.237l-0.684,2.611c1.752,0.889 3.37,1.969 4.655,3.058c-1.247,-2.192 -3,-4.466 -3.971,-5.669Zm-47.993,-16.352c-2.628,0.754 -8.318,2.451 -11.316,3.839c-3.498,1.619 -10.312,6.469 -11.842,7.569c0.053,0.106 0.107,0.212 0.161,0.32c0.714,1.262 1.449,2.796 2.084,4.505l0.042,0.113c0.6,1.421 1.198,2.954 1.765,4.581c0.53,1.522 1.005,2.937 1.428,4.243l0.495,-0.126c0.058,-0.015 0.118,-0.023 0.178,-0.025c-0,0 5.744,-0.137 11.775,-1.121c0.565,-0.093 1.133,-0.192 1.699,-0.3c1.692,-0.322 3.365,-0.716 4.901,-1.197c5.187,-1.625 11.187,-7.712 14.186,-12.357c0.751,-1.163 1.311,-2.233 1.608,-3.117c0.163,-0.483 0.251,-0.895 0.209,-1.217c-0.036,-0.278 -0.275,-0.452 -0.587,-0.613c-0.516,-0.267 -1.23,-0.436 -2.068,-0.548c-4.166,-0.555 -11.166,0.411 -14.285,0.938c-0.131,0.022 -0.254,0.044 -0.371,0.064c-0.261,0.046 -0.528,-0.041 -0.712,-0.232c-0.184,-0.191 -0.261,-0.46 -0.206,-0.72c0,0 0.984,-4.636 0.984,-4.636c-0.042,0.012 -0.085,0.025 -0.128,0.037Zm45.839,18.277c3.622,-13.837 7.286,-27.839 7.286,-27.839c-3.809,0.267 -16.465,1.124 -23.058,1.218c-7.718,0.109 -22.753,-1.484 -26.2,-1.863l-1.925,8.799c0.042,0.131 0.051,0.272 0.021,0.411c0,0 -1.015,4.784 -1.015,4.784c3.499,-0.553 9.996,-1.351 13.981,-0.82c1.287,0.172 2.332,0.493 3.001,0.958c0.599,0.416 0.944,0.948 1.026,1.581c0.065,0.509 -0.023,1.167 -0.279,1.929c-0.331,0.984 -0.945,2.18 -1.78,3.474c-3.171,4.913 -9.564,11.297 -15.05,13.015c-1.793,0.561 -3.769,1.007 -5.747,1.361l-4.043,18.476c2.037,1.292 10.959,6.505 23.198,7.114c12.656,0.629 21.94,-4.731 23.552,-5.73l1.64,-6.265c-0.351,-0.399 -0.718,-0.857 -1.092,-1.365c-2.197,-2.984 -4.725,-7.723 -5.865,-11.583c-0.438,-1.485 -0.671,-2.847 -0.627,-3.947c0.034,-0.855 0.236,-1.569 0.597,-2.107c2.109,-3.143 5.869,-3.563 9.721,-2.528c0.89,0.239 1.783,0.555 2.658,0.927Zm-3.627,20.16c0.236,0.227 0.457,0.407 0.661,0.535c2.912,1.82 6.774,0.831 9.605,-1.391c1.076,-0.845 1.562,-2.143 1.742,-3.605c0.284,-2.318 -0.208,-5.036 -0.736,-7.313c-0.157,-0.177 -0.233,-0.422 -0.189,-0.671c-0.331,-0.8 -1.186,-1.748 -2.317,-2.715c-1.13,-0.966 -2.544,-1.927 -4.082,-2.735c-0.478,-0.251 -0.968,-0.488 -1.465,-0.705c-0.875,-0.383 -1.772,-0.706 -2.664,-0.946c-3.145,-0.845 -6.26,-0.689 -7.981,1.876c-0.218,0.325 -0.308,0.765 -0.328,1.282c-0.038,0.957 0.181,2.139 0.563,3.431c1.091,3.696 3.515,8.232 5.619,11.089c0.103,0.14 0.205,0.275 0.305,0.406c0.452,0.589 0.879,1.088 1.267,1.462Zm-79.665,-160.675c-7.131,12.165 -10.184,26.672 -6.21,35.68c7.332,7.021 17.41,11.81 31.391,12.572c0.044,0.002 0.089,0.007 0.133,0.012c0.956,-0.865 2.45,-1.422 4.128,-1.422c2.884,-0 5.226,1.647 5.226,3.675c-0,2.028 -2.342,3.675 -5.226,3.675c-2.296,-0 -4.248,-1.043 -4.949,-2.492c-12.636,-0.775 -22.252,-4.687 -29.636,-10.486c2.49,5.771 20.104,21.432 42.127,20.137c9.866,-0.581 17.025,-25.387 17.693,-31.339c0.825,-7.346 0.107,-29.93 -2.058,-35.777c-3.04,-2.398 -9.627,-5.846 -21.731,-4.874c-13.172,1.058 -25.883,7.724 -30.888,10.639Zm47.51,-13.159c-3.806,-4.193 -9.621,-8.48 -17.49,-8.48c-6.206,0 -12.111,2.558 -17.336,6.667c4.386,-2.718 10.085,-4.621 18.204,-5.167c6.915,-0.465 12.56,3.067 16.622,6.98Z"/><path d="M275.506,269l0,6c0,1.656 -0.952,3 -2.125,3l-255.756,-0c-1.173,-0 -2.125,-1.344 -2.125,-3l-0,-6c-0,-1.656 0.952,-3 2.125,-3l255.756,0c1.173,0 2.125,1.344 2.125,3Z"/><circle cx="170.446" cy="118.495" r="5.863"/><path d="M171.829,67.42c3.404,22.803 3.297,30.964 0.093,35.996c-4.08,-3.39 -3.739,-13.742 -0.093,-35.996Z"/><path d="M143.252,147.027c9.863,-13.93 14.3,-17.949 19.184,-18.14c0.98,4.676 -4.789,9.626 -19.184,18.14Z"/><path d="M86.714,103.43c1.916,0 3.472,2.599 3.472,5.8c-0,3.2 -1.556,5.799 -3.472,5.799c-1.916,-0 -3.471,-2.599 -3.471,-5.799c-0,-3.201 1.555,-5.8 3.471,-5.8Zm2.541,7.294c-0.326,1.732 -1.296,2.99 -2.44,2.99c-1.412,-0 -2.559,-1.915 -2.559,-4.274c0,-0.238 0.012,-0.471 0.034,-0.699c-0.076,0.405 -0.117,0.837 -0.117,1.284c-0,2.359 1.146,4.274 2.558,4.274c1.27,-0 2.324,-1.548 2.524,-3.575Zm-0.02,-3.736c0.008,-0.086 0.013,-0.174 0.013,-0.264c-0,-0.891 -0.426,-1.614 -0.951,-1.614c-0.425,-0 -0.786,0.475 -0.907,1.129c-0.008,0.086 -0.013,0.174 -0.013,0.264c0,0.891 0.426,1.614 0.951,1.614c0.425,0 0.786,-0.475 0.907,-1.129Zm-10.573,-5.946c-0.492,0.495 -1.293,0.498 -1.789,0.006c-0.495,-0.492 -0.498,-1.293 -0.006,-1.789c0,0 8.649,-8.578 16.199,-0.993c0.493,0.495 0.491,1.297 -0.004,1.789c-0.495,0.493 -1.297,0.491 -1.789,-0.004c-5.885,-5.912 -12.611,0.991 -12.611,0.991Zm34.098,-0.213c1.498,-0 2.714,2.302 2.714,5.137c-0,2.835 -1.216,5.137 -2.714,5.137c-1.497,0 -2.713,-2.302 -2.713,-5.137c-0,-2.835 1.216,-5.137 2.713,-5.137Zm-1.97,3.151c0.095,0.58 0.377,1.001 0.709,1.001c0.41,-0 0.743,-0.641 0.743,-1.43c-0,-0.08 -0.003,-0.158 -0.01,-0.234c-0.095,-0.58 -0.377,-1.001 -0.709,-1.001c-0.41,0 -0.743,0.641 -0.743,1.43c0,0.08 0.003,0.158 0.01,0.234Zm-0.016,3.31c0.156,1.796 0.981,3.167 1.973,3.167c1.104,-0 2,-1.697 2,-3.786c-0,-0.397 -0.033,-0.779 -0.092,-1.138c0.017,0.202 0.026,0.409 0.026,0.62c0,2.089 -0.896,3.786 -1.999,3.786c-0.895,-0 -1.653,-1.114 -1.908,-2.649Zm8.28,-8.577c-0,-0 -5.257,-6.116 -9.857,-0.878c-0.385,0.438 -1.011,0.44 -1.398,0.004c-0.387,-0.437 -0.388,-1.147 -0.003,-1.585c5.901,-6.72 12.661,0.879 12.661,0.879c0.384,0.439 0.382,1.149 -0.005,1.585c-0.387,0.436 -1.014,0.434 -1.398,-0.005Z"/><path d="M93.52,132.21c-0.497,-0.238 -0.707,-0.836 -0.469,-1.334c0.239,-0.497 0.837,-0.708 1.334,-0.469c0,0 7.826,3.794 13.201,-1.89c0.38,-0.401 1.013,-0.419 1.414,-0.04c0.401,0.38 0.419,1.013 0.04,1.414c-6.326,6.689 -15.52,2.319 -15.52,2.319Z"/><path d="M242.849,127.917c0,-0.009 0,-0.017 0,-0.025c0,-3.001 1.018,-5.644 2.493,-7.293c1.211,-1.355 2.734,-2.093 4.35,-2.093c1.615,-0 3.139,0.738 4.35,2.093c1.475,1.649 2.492,4.292 2.492,7.293c-0,3.001 -1.017,5.644 -2.492,7.293c-0.894,1 -1.958,1.664 -3.103,1.943c-0.014,-0.063 -0.053,-0.121 -0.113,-0.157c-0.525,-0.322 -0.861,-1.099 -0.941,-1.899c-0.08,-0.795 0.092,-1.627 0.657,-2.072c0.002,-0.001 0.004,-0.002 0.005,-0.004c0.336,-0.228 0.632,-0.578 0.895,-0.979c0.023,-0.034 0.046,-0.07 0.068,-0.105c-0.778,0.199 -1.436,0.698 -1.844,1.366c0.008,0 0.015,0 0.023,0c-0.275,0.531 -0.367,1.195 -0.302,1.844c0.08,0.795 0.396,1.558 0.859,2.02c0.538,0.479 1.247,0.769 2.023,0.769c1.682,0 3.047,-1.365 3.047,-3.047c0,-0 2.184,-2.364 1.718,-7.008c-0.003,-0.032 -0,-0.064 -0.001,-0.096l3.433,-0.271c4.33,-0.342 8.123,2.897 8.464,7.227l6.133,77.774c0.341,4.33 -2.897,8.122 -7.227,8.464l-67.112,5.291c-4.33,0.342 -8.123,-2.897 -8.464,-7.226l-6.133,-77.775c-0.341,-4.33 2.897,-8.122 7.227,-8.464l1.253,-0.098c-0.001,-0.008 -0.001,-0.016 -0.002,-0.024l3.986,-0.332c0.001,0.014 0.002,0.027 0.003,0.041l5.663,-0.446c0.001,-0.056 0.002,-0.111 0.002,-0.167c-0,-1.607 -0.4,-3.071 -1.092,-4.125c-0.467,-0.712 -1.039,-1.261 -1.75,-1.261c-0.712,-0 -1.284,0.549 -1.751,1.261c-0.666,1.015 -1.062,2.41 -1.09,3.948l-4.001,0.333c-0,-0.052 -0.001,-0.104 -0.001,-0.156c0,-3.001 1.018,-5.644 2.493,-7.293c1.211,-1.355 2.734,-2.093 4.35,-2.093c1.615,-0 3.139,0.738 4.35,2.093c1.475,1.649 2.492,4.292 2.492,7.293c-0,3.001 -1.017,5.644 -2.492,7.294c-1.11,1.241 -2.483,1.965 -3.948,2.077c-0.001,-0 -0.002,-0.001 -0.003,-0.002c-0.51,-0.344 -0.813,-1.134 -0.859,-1.937c-0.046,-0.797 0.162,-1.622 0.746,-2.042c0.018,-0.013 0.034,-0.028 0.048,-0.045c0.504,-0.126 0.932,-0.53 1.298,-1.045c-0.835,0.081 -1.571,0.499 -2.071,1.116c-0.399,0.543 -0.563,1.299 -0.52,2.045c0.042,0.725 0.279,1.432 0.654,1.917c-0.008,-0.001 -0.017,-0.001 -0.025,-0.002c0.558,0.617 1.364,1.004 2.26,1.004c1.682,0 3.048,-1.365 3.048,-3.047c-0,-0.104 2.605,-2.587 2.364,-7.287c-0.004,-0.078 -0.001,-0.156 -0.002,-0.234l43.774,-3.451c0.002,-0.074 0.003,-0.149 0.003,-0.223c-0,-1.607 -0.401,-3.071 -1.092,-4.125c-0.467,-0.713 -1.039,-1.261 -1.75,-1.261c-0.712,-0 -1.284,0.548 -1.751,1.261c-0.647,0.986 -1.039,2.331 -1.087,3.816l-4.005,0.334Zm-52.909,23.51l5.31,67.356c0.212,2.679 2.558,4.683 5.238,4.472l67.112,-5.292c2.679,-0.211 4.683,-2.558 4.472,-5.237l-5.319,-67.457l-76.813,6.158Zm34.075,11.521l-0.524,-5.577l10.419,-0.98l2.965,31.518l-6.226,0.586l-2.44,-25.941l-4.194,0.394Zm15.561,48.622l-6.773,0.59l-0.758,3.205l-5.581,0.486l5.299,-19.706l6.123,-0.533l8.598,18.496l-5.608,0.488l-1.3,-3.026Zm-1.682,-3.948l-2.596,-5.998l-1.494,6.354l4.09,-0.356Zm26.027,-14.276l-5.584,13.616l0.528,6.068l-5.337,0.465l-0.528,-6.069l-7.853,-12.446l6.068,-0.528l4.001,7.076l2.718,-7.661l5.987,-0.521Zm-50.173,4.368c2.004,-0.175 3.796,0.074 5.374,0.746c1.578,0.673 2.836,1.696 3.775,3.07c0.938,1.374 1.489,2.992 1.65,4.852c0.161,1.842 -0.107,3.521 -0.803,5.038c-0.696,1.516 -1.762,2.751 -3.199,3.704c-1.436,0.953 -3.148,1.516 -5.135,1.689l-7.558,0.658l-1.663,-19.099l7.559,-0.658Zm0.848,14.448c1.553,-0.136 2.735,-0.666 3.546,-1.592c0.812,-0.926 1.15,-2.166 1.014,-3.719c-0.136,-1.571 -0.685,-2.747 -1.644,-3.528c-0.96,-0.781 -2.217,-1.104 -3.77,-0.968l-1.842,0.16l0.854,9.807l1.842,-0.16Z"/><path d="M118.922,148.976c-0.486,-0.671 -0.336,-1.609 0.335,-2.095c0.67,-0.486 1.609,-0.336 2.094,0.335c10.386,14.338 27.264,23.672 46.304,23.672c6.562,-0 12.866,-1.108 18.736,-3.148c0.782,-0.271 1.767,2.563 0.985,2.834c-6.179,2.147 -12.815,3.314 -19.721,3.314c-20.039,-0 -37.803,-9.823 -48.733,-24.912Zm107.03,-20.414c-0.204,0.802 -1.02,1.288 -1.823,1.085c-0.802,-0.204 -1.288,-1.021 -1.085,-1.823c1.142,-4.503 1.749,-9.218 1.749,-14.074c0,-31.535 -25.602,-57.138 -57.138,-57.138c-15.906,0 -30.303,6.514 -40.666,17.018c-0.582,0.589 -1.532,0.595 -2.122,0.014c-0.589,-0.582 -0.595,-1.532 -0.014,-2.121c10.908,-11.055 26.061,-17.911 42.802,-17.911c33.191,0 60.138,26.947 60.138,60.138c0,5.11 -0.639,10.073 -1.841,14.812Zm-111.872,-71.824c-0.603,0.567 -1.553,0.538 -2.121,-0.065c-0.567,-0.603 -0.537,-1.553 0.066,-2.12c14.542,-13.672 34.115,-22.053 55.63,-22.053c44.843,-0 81.25,36.407 81.25,81.25c0,0.955 -0.016,1.906 -0.049,2.853c-0.029,0.827 -0.724,1.476 -1.551,1.447c-0.827,-0.028 -1.476,-0.723 -1.447,-1.551c0.031,-0.912 0.047,-1.829 0.047,-2.749c0,-43.187 -35.062,-78.25 -78.25,-78.25c-20.72,-0 -39.57,8.071 -53.575,21.238Zm74.111,132.535c0.799,-0.217 1.585,2.678 0.786,2.895c-6.796,1.846 -13.945,2.832 -21.322,2.832c-7.464,-0 -14.694,-1.009 -21.562,-2.897c-0.798,-0.22 -1.268,-1.046 -1.049,-1.844c0.22,-0.799 1.046,-1.268 1.844,-1.049c6.615,1.819 13.578,2.79 20.767,2.79c7.105,-0 13.99,-0.949 20.536,-2.727Z"/></g></svg>