<?xml version="1.0" encoding="UTF-8" standalone="no"?><!DOCTYPE svg PUBLIC "-//W3C//DTD SVG 1.1//EN" "http://www.w3.org/Graphics/SVG/1.1/DTD/svg11.dtd"><svg width="100%" height="100%" viewBox="0 0 383 383" version="1.1" xmlns="http://www.w3.org/2000/svg" xmlns:xlink="http://www.w3.org/1999/xlink" xml:space="preserve" xmlns:serif="http://www.serif.com/" style="fill-rule:evenodd;clip-rule:evenodd;stroke-linejoin:round;stroke-miterlimit:2;"><rect id="Artboard2" x="-63" y="-65.5" width="540" height="540" style="fill:none;"/><g id="Artboard21" serif:id="Artboard2"><path d="M182.344,161.204c-0.133,-2.747 1.367,-5.747 3.891,-5.747c2.976,-0 4.476,3 4.241,5.747c-0.244,2.846 -1.822,5.175 -4.066,5.175c-2.244,-0 -3.929,-2.322 -4.066,-5.175Zm2.315,-2.957c-0.38,-0 -0.749,0.408 -0.824,0.912c-0.074,0.503 0.174,0.912 0.554,0.912c0.381,-0 0.749,-0.409 0.824,-0.912c0.074,-0.504 -0.174,-0.912 -0.554,-0.912Zm4.321,5.441c-0.418,0.721 -1.057,1.234 -1.837,1.384c-1.671,0.321 -3.36,-1.145 -3.769,-3.271c-0.183,-0.955 -0.422,-0.725 -0.204,0.409c0.409,2.127 2.098,3.593 3.769,3.272c0.92,-0.178 1.645,-0.86 2.041,-1.794Z"/><path d="M209.008,161.204c-0.132,-2.747 1.368,-5.747 3.891,-5.747c2.977,-0 4.477,3 4.241,5.747c-0.243,2.846 -1.822,5.175 -4.066,5.175c-2.244,-0 -3.928,-2.322 -4.066,-5.175Zm2.315,-2.957c-0.38,-0 -0.749,0.408 -0.823,0.912c-0.074,0.503 0.174,0.912 0.554,0.912c0.38,-0 0.749,-0.409 0.823,-0.912c0.074,-0.504 -0.174,-0.912 -0.554,-0.912Zm4.322,5.441c-0.418,0.721 -1.058,1.234 -1.838,1.384c-1.671,0.321 -3.359,-1.145 -3.768,-3.271c-0.184,-0.955 -0.423,-0.725 -0.205,0.409c0.409,2.127 2.098,3.593 3.769,3.272c0.921,-0.178 1.645,-0.86 2.042,-1.794Z"/><path d="M122.758,336l-21.142,-0.293c-0.214,-0.003 -0.421,-0.074 -0.592,-0.204c-13.361,-10.161 -18.918,-22.264 -23.018,-28.361c-4.166,-6.196 -18.826,-34.368 -18.826,-34.368c-0.219,-0.422 -0.111,-0.941 0.259,-1.24c0,0 4.113,-3.318 9.389,-7.066c-1.349,-1.924 -4.627,-6.597 -4.627,-6.597c-2.864,-0.669 -21.423,-5.091 -32.902,-10.081c-3.304,-1.436 -6.032,-2.931 -7.687,-4.388c-1.338,-1.178 -2.007,-2.393 -1.997,-3.518c0.019,-2.111 1.653,-3.616 4.37,-4.466c4.666,-1.46 12.687,-1.116 18.117,-0.63c-0.335,-0.68 -0.67,-1.498 -0.867,-2.345c-0.385,-1.656 -0.23,-3.391 1.096,-4.633c0.773,-0.723 1.984,-1.3 3.845,-1.513c8.032,-0.919 22.505,3.005 29.664,6.16c5.799,2.554 12.062,5.481 13.646,13.234c0.429,2.102 0.956,4.595 1.49,7.085c5.582,-0.856 9.71,-0.298 9.71,-0.298c0.378,0.051 0.695,0.313 0.815,0.676c3.509,10.568 7.487,20.694 11.926,30.39l2.789,-19.945c0.049,-0.349 0.277,-0.64 0.588,-0.776c-1.631,-3.557 -3.382,-6.159 1.857,-11.206c6.174,-5.946 11.426,-10.076 16.256,-18.304c4.829,-8.229 7.267,-18.225 9.049,-27.808c1.817,-9.772 1.862,-20.53 1.853,-30.823c-0.011,-11.928 3.269,-30.677 5.932,-37.221c2.663,-6.544 10.698,-20.741 16.504,-26.27c5.806,-5.529 15.107,-11.339 26.19,-12.126c11.083,-0.787 18.426,2.621 25.913,7.105c7.488,4.484 12.648,9.922 17.791,18.791c5.208,8.981 8.561,18.967 10.797,27.206c2.539,9.353 3.749,17.811 5.46,28.86c1.744,11.263 1.775,17.928 3.365,24.088c1.26,4.881 3.739,17.408 16.736,21.793c6.153,2.076 8.895,6.696 9.072,6.813c5.225,3.469 8.709,9.829 10.743,14.669l44.944,-0c3.81,-0 6.375,3.084 5.711,6.893l-12.958,74.444c-0.515,2.96 -2.922,5.462 -5.762,6.273l10.618,-0c1.449,-0 2.625,1.176 2.625,2.625l0,5.25c0,1.449 -1.176,2.625 -2.625,2.625l-269.75,-0c-1.449,-0 -2.625,-1.176 -2.625,-2.625l-0,-5.25c-0,-1.449 1.176,-2.625 2.625,-2.625l53.633,-0Zm192.552,-1.723l11.006,0c2.697,0 5.263,-2.196 5.733,-4.893l12.958,-74.444c0.436,-2.506 -1.234,-4.55 -3.741,-4.55l-104.025,-0c-2.697,-0 -5.263,2.196 -5.733,4.893l-12.958,74.444c-0.015,0.086 -0.028,0.172 -0.038,0.258l-0.001,0.004c-0.279,2.385 1.361,4.288 3.78,4.288l93.019,0Zm-32.652,-52.667c7.418,-0 13.441,6.022 13.441,13.44c-0,7.418 -6.023,13.441 -13.441,13.441c-7.418,-0 -13.44,-6.023 -13.44,-13.441c-0,-7.418 6.022,-13.44 13.44,-13.44Zm0,2c-6.314,-0 -11.44,5.126 -11.44,11.44c-0,6.315 5.126,11.441 11.44,11.441c6.315,-0 11.441,-5.126 11.441,-11.441c-0,-6.314 -5.126,-11.44 -11.441,-11.44Zm11.528,-35.22c-1.761,-4.047 -4.534,-8.958 -8.507,-12.122c-0.478,1.424 -3.152,8.134 -4.745,10.752c-0.182,0.298 -0.505,0.48 -0.854,0.48l-44.541,0.041c-1.071,0 -2.29,0.717 -3.429,1.682c-1.829,1.55 -3.439,2.246 -3.739,3.966l0,0.002l-11.447,65.135c-0.048,0.27 -0.204,0.509 -0.432,0.66c-1.382,0.918 -8.918,4.757 -12.949,5.024c-17.047,1.129 -36.113,-3.603 -46.452,-12.68c-8.888,-7.801 -23.309,-24.867 -31.712,-36.031c-2.515,-3.341 -4.49,-6.172 -5.647,-8.095c-0.892,6.372 -2.751,19.669 -2.751,19.669c1.398,2.811 9.302,17.453 12.024,22.634c0.253,0.48 0.076,1.074 -0.397,1.338c-0.473,0.265 -1.071,0.104 -1.348,-0.363c-3.287,-5.539 -11.252,-20.921 -12.216,-23.019l-0.002,-0.003c-4.961,-10.506 -9.377,-21.522 -13.234,-33.062c-1.38,-0.116 -4.964,-0.289 -9.377,0.491c-0.019,0.005 -0.038,0.009 -0.057,0.012c-2.483,0.443 -5.225,1.187 -7.984,2.413c-4.097,1.821 -9.19,5.112 -13.599,8.21c-0.026,0.019 -0.053,0.036 -0.081,0.051c-4.305,3.03 -7.952,5.877 -9.375,7.005c2.319,4.445 14.586,27.876 18.331,33.446c3.999,5.949 9.375,17.747 22.308,27.686l35.108,0.486c2.854,-6.46 5.235,-13.624 5.045,-17.161c-0.03,-0.551 0.393,-1.022 0.944,-1.052c0.552,-0.03 1.023,0.393 1.053,0.945c0.193,3.583 -1.708,10.849 -4.814,17.347l39.463,0l-0,-3.637c-0,-0.977 0.793,-1.77 1.77,-1.77l36.126,-0l12.869,-73.93c0.63,-3.618 4.084,-6.55 7.703,-6.55l56.945,-0Zm-80.524,-127.09c-4.061,-3.597 -8.493,-5.799 -13.267,-5.8c-4.18,-0.001 -8.212,1.735 -11.952,4.637c3.665,-1.897 7.937,-3.137 12.844,-3.137c4.465,0 8.655,1.762 12.375,4.3Zm-39.468,17.602c-0.593,1.184 -1.158,2.386 -1.694,3.598c-0.875,1.978 -6,14.89 -6,24.5c-0,17.5 14.278,38.307 34.532,39c13.482,0.152 34.968,-20.5 34.325,-39.77c-0.278,-8.31 -4.051,-18.103 -6.857,-23.73c-0.587,-1.178 -1.191,-2.346 -1.811,-3.496c-0,-0 -10.189,-8.004 -26.689,-8.004c-16.5,0 -25.806,7.902 -25.806,7.902Zm15.82,46.472c-0.482,-0.268 -0.656,-0.877 -0.388,-1.36c0.268,-0.482 0.877,-0.656 1.36,-0.388c6.508,3.615 13.017,3.645 19.525,0.001c0.482,-0.269 1.092,-0.097 1.362,0.384c0.269,0.482 0.097,1.092 -0.384,1.362c-7.159,4.007 -14.317,3.978 -21.475,0.001Zm-9.832,-32.749c-0.34,0.435 -0.969,0.511 -1.404,0.171c-0.435,-0.34 -0.511,-0.969 -0.171,-1.404c-0,0 1.5,-1.92 3.727,-3.34c1.568,-1 3.485,-1.736 5.491,-1.511c2.129,0.239 4.418,1.539 6.473,4.952c0.285,0.473 0.132,1.088 -0.341,1.372c-0.473,0.285 -1.088,0.132 -1.373,-0.34c-1.61,-2.675 -3.314,-3.809 -4.982,-3.996c-1.537,-0.173 -2.991,0.443 -4.192,1.209c-1.927,1.229 -3.228,2.887 -3.228,2.887Zm41.652,-1.233c0.34,0.435 0.264,1.064 -0.171,1.404c-0.435,0.34 -1.064,0.264 -1.404,-0.171c0,0 -1.301,-1.658 -3.227,-2.887c-1.202,-0.766 -2.656,-1.382 -4.193,-1.209c-1.668,0.187 -3.372,1.321 -4.982,3.996c-0.285,0.472 -0.9,0.625 -1.373,0.34c-0.473,-0.284 -0.625,-0.899 -0.341,-1.372c2.055,-3.413 4.344,-4.713 6.473,-4.952c2.006,-0.225 3.923,0.511 5.491,1.511c2.227,1.42 3.727,3.34 3.727,3.34Zm-21.834,142.608c1.66,0 3.067,-0.409 4.323,-0.962c0.505,-0.223 0.735,-0.813 0.512,-1.318c-0.222,-0.506 -0.813,-0.735 -1.318,-0.512c-1.022,0.45 -2.166,0.792 -3.517,0.792c-0.552,0 -1,0.448 -1,1c-0,0.552 0.448,1 1,1Zm-116.422,-38.514c2.546,-1.131 5.079,-1.876 7.428,-2.359c-0.531,-2.474 -1.054,-4.947 -1.48,-7.035c-1.432,-7.011 -7.249,-9.495 -12.492,-11.805c-6.913,-3.046 -20.876,-6.891 -28.63,-6.003c-1.297,0.149 -2.168,0.483 -2.706,0.987c-0.771,0.722 -0.739,1.757 -0.515,2.72c0.285,1.228 0.927,2.382 1.297,2.979l18.285,-0.113l0.015,-0.001c0.55,-0.003 0.999,0.437 1.006,0.987c0.008,0.549 -0.429,1.001 -0.978,1.013c-0,0 -0.005,0 -0.015,0c-0.564,0.012 -16.753,0.345 -18.956,0.112c-5.055,-0.537 -14.204,-1.222 -19.255,0.359c-1.708,0.535 -2.955,1.248 -2.967,2.575c-0.006,0.666 0.527,1.302 1.319,1.999c1.539,1.354 4.09,2.72 7.162,4.055c12.333,5.361 32.926,10.052 32.926,10.052c0.242,0.055 0.454,0.198 0.596,0.401l4.843,6.906c4.32,-2.999 9.172,-6.075 13.117,-7.829Zm97.195,78.791l37,0c-0.766,-0.916 -1.23,-2.091 -1.291,-3.407l-35.709,-0l-0,3.407Zm-38.634,-65.769c-0,0 11.564,19.585 28.269,31.789c11.32,8.271 24.977,13.134 39.014,6.61c0.5,-0.233 0.717,-0.828 0.485,-1.329c-0.233,-0.5 -0.828,-0.717 -1.329,-0.485c-13.316,6.19 -26.25,1.436 -36.991,-6.411c-16.387,-11.972 -27.726,-31.19 -27.726,-31.19c-0.28,-0.476 -0.894,-0.634 -1.369,-0.353c-0.476,0.28 -0.634,0.894 -0.353,1.369Zm23.819,20.41c-0,-0 14.469,6.25 29.087,5.519c0.551,-0.028 0.977,-0.498 0.949,-1.049c-0.028,-0.551 -0.498,-0.976 -1.049,-0.949c-14.17,0.709 -28.194,-5.357 -28.194,-5.357c-0.506,-0.219 -1.095,0.015 -1.314,0.521c-0.219,0.507 0.014,1.096 0.521,1.315Zm72.585,-84.708c-0,0 -7.722,25.453 -35.623,30.821c-0.542,0.104 -0.897,0.629 -0.793,1.171c0.104,0.542 0.629,0.897 1.171,0.793c29.126,-5.604 37.159,-32.205 37.159,-32.205c0.16,-0.529 -0.139,-1.087 -0.667,-1.247c-0.529,-0.16 -1.087,0.139 -1.247,0.667Z"/></g></svg>