<?xml version="1.0" encoding="UTF-8" standalone="no"?><!DOCTYPE svg PUBLIC "-//W3C//DTD SVG 1.1//EN" "http://www.w3.org/Graphics/SVG/1.1/DTD/svg11.dtd"><svg width="100%" height="100%" viewBox="0 0 353 353" version="1.1" xmlns="http://www.w3.org/2000/svg" xmlns:xlink="http://www.w3.org/1999/xlink" xml:space="preserve" xmlns:serif="http://www.serif.com/" style="fill-rule:evenodd;clip-rule:evenodd;stroke-linecap:round;stroke-linejoin:round;stroke-miterlimit:1.5;"><rect id="Artboard4" x="-33" y="-109.5" width="540" height="540" style="fill:none;"/><g id="Artboard41" serif:id="Artboard4"><path d="M149.845,272.452l-35.258,-0c-1.397,-0 -2.639,-0.669 -3.422,-1.704c-0.545,-0.719 -0.868,-1.615 -0.868,-2.586l0,-48.708c0,-2.368 1.922,-4.29 4.29,-4.29l75.239,0c1.149,0 2.193,0.453 2.963,1.19c0.489,0.467 0.868,1.049 1.093,1.702l-2.21,0.992c-0.169,-0.773 -0.812,-1.37 -1.609,-1.47c-0.078,-0.01 -0.157,-0.015 -0.237,-0.015l-75.239,0c-1.044,0 -1.891,0.847 -1.891,1.891l0,48.708c0,1.044 0.847,1.891 1.891,1.891l40.545,-0l-5.287,2.399Zm11.905,-32.18c0.409,1.102 0.633,2.293 0.633,3.536c-0,5.617 -4.56,10.177 -10.177,10.177c-5.616,-0 -10.176,-4.56 -10.176,-10.177c-0,-5.617 4.56,-10.176 10.176,-10.176c0.6,-0 1.188,0.052 1.759,0.151c0.994,0.174 1.938,0.491 2.81,0.931l-2.294,1.03c-0.723,-0.204 -1.487,-0.313 -2.275,-0.313c-1.866,-0 -3.591,0.612 -4.984,1.645c-2.058,1.527 -3.393,3.975 -3.393,6.732c-0,4.624 3.754,8.377 8.377,8.377c4.624,0 8.377,-3.753 8.377,-8.377c0,-1.37 -0.329,-2.663 -0.913,-3.805c-0.427,-0.835 -0.989,-1.588 -1.658,-2.232l2.626,0.34c0.452,0.668 0.827,1.393 1.112,2.161Z"/><path d="M136.957,143.075c1.279,0 2.317,1.439 2.317,3.211c-0,1.772 -1.038,3.211 -2.317,3.211c-1.278,-0 -2.316,-1.439 -2.316,-3.211c-0,-1.772 1.038,-3.211 2.316,-3.211Zm1.696,4.039c-0.218,0.959 -0.865,1.655 -1.629,1.655c-0.942,0 -1.707,-1.06 -1.707,-2.366c0,-0.132 0.008,-0.261 0.023,-0.387c-0.051,0.224 -0.079,0.463 -0.079,0.711c0,1.306 0.765,2.366 1.708,2.366c0.847,-0 1.551,-0.857 1.684,-1.979Zm-0.014,-2.069c0.006,-0.047 0.009,-0.096 0.009,-0.146c-0,-0.493 -0.284,-0.894 -0.635,-0.894c-0.283,0 -0.524,0.263 -0.605,0.626c-0.005,0.047 -0.008,0.096 -0.008,0.146c-0,0.493 0.284,0.893 0.634,0.893c0.284,0 0.524,-0.263 0.605,-0.625Z"/><path d="M161.292,143.075c-1.279,0 -2.317,1.439 -2.317,3.211c0,1.772 1.038,3.211 2.317,3.211c1.278,-0 2.316,-1.439 2.316,-3.211c0,-1.772 -1.038,-3.211 -2.316,-3.211Zm-1.696,4.039c0.218,0.959 0.865,1.655 1.629,1.655c0.942,0 1.707,-1.06 1.707,-2.366c-0,-0.132 -0.008,-0.261 -0.023,-0.387c0.051,0.224 0.079,0.463 0.079,0.711c-0,1.306 -0.765,2.366 -1.708,2.366c-0.847,-0 -1.551,-0.857 -1.684,-1.979Zm0.014,-2.069c-0.006,-0.047 -0.009,-0.096 -0.009,-0.146c0,-0.493 0.284,-0.894 0.635,-0.894c0.283,0 0.524,0.263 0.605,0.626c0.005,0.047 0.008,0.096 0.008,0.146c0,0.493 -0.284,0.893 -0.634,0.893c-0.284,0 -0.524,-0.263 -0.605,-0.625Z"/><path d="M131.322,138.884c-0.445,0.372 -1.17,0.374 -1.618,0.004c-0.448,-0.37 -0.451,-0.973 -0.006,-1.345c0,-0 7.823,-6.452 14.651,-0.747c0.446,0.372 0.444,0.975 -0.004,1.345c-0.447,0.371 -1.172,0.369 -1.618,-0.003c-5.322,-4.446 -11.405,0.746 -11.405,0.746Z"/><path d="M166.994,138.884c0.445,0.372 1.17,0.374 1.618,0.004c0.448,-0.37 0.451,-0.973 0.006,-1.345c-0,-0 -7.823,-6.452 -14.651,-0.747c-0.446,0.372 -0.444,0.975 0.004,1.345c0.447,0.371 1.172,0.369 1.618,-0.003c5.322,-4.446 11.405,0.746 11.405,0.746Z"/><path d="M100.896,256.609l-10.925,15.843l-22.262,-1.141c-0.213,0.051 -0.437,-0.019 -0.584,-0.183l-24.174,-34.083c-1.14,-1.27 -1.068,-3.216 0.164,-4.397l0.922,-0.884c-0.33,-0.431 -0.972,-1.27 -0.972,-1.27c-7.551,-1.829 -12.213,-4.287 -18.24,-9.808c-3.165,-2.899 -5.787,-6.779 -6.576,-10.249c-0.559,-2.46 -0.21,-4.724 1.391,-6.373c2.015,-2.075 5.276,-2.502 8.874,-1.997c4.704,0.659 9.988,2.879 13.541,4.595l0.503,-1.749c0.386,-1.34 1.291,-2.471 2.515,-3.14c1.223,-0.669 2.664,-0.822 4,-0.423l0.219,0.065c0.863,0.257 1.516,0.966 1.703,1.847l2.411,11.378l4.089,4.22l1.869,-1.791c1.255,-1.204 3.246,-1.168 4.457,0.079l16.312,16.705c6.35,-12.4 9.724,-28.813 12.587,-34.854c1.114,-2.35 1.37,-3.793 6.339,-6.661c10.782,-6.224 26.531,-12.433 28.001,-13.008l4.103,-3.862l0,-2.433c0,-0.312 0.269,-0.565 0.6,-0.565c0.331,0 0.6,0.253 0.6,0.565c-0,-0 -0,4.253 -0,4.254c1.256,0.979 8.091,6.052 15.904,6.941c0.051,0.006 0.098,0.016 0.139,0.03c0.059,-0.026 0.128,-0.044 0.209,-0.054c7.728,-0.954 14.454,-5.947 15.7,-6.918l0,-4.253c0,-0.312 0.269,-0.565 0.6,-0.565c0.331,0 0.6,0.253 0.6,0.565l-0,2.433c0.231,0.218 4.104,3.863 4.103,3.863c1.446,0.574 16.972,6.784 27.619,13.009c4.905,2.868 5.819,4.169 6.933,6.52c1.137,2.397 2.113,6.293 2.951,11.06c0.116,0.664 0.23,1.344 0.341,2.039l-1.106,0.497c-0.11,-0.696 -0.222,-1.377 -0.338,-2.041c-0.071,-0.411 -0.144,-0.816 -0.218,-1.214c-0.783,-4.233 -1.686,-7.69 -2.725,-9.881c-1.055,-2.226 -1.827,-3.306 -6.471,-6.021c-11.106,-6.494 -27.557,-12.97 -27.557,-12.97c-0.072,-0.028 -0.138,-0.069 -0.193,-0.121c-0,-0 -3.147,-2.962 -3.147,-2.961c0.013,1.328 0.003,3.535 -0.125,6.367l0.015,1.306c0,0.064 -0.01,0.127 -0.032,0.187c-0.022,0.061 -0.045,0.122 -0.069,0.183c-0.345,6.028 -1.214,14.295 -3.324,22.87c-0.566,2.299 -1.179,4.65 -1.818,7.004c-0.218,0.8 -0.438,1.6 -0.661,2.399l-1.24,0c0.223,-0.798 0.444,-1.599 0.662,-2.399c0.665,-2.439 1.302,-4.877 1.888,-7.259c1.822,-7.401 2.71,-14.572 3.136,-20.245c-0.723,0.977 -1.602,1.916 -2.507,2.766c-2.457,2.309 -5.088,3.964 -5.088,3.964c-0.154,0.097 -0.347,0.121 -0.523,0.066c-0.037,-0.012 -0.073,-0.027 -0.107,-0.045l-2.115,6.346l1.511,16.806l-1.204,0l-1.481,-16.467c-2.822,-0.964 -5.645,-0.956 -8.467,0.002l-1.604,16.465l-1.204,0l1.635,-16.793l-2.458,-6.288c-0.135,0.013 -0.271,-0.018 -0.387,-0.088c0,-0 -4.709,-2.89 -7.571,-6.845c0.437,5.867 1.346,13.331 3.214,20.92c0.543,2.206 1.127,4.451 1.736,6.695c0.217,0.801 0.438,1.601 0.66,2.399l-1.24,0c-0.222,-0.798 -0.441,-1.599 -0.658,-2.399c-0.584,-2.159 -1.145,-4.318 -1.667,-6.44c-2.144,-8.712 -3.036,-17.262 -3.398,-23.458c-0.005,-0.011 -0.009,-0.021 -0.014,-0.031c-0.032,-0.07 -0.048,-0.146 -0.048,-0.222l0.001,-0.862c-0.157,-3.094 -0.181,-5.503 -0.175,-6.914l-3.156,2.971c-0.056,0.052 -0.122,0.094 -0.196,0.122c0,0 -16.691,6.476 -27.942,12.971c-4.705,2.715 -4.816,3.933 -5.871,6.158c-2.744,5.79 -6.06,21.098 -11.884,33.326c-0.312,0.654 -0.63,1.299 -0.957,1.933l20.214,20.889c0.151,0.155 0.206,0.379 0.146,0.586c-0.061,0.208 -0.228,0.366 -0.438,0.416Zm-1.305,-0.924l-36.63,-37.701c-0.752,-0.775 -1.988,-0.797 -2.767,-0.05l-16.249,15.58c-0.764,0.733 -0.81,1.941 -0.102,2.729c0,0 23.937,33.819 23.937,33.819l21.835,-0.318l9.976,-14.059Zm64.791,-72.078l-0.054,-4.888c-2.196,1.59 -7.83,5.271 -14.323,6.42c1.549,1.261 4.875,4.257 6.49,7.903c0.897,-0.611 2.634,-1.859 4.29,-3.415c1.451,-1.362 2.849,-2.96 3.524,-4.574c0.028,-0.499 0.052,-0.981 0.073,-1.446Zm-31.981,1.39c1.828,3.811 6.168,6.972 7.778,8.052c1.683,-3.839 5.033,-6.602 6.673,-7.879c-6.557,-1.111 -12.266,-4.834 -14.491,-6.443c-0.002,1.524 -0.005,4.135 -0.006,5.417c0.014,0.279 0.03,0.563 0.046,0.853Zm-89.253,22.203c1.862,0.935 3.031,1.615 3.031,1.615c0.286,0.167 0.383,0.534 0.216,0.82c-0.167,0.286 -0.534,0.383 -0.82,0.216c-0,0 -9.429,-5.503 -17.228,-6.596c-3.171,-0.445 -6.071,-0.184 -7.846,1.645c-1.321,1.36 -1.544,3.241 -1.082,5.271c0.743,3.267 3.237,6.901 6.216,9.63c5.908,5.412 10.464,7.795 17.916,9.576c0.135,0.032 0.254,0.109 0.337,0.219c0,-0 0.884,1.154 0.884,1.154l11.663,-11.26l-4.011,-4.14c-0.079,-0.081 -0.133,-0.182 -0.156,-0.293l-2.446,-11.547c-0.096,-0.451 -0.431,-0.814 -0.873,-0.946l-0.218,-0.065c-1.03,-0.307 -2.14,-0.189 -3.083,0.326c-0.942,0.516 -1.64,1.387 -1.937,2.42l-0.563,1.955Zm105.293,-21.805c-0.929,0.752 -5.21,3.652 -7.146,8.066c0.095,0.064 0.171,0.154 0.214,0.264l2.442,6.245c2.952,-0.96 5.904,-0.97 8.856,-0.011l2.258,-6.772c0.023,-0.07 0.06,-0.133 0.107,-0.187c-1.974,-4.09 -5.798,-6.807 -6.731,-7.605Z"/><path d="M80.718,270.377c-8.043,-0.162 -14.138,-0.315 -14.138,-0.315l-23.99,-34.144l0.6,-2.399l16.793,-16.793l2.399,-0l16.852,17.396c-0.154,-0.016 -0.314,0.029 -0.442,0.135c-0.004,0.003 -0.007,0.006 -0.011,0.009c-0.245,0.214 -0.276,0.585 -0.067,0.836c0,0 14.106,16.921 15.502,20.241c0.128,0.305 0.48,0.448 0.785,0.32c0.306,-0.128 0.449,-0.48 0.321,-0.785c-0.911,-2.165 -7.139,-10.044 -11.468,-15.391c-1.244,-1.537 -2.332,-2.864 -3.091,-3.787l0.211,0.218c0,-0 0.099,-0.324 0.278,-0.913c0.164,-0.535 0.394,-1.29 0.679,-2.22c2.469,-8.063 9.008,-29.239 11.039,-34.052c0.997,-2.365 5.61,-6.082 10.441,-8.27c11.921,-5.398 25.005,-11.265 25.005,-11.265c0.069,-0.03 0.132,-0.074 0.185,-0.13l3.288,-2.732c-0.005,1.498 0.017,4.059 0.166,7.345l-0.001,0.916c-0,0.081 0.015,0.162 0.045,0.236c0.005,0.011 0.009,0.022 0.013,0.033c0.343,6.584 1.186,15.667 3.215,24.925c0.342,1.562 0.832,3.42 1.39,5.373c0.225,0.789 0.461,1.593 0.703,2.399l-10.838,0l-0.216,-0.364l3.84,-5.145l-7.313,-11.495c-0,-0 6.088,-20.156 5.79,-20.261c-0.297,-0.105 -0.618,0.065 -0.717,0.379l-6.241,19.792c-0.057,0.182 -0.029,0.382 0.077,0.538l7.296,10.798l-3.869,4.966c-0.155,0.199 -0.172,0.482 -0.042,0.7l0.055,0.092l-10.655,0c-1.044,0 -1.891,0.847 -1.891,1.891l0,51.29c-0.515,0.002 -1.026,0.003 -1.531,0.004c-0.291,0.001 -0.58,0.001 -0.868,0.002c-5.273,0.011 -12.225,-0.07 -19.028,-0.18c-3.654,-0.059 -7.265,-0.127 -10.551,-0.193Zm109.345,-52.799c-0.078,-0.01 -0.157,-0.015 -0.237,-0.015l-18.346,0l0.054,-0.092c0.13,-0.218 0.113,-0.501 -0.042,-0.7l-3.868,-4.966l7.296,-10.798c0.105,-0.156 0.134,-0.356 0.076,-0.538l-6.241,-19.792c-0.099,-0.314 -0.42,-0.484 -0.717,-0.379c-0.297,0.105 5.79,20.261 5.79,20.261l-7.313,11.495l3.841,5.145l-0.217,0.364l-11.078,0c0.254,-0.802 0.502,-1.606 0.739,-2.399c0.646,-2.157 1.213,-4.232 1.595,-5.973c1.996,-9.111 2.818,-17.895 3.144,-24.299c0.023,-0.065 0.045,-0.13 0.065,-0.194c0.021,-0.064 0.031,-0.131 0.03,-0.199l-0.014,-1.388c0.121,-3.009 0.131,-5.354 0.119,-6.765c-0,-0.001 3.446,2.722 3.446,2.722c0.052,0.055 0.114,0.099 0.182,0.129c0,-0 14.309,6.765 25.695,12.16c4.75,2.251 7.911,3.938 8.909,6.303c1.075,2.548 2.013,6.609 2.829,11.541c0.067,0.402 0.133,0.81 0.197,1.224c0.106,0.67 0.209,1.355 0.31,2.053l-14.635,6.57c-0.169,-0.773 -0.812,-1.37 -1.609,-1.47Zm-94.338,-18.476c0,0 4.378,5.596 6.246,11.138c0.496,9.27 0.84,16.699 1.067,22.702c0.012,0.331 0.291,0.589 0.622,0.577c0.33,-0.013 0.589,-0.292 0.576,-0.622c-0.227,-6.026 -0.573,-13.487 -1.071,-22.801c-0.003,-0.053 -0.013,-0.106 -0.03,-0.157c-1.911,-5.744 -6.464,-11.575 -6.464,-11.575c-0.204,-0.261 -0.582,-0.307 -0.842,-0.103c-0.261,0.203 -0.307,0.581 -0.104,0.841Z"/><path d="M132.958,280.114l-110.703,0c-1.343,0 -2.434,-1.091 -2.434,-2.434l-0,-4.869c-0,-1.343 1.091,-2.434 2.434,-2.434l132.163,-0l-21.46,9.737Zm91.391,-75.736l0,-72.328c-0.017,-0.081 -0.026,-0.166 -0.026,-0.252l-0.043,-14.326l-17.923,-0.263c-0.518,-0.008 -0.974,-0.343 -1.135,-0.836c-0,0 -8.275,-25.258 -23.496,-44.968c-12.716,-16.466 -37.562,-31.478 -41.689,-33.909c-4.13,2.306 -28.717,16.451 -40.198,32.631c-14.778,20.826 -23.265,46.901 -23.265,46.901c-0.162,0.497 -0.625,0.835 -1.148,0.838c-0,-0 -19.745,0.091 -19.745,0.091l0.35,96.558l-1.616,-1.214l-0.834,-4.469l-0.337,-92.073c-0.003,-0.323 0.123,-0.633 0.35,-0.863c0.227,-0.229 0.536,-0.359 0.858,-0.361c0,0 20.095,-0.093 20.095,-0.093c1.593,-4.647 9.898,-27.815 23.312,-46.72c12.821,-18.067 41.617,-33.689 41.617,-33.689c0.37,-0.2 0.817,-0.194 1.182,0.015c-0,-0 28.852,16.567 42.989,34.873c13.833,17.913 22.025,40.334 23.601,44.873l18.26,0.268c0.662,0.01 1.194,0.548 1.196,1.21l0.022,7.296l0.051,-0.09l0,80.666l-1.443,-0.208l-0.985,0.442Zm13.718,-0.629c-0.11,-45.068 -0.237,-97.338 -0.237,-97.338l-20.017,-0.314c-0.459,-0.007 -0.875,-0.272 -1.074,-0.686c-0,0 -12.94,-26.81 -27.424,-44.24c-12.458,-14.992 -44.331,-36.181 -49.274,-39.425c-4.952,3.132 -36.628,23.442 -48.187,37.71c-12.2,15.058 -28.096,46.46 -28.096,46.46c-0.202,0.4 -0.608,0.656 -1.056,0.665l-19.27,0.421l-0.269,94.161c-0.694,-0.357 -2.424,3.058 -2.424,3.058l0.269,-98.411c0.003,-0.658 0.53,-1.195 1.188,-1.209c-0,0 19.728,-0.431 19.728,-0.431c2.355,-4.587 16.769,-32.326 28.043,-46.242c12.718,-15.697 49.444,-38.654 49.444,-38.654c0.4,-0.249 0.908,-0.245 1.303,0.011c0,0 36.791,23.875 50.468,40.334c13.286,15.988 25.294,39.776 27.412,44.063l20.46,0.32c0.66,0.011 1.191,0.546 1.195,1.206l0.25,100.911l-2.427,-0.349l-0.005,-2.021Zm2.471,18.241l0.005,2.074c-0.974,0.299 -1.791,0.577 -2.424,0.805l-0.005,-2.111c0.678,-0.231 1.491,-0.494 2.424,-0.768Zm-184.487,35.009l0.174,10.914c0.005,0.67 -0.534,1.219 -1.204,1.224c-0.67,0.005 -1.218,-0.534 -1.224,-1.204l-0.167,-13.969l2.421,3.035Zm-12.979,-18.208l-0.079,29.066c-0.003,0.67 -0.549,1.212 -1.219,1.209c-0.67,-0.002 -1.211,-0.548 -1.209,-1.218l0.086,-31.484c0.776,0.228 1.577,2.22 2.421,2.427Z"/><path d="M28.377,298.91l-0,-20.635l94.83,0" style="fill:none;stroke:#000;stroke-width:2px;"/><path d="M289.937,232.433c-0.958,-0.996 -1.936,-1.922 -2.931,-2.782l2.751,-1.395c0.042,1.031 0.102,2.466 0.18,4.177Zm-115.448,9.488l69.93,10.679c0.199,0.026 0.402,-0.009 0.581,-0.1l40.069,-21.866c1.729,1.435 3.408,3.072 5.017,4.937c0.378,7.594 1.016,18.191 1.887,24.648c0.29,2.146 0.631,3.86 0.983,4.922c-6.572,4.497 -62.291,40.518 -121.176,11.781c0.439,-3.153 2.179,-16.025 2.737,-25.784c0.214,-3.743 0.237,-7.041 -0.028,-9.217Z"/><path d="M308.421,260.916l24.356,7.024c0.124,0.035 0.236,0.093 0.333,0.168c0.226,0.032 0.438,0.16 0.568,0.368c0.218,0.348 0.135,0.799 -0.178,1.049l0,4.875c-0,0.108 -0.017,0.215 -0.051,0.317l-0.869,2.607l1.314,2.629c0.103,0.206 0.132,0.44 0.082,0.664l-0.933,4.199l0.885,2.213c0.073,0.18 0.091,0.377 0.053,0.568l-0.461,2.303l0.461,2.304c0.082,0.411 -0.101,0.83 -0.459,1.049l-71,43.5c-0.212,0.13 -0.465,0.176 -0.71,0.13l-138.5,-26.5c-0.364,-0.07 -0.659,-0.335 -0.768,-0.689c-0.109,-0.354 -0.013,-0.739 0.249,-1.001l1.99,-1.99l-1.177,-2.355c-0.128,-0.256 -0.141,-0.554 -0.034,-0.819c-0,0 0.851,-2.129 0.851,-2.129l-0.851,-2.128c-0.107,-0.265 -0.094,-0.563 0.034,-0.819c-0,0 1.743,-3.487 1.743,-3.487c-0.469,-0.803 -1.071,-2.159 -1.217,-3.562c-0.139,-1.345 0.131,-2.714 1.149,-3.767c0.113,-0.117 0.129,-0.31 0.15,-0.519c0.04,-0.388 0.006,-0.835 -0.059,-1.287c-0.219,-1.513 -0.808,-3.079 -0.808,-3.079c-0.185,-0.493 0.043,-1.045 0.523,-1.262l0.352,-0.16c0.134,-0.131 0.311,-0.213 0.501,-0.227l45.427,-20.613c0.126,-0.057 0.257,-0.086 0.388,-0.089c0.317,-3.172 0.596,-6.419 0.765,-9.377c0.227,-3.969 0.279,-7.404 -0.074,-9.368l-24.447,-3.164c-0.444,-0.058 -0.795,-0.403 -0.861,-0.846c-0.065,-0.443 0.172,-0.875 0.58,-1.058l77.061,-34.595c0.173,-0.078 0.365,-0.105 0.552,-0.078l87.5,12.595c0.432,0.062 0.774,0.397 0.844,0.827c0.071,0.431 -0.145,0.857 -0.534,1.055l-21.421,10.868c0.05,1.316 0.161,4.07 0.33,7.528c3.733,4.452 7.093,10.105 9.84,17.241c2.737,-0.29 5.264,1.601 5.727,4.351l0.464,2.763c0.041,0.243 0.064,0.484 0.071,0.723l0.269,1.05Zm-136.89,1.696c-4.762,2.16 -33.58,15.237 -42.3,19.193l6.446,1.446l135.657,23.309l59.338,-37.146l-21.677,-6.251l0.663,2.589c0.136,0.535 -0.187,1.08 -0.721,1.217c-0.535,0.137 -1.08,-0.187 -1.217,-0.721l-0.747,-2.92c-0.077,0.096 -0.159,0.189 -0.243,0.279l0.939,4.697c0.109,0.541 -0.243,1.068 -0.784,1.177c-0.541,0.108 -1.069,-0.244 -1.177,-0.785l-0.768,-3.843c-0.053,0.022 -0.105,0.044 -0.159,0.064l0.61,4.719c0.071,0.547 -0.316,1.049 -0.863,1.12c-0.548,0.07 -1.05,-0.317 -1.12,-0.864l-0.598,-4.629c-0.016,-0 -0.032,-0 -0.048,-0.001l0.283,4.018c0.039,0.55 -0.376,1.029 -0.927,1.068c-0.55,0.039 -1.029,-0.377 -1.068,-0.927l-0.327,-4.632c-0.226,-0.104 -0.444,-0.223 -0.652,-0.357l0.331,3.211c0.056,0.549 -0.343,1.04 -0.892,1.097c-0.549,0.057 -1.041,-0.343 -1.098,-0.892l-0.718,-6.963c-0.007,-0.067 -0.007,-0.134 -0.001,-0.198l-0.138,-0.823l-3.75,-1.082c0.189,1.548 0.389,2.906 0.601,3.991c0.207,1.057 0.395,1.826 0.627,2.191c0.283,0.446 0.171,1.036 -0.258,1.346c0,-0 -60.527,43.826 -124.53,12.086c-0.387,-0.192 -0.607,-0.611 -0.546,-1.038c-0,-0 0.986,-6.864 1.832,-14.746Zm125.676,-4.93c-0.177,-2.122 0.951,-4.101 2.765,-5.067c-2.219,-5.735 -4.845,-10.474 -7.746,-14.374c0.292,5.472 0.699,11.91 1.214,17.172c0.04,0.414 0.081,0.82 0.123,1.218l3.644,1.051Zm-5.715,-1.648c-0.628,-6.281 -1.102,-14.346 -1.406,-20.463c-1.609,-1.865 -3.288,-3.502 -5.017,-4.937l-39.928,20.258c-0.179,0.091 -0.381,0.126 -0.581,0.1l-70.071,-9.071c0.265,2.176 0.242,5.474 0.028,9.217c-0.558,9.759 -2.298,22.631 -2.737,25.784c58.885,28.737 114.604,-7.284 121.176,-11.781c-0.352,-1.062 -0.693,-2.776 -0.983,-4.922c-0.086,-0.641 -0.17,-1.322 -0.252,-2.038l-2.498,-0.72c-0.53,-0.153 -0.837,-0.708 -0.684,-1.238c0.153,-0.53 0.708,-0.837 1.238,-0.684l1.715,0.495Zm-1.555,-23.601c-0.078,-1.711 -0.138,-3.146 -0.18,-4.177l-2.751,1.395c0.995,0.86 1.973,1.786 2.931,2.782Zm0.903,-6.969l18.576,-9.425l-84.082,-12.103l-73.568,33.027l20.873,2.702c0.07,-0.047 0.148,-0.085 0.231,-0.113c0.39,-0.131 0.805,-0.008 1.063,0.28l70.578,9.137l38.822,-19.697c-1.541,-1.14 -3.115,-2.131 -4.708,-2.987c-19.599,-10.531 -42.04,-0.824 -42.04,-0.824c-0.507,0.219 -1.096,-0.015 -1.314,-0.521c-0.219,-0.507 0.015,-1.096 0.521,-1.315c0,0 23.37,-10.069 43.78,0.899c1.948,1.047 3.871,2.285 5.745,3.742l4.485,-2.276c0.161,-0.308 0.479,-0.524 0.851,-0.537c0.064,-0.002 0.126,0.002 0.187,0.011Zm-163.98,57.896c0.251,0.873 0.531,2.045 0.58,3.075c0.02,0.418 -0.004,0.815 -0.069,1.176c0.096,-0.016 0.197,-0.014 0.297,0.007l123,26.5c0.432,0.093 0.707,0.519 0.614,0.951c-0.093,0.432 -0.519,0.707 -0.95,0.614l-123,-26.5c-0.201,-0.044 -0.367,-0.158 -0.479,-0.312c-0.042,0.055 -0.087,0.107 -0.134,0.156c-0.582,0.602 -0.677,1.402 -0.598,2.171c0.141,1.357 0.836,2.664 1.166,3.086c0.238,0.304 0.28,0.718 0.107,1.064l-1.799,3.598l0.113,0.283l60.453,12.388c0.432,0.088 0.711,0.512 0.623,0.944c-0.089,0.433 -0.512,0.712 -0.945,0.623l-59.419,-12.176l0.008,0.021c0.096,0.238 0.096,0.504 0,0.743c0,-0 -0.833,2.083 -0.833,2.083l0.857,1.713c0.181,-0.171 0.44,-0.254 0.703,-0.202l130.5,25.75c0.433,0.085 0.715,0.506 0.63,0.939c-0.086,0.434 -0.507,0.716 -0.94,0.63l-130.347,-25.72c-0.016,0.237 -0.115,0.467 -0.291,0.643l-1.165,1.165l135.195,25.868l-0.996,-2.988c-0.027,-0.081 -0.041,-0.167 -0.041,-0.253l0,-3.845l-0.784,-1.96l-127.581,-26.912c-0.432,-0.091 -0.709,-0.516 -0.618,-0.948c0.091,-0.432 0.516,-0.708 0.948,-0.617l127.035,26.796l0,-1.359l-0.871,-2.178l-126.488,-25.693c-0.433,-0.087 -0.713,-0.51 -0.625,-0.943c0.088,-0.432 0.511,-0.712 0.943,-0.625l126.197,25.634l0.323,-2.26l-1.428,-3.809c-0.079,-0.211 -0.063,-0.434 0.026,-0.623l-121.411,-27.237l-8.506,-1.461Zm137.635,23.649l-97.903,-16.822l90.805,20.371l7.098,-3.549Zm-2.21,27.544l69.598,-42.641l-0.364,-1.815c-0.025,-0.13 -0.025,-0.263 0,-0.393l0.088,-0.438l-65.7,38.823c-0.38,0.225 -0.871,0.099 -1.096,-0.282c-0.224,-0.38 -0.098,-0.871 0.282,-1.095l66,-39c0.263,-0.156 0.58,-0.143 0.824,0.006l0.044,-0.222l-0.889,-2.224c-0.075,-0.187 -0.092,-0.392 -0.048,-0.588l0.923,-4.154l-1.341,-2.682c-0.119,-0.238 -0.139,-0.512 -0.055,-0.764l0.668,-2.004l-29.814,17.51c-0.381,0.224 -0.871,0.096 -1.095,-0.284c-0.223,-0.381 -0.096,-0.872 0.285,-1.095l30.905,-18.151l-0,-2.277l-59.576,37.296c-0.166,0.104 -0.366,0.143 -0.559,0.11l-5.069,-0.871c0.033,0.322 -0.132,0.645 -0.438,0.798l-7.69,3.845c0.033,0.048 0.06,0.102 0.081,0.159l0.796,2.122c0.016,-0.011 0.032,-0.021 0.049,-0.031l8.5,-5c0.381,-0.224 0.872,-0.097 1.096,0.284c0.223,0.38 0.096,0.871 -0.284,1.095l-8.5,5c-0.1,0.059 -0.208,0.093 -0.316,0.105l0.159,0.425c0.047,0.125 0.062,0.261 0.043,0.394l-0.357,2.5l68.664,-39.806c0.382,-0.221 0.872,-0.091 1.093,0.291c0.222,0.382 0.091,0.872 -0.291,1.094l-69,40c-0.071,0.041 -0.148,0.071 -0.227,0.088l0.569,1.422c0.038,0.095 0.057,0.196 0.057,0.297l-0,1.108l64.797,-37.799c0.381,-0.222 0.872,-0.093 1.094,0.288c0.222,0.382 0.093,0.872 -0.288,1.094l-65.404,38.153l0.744,1.859c0.038,0.095 0.057,0.196 0.057,0.297l0,3.871l0.959,2.876c0.045,0.136 0.052,0.275 0.026,0.406Z"/><path d="M145.097,143.948c0.403,1.986 0.562,4.571 -0.824,6.515c-1.124,1.577 -3.267,2.814 -7.233,2.887c-3.002,0.055 -4.895,-0.872 -6.095,-2.137c-2.774,-2.923 -1.777,-7.888 -1.777,-7.888c0.035,-0.167 0.117,-0.312 0.23,-0.425c0.047,-0.163 0.147,-0.318 0.3,-0.446c0,-0 7.823,-6.452 14.651,-0.747c0.18,0.151 0.287,0.339 0.321,0.534c2.991,-1.573 5.982,-1.356 8.972,0.027c0.089,-0.24 0.197,-0.454 0.325,-0.561c5.912,-4.939 12.569,-0.766 14.249,0.443c0.368,0.009 0.702,0.258 0.802,0.631c0.541,2.032 1.13,5.327 -0.549,7.682c-1.124,1.577 -3.267,2.814 -7.233,2.887c-3.002,0.055 -4.895,-0.872 -6.095,-2.137c-2.163,-2.278 -2.033,-5.798 -1.871,-7.239c-0.004,-0.002 -0.008,-0.004 -0.013,-0.006c-2.716,-1.341 -5.431,-1.608 -8.147,-0.027c-0.004,0.002 -0.009,0.005 -0.013,0.007Zm10.403,-1.448c-0.161,0.134 -0.446,1.049 -0.472,1.175c0,-0 -0.307,1.479 -0.06,3.183c0.156,1.082 0.533,2.266 1.406,3.185c0.946,0.997 2.464,1.65 4.831,1.607c3.192,-0.058 4.975,-0.905 5.88,-2.174c1.153,-1.618 0.88,-3.787 0.501,-5.418c-0.217,-0.035 -6.764,-6.004 -12.086,-1.558Zm-24.729,1.551c-0.075,0.545 -0.171,1.621 0,2.807c0.157,1.082 0.534,2.266 1.407,3.185c0.946,0.997 2.464,1.65 4.831,1.607c3.192,-0.058 4.975,-0.905 5.88,-2.174c1.347,-1.889 0.747,-4.532 0.308,-6.19c-0.172,-0.044 -0.334,-0.123 -0.47,-0.237c-5.322,-4.446 -11.405,0.746 -11.405,0.746c-0.157,0.131 -0.349,0.216 -0.551,0.256Z"/><path d="M122.721,159.226c-0.727,0.793 -1.833,1.193 -3.105,0.994c-1.016,-0.159 -2.152,-0.715 -3.258,-1.815c-1.547,-1.539 -3.065,-4.181 -4.094,-8.313c-0.901,-3.619 -0.363,-5.705 0.703,-6.863c0.658,-0.714 1.538,-1.102 2.488,-1.271c0.257,-0.149 0.529,-0.268 0.814,-0.353c-0.648,-2.089 -1.243,-4.674 -1.786,-7.662c-1.472,-8.092 -0.276,-13.729 1.666,-17.583c2.63,-5.221 6.651,-7.216 7.531,-7.602c13.408,-18.669 46.582,-13.989 52.276,3.47c1.12,-0.017 4.508,0.228 6.785,3.577c1.325,1.948 2.284,4.98 2.109,9.712c-0.147,3.971 -1.094,9.171 -3.3,15.977c0.577,0.088 1.109,0.307 1.582,0.638c0.674,0.214 1.288,0.565 1.778,1.097c1.067,1.158 1.604,3.244 0.703,6.863c-1.029,4.132 -2.547,6.774 -4.094,8.313c-1.105,1.1 -2.241,1.656 -3.257,1.815c-1.297,0.203 -2.422,-0.216 -3.147,-1.041c-2.675,12.098 -13.081,17.757 -25.844,17.757c-12.642,-0 -22.261,-2.519 -26.55,-17.71Zm-6.097,-16.174c-1.043,0.007 -2.078,0.234 -2.774,0.99c-0.893,0.969 -1.176,2.73 -0.422,5.76c0.958,3.845 2.336,6.32 3.776,7.753c0.886,0.881 1.783,1.353 2.597,1.48c1.186,0.185 2.166,-0.404 2.495,-1.428c-0.222,-0.912 1.06,-3.166 1.311,-1.979c1.731,8.198 5.23,20.032 25.664,19.508c18.248,-0.467 23.354,-10.1 25.125,-18.914c0.266,-1.322 1.098,0.85 1.056,1.132c0.052,0.061 0.093,0.134 0.118,0.216c0.317,1.047 1.306,1.653 2.506,1.465c0.815,-0.127 1.711,-0.599 2.597,-1.48c1.44,-1.433 2.819,-3.908 3.776,-7.753c0.754,-3.03 0.472,-4.791 -0.422,-5.76c-0.669,-0.728 -1.655,-0.965 -2.657,-0.988c-1.684,0.442 -2.246,3.034 -3.37,3.298c-1.589,0.373 -2.126,-1.417 -2.35,-2.947c-3.183,0.212 -6.662,0.444 -6.662,0.444c-0.468,0.021 -0.866,-0.342 -0.887,-0.811c-0.021,-0.468 0.342,-0.866 0.811,-0.887l6.465,-0.293c-0.326,-1.57 -0.329,-3.491 -0.329,-4.403c-0.293,-4.089 -0.863,-7.452 -2.032,-9.717c-1.075,-2.083 -2.668,-6.252 -5.087,-5.984c-1.664,0.185 -3.003,0.974 -4.68,1.835c-2.681,1.377 -22.914,1.123 -25.909,-0.304c-1.85,-0.881 -3.32,-1.619 -4.827,-1.528c-4.79,0.289 -7.189,6.642 -8.395,9.822c-1.238,3.265 -1.249,6.456 -1.249,6.456c0,0 0.169,2.289 -0.255,4.018l6.827,0.6c0.467,0.041 0.813,0.454 0.772,0.921c-0.041,0.468 -0.454,0.814 -0.921,0.773c-0,-0 -3.705,-0.352 -6.982,-0.687c-0.246,1.466 -0.809,3.044 -2.31,2.692c-1.125,-0.264 -1.688,-2.863 -3.376,-3.3Zm23.972,17.69l17.393,0c0.182,0 0.354,0.083 0.468,0.225c0.114,0.142 0.157,0.328 0.118,0.505c-0,0 -0.459,2.137 -2.617,3.839c-1.393,1.098 -3.505,2.029 -6.695,2.029c-3.176,-0 -5.277,-0.932 -6.66,-2.031c-2.143,-1.702 -2.593,-3.839 -2.593,-3.839c-0.038,-0.178 0.005,-0.363 0.119,-0.504c0.114,-0.142 0.286,-0.224 0.467,-0.224Zm0.853,1.2c0.625,1.37 2.553,4.198 7.814,4.198c5.287,0 7.235,-2.827 7.869,-4.198l-15.683,-0Z"/></g></svg>