<?xml version="1.0" encoding="UTF-8" standalone="no"?><!DOCTYPE svg PUBLIC "-//W3C//DTD SVG 1.1//EN" "http://www.w3.org/Graphics/SVG/1.1/DTD/svg11.dtd"><svg width="100%" height="100%" viewBox="0 0 405 405" version="1.1" xmlns="http://www.w3.org/2000/svg" xmlns:xlink="http://www.w3.org/1999/xlink" xml:space="preserve" xmlns:serif="http://www.serif.com/" style="fill-rule:evenodd;clip-rule:evenodd;stroke-linecap:round;stroke-linejoin:round;stroke-miterlimit:1.5;"><rect id="Artboard5" x="-78.457" y="-135" width="540" height="540" style="fill:none;"/><g id="Artboard51" serif:id="Artboard5"><path d="M36,228.615l0,49.407c0,2.823 2.292,5.115 5.115,5.115l4.557,-0l0,8.919l12.035,-8.919l136.291,-0c2.823,-0 5.115,-2.292 5.115,-5.115l0,-49.407c0,-2.823 -2.292,-5.115 -5.115,-5.115l-152.883,-0c-2.823,-0 -5.115,2.292 -5.115,5.115Zm3.839,1.66c0,-1.711 1.309,-3.101 2.921,-3.101l149.594,-0c1.612,-0 2.92,1.39 2.92,3.101l0,45.491c0,1.712 -1.308,3.101 -2.92,3.101l-136.329,0l-6.614,5.127l0.026,-5.127l-6.677,0c-1.612,0 -2.921,-1.389 -2.921,-3.101l0,-45.491Z"/><path d="M227.378,156.698l0,45.379c0,2.593 -2.105,4.698 -4.698,4.698l-4.185,0l-0,8.193l-11.054,-8.193l-129.814,0c-2.593,0 -4.698,-2.105 -4.698,-4.698l0,-45.379c0,-2.593 2.105,-4.698 4.698,-4.698l145.053,-0c2.593,-0 4.698,2.105 4.698,4.698Zm-3.526,1.525c0,-1.572 -1.202,-2.849 -2.682,-2.849l-142.032,0c-1.481,0 -2.683,1.277 -2.683,2.849l0,41.782c0,1.572 1.202,2.849 2.683,2.849l129.848,-0l6.074,4.709l-0.023,-4.709l6.133,-0c1.48,-0 2.682,-1.277 2.682,-2.849l0,-41.782Z"/><path d="M124.369,176.842c1.419,-0 2.571,1.152 2.571,2.571c-0,1.419 -1.152,2.571 -2.571,2.571c-1.42,-0 -2.572,-1.152 -2.572,-2.571c0,-1.419 1.152,-2.571 2.572,-2.571Zm9.5,-0c1.419,-0 2.571,1.152 2.571,2.571c-0,1.419 -1.152,2.571 -2.571,2.571c-1.42,-0 -2.572,-1.152 -2.572,-2.571c0,-1.419 1.152,-2.571 2.572,-2.571Zm10.517,-0c1.419,-0 2.571,1.152 2.571,2.571c0,1.419 -1.152,2.571 -2.571,2.571c-1.419,-0 -2.571,-1.152 -2.571,-2.571c-0,-1.419 1.152,-2.571 2.571,-2.571Zm10.518,-0c1.419,-0 2.571,1.152 2.571,2.571c-0,1.419 -1.152,2.571 -2.571,2.571c-1.419,-0 -2.571,-1.152 -2.571,-2.571c-0,-1.419 1.152,-2.571 2.571,-2.571Zm10.517,-0c1.419,-0 2.571,1.152 2.571,2.571c0,1.419 -1.152,2.571 -2.571,2.571c-1.419,-0 -2.571,-1.152 -2.571,-2.571c0,-1.419 1.152,-2.571 2.571,-2.571Zm10.518,-0c1.419,-0 2.571,1.152 2.571,2.571c0,1.419 -1.152,2.571 -2.571,2.571c-1.419,-0 -2.571,-1.152 -2.571,-2.571c-0,-1.419 1.152,-2.571 2.571,-2.571Z"/><path d="M91.772,249c1.419,0 2.571,1.152 2.571,2.571c-0,1.419 -1.152,2.571 -2.571,2.571c-1.42,0 -2.572,-1.152 -2.572,-2.571c0,-1.419 1.152,-2.571 2.572,-2.571Zm9.5,0c1.419,0 2.571,1.152 2.571,2.571c-0,1.419 -1.152,2.571 -2.571,2.571c-1.42,0 -2.572,-1.152 -2.572,-2.571c0,-1.419 1.152,-2.571 2.572,-2.571Zm10.517,0c1.419,0 2.571,1.152 2.571,2.571c0,1.419 -1.152,2.571 -2.571,2.571c-1.419,0 -2.571,-1.152 -2.571,-2.571c-0,-1.419 1.152,-2.571 2.571,-2.571Zm10.518,0c1.419,0 2.571,1.152 2.571,2.571c-0,1.419 -1.152,2.571 -2.571,2.571c-1.419,0 -2.571,-1.152 -2.571,-2.571c-0,-1.419 1.152,-2.571 2.571,-2.571Zm10.517,0c1.419,0 2.571,1.152 2.571,2.571c0,1.419 -1.152,2.571 -2.571,2.571c-1.419,0 -2.571,-1.152 -2.571,-2.571c0,-1.419 1.152,-2.571 2.571,-2.571Zm10.518,0c1.419,0 2.571,1.152 2.571,2.571c0,1.419 -1.152,2.571 -2.571,2.571c-1.419,0 -2.571,-1.152 -2.571,-2.571c-0,-1.419 1.152,-2.571 2.571,-2.571Z"/><path d="M372.5,359.805l-139.5,-0l0,-9.693l24.532,0l-0,-2.884c-0,-0.775 0.629,-1.404 1.404,-1.404l28.647,0l10.205,-58.625c0.5,-2.87 3.239,-5.195 6.109,-5.195l45.157,-0c-1.397,-3.209 -3.596,-7.104 -6.746,-9.613c-0.379,1.13 -2.5,6.45 -3.763,8.527c-0.144,0.236 -0.4,0.38 -0.677,0.38l-35.321,0.033c-0.849,0 -1.816,0.568 -2.719,1.334c-1.45,1.229 -2.727,1.781 -2.965,3.145l0,0.001l-9.078,51.652c-0.037,0.214 -0.161,0.403 -0.342,0.524c-1.096,0.728 -7.072,3.772 -10.268,3.984c-13.519,0.895 -28.638,-2.858 -36.837,-10.056c-1.835,-1.61 -4.858,-3.718 -7.125,-6.112c-0.076,-0.282 0.016,-19.298 0.142,-19.489c3.967,5.193 10.649,11.815 17.543,16.852c8.978,6.559 19.808,10.415 30.938,5.242c0.397,-0.185 0.569,-0.657 0.385,-1.054c-0.185,-0.397 -0.657,-0.569 -1.053,-0.385c-10.561,4.909 -20.817,1.139 -29.334,-5.084c-7.22,-5.274 -14.095,-12.323 -17.988,-17.546l-0.35,-34.329c-0.025,-0.698 -0.599,-1.251 -1.297,-1.251l-16.912,-0c0,-0 12.98,-7.298 13.426,-9.082c4.738,-18.953 4.272,-36.08 4.272,-36.123c-0.008,-9.459 2.593,-24.327 4.705,-29.516c2.112,-5.19 8.483,-16.448 13.087,-20.832c4.604,-4.384 11.98,-8.992 20.768,-9.616c8.789,-0.624 14.612,2.079 20.55,5.634c5.938,3.556 10.029,7.868 14.108,14.901c4.13,7.123 6.789,15.041 8.562,21.575c2.013,7.417 2.973,14.124 4.33,22.886c1.382,8.931 1.407,14.216 2.668,19.101c0.999,3.871 2.965,13.805 13.271,17.282c4.88,1.646 7.054,5.31 7.194,5.403c4.144,2.751 6.907,7.794 8.52,11.632l35.64,-0c3.021,-0 5.055,2.446 4.529,5.467l-10.276,59.033c-0.409,2.348 -2.317,4.331 -4.569,4.974l8.42,0c1.149,0 2.082,0.933 2.082,2.082l-0,4.163c-0,1.149 -0.933,2.082 -2.082,2.082l-6.992,-0l0,19.078l-5,0l0,-19.078Zm-98.135,-41.632c1.316,-0 2.432,-0.325 3.428,-0.763c0.401,-0.177 0.583,-0.645 0.406,-1.046c-0.176,-0.4 -0.645,-0.582 -1.045,-0.406c-0.811,0.357 -1.717,0.629 -2.789,0.629c-0.438,-0 -0.793,0.355 -0.793,0.793c-0,0.437 0.355,0.793 0.793,0.793Zm91.44,31.939l8.727,0c2.14,0 4.174,-1.741 4.547,-3.88l10.276,-59.033c0.346,-1.988 -0.979,-3.609 -2.967,-3.609l-82.491,-0c-2.139,-0 -4.174,1.741 -4.546,3.881l-10.276,59.033c-0.012,0.068 -0.022,0.137 -0.03,0.204l-0.001,0.004c-0.222,1.891 1.079,3.4 2.997,3.4l73.764,0Zm-25.893,-41.765c5.883,0 10.659,4.776 10.659,10.658c-0,5.883 -4.776,10.659 -10.659,10.659c-5.882,-0 -10.658,-4.776 -10.658,-10.659c0,-5.882 4.776,-10.658 10.658,-10.658Zm0,1.586c-5.007,0 -9.072,4.065 -9.072,9.072c0,5.008 4.065,9.073 9.072,9.073c5.008,-0 9.073,-4.065 9.073,-9.073c-0,-5.007 -4.065,-9.072 -9.073,-9.072Zm-92.543,4.21c0,-0 11.474,4.956 23.067,4.376c0.437,-0.022 0.774,-0.394 0.752,-0.832c-0.022,-0.437 -0.394,-0.774 -0.832,-0.752c-11.236,0.562 -22.357,-4.248 -22.357,-4.248c-0.402,-0.174 -0.869,0.011 -1.043,0.413c-0.173,0.402 0.012,0.869 0.413,1.043Zm11.749,35.969l29.341,0c-0.608,-0.726 -0.976,-1.658 -1.024,-2.702l-28.317,0l-0,2.702Zm45.811,-103.142c0,-0 -6.123,20.183 -28.248,24.441c-0.43,0.082 -0.712,0.498 -0.629,0.928c0.082,0.43 0.498,0.712 0.928,0.629c23.097,-4.444 29.467,-25.539 29.467,-25.539c0.127,-0.419 -0.11,-0.862 -0.529,-0.988c-0.419,-0.127 -0.862,0.11 -0.989,0.529Zm-19.73,-65.748c-3.22,-2.852 -6.735,-4.598 -10.521,-4.599c-3.315,-0.001 -6.512,1.376 -9.478,3.677c2.907,-1.504 6.294,-2.488 10.186,-2.488c3.54,0 6.863,1.398 9.813,3.41Zm-31.298,13.958c-0.47,0.94 -0.918,1.893 -1.344,2.854c-0.694,1.569 -4.757,11.808 -4.757,19.428c-0,13.878 11.322,30.378 27.383,30.927c10.691,0.121 27.73,-16.256 27.22,-31.537c-0.22,-6.59 -3.213,-14.356 -5.438,-18.818c-0.466,-0.934 -0.944,-1.86 -1.436,-2.773c-0,0 -8.08,-6.347 -21.164,-6.347c-13.085,0 -20.464,6.266 -20.464,6.266Zm6.462,17.686c-0.105,-2.179 1.085,-4.558 3.086,-4.558c2.36,0 3.55,2.379 3.363,4.558c-0.193,2.257 -1.444,4.104 -3.224,4.104c-1.78,-0 -3.115,-1.842 -3.225,-4.104Zm5.263,1.97c-0.331,0.571 -0.838,0.978 -1.457,1.097c-1.325,0.255 -2.664,-0.907 -2.988,-2.594c-0.146,-0.757 -0.335,-0.574 -0.162,0.325c0.324,1.686 1.663,2.849 2.988,2.594c0.73,-0.14 1.305,-0.682 1.619,-1.422Zm-3.427,-4.315c-0.301,-0 -0.594,0.324 -0.653,0.723c-0.058,0.399 0.138,0.724 0.44,0.724c0.301,-0 0.594,-0.325 0.653,-0.724c0.058,-0.399 -0.138,-0.723 -0.44,-0.723Zm-3.55,-4.458c-0.27,0.345 -0.768,0.405 -1.113,0.136c-0.345,-0.27 -0.406,-0.769 -0.136,-1.114c0,0 1.19,-1.523 2.956,-2.649c1.244,-0.792 2.763,-1.376 4.354,-1.198c1.688,0.19 3.504,1.221 5.133,3.927c0.226,0.375 0.105,0.863 -0.27,1.089c-0.375,0.225 -0.863,0.104 -1.089,-0.271c-1.276,-2.121 -2.628,-3.02 -3.951,-3.168c-1.219,-0.137 -2.372,0.351 -3.324,0.959c-1.528,0.974 -2.56,2.289 -2.56,2.289Zm8.478,24.276l14.985,-0c0.157,-0 0.305,0.071 0.403,0.193c0.099,0.123 0.136,0.283 0.102,0.436c-0,-0 -0.396,1.841 -2.255,3.307c-1.2,0.946 -3.019,1.748 -5.768,1.748c-2.737,0 -4.546,-0.802 -5.738,-1.749c-1.846,-1.467 -2.234,-3.308 -2.234,-3.308c-0.033,-0.153 0.005,-0.313 0.103,-0.434c0.098,-0.122 0.246,-0.193 0.402,-0.193Zm0.735,1.033c0.538,1.181 2.199,3.618 6.732,3.618c4.555,-0 6.234,-2.436 6.78,-3.618l-13.512,0Zm13.646,-18.506c-0.105,-2.179 1.085,-4.558 3.086,-4.558c2.36,0 3.55,2.379 3.363,4.558c-0.193,2.257 -1.445,4.104 -3.224,4.104c-1.78,-0 -3.116,-1.842 -3.225,-4.104Zm5.263,1.97c-0.332,0.571 -0.838,0.978 -1.457,1.097c-1.325,0.255 -2.664,-0.907 -2.988,-2.594c-0.146,-0.757 -0.335,-0.574 -0.163,0.325c0.325,1.686 1.664,2.849 2.989,2.594c0.73,-0.14 1.305,-0.682 1.619,-1.422Zm-3.427,-4.315c-0.301,-0 -0.594,0.324 -0.653,0.723c-0.059,0.399 0.138,0.724 0.44,0.724c0.301,-0 0.593,-0.325 0.652,-0.724c0.059,-0.399 -0.138,-0.723 -0.439,-0.723Zm8.335,-5.436c0.27,0.345 0.209,0.844 -0.135,1.114c-0.345,0.269 -0.844,0.209 -1.114,-0.136c0,-0 -1.031,-1.315 -2.559,-2.289c-0.953,-0.608 -2.106,-1.096 -3.325,-0.959c-1.323,0.148 -2.674,1.047 -3.951,3.168c-0.226,0.375 -0.713,0.496 -1.088,0.271c-0.375,-0.226 -0.496,-0.714 -0.271,-1.089c1.63,-2.706 3.445,-3.737 5.133,-3.927c1.591,-0.178 3.111,0.406 4.354,1.198c1.767,1.126 2.956,2.649 2.956,2.649Z"/><rect x="46.5" y="298.5" width="17.5" height="80.383" style="fill:none;stroke:#000;stroke-width:1.6px;"/><rect x="67.281" y="300" width="12.719" height="78.883" style="fill:none;stroke:#000;stroke-width:1.8px;"/><path d="M96.341,301.616l7.059,76.708c0.046,0.495 -0.319,0.933 -0.814,0.979l-12.665,1.165c-0.495,0.046 -0.933,-0.319 -0.979,-0.814l-7.059,-76.707c-0.045,-0.495 0.319,-0.934 0.814,-0.979l12.665,-1.166c0.495,-0.045 0.933,0.319 0.979,0.814Zm-1.71,1.061l-10.873,1.001c0,-0 6.894,74.915 6.894,74.915l10.873,-1l-6.894,-74.916Z"/><path d="M93.065,303.849c0.17,-0.015 0.339,0.037 0.47,0.146c0.131,0.109 0.214,0.266 0.23,0.436l6.588,71.596c0.016,0.169 -0.037,0.339 -0.146,0.47c-0.109,0.131 -0.266,0.213 -0.435,0.229l-7.554,0.695c-0.17,0.016 -0.339,-0.037 -0.47,-0.146c-0.131,-0.109 -0.214,-0.266 -0.229,-0.435l-6.589,-71.596c-0.016,-0.17 0.037,-0.339 0.146,-0.47c0.109,-0.132 0.266,-0.214 0.436,-0.23l7.553,-0.695Zm-15.632,-1.925c0.171,-0 0.334,0.067 0.455,0.188c0.121,0.121 0.188,0.284 0.188,0.455l0,74.393c0,-0 -6.189,-0 -8.228,-0c-0.171,-0 -0.334,-0.068 -0.455,-0.189c-0.121,-0.12 -0.188,-0.284 -0.188,-0.455l-0,-74.282c-0,-0.038 0.005,-0.076 0.015,-0.113c0.424,0.003 6.247,0.003 8.213,0.003Zm-16,-1.5c0.171,-0 0.334,0.067 0.455,0.188c0.121,0.121 0.188,0.284 0.188,0.455l0,75.249c0,0.356 -0.288,0.644 -0.643,0.644l-13.009,-0c-0,-0 -0,-76.536 -0,-76.536l13.009,-0Z"/><path d="M101.219,338.827c0.026,-0.045 0.052,-0.09 0.078,-0.135c1.583,-2.745 4.111,-4.517 6.936,-4.517l59.671,-0c0.009,-0 0.018,-0 0.027,0l0.83,-0c0.777,-0 1.462,0.783 1.462,1.799c-0,1.017 -0.685,1.8 -1.462,1.8l-0.494,-0c-0.472,0.773 -2.186,3.818 -2.359,7.519c-0.176,3.727 1.326,6.901 1.723,7.671l0.3,-0c-0.096,-0 -0.183,0.036 -0.249,0.096c0.029,0.054 0.044,0.081 0.044,0.081c0.064,0.112 0.065,0.248 0.003,0.36l0.202,0.201l-0,-0.696l0.83,-0c0.777,-0 1.462,0.782 1.462,1.799c-0,0.658 -0.287,1.218 -0.7,1.531l0.292,0c0.851,0 1.575,0.791 1.575,1.8c0,0.759 -0.41,1.394 -0.975,1.662c-0.555,0.937 -2.12,3.869 -2.286,7.395c-0.201,4.292 1.819,7.849 1.819,7.849c0.024,0.043 0.04,0.09 0.045,0.137c0.772,0.101 1.397,0.85 1.397,1.788c0,1.009 -0.724,1.799 -1.575,1.799l-0.916,-0c-0.01,0 -0.02,0 -0.03,0l-63.974,0l-0.335,-3.641l52.209,-0c-0.086,-0.124 -2.245,-4.605 -2.244,-7.759c-0,-3.562 1.187,-6.102 1.969,-7.389l-53.328,0l-0.335,-3.639c0.06,-0.001 0.121,-0.002 0.181,-0.002l3.338,0c-1.404,-0.406 -2.684,-1.257 -3.743,-2.434l-1.388,-15.075Zm67.41,35.121c-0.095,-0.237 -0.195,-0.499 -0.294,-0.783l-9.21,-0c-0.204,-0 -0.369,-0.166 -0.369,-0.369c-0,-0.204 0.165,-0.369 0.369,-0.369l8.97,-0c-0.313,-1.034 -0.588,-2.279 -0.683,-3.638l-8.287,-0c-0.204,-0 -0.369,-0.166 -0.369,-0.37c-0,-0.203 0.165,-0.369 0.369,-0.369l8.255,0c-0.006,-0.293 -0.002,-0.59 0.012,-0.891c0.002,-0.048 0.005,-0.095 0.007,-0.142l-9.374,0c-0.204,0 -0.369,-0.165 -0.369,-0.369c-0,-0.204 0.165,-0.369 0.369,-0.369l9.436,0c0.063,-0.571 0.158,-1.124 0.274,-1.652l-10.74,0c-0.158,0.824 -0.256,1.739 -0.256,2.739c-0,0.901 0.08,1.731 0.211,2.485l7.626,-0c0.203,-0 0.369,0.165 0.369,0.369c-0,0.204 -0.166,0.369 -0.369,0.369l-7.478,0c0.338,1.467 0.854,2.598 1.282,3.359l10.249,-0Zm-0.713,-10.057c0.462,-1.72 1.123,-3.118 1.575,-3.956l-0.441,0c-0.08,0.036 -0.151,0.042 -0.151,0.042l-10.053,0c-0.177,0.262 -0.403,0.629 -0.642,1.095l8.38,0c0.204,0 0.369,0.166 0.369,0.369c-0,0.204 -0.165,0.369 -0.369,0.369l-8.728,0c-0.254,0.589 -0.502,1.284 -0.699,2.079l10.723,0c0.012,0 0.024,0.001 0.036,0.002Zm-9.077,10.795c0.078,0.113 0.144,0.203 0.194,0.268c0,0 9.996,-0.093 9.996,-0.093c-0.04,-0.082 -0.082,-0.173 -0.127,-0.272c-0.065,0.06 -0.153,0.097 -0.249,0.097l-9.814,-0Zm-4.466,-21.722c-0.096,-0.149 -2.07,-4.39 -2.07,-7.499c0,-3.821 1.365,-6.465 2.132,-7.649l-46.342,0c-3.176,0 -5.698,3.417 -5.698,7.574c-0,4.157 2.522,7.574 5.698,7.574l46.28,-0Zm11.939,-1.158c-0.092,-0.24 -0.187,-0.502 -0.281,-0.783l-9.147,-0c-0.203,-0 -0.369,-0.165 -0.369,-0.369c0,-0.204 0.166,-0.369 0.369,-0.369l8.918,-0c-0.301,-1.047 -0.555,-2.29 -0.626,-3.638l-8.292,-0c-0.203,-0 -0.369,-0.166 -0.369,-0.369c0,-0.204 0.166,-0.369 0.369,-0.369l8.271,-0c0,-0.215 0.005,-0.432 0.015,-0.651c0.006,-0.128 0.014,-0.256 0.024,-0.383l-9.41,0c-0.203,0 -0.369,-0.165 -0.369,-0.369c0,-0.203 0.166,-0.369 0.369,-0.369l9.484,0c0.072,-0.573 0.176,-1.125 0.301,-1.652l-10.748,0c-0.185,0.885 -0.304,1.881 -0.304,2.98c-0,0.806 0.064,1.555 0.171,2.244l7.647,0c0.204,0 0.369,0.165 0.369,0.369c0,0.204 -0.165,0.369 -0.369,0.369l-7.512,0c0.303,1.433 0.781,2.563 1.204,3.359l10.285,-0Zm2.587,24.099c0.121,0 0.229,-0.058 0.296,-0.149c-0.108,0.133 -0.296,0.149 -0.296,0.149Zm-12.442,-23.361c0.113,0.175 0.211,0.316 0.287,0.42l9.693,-0c0.236,-0.003 0.37,-0.004 0.37,-0.004c-0.063,-0.133 -0.135,-0.288 -0.212,-0.464c-0.053,0.03 -0.116,0.048 -0.182,0.048l-9.956,-0Zm9.299,-10.778c0.502,-1.774 1.203,-3.181 1.633,-3.95l-10.582,0c-0.159,0.217 -0.414,0.592 -0.698,1.114l8.235,0c0.203,0 0.369,0.166 0.369,0.369c-0,0.204 -0.166,0.369 -0.369,0.369l-8.602,0c-0.265,0.58 -0.53,1.275 -0.745,2.079l10.643,0c0.041,0 0.079,0.007 0.116,0.019Zm6.584,23.368c-0,-0.544 0.176,-1.023 0.432,-1.323c0.212,-0.247 0.479,-0.381 0.761,-0.381l0.402,0c-0.679,-0.224 -1.17,-0.864 -1.17,-1.618l0,-4.347c0,-0.544 0.177,-1.024 0.433,-1.323c0.211,-0.247 0.478,-0.381 0.76,-0.381l0.46,0c-0.708,-0.206 -1.227,-0.861 -1.227,-1.636l-0,-4.347c-0,-0.544 0.176,-1.024 0.432,-1.323c0.161,-0.188 0.355,-0.311 0.563,-0.358c-0.806,-0.136 -1.421,-0.837 -1.421,-1.681l0,-4.347c0,-0.544 0.177,-1.023 0.433,-1.323c0.211,-0.247 0.478,-0.381 0.76,-0.381l0.361,0c-0.658,-0.236 -1.128,-0.865 -1.128,-1.603l-0,-4.347c-0,-0.545 0.176,-1.024 0.432,-1.323c0.212,-0.247 0.479,-0.381 0.761,-0.381l0.511,-0c-0.735,-0.189 -1.279,-0.857 -1.279,-1.65l0,-4.347c0,-0.544 0.177,-1.024 0.433,-1.323c0.152,-0.177 0.332,-0.297 0.527,-0.35c-0.788,-0.149 -1.385,-0.842 -1.385,-1.673l-0,-4.348c-0,-0.544 0.176,-1.023 0.432,-1.322c0.212,-0.247 0.479,-0.381 0.761,-0.381l0.511,-0c-0,-0 2.635,-0 2.639,-0c-0,-0 3.88,-0 3.883,-0c-0,-0 3.972,-0 3.976,-0c-0,-0 4.159,-0 4.162,-0c0,-0 4.091,-0 4.095,-0c-0,-0 3.816,-0 3.819,-0l1.976,-0l0.511,-0c0.282,-0 0.549,0.134 0.76,0.381c0.256,0.299 0.433,0.778 0.433,1.322l-0,4.348c-0,0.783 -0.53,1.443 -1.25,1.642l0.482,0c0.282,0 0.549,0.134 0.761,0.381c0.256,0.299 0.432,0.779 0.432,1.323l0,4.347c0,0.837 -0.605,1.534 -1.401,1.677c0.201,0.05 0.387,0.171 0.543,0.354c0.256,0.299 0.433,0.778 0.433,1.323l-0,4.347c-0,0.805 -0.56,1.481 -1.312,1.658c0.167,0.061 0.321,0.171 0.454,0.326c0.256,0.3 0.432,0.779 0.432,1.323l0,4.347c0,0.805 -0.559,1.48 -1.309,1.658l0.542,0c0.282,0 0.549,0.134 0.76,0.381c0.256,0.299 0.433,0.779 0.433,1.323l-0,4.347c-0,0.827 -0.59,1.517 -1.372,1.671c0.19,0.055 0.365,0.173 0.514,0.346c0.256,0.299 0.432,0.779 0.432,1.323l0,4.347c0,0.815 -0.572,1.496 -1.336,1.664c0.176,0.059 0.339,0.173 0.478,0.335c0.256,0.3 0.433,0.779 0.433,1.323l-0,4.347c-0,0.79 -0.538,1.454 -1.267,1.647l0.414,0l0.511,0c0.282,0 0.549,0.134 0.76,0.381c0.256,0.3 0.433,0.779 0.433,1.323l-0,4.347c-0,0.941 -0.764,1.704 -1.704,1.704l-24.55,0c-0.941,0 -1.704,-0.763 -1.704,-1.704l-0,-4.347c-0,-0.544 0.176,-1.023 0.432,-1.323c0.131,-0.153 0.284,-0.263 0.448,-0.324l-0.027,0c-0.941,0 -1.704,-0.763 -1.704,-1.704l-0,-4.347Zm0.664,1.222l0,3.125c0,0.574 0.466,1.04 1.04,1.04l24.55,-0c0.574,-0 1.039,-0.466 1.039,-1.04l0,-3.125l-2.725,0l-0.049,3.306c-0.002,0.184 -0.153,0.33 -0.336,0.328c-0.184,-0.003 -0.33,-0.154 -0.328,-0.337l0.048,-3.297l-3.155,0l-0.048,3.306c-0.003,0.184 -0.154,0.33 -0.337,0.328c-0.184,-0.003 -0.33,-0.154 -0.328,-0.337l0.049,-3.297l-3.43,0l-0.049,3.306c-0.002,0.184 -0.153,0.33 -0.336,0.328c-0.184,-0.003 -0.33,-0.154 -0.328,-0.337l0.049,-3.297l-3.499,0l-0.048,3.306c-0.003,0.184 -0.154,0.33 -0.337,0.328c-0.184,-0.003 -0.33,-0.154 -0.328,-0.337l0.049,-3.297l-3.312,0l-0.048,3.306c-0.003,0.184 -0.154,0.33 -0.337,0.328c-0.183,-0.003 -0.33,-0.154 -0.327,-0.337l0.048,-3.297l-3.219,0l-0.048,3.306c-0.003,0.184 -0.154,0.33 -0.337,0.328c-0.184,-0.003 -0.33,-0.154 -0.328,-0.337l0.049,-3.297l-3.304,0Zm1.277,-38.42l-0,3.125c-0,0.574 0.466,1.04 1.039,1.04l24.55,-0c0.574,-0 1.04,-0.466 1.04,-1.04l-0,-3.125l-2.726,-0l-0.048,3.306c-0.003,0.183 -0.154,0.33 -0.337,0.327c-0.183,-0.002 -0.33,-0.153 -0.327,-0.337l0.048,-3.296l-3.156,-0l-0.048,3.306c-0.003,0.183 -0.154,0.33 -0.337,0.327c-0.183,-0.002 -0.33,-0.153 -0.327,-0.337l0.048,-3.296l-3.43,-0l-0.048,3.306c-0.003,0.183 -0.154,0.33 -0.337,0.327c-0.183,-0.002 -0.33,-0.153 -0.327,-0.337l0.048,-3.296l-3.499,-0l-0.048,3.306c-0.003,0.183 -0.154,0.33 -0.337,0.327c-0.183,-0.002 -0.33,-0.153 -0.327,-0.337l0.048,-3.296l-3.311,-0l-0.049,3.306c-0.002,0.183 -0.153,0.33 -0.337,0.327c-0.183,-0.002 -0.329,-0.153 -0.327,-0.337l0.048,-3.296l-3.219,-0l-0.048,3.306c-0.003,0.183 -0.154,0.33 -0.337,0.327c-0.183,-0.002 -0.33,-0.153 -0.327,-0.337l0.048,-3.296l-3.303,-0Zm-0.426,23.064l0,3.125c0,0.574 0.466,1.04 1.04,1.04l24.55,-0c0.574,-0 1.039,-0.466 1.039,-1.04l0,-3.125l-2.725,0l-0.048,3.306c-0.003,0.183 -0.154,0.33 -0.337,0.327c-0.184,-0.002 -0.33,-0.153 -0.328,-0.337l0.049,-3.296l-3.156,0l-0.048,3.306c-0.003,0.183 -0.154,0.33 -0.337,0.327c-0.184,-0.002 -0.33,-0.153 -0.328,-0.337l0.049,-3.296l-3.43,0l-0.048,3.306c-0.003,0.183 -0.154,0.33 -0.337,0.327c-0.184,-0.002 -0.33,-0.153 -0.328,-0.337l0.049,-3.296l-3.499,0l-0.048,3.306c-0.003,0.183 -0.154,0.33 -0.337,0.327c-0.184,-0.002 -0.33,-0.153 -0.328,-0.337l0.049,-3.296l-3.312,0l-0.048,3.306c-0.003,0.183 -0.154,0.33 -0.337,0.327c-0.183,-0.002 -0.33,-0.153 -0.327,-0.337l0.048,-3.296l-3.219,0l-0.048,3.306c-0.003,0.183 -0.154,0.33 -0.337,0.327c-0.184,-0.002 -0.33,-0.153 -0.328,-0.337l0.049,-3.296l-3.304,0Zm0,23.054l0,3.125c0,0.574 0.466,1.04 1.04,1.04l24.55,-0c0.574,-0 1.039,-0.466 1.039,-1.04l0,-3.125l-2.725,0l-0.048,3.306c-0.003,0.184 -0.154,0.33 -0.337,0.328c-0.184,-0.003 -0.33,-0.154 -0.328,-0.337l0.049,-3.297l-3.156,0l-0.048,3.306c-0.003,0.184 -0.154,0.33 -0.337,0.328c-0.184,-0.003 -0.33,-0.154 -0.328,-0.337l0.049,-3.297l-3.43,0l-0.048,3.306c-0.003,0.184 -0.154,0.33 -0.337,0.328c-0.184,-0.003 -0.33,-0.154 -0.328,-0.337l0.049,-3.297l-3.499,0l-0.048,3.306c-0.003,0.184 -0.154,0.33 -0.337,0.328c-0.184,-0.003 -0.33,-0.154 -0.328,-0.337l0.049,-3.297l-3.312,0l-0.048,3.306c-0.003,0.184 -0.154,0.33 -0.337,0.328c-0.183,-0.003 -0.33,-0.154 -0.327,-0.337l0.048,-3.297l-3.219,0l-0.048,3.306c-0.003,0.184 -0.154,0.33 -0.337,0.328c-0.184,-0.003 -0.33,-0.154 -0.328,-0.337l0.049,-3.297l-3.304,0Zm-0.425,-15.367l-0,3.125c-0,0.574 0.466,1.04 1.039,1.04l24.55,-0c0.574,-0 1.04,-0.466 1.04,-1.04l-0,-3.125l-2.726,0l-0.048,3.306c-0.003,0.184 -0.154,0.33 -0.337,0.328c-0.183,-0.003 -0.33,-0.154 -0.327,-0.337l0.048,-3.297l-3.156,0l-0.048,3.306c-0.003,0.184 -0.154,0.33 -0.337,0.328c-0.183,-0.003 -0.33,-0.154 -0.327,-0.337l0.048,-3.297l-3.43,0l-0.048,3.306c-0.003,0.184 -0.154,0.33 -0.337,0.328c-0.183,-0.003 -0.33,-0.154 -0.327,-0.337l0.048,-3.297l-3.499,0l-0.048,3.306c-0.003,0.184 -0.154,0.33 -0.337,0.328c-0.183,-0.003 -0.33,-0.154 -0.327,-0.337l0.048,-3.297l-3.311,0l-0.049,3.306c-0.002,0.184 -0.153,0.33 -0.337,0.328c-0.183,-0.003 -0.329,-0.154 -0.327,-0.337l0.048,-3.297l-3.219,0l-0.048,3.306c-0.003,0.184 -0.154,0.33 -0.337,0.328c-0.183,-0.003 -0.33,-0.154 -0.327,-0.337l0.048,-3.297l-3.303,0Zm0.425,-23.05l0,3.125c0,0.573 0.466,1.039 1.04,1.039l24.55,0c0.574,0 1.039,-0.466 1.039,-1.039l0,-3.125l-2.725,-0l-0.048,3.306c-0.003,0.183 -0.154,0.33 -0.337,0.327c-0.184,-0.003 -0.33,-0.154 -0.328,-0.337l0.049,-3.296l-3.156,-0l-0.048,3.306c-0.003,0.183 -0.154,0.33 -0.337,0.327c-0.184,-0.003 -0.33,-0.154 -0.328,-0.337l0.049,-3.296l-3.43,-0l-0.048,3.306c-0.003,0.183 -0.154,0.33 -0.337,0.327c-0.184,-0.003 -0.33,-0.154 -0.328,-0.337l0.049,-3.296l-3.499,-0l-0.048,3.306c-0.003,0.183 -0.154,0.33 -0.337,0.327c-0.184,-0.003 -0.33,-0.154 -0.328,-0.337l0.049,-3.296l-3.312,-0l-0.048,3.306c-0.003,0.183 -0.154,0.33 -0.337,0.327c-0.183,-0.003 -0.33,-0.154 -0.327,-0.337l0.048,-3.296l-3.219,-0l-0.048,3.306c-0.003,0.183 -0.154,0.33 -0.337,0.327c-0.184,-0.003 -0.33,-0.154 -0.328,-0.337l0.049,-3.296l-3.304,-0Zm0,-15.395l0,3.126c0,0.573 0.466,1.039 1.04,1.039l24.55,0c0.574,0 1.039,-0.466 1.039,-1.039l0,-3.126l-2.725,0l-0.048,3.307c-0.003,0.183 -0.154,0.33 -0.337,0.327c-0.184,-0.003 -0.33,-0.154 -0.328,-0.337l0.049,-3.297l-3.156,0l-0.048,3.307c-0.003,0.183 -0.154,0.33 -0.337,0.327c-0.184,-0.003 -0.33,-0.154 -0.328,-0.337l0.049,-3.297l-3.43,0l-0.048,3.307c-0.003,0.183 -0.154,0.33 -0.337,0.327c-0.184,-0.003 -0.33,-0.154 -0.328,-0.337l0.049,-3.297l-3.499,0l-0.048,3.307c-0.003,0.183 -0.154,0.33 -0.337,0.327c-0.184,-0.003 -0.33,-0.154 -0.328,-0.337l0.049,-3.297l-3.312,0l-0.048,3.307c-0.003,0.183 -0.154,0.33 -0.337,0.327c-0.183,-0.003 -0.33,-0.154 -0.327,-0.337l0.048,-3.297l-3.219,0l-0.048,3.307c-0.003,0.183 -0.154,0.33 -0.337,0.327c-0.184,-0.003 -0.33,-0.154 -0.328,-0.337l0.049,-3.297l-3.304,0Zm-0.425,23.049l-0,3.125c-0,0.574 0.466,1.04 1.039,1.04l24.55,-0c0.574,-0 1.04,-0.466 1.04,-1.04l-0,-3.125l-2.726,0l-0.048,3.306c-0.003,0.184 -0.154,0.33 -0.337,0.328c-0.183,-0.003 -0.33,-0.154 -0.327,-0.337l0.048,-3.297l-3.156,0l-0.048,3.306c-0.003,0.184 -0.154,0.33 -0.337,0.328c-0.183,-0.003 -0.33,-0.154 -0.327,-0.337l0.048,-3.297l-3.43,0l-0.048,3.306c-0.003,0.184 -0.154,0.33 -0.337,0.328c-0.183,-0.003 -0.33,-0.154 -0.327,-0.337l0.048,-3.297l-3.499,0l-0.048,3.306c-0.003,0.184 -0.154,0.33 -0.337,0.328c-0.183,-0.003 -0.33,-0.154 -0.327,-0.337l0.048,-3.297l-3.311,0l-0.049,3.306c-0.002,0.184 -0.153,0.33 -0.337,0.328c-0.183,-0.003 -0.329,-0.154 -0.327,-0.337l0.048,-3.297l-3.219,0l-0.048,3.306c-0.003,0.184 -0.154,0.33 -0.337,0.328c-0.183,-0.003 -0.33,-0.154 -0.327,-0.337l0.048,-3.297l-3.303,0Zm-1.415,-55.13c-0,-0.544 0.176,-1.024 0.432,-1.323c0.212,-0.247 0.479,-0.381 0.761,-0.381l0.511,0c-0,0 2.635,0 2.638,0c0,0 3.88,0 3.884,0c-0,0 3.972,0 3.975,0c0,0 4.16,0 4.163,0c0,0 4.091,0 4.094,0c0,0 3.817,0 3.82,0l1.976,0l0.511,0c0.282,0 0.549,0.134 0.76,0.381c0.256,0.299 0.433,0.779 0.433,1.323l-0,4.347c-0,0.783 -0.53,1.444 -1.25,1.643l0.427,-0c0.282,-0 0.549,0.134 0.76,0.381c0.256,0.299 0.433,0.778 0.433,1.323l-0,4.347c-0,0.768 -0.51,1.419 -1.21,1.631l0.312,-0l0.511,-0c0.282,-0 0.549,0.133 0.76,0.381c0.256,0.299 0.433,0.778 0.433,1.322l-0,4.347c-0,0.784 -0.53,1.444 -1.25,1.643l0.482,0c0.282,0 0.549,0.134 0.761,0.381c0.256,0.299 0.432,0.779 0.432,1.323l0,4.347c0,0.94 -0.763,1.704 -1.704,1.704l-24.55,-0c-0.94,-0 -1.704,-0.764 -1.704,-1.704l0,-4.347c0,-0.544 0.177,-1.024 0.433,-1.323c0.152,-0.177 0.332,-0.297 0.527,-0.35c-0.788,-0.149 -1.385,-0.842 -1.385,-1.674l-0,-4.347c-0,-0.544 0.176,-1.023 0.432,-1.322c0.121,-0.142 0.26,-0.246 0.41,-0.309c-0.915,-0.03 -1.648,-0.782 -1.648,-1.703l-0,-4.347c-0,-0.545 0.176,-1.024 0.432,-1.323c0.158,-0.185 0.348,-0.307 0.551,-0.356c-0.772,-0.162 -1.353,-0.848 -1.353,-1.668l-0,-4.347Zm2.266,24.291l-0,3.125c-0,0.574 0.466,1.04 1.039,1.04l24.55,-0c0.574,-0 1.04,-0.466 1.04,-1.04l-0,-3.125l-2.726,-0l-0.048,3.306c-0.003,0.183 -0.154,0.33 -0.337,0.327c-0.183,-0.002 -0.33,-0.153 -0.327,-0.337l0.048,-3.296l-3.156,-0l-0.048,3.306c-0.003,0.183 -0.154,0.33 -0.337,0.327c-0.183,-0.002 -0.33,-0.153 -0.327,-0.337l0.048,-3.296l-3.43,-0l-0.048,3.306c-0.003,0.183 -0.154,0.33 -0.337,0.327c-0.183,-0.002 -0.33,-0.153 -0.327,-0.337l0.048,-3.296l-3.499,-0l-0.048,3.306c-0.003,0.183 -0.154,0.33 -0.337,0.327c-0.183,-0.002 -0.33,-0.153 -0.327,-0.337l0.048,-3.296l-3.311,-0l-0.049,3.306c-0.002,0.183 -0.153,0.33 -0.337,0.327c-0.183,-0.002 -0.329,-0.153 -0.327,-0.337l0.048,-3.296l-3.219,-0l-0.048,3.306c-0.003,0.183 -0.154,0.33 -0.337,0.327c-0.183,-0.002 -0.33,-0.153 -0.327,-0.337l0.048,-3.296l-3.303,-0Zm-1.232,-15.375l0,3.125c0,0.573 0.466,1.039 1.04,1.039l24.55,0c0.574,0 1.039,-0.466 1.039,-1.039l0,-3.125l-2.725,-0l-0.049,3.306c-0.002,0.183 -0.153,0.33 -0.337,0.327c-0.183,-0.003 -0.329,-0.154 -0.327,-0.337l0.048,-3.296l-3.155,-0l-0.049,3.306c-0.002,0.183 -0.153,0.33 -0.336,0.327c-0.184,-0.003 -0.33,-0.154 -0.328,-0.337l0.048,-3.296l-3.429,-0l-0.049,3.306c-0.002,0.183 -0.153,0.33 -0.337,0.327c-0.183,-0.003 -0.329,-0.154 -0.327,-0.337l0.048,-3.296l-3.498,-0l-0.048,3.306c-0.003,0.183 -0.154,0.33 -0.337,0.327c-0.184,-0.003 -0.33,-0.154 -0.328,-0.337l0.049,-3.296l-3.312,-0l-0.048,3.306c-0.003,0.183 -0.154,0.33 -0.337,0.327c-0.183,-0.003 -0.33,-0.154 -0.327,-0.337l0.048,-3.296l-3.219,-0l-0.049,3.306c-0.002,0.183 -0.153,0.33 -0.336,0.327c-0.184,-0.003 -0.33,-0.154 -0.328,-0.337l0.048,-3.296l-3.303,-0Zm-0.37,-7.694l0,3.125c0,0.574 0.466,1.04 1.04,1.04l24.55,-0c0.573,-0 1.039,-0.466 1.039,-1.04l0,-3.125l-2.725,0l-0.049,3.306c-0.002,0.184 -0.153,0.33 -0.337,0.328c-0.183,-0.003 -0.33,-0.154 -0.327,-0.337l0.048,-3.297l-3.155,0l-0.049,3.306c-0.002,0.184 -0.153,0.33 -0.337,0.328c-0.183,-0.003 -0.329,-0.154 -0.327,-0.337l0.048,-3.297l-3.429,0l-0.049,3.306c-0.002,0.184 -0.153,0.33 -0.337,0.328c-0.183,-0.003 -0.33,-0.154 -0.327,-0.337l0.048,-3.297l-3.498,0l-0.049,3.306c-0.002,0.184 -0.153,0.33 -0.337,0.328c-0.183,-0.003 -0.329,-0.154 -0.327,-0.337l0.048,-3.297l-3.311,0l-0.048,3.306c-0.003,0.184 -0.154,0.33 -0.337,0.328c-0.184,-0.003 -0.33,-0.154 -0.327,-0.337l0.048,-3.297l-3.219,0l-0.049,3.306c-0.002,0.184 -0.153,0.33 -0.337,0.328c-0.183,-0.003 -0.329,-0.154 -0.327,-0.337l0.048,-3.297l-3.303,0Zm1.176,15.375l0,3.125c0,0.574 0.466,1.04 1.04,1.04l24.55,0c0.574,0 1.039,-0.466 1.039,-1.04l0,-3.125l-2.725,0l-0.048,3.307c-0.003,0.183 -0.154,0.329 -0.337,0.327c-0.184,-0.003 -0.33,-0.154 -0.328,-0.337l0.049,-3.297l-3.156,0l-0.048,3.307c-0.003,0.183 -0.154,0.329 -0.337,0.327c-0.184,-0.003 -0.33,-0.154 -0.328,-0.337l0.049,-3.297l-3.43,0l-0.048,3.307c-0.003,0.183 -0.154,0.329 -0.337,0.327c-0.184,-0.003 -0.33,-0.154 -0.328,-0.337l0.049,-3.297l-3.499,0l-0.048,3.307c-0.003,0.183 -0.154,0.329 -0.337,0.327c-0.184,-0.003 -0.33,-0.154 -0.328,-0.337l0.049,-3.297l-3.312,0l-0.048,3.307c-0.003,0.183 -0.154,0.329 -0.337,0.327c-0.183,-0.003 -0.33,-0.154 -0.327,-0.337l0.048,-3.297l-3.219,0l-0.048,3.307c-0.003,0.183 -0.154,0.329 -0.337,0.327c-0.184,-0.003 -0.33,-0.154 -0.328,-0.337l0.049,-3.297l-3.304,0Zm28.766,60.376c0,-0.544 0.176,-1.023 0.432,-1.323c0.212,-0.247 0.479,-0.381 0.761,-0.381l0.402,0c-0.679,-0.224 -1.169,-0.864 -1.169,-1.618l-0,-4.347c-0,-0.544 0.176,-1.024 0.432,-1.323c0.211,-0.247 0.478,-0.381 0.76,-0.381l0.461,0c-0.709,-0.206 -1.228,-0.861 -1.228,-1.636l0,-4.347c0,-0.544 0.176,-1.024 0.432,-1.323c0.162,-0.188 0.355,-0.311 0.563,-0.358c-0.806,-0.136 -1.42,-0.837 -1.42,-1.681l-0,-4.347c-0,-0.544 0.176,-1.023 0.432,-1.323c0.211,-0.247 0.478,-0.381 0.76,-0.381l0.361,0c-0.657,-0.236 -1.128,-0.865 -1.128,-1.603l0,-4.347c0,-0.545 0.176,-1.024 0.432,-1.323c0.212,-0.247 0.479,-0.381 0.761,-0.381l0.511,-0c-0.735,-0.189 -1.278,-0.857 -1.278,-1.65l-0,-4.347c-0,-0.544 0.176,-1.024 0.432,-1.323c0.152,-0.177 0.332,-0.297 0.527,-0.35c-0.788,-0.149 -1.385,-0.842 -1.385,-1.673l0,-4.348c0,-0.544 0.176,-1.023 0.432,-1.322c0.212,-0.247 0.479,-0.381 0.761,-0.381l0.511,-0c-0,-0 2.635,-0 2.639,-0c-0,-0 3.88,-0 3.883,-0c0,-0 3.972,-0 3.976,-0c-0,-0 4.159,-0 4.163,-0c-0,-0 4.09,-0 4.094,-0c-0,-0 3.816,-0 3.82,-0l1.975,-0l0.511,-0c0.282,-0 0.549,0.134 0.761,0.381c0.256,0.299 0.432,0.778 0.432,1.322l-0,4.348c-0,0.783 -0.53,1.443 -1.25,1.642l0.482,0c0.283,0 0.55,0.134 0.761,0.381c0.256,0.299 0.432,0.779 0.432,1.323l0,4.347c0,0.837 -0.605,1.534 -1.401,1.677c0.201,0.05 0.387,0.171 0.544,0.354c0.256,0.299 0.432,0.778 0.432,1.323l-0,4.347c-0,0.805 -0.56,1.481 -1.312,1.658c0.167,0.061 0.321,0.171 0.454,0.326c0.256,0.3 0.432,0.779 0.432,1.323l0,4.347c0,0.805 -0.558,1.48 -1.309,1.658l0.542,0c0.282,0 0.549,0.134 0.761,0.381c0.256,0.299 0.432,0.779 0.432,1.323l-0,4.347c-0,0.827 -0.59,1.517 -1.371,1.671c0.189,0.055 0.365,0.173 0.513,0.346c0.256,0.299 0.432,0.779 0.432,1.323l0,4.347c0,0.815 -0.572,1.496 -1.336,1.664c0.176,0.059 0.339,0.173 0.479,0.335c0.256,0.3 0.432,0.779 0.432,1.323l-0,4.347c-0,0.79 -0.538,1.454 -1.267,1.647l0.414,0l0.511,0c0.282,0 0.549,0.134 0.761,0.381c0.256,0.3 0.432,0.779 0.432,1.323l-0,4.347c-0,0.941 -0.764,1.704 -1.704,1.704l-24.55,0c-0.94,0 -1.704,-0.763 -1.704,-1.704l0,-4.347c0,-0.544 0.176,-1.023 0.432,-1.323c0.132,-0.153 0.284,-0.263 0.448,-0.324l-0.027,0c-0.94,0 -1.704,-0.763 -1.704,-1.704l0,-4.347Zm1.515,-29.497l0,3.125c0,0.573 0.466,1.039 1.04,1.039l24.55,0c0.574,0 1.04,-0.466 1.04,-1.039l-0,-3.125l-2.726,-0l-0.048,3.306c-0.003,0.183 -0.154,0.33 -0.337,0.327c-0.184,-0.003 -0.33,-0.154 -0.328,-0.337l0.049,-3.296l-3.156,-0l-0.048,3.306c-0.003,0.183 -0.154,0.33 -0.337,0.327c-0.184,-0.003 -0.33,-0.154 -0.327,-0.337l0.048,-3.296l-3.43,-0l-0.048,3.306c-0.003,0.183 -0.154,0.33 -0.337,0.327c-0.184,-0.003 -0.33,-0.154 -0.328,-0.337l0.049,-3.296l-3.499,-0l-0.048,3.306c-0.003,0.183 -0.154,0.33 -0.337,0.327c-0.183,-0.003 -0.33,-0.154 -0.327,-0.337l0.048,-3.296l-3.312,-0l-0.048,3.306c-0.003,0.183 -0.154,0.33 -0.337,0.327c-0.183,-0.003 -0.33,-0.154 -0.327,-0.337l0.048,-3.296l-3.219,-0l-0.048,3.306c-0.003,0.183 -0.154,0.33 -0.337,0.327c-0.184,-0.003 -0.33,-0.154 -0.327,-0.337l0.048,-3.296l-3.304,-0Zm-0.425,23.05l-0,3.125c-0,0.574 0.466,1.04 1.039,1.04l24.551,-0c0.573,-0 1.039,-0.466 1.039,-1.04l0,-3.125l-2.726,0l-0.048,3.306c-0.003,0.184 -0.154,0.33 -0.337,0.328c-0.183,-0.003 -0.33,-0.154 -0.327,-0.337l0.048,-3.297l-3.155,0l-0.049,3.306c-0.002,0.184 -0.153,0.33 -0.337,0.328c-0.183,-0.003 -0.33,-0.154 -0.327,-0.337l0.048,-3.297l-3.43,0l-0.048,3.306c-0.003,0.184 -0.154,0.33 -0.337,0.328c-0.183,-0.003 -0.33,-0.154 -0.327,-0.337l0.048,-3.297l-3.498,0l-0.049,3.306c-0.002,0.184 -0.153,0.33 -0.337,0.328c-0.183,-0.003 -0.33,-0.154 -0.327,-0.337l0.048,-3.297l-3.311,0l-0.048,3.306c-0.003,0.184 -0.154,0.33 -0.337,0.328c-0.184,-0.003 -0.33,-0.154 -0.328,-0.337l0.049,-3.297l-3.219,0l-0.049,3.306c-0.002,0.184 -0.153,0.33 -0.337,0.328c-0.183,-0.003 -0.33,-0.154 -0.327,-0.337l0.048,-3.297l-3.303,0Zm0.425,15.367l0,3.125c0,0.574 0.466,1.04 1.04,1.04l24.55,-0c0.574,-0 1.04,-0.466 1.04,-1.04l-0,-3.125l-2.726,0l-0.048,3.306c-0.003,0.184 -0.154,0.33 -0.337,0.328c-0.184,-0.003 -0.33,-0.154 -0.328,-0.337l0.049,-3.297l-3.156,0l-0.048,3.306c-0.003,0.184 -0.154,0.33 -0.337,0.328c-0.184,-0.003 -0.33,-0.154 -0.327,-0.337l0.048,-3.297l-3.43,0l-0.048,3.306c-0.003,0.184 -0.154,0.33 -0.337,0.328c-0.184,-0.003 -0.33,-0.154 -0.328,-0.337l0.049,-3.297l-3.499,0l-0.048,3.306c-0.003,0.184 -0.154,0.33 -0.337,0.328c-0.183,-0.003 -0.33,-0.154 -0.327,-0.337l0.048,-3.297l-3.312,0l-0.048,3.306c-0.003,0.184 -0.154,0.33 -0.337,0.328c-0.183,-0.003 -0.33,-0.154 -0.327,-0.337l0.048,-3.297l-3.219,0l-0.048,3.306c-0.003,0.184 -0.154,0.33 -0.337,0.328c-0.184,-0.003 -0.33,-0.154 -0.327,-0.337l0.048,-3.297l-3.304,0Zm0,-53.812l0,3.126c0,0.573 0.466,1.039 1.04,1.039l24.55,0c0.574,0 1.04,-0.466 1.04,-1.039l-0,-3.126l-2.726,0l-0.048,3.307c-0.003,0.183 -0.154,0.33 -0.337,0.327c-0.184,-0.003 -0.33,-0.154 -0.328,-0.337l0.049,-3.297l-3.156,0l-0.048,3.307c-0.003,0.183 -0.154,0.33 -0.337,0.327c-0.184,-0.003 -0.33,-0.154 -0.327,-0.337l0.048,-3.297l-3.43,0l-0.048,3.307c-0.003,0.183 -0.154,0.33 -0.337,0.327c-0.184,-0.003 -0.33,-0.154 -0.328,-0.337l0.049,-3.297l-3.499,0l-0.048,3.307c-0.003,0.183 -0.154,0.33 -0.337,0.327c-0.183,-0.003 -0.33,-0.154 -0.327,-0.337l0.048,-3.297l-3.312,0l-0.048,3.307c-0.003,0.183 -0.154,0.33 -0.337,0.327c-0.183,-0.003 -0.33,-0.154 -0.327,-0.337l0.048,-3.297l-3.219,0l-0.048,3.307c-0.003,0.183 -0.154,0.33 -0.337,0.327c-0.184,-0.003 -0.33,-0.154 -0.327,-0.337l0.048,-3.297l-3.304,0Zm-0.851,46.114l0,3.125c0,0.574 0.466,1.04 1.04,1.04l24.55,-0c0.574,-0 1.04,-0.466 1.04,-1.04l-0,-3.125l-2.726,0l-0.048,3.306c-0.003,0.184 -0.154,0.33 -0.337,0.328c-0.184,-0.003 -0.33,-0.154 -0.328,-0.337l0.049,-3.297l-3.156,0l-0.048,3.306c-0.003,0.184 -0.154,0.33 -0.337,0.328c-0.184,-0.003 -0.33,-0.154 -0.328,-0.337l0.049,-3.297l-3.43,0l-0.048,3.306c-0.003,0.184 -0.154,0.33 -0.337,0.328c-0.184,-0.003 -0.33,-0.154 -0.328,-0.337l0.049,-3.297l-3.499,0l-0.048,3.306c-0.003,0.184 -0.154,0.33 -0.337,0.328c-0.184,-0.003 -0.33,-0.154 -0.327,-0.337l0.048,-3.297l-3.312,0l-0.048,3.306c-0.003,0.184 -0.154,0.33 -0.337,0.328c-0.183,-0.003 -0.33,-0.154 -0.327,-0.337l0.048,-3.297l-3.219,0l-0.048,3.306c-0.003,0.184 -0.154,0.33 -0.337,0.328c-0.184,-0.003 -0.33,-0.154 -0.328,-0.337l0.049,-3.297l-3.304,0Zm1.277,-38.42l-0,3.125c-0,0.574 0.466,1.04 1.039,1.04l24.551,-0c0.573,-0 1.039,-0.466 1.039,-1.04l0,-3.125l-2.725,-0l-0.049,3.306c-0.003,0.183 -0.154,0.33 -0.337,0.327c-0.183,-0.002 -0.33,-0.153 -0.327,-0.337l0.048,-3.296l-3.155,-0l-0.049,3.306c-0.002,0.183 -0.153,0.33 -0.337,0.327c-0.183,-0.002 -0.33,-0.153 -0.327,-0.337l0.048,-3.296l-3.429,-0l-0.049,3.306c-0.003,0.183 -0.154,0.33 -0.337,0.327c-0.183,-0.002 -0.33,-0.153 -0.327,-0.337l0.048,-3.296l-3.498,-0l-0.049,3.306c-0.002,0.183 -0.153,0.33 -0.337,0.327c-0.183,-0.002 -0.33,-0.153 -0.327,-0.337l0.048,-3.296l-3.311,-0l-0.048,3.306c-0.003,0.183 -0.154,0.33 -0.337,0.327c-0.184,-0.002 -0.33,-0.153 -0.328,-0.337l0.049,-3.296l-3.219,-0l-0.049,3.306c-0.002,0.183 -0.153,0.33 -0.337,0.327c-0.183,-0.002 -0.33,-0.153 -0.327,-0.337l0.048,-3.296l-3.303,-0Zm-0.851,15.355l-0,3.125c-0,0.574 0.466,1.04 1.039,1.04l24.551,-0c0.573,-0 1.039,-0.466 1.039,-1.04l0,-3.125l-2.726,0l-0.048,3.306c-0.003,0.184 -0.154,0.33 -0.337,0.328c-0.183,-0.003 -0.33,-0.154 -0.327,-0.337l0.048,-3.297l-3.155,0l-0.049,3.306c-0.002,0.184 -0.153,0.33 -0.337,0.328c-0.183,-0.003 -0.33,-0.154 -0.327,-0.337l0.048,-3.297l-3.43,0l-0.048,3.306c-0.003,0.184 -0.154,0.33 -0.337,0.328c-0.183,-0.003 -0.33,-0.154 -0.327,-0.337l0.048,-3.297l-3.498,0l-0.049,3.306c-0.002,0.184 -0.153,0.33 -0.337,0.328c-0.183,-0.003 -0.33,-0.154 -0.327,-0.337l0.048,-3.297l-3.311,0l-0.048,3.306c-0.003,0.184 -0.154,0.33 -0.337,0.328c-0.184,-0.003 -0.33,-0.154 -0.328,-0.337l0.049,-3.297l-3.219,0l-0.049,3.306c-0.002,0.184 -0.153,0.33 -0.337,0.328c-0.183,-0.003 -0.33,-0.154 -0.327,-0.337l0.048,-3.297l-3.303,0Zm0.425,7.709l0,3.125c0,0.574 0.466,1.04 1.04,1.04l24.55,-0c0.574,-0 1.04,-0.466 1.04,-1.04l-0,-3.125l-2.726,0l-0.048,3.306c-0.003,0.183 -0.154,0.33 -0.337,0.327c-0.184,-0.002 -0.33,-0.153 -0.328,-0.337l0.049,-3.296l-3.156,0l-0.048,3.306c-0.003,0.183 -0.154,0.33 -0.337,0.327c-0.184,-0.002 -0.33,-0.153 -0.327,-0.337l0.048,-3.296l-3.43,0l-0.048,3.306c-0.003,0.183 -0.154,0.33 -0.337,0.327c-0.184,-0.002 -0.33,-0.153 -0.328,-0.337l0.049,-3.296l-3.499,0l-0.048,3.306c-0.003,0.183 -0.154,0.33 -0.337,0.327c-0.183,-0.002 -0.33,-0.153 -0.327,-0.337l0.048,-3.296l-3.312,0l-0.048,3.306c-0.003,0.183 -0.154,0.33 -0.337,0.327c-0.183,-0.002 -0.33,-0.153 -0.327,-0.337l0.048,-3.296l-3.219,0l-0.048,3.306c-0.003,0.183 -0.154,0.33 -0.337,0.327c-0.184,-0.002 -0.33,-0.153 -0.327,-0.337l0.048,-3.296l-3.304,0Zm-1.84,-62.839c-0,-0.544 0.176,-1.024 0.432,-1.323c0.212,-0.247 0.479,-0.381 0.761,-0.381l0.511,0c-0,0 2.635,0 2.639,0c-0,0 3.88,0 3.883,0c-0,0 3.972,0 3.976,0c-0,0 4.159,0 4.162,0c0,0 4.091,0 4.095,0c-0,0 3.816,0 3.819,0l1.976,0l0.511,0c0.282,0 0.549,0.134 0.76,0.381c0.256,0.299 0.433,0.779 0.433,1.323l-0,4.347c-0,0.783 -0.53,1.444 -1.25,1.643l0.427,-0c0.282,-0 0.549,0.134 0.76,0.381c0.256,0.299 0.433,0.778 0.433,1.323l-0,4.347c-0,0.768 -0.51,1.419 -1.21,1.631l0.312,-0l0.511,-0c0.282,-0 0.549,0.133 0.761,0.381c0.256,0.299 0.432,0.778 0.432,1.322l-0,4.347c-0,0.784 -0.53,1.444 -1.25,1.643l0.482,0c0.283,0 0.55,0.134 0.761,0.381c0.256,0.299 0.432,0.779 0.432,1.323l0,4.347c0,0.94 -0.763,1.704 -1.703,1.704l-24.551,-0c-0.94,-0 -1.703,-0.764 -1.703,-1.704l-0,-4.347c-0,-0.544 0.176,-1.024 0.432,-1.323c0.152,-0.177 0.332,-0.297 0.527,-0.35c-0.788,-0.149 -1.385,-0.842 -1.385,-1.674l0,-4.347c0,-0.544 0.176,-1.023 0.432,-1.322c0.121,-0.142 0.26,-0.246 0.41,-0.309c-0.915,-0.03 -1.648,-0.782 -1.648,-1.703l-0,-4.347c-0,-0.545 0.176,-1.024 0.432,-1.323c0.159,-0.185 0.348,-0.307 0.551,-0.356c-0.772,-0.162 -1.353,-0.848 -1.353,-1.668l-0,-4.347Zm0.664,1.222l0,3.125c0,0.574 0.466,1.04 1.04,1.04l24.55,-0c0.574,-0 1.039,-0.466 1.039,-1.04l0,-3.125l-2.725,0l-0.049,3.306c-0.002,0.184 -0.153,0.33 -0.336,0.328c-0.184,-0.003 -0.33,-0.154 -0.328,-0.337l0.048,-3.297l-3.155,0l-0.048,3.306c-0.003,0.184 -0.154,0.33 -0.337,0.328c-0.184,-0.003 -0.33,-0.154 -0.328,-0.337l0.049,-3.297l-3.43,0l-0.049,3.306c-0.002,0.184 -0.153,0.33 -0.336,0.328c-0.184,-0.003 -0.33,-0.154 -0.328,-0.337l0.048,-3.297l-3.498,0l-0.048,3.306c-0.003,0.184 -0.154,0.33 -0.337,0.328c-0.184,-0.003 -0.33,-0.154 -0.328,-0.337l0.049,-3.297l-3.312,0l-0.048,3.306c-0.003,0.184 -0.154,0.33 -0.337,0.328c-0.183,-0.003 -0.33,-0.154 -0.327,-0.337l0.048,-3.297l-3.219,0l-0.048,3.306c-0.003,0.184 -0.154,0.33 -0.337,0.328c-0.184,-0.003 -0.33,-0.154 -0.328,-0.337l0.049,-3.297l-3.304,0Zm0.37,7.694l0,3.125c0,0.573 0.466,1.039 1.04,1.039l24.55,0c0.574,0 1.04,-0.466 1.04,-1.039l-0,-3.125l-2.726,-0l-0.048,3.306c-0.003,0.183 -0.154,0.33 -0.337,0.327c-0.184,-0.003 -0.33,-0.154 -0.328,-0.337l0.049,-3.296l-3.156,-0l-0.048,3.306c-0.003,0.183 -0.154,0.33 -0.337,0.327c-0.184,-0.003 -0.33,-0.154 -0.328,-0.337l0.049,-3.296l-3.43,-0l-0.048,3.306c-0.003,0.183 -0.154,0.33 -0.337,0.327c-0.184,-0.003 -0.33,-0.154 -0.328,-0.337l0.049,-3.296l-3.499,-0l-0.048,3.306c-0.003,0.183 -0.154,0.33 -0.337,0.327c-0.184,-0.003 -0.33,-0.154 -0.328,-0.337l0.049,-3.296l-3.312,-0l-0.048,3.306c-0.003,0.183 -0.154,0.33 -0.337,0.327c-0.183,-0.003 -0.33,-0.154 -0.327,-0.337l0.048,-3.296l-3.219,-0l-0.048,3.306c-0.003,0.183 -0.154,0.33 -0.337,0.327c-0.184,-0.003 -0.33,-0.154 -0.328,-0.337l0.049,-3.296l-3.304,-0Zm1.232,15.375l-0,3.125c-0,0.574 0.466,1.04 1.039,1.04l24.551,-0c0.573,-0 1.039,-0.466 1.039,-1.04l0,-3.125l-2.725,-0l-0.049,3.306c-0.003,0.183 -0.154,0.33 -0.337,0.327c-0.183,-0.002 -0.33,-0.153 -0.327,-0.337l0.048,-3.296l-3.155,-0l-0.049,3.306c-0.002,0.183 -0.153,0.33 -0.337,0.327c-0.183,-0.002 -0.33,-0.153 -0.327,-0.337l0.048,-3.296l-3.429,-0l-0.049,3.306c-0.003,0.183 -0.154,0.33 -0.337,0.327c-0.183,-0.002 -0.33,-0.153 -0.327,-0.337l0.048,-3.296l-3.498,-0l-0.049,3.306c-0.002,0.183 -0.153,0.33 -0.337,0.327c-0.183,-0.002 -0.33,-0.153 -0.327,-0.337l0.048,-3.296l-3.311,-0l-0.048,3.306c-0.003,0.183 -0.154,0.33 -0.337,0.327c-0.184,-0.002 -0.33,-0.153 -0.328,-0.337l0.049,-3.296l-3.219,-0l-0.049,3.306c-0.002,0.183 -0.153,0.33 -0.337,0.327c-0.183,-0.002 -0.33,-0.153 -0.327,-0.337l0.048,-3.296l-3.303,-0Zm-0.426,-7.694l0,3.125c0,0.574 0.466,1.04 1.04,1.04l24.55,0c0.574,0 1.04,-0.466 1.04,-1.04l-0,-3.125l-2.726,0l-0.048,3.307c-0.003,0.183 -0.154,0.329 -0.337,0.327c-0.184,-0.003 -0.33,-0.154 -0.328,-0.337l0.049,-3.297l-3.156,0l-0.048,3.307c-0.003,0.183 -0.154,0.329 -0.337,0.327c-0.184,-0.003 -0.33,-0.154 -0.327,-0.337l0.048,-3.297l-3.43,0l-0.048,3.307c-0.003,0.183 -0.154,0.329 -0.337,0.327c-0.184,-0.003 -0.33,-0.154 -0.328,-0.337l0.049,-3.297l-3.499,0l-0.048,3.307c-0.003,0.183 -0.154,0.329 -0.337,0.327c-0.183,-0.003 -0.33,-0.154 -0.327,-0.337l0.048,-3.297l-3.312,0l-0.048,3.307c-0.003,0.183 -0.154,0.329 -0.337,0.327c-0.183,-0.003 -0.33,-0.154 -0.327,-0.337l0.048,-3.297l-3.219,0l-0.048,3.307c-0.003,0.183 -0.154,0.329 -0.337,0.327c-0.184,-0.003 -0.33,-0.154 -0.327,-0.337l0.048,-3.297l-3.304,0Zm-1.47,-24.361c-0,-0.544 0.176,-1.023 0.432,-1.323c0.212,-0.247 0.479,-0.381 0.761,-0.381l0.43,0c-0.72,-0.199 -1.25,-0.859 -1.25,-1.642l0,-4.347c0,-0.544 0.177,-1.024 0.433,-1.323c0.211,-0.247 0.478,-0.381 0.76,-0.381l0.511,0c0,0 2.636,-0 2.639,0c-0,0 3.88,-0 3.883,0c0,0 3.973,-0 3.976,0c-0,0 4.159,-0 4.163,0c-0,0 4.091,-0 4.094,0c-0,0 3.816,-0 3.82,0l1.975,0l0.511,0c0.282,0 0.549,0.134 0.761,0.381c0.256,0.299 0.432,0.779 0.432,1.323l0,4.347c0,0.821 -0.582,1.507 -1.355,1.668c0.203,0.05 0.392,0.171 0.549,0.355c0.256,0.3 0.433,0.779 0.433,1.323l-0,4.347c-0,0.941 -0.764,1.704 -1.704,1.704l-24.55,0c-0.941,0 -1.704,-0.763 -1.704,-1.704l-0,-4.347Zm1.038,-6.471l-0,3.125c-0,0.574 0.465,1.039 1.039,1.039l24.55,0c0.574,0 1.04,-0.465 1.04,-1.039l-0,-3.125l-2.726,-0l-0.048,3.306c-0.003,0.183 -0.154,0.33 -0.337,0.327c-0.183,-0.002 -0.33,-0.153 -0.327,-0.337l0.048,-3.296l-3.156,-0l-0.048,3.306c-0.003,0.183 -0.154,0.33 -0.337,0.327c-0.183,-0.002 -0.33,-0.153 -0.327,-0.337l0.048,-3.296l-3.43,-0l-0.048,3.306c-0.003,0.183 -0.154,0.33 -0.337,0.327c-0.183,-0.002 -0.33,-0.153 -0.327,-0.337l0.048,-3.296l-3.499,-0l-0.048,3.306c-0.003,0.183 -0.154,0.33 -0.337,0.327c-0.183,-0.002 -0.33,-0.153 -0.327,-0.337l0.048,-3.296l-3.311,-0l-0.049,3.306c-0.002,0.183 -0.153,0.33 -0.337,0.327c-0.183,-0.002 -0.33,-0.153 -0.327,-0.337l0.048,-3.296l-3.219,-0l-0.048,3.306c-0.003,0.183 -0.154,0.33 -0.337,0.327c-0.183,-0.002 -0.33,-0.153 -0.327,-0.337l0.048,-3.296l-3.303,-0Zm-0.374,7.693l0,3.125c0,0.574 0.466,1.04 1.04,1.04l24.55,-0c0.574,-0 1.04,-0.466 1.04,-1.04l-0,-3.125l-2.726,0l-0.048,3.306c-0.003,0.184 -0.154,0.33 -0.337,0.328c-0.184,-0.003 -0.33,-0.154 -0.328,-0.337l0.049,-3.297l-3.156,0l-0.048,3.306c-0.003,0.184 -0.154,0.33 -0.337,0.328c-0.184,-0.003 -0.33,-0.154 -0.328,-0.337l0.049,-3.297l-3.43,0l-0.048,3.306c-0.003,0.184 -0.154,0.33 -0.337,0.328c-0.184,-0.003 -0.33,-0.154 -0.328,-0.337l0.049,-3.297l-3.499,0l-0.048,3.306c-0.003,0.184 -0.154,0.33 -0.337,0.328c-0.184,-0.003 -0.33,-0.154 -0.328,-0.337l0.049,-3.297l-3.312,0l-0.048,3.306c-0.003,0.184 -0.154,0.33 -0.337,0.328c-0.183,-0.003 -0.33,-0.154 -0.327,-0.337l0.048,-3.297l-3.219,0l-0.048,3.306c-0.003,0.184 -0.154,0.33 -0.337,0.328c-0.184,-0.003 -0.33,-0.154 -0.328,-0.337l0.049,-3.297l-3.304,0Zm-61.13,37.401c0,-0.544 0.177,-1.023 0.433,-1.322c0.211,-0.247 0.478,-0.381 0.76,-0.381l0.511,-0c0,-0 2.636,-0 2.639,-0c0,-0 3.88,-0 3.883,-0c0,-0 3.973,-0 3.976,-0c0,-0 4.16,-0 4.163,-0c0,-0 4.091,-0 4.094,-0c0,-0 3.817,-0 3.82,-0l1.975,-0l0.511,-0c0.282,-0 0.549,0.134 0.761,0.381c0.256,0.299 0.432,0.778 0.432,1.322l0,4.348c0,0.783 -0.529,1.443 -1.249,1.642l0.482,0c0.282,0 0.549,0.134 0.76,0.381c0.256,0.299 0.433,0.779 0.433,1.323l-0,4.347c-0,0.94 -0.764,1.704 -1.704,1.704l-24.55,-0c-0.941,-0 -1.704,-0.764 -1.704,-1.704l-0,-4.347c-0,-0.544 0.176,-1.024 0.432,-1.323c0.152,-0.177 0.333,-0.297 0.527,-0.35c-0.788,-0.149 -1.385,-0.842 -1.385,-1.673l0,-4.348Zm1.09,8.916l0,3.125c0,0.574 0.466,1.04 1.04,1.04l24.55,-0c0.574,-0 1.04,-0.466 1.04,-1.04l-0,-3.125l-2.726,-0l-0.048,3.306c-0.003,0.183 -0.154,0.33 -0.337,0.327c-0.184,-0.002 -0.33,-0.153 -0.328,-0.337l0.049,-3.296l-3.156,-0l-0.048,3.306c-0.003,0.183 -0.154,0.33 -0.337,0.327c-0.184,-0.002 -0.33,-0.153 -0.328,-0.337l0.049,-3.296l-3.43,-0l-0.048,3.306c-0.003,0.183 -0.154,0.33 -0.337,0.327c-0.184,-0.002 -0.33,-0.153 -0.328,-0.337l0.049,-3.296l-3.499,-0l-0.048,3.306c-0.003,0.183 -0.154,0.33 -0.337,0.327c-0.184,-0.002 -0.33,-0.153 -0.328,-0.337l0.049,-3.296l-3.312,-0l-0.048,3.306c-0.003,0.183 -0.154,0.33 -0.337,0.327c-0.183,-0.002 -0.33,-0.153 -0.327,-0.337l0.048,-3.296l-3.219,-0l-0.048,3.306c-0.003,0.183 -0.154,0.33 -0.337,0.327c-0.184,-0.002 -0.33,-0.153 -0.328,-0.337l0.049,-3.296l-3.304,-0Zm-0.425,-7.694l-0,3.126c-0,0.573 0.466,1.039 1.039,1.039l24.55,0c0.574,0 1.04,-0.466 1.04,-1.039l0,-3.126l-2.726,0l-0.048,3.307c-0.003,0.183 -0.154,0.33 -0.337,0.327c-0.183,-0.003 -0.33,-0.154 -0.327,-0.337l0.048,-3.297l-3.156,0l-0.048,3.307c-0.003,0.183 -0.154,0.33 -0.337,0.327c-0.183,-0.003 -0.33,-0.154 -0.327,-0.337l0.048,-3.297l-3.43,0l-0.048,3.307c-0.003,0.183 -0.154,0.33 -0.337,0.327c-0.183,-0.003 -0.33,-0.154 -0.327,-0.337l0.048,-3.297l-3.498,0l-0.049,3.307c-0.003,0.183 -0.153,0.33 -0.337,0.327c-0.183,-0.003 -0.33,-0.154 -0.327,-0.337l0.048,-3.297l-3.311,0l-0.049,3.307c-0.002,0.183 -0.153,0.33 -0.337,0.327c-0.183,-0.003 -0.329,-0.154 -0.327,-0.337l0.048,-3.297l-3.219,0l-0.048,3.307c-0.003,0.183 -0.154,0.33 -0.337,0.327c-0.183,-0.003 -0.33,-0.154 -0.327,-0.337l0.048,-3.297l-3.303,0Zm-0.665,-16.706c0,-0.544 0.177,-1.023 0.433,-1.322c0.211,-0.248 0.478,-0.381 0.76,-0.381l0.511,-0c0,-0 2.636,-0 2.639,-0c0,-0 3.88,-0 3.883,-0c0,-0 3.973,-0 3.976,-0c0,-0 4.16,-0 4.163,-0c0,-0 4.091,-0 4.094,-0c0,-0 3.817,-0 3.82,-0l1.975,-0l0.511,-0c0.282,-0 0.549,0.133 0.761,0.381c0.256,0.299 0.432,0.778 0.432,1.322l0,4.347c0,0.784 -0.529,1.444 -1.249,1.643l0.482,0c0.282,0 0.549,0.134 0.76,0.381c0.256,0.299 0.433,0.779 0.433,1.323l-0,4.347c-0,0.94 -0.764,1.704 -1.704,1.704l-24.55,-0c-0.941,-0 -1.704,-0.764 -1.704,-1.704l-0,-4.347c-0,-0.544 0.176,-1.024 0.432,-1.323c0.152,-0.177 0.333,-0.297 0.527,-0.35c-0.788,-0.149 -1.385,-0.842 -1.385,-1.674l0,-4.347Zm0.665,1.222l-0,3.125c-0,0.574 0.466,1.04 1.039,1.04l24.55,0c0.574,0 1.04,-0.466 1.04,-1.04l0,-3.125l-2.726,0l-0.048,3.307c-0.003,0.183 -0.154,0.329 -0.337,0.327c-0.183,-0.003 -0.33,-0.154 -0.327,-0.337l0.048,-3.297l-3.156,0l-0.048,3.307c-0.003,0.183 -0.154,0.329 -0.337,0.327c-0.183,-0.003 -0.33,-0.154 -0.327,-0.337l0.048,-3.297l-3.43,0l-0.048,3.307c-0.003,0.183 -0.154,0.329 -0.337,0.327c-0.183,-0.003 -0.33,-0.154 -0.327,-0.337l0.048,-3.297l-3.498,0l-0.049,3.307c-0.003,0.183 -0.153,0.329 -0.337,0.327c-0.183,-0.003 -0.33,-0.154 -0.327,-0.337l0.048,-3.297l-3.311,0l-0.049,3.307c-0.002,0.183 -0.153,0.329 -0.337,0.327c-0.183,-0.003 -0.329,-0.154 -0.327,-0.337l0.048,-3.297l-3.219,0l-0.048,3.307c-0.003,0.183 -0.154,0.329 -0.337,0.327c-0.183,-0.003 -0.33,-0.154 -0.327,-0.337l0.048,-3.297l-3.303,0Zm0.425,7.694l0,3.125c0,0.574 0.466,1.04 1.04,1.04l24.55,-0c0.574,-0 1.04,-0.466 1.04,-1.04l-0,-3.125l-2.726,-0l-0.048,3.306c-0.003,0.183 -0.154,0.33 -0.337,0.327c-0.184,-0.002 -0.33,-0.153 -0.328,-0.337l0.049,-3.296l-3.156,-0l-0.048,3.306c-0.003,0.183 -0.154,0.33 -0.337,0.327c-0.184,-0.002 -0.33,-0.153 -0.328,-0.337l0.049,-3.296l-3.43,-0l-0.048,3.306c-0.003,0.183 -0.154,0.33 -0.337,0.327c-0.184,-0.002 -0.33,-0.153 -0.328,-0.337l0.049,-3.296l-3.499,-0l-0.048,3.306c-0.003,0.183 -0.154,0.33 -0.337,0.327c-0.184,-0.002 -0.33,-0.153 -0.328,-0.337l0.049,-3.296l-3.312,-0l-0.048,3.306c-0.003,0.183 -0.154,0.33 -0.337,0.327c-0.183,-0.002 -0.33,-0.153 -0.327,-0.337l0.048,-3.296l-3.219,-0l-0.048,3.306c-0.003,0.183 -0.154,0.33 -0.337,0.327c-0.184,-0.002 -0.33,-0.153 -0.328,-0.337l0.049,-3.296l-3.304,-0Zm-32.545,6.568c0,-0.544 0.177,-1.023 0.433,-1.322c0.211,-0.247 0.478,-0.381 0.76,-0.381l0.511,-0c0,-0 2.636,-0 2.639,-0c-0,-0 3.88,-0 3.883,-0c0,-0 3.973,-0 3.976,-0c-0,-0 4.16,-0 4.163,-0c-0,-0 4.091,-0 4.094,-0c-0,-0 3.816,-0 3.82,-0l1.975,-0l0.511,-0c0.282,-0 0.549,0.134 0.761,0.381c0.256,0.299 0.432,0.778 0.432,1.322l0,4.348c0,0.783 -0.529,1.443 -1.25,1.642l0.483,0c0.282,0 0.549,0.134 0.76,0.381c0.256,0.299 0.433,0.779 0.433,1.323l-0,4.347c-0,0.94 -0.764,1.704 -1.704,1.704l-24.55,-0c-0.941,-0 -1.704,-0.764 -1.704,-1.704l-0,-4.347c-0,-0.544 0.176,-1.024 0.432,-1.323c0.152,-0.177 0.333,-0.297 0.527,-0.35c-0.788,-0.149 -1.385,-0.842 -1.385,-1.673l0,-4.348Zm0.665,1.222l-0,3.126c-0,0.573 0.465,1.039 1.039,1.039l24.55,0c0.574,0 1.04,-0.466 1.04,-1.039l-0,-3.126l-2.726,0l-0.048,3.307c-0.003,0.183 -0.154,0.33 -0.337,0.327c-0.183,-0.003 -0.33,-0.154 -0.327,-0.337l0.048,-3.297l-3.156,0l-0.048,3.307c-0.003,0.183 -0.154,0.33 -0.337,0.327c-0.183,-0.003 -0.33,-0.154 -0.327,-0.337l0.048,-3.297l-3.43,0l-0.048,3.307c-0.003,0.183 -0.154,0.33 -0.337,0.327c-0.183,-0.003 -0.33,-0.154 -0.327,-0.337l0.048,-3.297l-3.499,0l-0.048,3.307c-0.003,0.183 -0.154,0.33 -0.337,0.327c-0.183,-0.003 -0.33,-0.154 -0.327,-0.337l0.048,-3.297l-3.311,0l-0.049,3.307c-0.002,0.183 -0.153,0.33 -0.337,0.327c-0.183,-0.003 -0.33,-0.154 -0.327,-0.337l0.048,-3.297l-3.219,0l-0.048,3.307c-0.003,0.183 -0.154,0.33 -0.337,0.327c-0.183,-0.003 -0.33,-0.154 -0.327,-0.337l0.048,-3.297l-3.303,0Zm0.425,7.694l0,3.125c0,0.574 0.466,1.04 1.04,1.04l24.55,-0c0.573,-0 1.039,-0.466 1.039,-1.04l0,-3.125l-2.725,-0l-0.049,3.306c-0.002,0.183 -0.153,0.33 -0.337,0.327c-0.183,-0.002 -0.33,-0.153 -0.327,-0.337l0.048,-3.296l-3.155,-0l-0.049,3.306c-0.002,0.183 -0.153,0.33 -0.337,0.327c-0.183,-0.002 -0.329,-0.153 -0.327,-0.337l0.048,-3.296l-3.429,-0l-0.049,3.306c-0.002,0.183 -0.153,0.33 -0.337,0.327c-0.183,-0.002 -0.33,-0.153 -0.327,-0.337l0.048,-3.296l-3.498,-0l-0.049,3.306c-0.002,0.183 -0.153,0.33 -0.337,0.327c-0.183,-0.002 -0.329,-0.153 -0.327,-0.337l0.048,-3.296l-3.311,-0l-0.048,3.306c-0.003,0.183 -0.154,0.33 -0.337,0.327c-0.184,-0.002 -0.33,-0.153 -0.327,-0.337l0.048,-3.296l-3.219,-0l-0.049,3.306c-0.002,0.183 -0.153,0.33 -0.337,0.327c-0.183,-0.002 -0.329,-0.153 -0.327,-0.337l0.048,-3.296l-3.303,-0Z"/></g></svg>