<?xml version="1.0" encoding="UTF-8" standalone="no"?><!DOCTYPE svg PUBLIC "-//W3C//DTD SVG 1.1//EN" "http://www.w3.org/Graphics/SVG/1.1/DTD/svg11.dtd"><svg width="100%" height="100%" viewBox="0 0 270 270" version="1.1" xmlns="http://www.w3.org/2000/svg" xmlns:xlink="http://www.w3.org/1999/xlink" xml:space="preserve" xmlns:serif="http://www.serif.com/" style="fill-rule:evenodd;clip-rule:evenodd;stroke-linejoin:round;stroke-miterlimit:2;"><rect id="Artboard1" x="-145.5" y="-11" width="540" height="540" style="fill:none;"/><g id="Artboard11" serif:id="Artboard1"><path d="M40.581,234.499c0.005,0.552 -0.44,1.003 -0.992,1.008c-0.552,0.004 -1.003,-0.44 -1.008,-0.992l-0.455,-124.299c-0.003,-0.266 0.101,-0.521 0.288,-0.711c0.187,-0.189 0.441,-0.296 0.707,-0.297c-0,0 16.555,-0.077 16.555,-0.077c1.312,-3.828 8.154,-22.915 19.206,-38.49c10.562,-14.884 34.285,-27.754 34.285,-27.754c0.305,-0.165 0.673,-0.16 0.974,0.012c-0,0 23.77,13.649 35.416,28.73c11.397,14.758 18.145,33.229 19.444,36.969l15.044,0.22c0.545,0.008 0.983,0.452 0.985,0.997l0.038,12.785c0.001,0.552 -0.445,1.002 -0.997,1.003c-0.552,0.002 -1.002,-0.445 -1.003,-0.997l-0.035,-11.802l-14.766,-0.217c-0.426,-0.006 -0.802,-0.283 -0.935,-0.688c-0,-0 -6.818,-20.81 -19.358,-37.047c-10.475,-13.565 -30.944,-25.933 -34.344,-27.936c-3.403,1.9 -23.659,13.553 -33.117,26.883c-12.175,17.157 -19.167,38.639 -19.167,38.639c-0.133,0.41 -0.515,0.688 -0.946,0.69c0,0 -16.266,0.075 -16.266,0.075l0.447,123.296Zm-10.901,-0.047c-0.002,0.552 -0.452,0.999 -1.004,0.997c-0.552,-0.002 -0.998,-0.452 -0.996,-1.004l0.365,-133.249c0.002,-0.542 0.436,-0.984 0.979,-0.996c-0,0 16.253,-0.355 16.253,-0.355c1.94,-3.779 13.814,-26.631 23.103,-38.097c10.477,-12.932 40.734,-31.844 40.734,-31.844c0.329,-0.206 0.748,-0.202 1.073,0.009c0,0 30.31,19.669 41.578,33.229c10.945,13.172 20.838,32.769 22.584,36.301l16.856,0.264c0.543,0.008 0.98,0.449 0.984,0.993l0.334,52.312c0.004,0.552 -0.441,1.003 -0.993,1.006c-0.552,0.004 -1.003,-0.441 -1.007,-0.993c0,0 -0.327,-51.334 -0.327,-51.334l-16.491,-0.258c-0.378,-0.006 -0.72,-0.225 -0.885,-0.565c0,-0 -10.661,-22.088 -22.593,-36.448c-10.263,-12.351 -36.522,-29.807 -40.594,-32.48c-4.08,2.581 -30.176,19.313 -39.699,31.067c-10.051,12.406 -23.146,38.277 -23.146,38.277c-0.167,0.329 -0.502,0.54 -0.871,0.548l-15.875,0.346l-0.362,132.274Zm81.969,0.276c-0.646,0.641 -1.536,1.038 -2.518,1.038l-62.724,-0c-1.974,-0 -3.577,-1.603 -3.577,-3.576l0,-40.607c0,-1.974 1.603,-3.576 3.577,-3.576l21.318,-0l-0.652,-34.131c0,-0 -0.828,-7.412 3.025,-10.385c3.853,-2.973 13.926,-9.57 13.926,-9.57c-0,0 2.353,-1.804 3.895,-5.558c1.294,-3.151 3.93,-2.293 4.744,-1.935c-0.043,-2.155 -0.088,-4.437 -0.088,-4.437c-0.751,0.555 -2.086,1.251 -3.857,0.998c-2.719,-0.389 -5.203,-2.965 -6.335,-4.928c-1.134,-1.965 -1.204,-5.674 -0.204,-7.995c0.046,-0.105 0.099,-0.21 0.16,-0.314c-0.769,-1.35 -4.218,-7.767 -3.226,-12.696c1.113,-5.538 6.687,-7.589 6.687,-7.589c0,-0 5.316,-16.947 24.034,-16.839c17.495,0.102 21.136,12.59 21.519,14.154c0.474,1.937 0.48,6.559 -0.074,8.492c-0.572,1.992 -2.154,3.929 -2.924,4.787c0.123,3.23 0.431,11.006 0.642,13.109c0.347,3.449 -1.243,9.913 -2.846,11.953c-1.609,2.048 -3.769,4.332 -9.839,5.037c-0.612,0.071 -1.243,0.111 -1.886,0.124c1.252,0.439 4.209,1.508 5.546,2.283c2.7,1.565 5.076,4.271 10.391,8.521c5.316,4.25 12.481,14.076 12.481,14.076c-2.866,2.702 -5.398,5.615 -7.677,8.689c6.348,-7.23 13.705,-13.611 21.09,-19.968c0.587,0.206 1.184,0.499 1.793,0.901l1.968,-1.542l0.824,-4.279c0.002,-0.008 0.003,-0.016 0.006,-0.024c-0,-0 0.273,-1.065 0.765,-2.123c0.346,-0.745 0.805,-1.479 1.337,-1.884c0.533,-0.404 1.366,-0.648 2.18,-0.781c0.906,-0.149 1.78,-0.167 2.116,-0.168l9.114,-7.117c0.002,-0.002 0.005,-0.004 0.007,-0.006c-0,0 1.078,-0.801 2.219,-1.121c0.871,-0.243 1.764,-0.196 2.355,0.489c0.583,0.675 0.599,1.506 0.381,2.265c-0.295,1.028 -1.018,1.902 -1.018,1.902c-0.007,0.008 -0.013,0.015 -0.021,0.023l-3.417,3.526c0.604,0.648 2.091,2.232 2.491,2.568c0.003,0.003 0.007,0.006 0.01,0.009c0.067,0.028 0.14,0.077 0.211,0.157c0.209,0.235 0.75,1.047 1.08,2.077c0.337,1.055 0.448,2.329 -0.179,3.452c-1.271,2.278 -5.162,7.694 -5.162,7.694c-0.011,0.015 -0.023,0.029 -0.036,0.043c-0,-0 -2.169,2.251 -4.985,1.688c-1.943,-0.388 -3.177,-0.622 -3.679,-0.715l-0.721,1.069c0.799,0.686 1.348,1.514 1.882,2.319c0,-0 -11.421,13.795 -15.892,18.61c-4.32,4.653 -8.335,8.955 -13.832,8.752c-5.497,-0.203 -6.614,-3.338 -6.614,-3.338c-0.497,0.142 -1.482,-19.535 -1.475,-18.272c0.032,5.952 0.424,9.701 0.781,18.341c0.185,4.498 0.436,10.416 0.494,12.34c0.297,9.81 7.117,27.798 7.117,27.798c0,0 0.835,0.258 -1.651,3.544c-2.485,3.286 -10.414,4.391 -10.414,4.391c0,-0 -3.495,-13.265 -4.74,-18.848c-1.244,-5.583 -5.571,-23.021 -6.099,-26.046c-0.528,-3.024 -0.578,-9.31 -0.578,-9.31l-0.65,-32.587l-0.422,0.844c-0.047,0.095 -0.15,0.15 -0.255,0.136c-0.106,-0.014 -0.191,-0.092 -0.213,-0.196c-0.028,-0.132 -0.057,-0.262 -0.087,-0.389c-0.278,1.785 -1.178,3.097 -1.416,3.418c0.518,16.95 1.566,32.927 3.994,46.375c0.007,0.039 0.004,0.08 -0.008,0.119l-2.499,8c-0.026,0.083 -0.093,0.147 -0.178,0.168c-0.085,0.021 -0.175,-0.004 -0.237,-0.066l-0.197,-0.197l0,6.792c0.261,0.005 0.51,0.009 0.745,0.01c2.268,0.015 4.235,-0.256 6.593,-0.759c0.363,1.534 0.792,3.225 1.007,4.188c1.245,5.583 4.984,18.848 4.984,18.848c-0,-0 5.586,-0.279 8.85,-2.472l2.375,11.265l-26.099,-0c0.235,-0.3 0.404,-0.653 0.487,-1.038Zm1.058,-37.541l0.258,0.258c0,0 2.358,-7.547 2.358,-7.547c-2.423,-13.446 -3.471,-29.413 -3.989,-46.351c-0.129,-0.074 -0.451,-0.227 -1.049,-0.343c-0.097,-0.008 -0.196,-0.014 -0.298,-0.017c-1.353,-0.043 -3.104,0.308 -3.667,0.43c-1.164,22.67 -1.456,41.947 -1.487,44.178l1.302,0.212l2.996,-0c1.974,-0 3.576,1.602 3.576,3.576l0,5.604Zm66.393,-59.921c0.077,0.02 0.134,0.017 0.157,0.014c0.097,-0.015 0.172,-0.059 0.23,-0.119c-0.085,0.087 -0.204,0.15 -0.373,0.11c-0.003,-0.001 -0.008,-0.003 -0.014,-0.005Zm-95.625,50.741l1.519,-0c0.145,-4.289 0.055,-8.537 -0.314,-12.717l-1.205,12.717Zm25.634,-54.513c-0.028,0.003 -0.057,0.007 -0.086,0.011c0.587,0.234 1.295,0.628 1.999,1.29c1.013,0.953 2.026,2.468 2.644,4.887l0.538,-1.075l-0.049,-2.457c-0.119,-1.547 -0.262,-3.403 -0.291,-3.786c-0.244,0.085 -0.521,0.167 -0.818,0.247c-1.011,0.354 -2.263,0.649 -3.818,0.866c-0.041,0.01 -0.081,0.02 -0.12,0.03c0,0 0,-0.005 0.001,-0.013Zm1.598,58.089c0,-0.87 -0.706,-1.576 -1.576,-1.576l-62.724,-0c-0.87,-0 -1.577,0.706 -1.577,1.576l0,40.607c0,0.87 0.707,1.576 1.577,1.576l62.724,-0c0.87,-0 1.576,-0.706 1.576,-1.576l0,-40.607Zm-32.938,11.819c4.682,0 8.484,3.802 8.484,8.484c-0,4.683 -3.802,8.484 -8.484,8.484c-4.683,0 -8.484,-3.801 -8.484,-8.484c-0,-4.682 3.801,-8.484 8.484,-8.484Zm-0,1.5c-3.855,0 -6.984,3.13 -6.984,6.984c-0,3.855 3.129,6.984 6.984,6.984c3.854,0 6.984,-3.129 6.984,-6.984c-0,-3.854 -3.13,-6.984 -6.984,-6.984Zm40.802,-51.52l3.387,5.883c0.078,0.242 0.601,1.961 0.034,3.481c-0.651,1.743 -4.588,13.845 -4.588,13.845c-0.055,0.17 0.038,0.354 0.209,0.409c0.17,0.056 0.354,-0.038 0.409,-0.208c0,-0 3.93,-12.079 4.579,-13.819c0.688,-1.844 -0.039,-3.949 -0.039,-3.949c-0.006,-0.019 -0.015,-0.037 -0.025,-0.055l-2.488,-4.323c0.479,-0.769 2.619,-4.248 3.188,-5.897c0.682,-1.979 -0.132,-3.596 -0.132,-3.596c-0.005,-0.01 -0.011,-0.019 -0.016,-0.029l-4.082,-6.475c-0.096,-0.151 -0.297,-0.197 -0.448,-0.101c-0.152,0.095 -0.198,0.296 -0.102,0.448l4.072,6.459c0.067,0.145 0.647,1.475 0.093,3.082c-0.5,1.45 -2.246,4.344 -2.935,5.46c-0,0 -0.522,-0.888 -0.554,-0.942l-0.001,-0.002c-0.091,-0.155 -0.289,-0.207 -0.444,-0.117c-0.154,0.09 -0.207,0.288 -0.118,0.443l0.001,0.003Zm-24.468,-20.752c3.805,5.03 7.166,7.165 8.153,7.873c1.159,-3.782 3.388,-6.013 4.408,-6.878c-7.461,-0.533 -11.805,-4.202 -13.168,-5.555l0.027,1.366l0.58,3.194Zm1.435,22.844l-0.459,1.786c-1.619,-0.892 -8.119,-4.475 -9.781,-5.425c-1.563,-0.895 -1.783,-2.127 -1.81,-2.349c-0,-0.002 3.272,-15.732 3.272,-15.732c0.036,-0.176 -0.077,-0.348 -0.252,-0.385c-0.176,-0.036 -0.348,0.077 -0.385,0.252l-3.281,15.778c-0.006,0.027 -0.008,0.055 -0.007,0.082c0,-0 0.057,1.726 2.141,2.918c1.726,0.987 8.667,4.812 9.952,5.52l-1.787,7.151c-0.104,0.198 -0.429,1.01 0.494,2.087c0.881,1.027 7.125,9.127 7.125,9.127c0.109,0.143 0.313,0.169 0.456,0.059c0.142,-0.109 0.168,-0.313 0.059,-0.455c-0,-0 -6.263,-8.124 -7.146,-9.154c-0.699,-0.814 -0.407,-1.372 -0.407,-1.372c0.018,-0.028 0.03,-0.059 0.039,-0.091l2.407,-9.637l0.001,-0.002c0.043,-0.174 -0.062,-0.35 -0.235,-0.394c-0.174,-0.044 -0.35,0.061 -0.395,0.234l-0.001,0.002Zm-26.868,-5.416c-0,0 10.401,2.01 13.375,17.877c0.033,0.176 0.203,0.293 0.379,0.259c0.177,-0.033 0.293,-0.203 0.26,-0.379c-3.071,-16.382 -13.893,-18.395 -13.893,-18.395c-0.176,-0.034 -0.347,0.082 -0.38,0.258c-0.033,0.177 0.083,0.347 0.259,0.38Zm34.344,37.949l1.316,-0c-0,-0.001 -0,-0.002 -0,-0.003c-0,-0 0.252,-20.316 1.493,-44.467c-1.227,-0.908 -2.592,-2.68 -2.975,-3.193c-0.068,0.207 -0.133,0.419 -0.194,0.636c-0.022,0.078 -0.082,0.14 -0.16,0.168c-0.078,0.029 -0.165,0.019 -0.234,-0.026c-0,-0 -3.441,-1.441 -7.631,-6.484l8.031,37.758l0.588,10.529l-0.234,5.082Zm64.298,-53.222c-0.238,-0.001 -1.128,0.006 -2.053,0.157c-0.678,0.111 -1.381,0.292 -1.825,0.629c-0.444,0.337 -0.807,0.963 -1.095,1.584c-0.432,0.929 -0.684,1.862 -0.714,1.974l-0.85,4.413c-0.018,0.095 -0.07,0.18 -0.146,0.239l-2.308,1.809c2.115,3.061 4.258,5.463 6.487,6.578l1.293,-1.914c0.089,-0.132 0.247,-0.198 0.403,-0.17c0,0 1.334,0.243 3.949,0.766c2.262,0.452 4.029,-1.236 4.232,-1.439c0.285,-0.397 3.887,-5.426 5.095,-7.592c0.512,-0.916 0.391,-1.957 0.116,-2.818c-0.277,-0.865 -0.716,-1.556 -0.904,-1.776c-0.047,-0.023 -0.098,-0.055 -0.15,-0.098c-0.405,-0.341 -1.899,-1.928 -2.533,-2.606l-3.274,3.377c-0.153,0.158 -0.407,0.162 -0.565,0.009c-0.159,-0.154 -0.163,-0.407 -0.009,-0.566c0.594,-0.613 2.076,-2.142 3.566,-3.679c1.826,-1.885 3.671,-3.788 3.672,-3.789c0.081,-0.101 0.623,-0.794 0.854,-1.599c0.146,-0.507 0.173,-1.07 -0.217,-1.521c-0.382,-0.442 -0.972,-0.399 -1.534,-0.241c-0.975,0.272 -1.896,0.946 -1.954,0.989l-8.932,6.976l2.414,2.558c0.008,0.009 0.016,0.018 0.023,0.027c0,-0 0.299,0.392 0.47,0.941c0.18,0.579 0.216,1.321 -0.318,1.98c-0.307,0.38 -0.839,0.651 -1.443,0.825c-1.288,0.372 -2.901,0.332 -2.901,0.332c-0.179,-0.005 -0.321,-0.154 -0.316,-0.333c0.004,-0.179 0.154,-0.321 0.333,-0.317c-0,0 1.108,0.029 2.184,-0.182c0.66,-0.13 1.316,-0.335 1.638,-0.733c0.371,-0.459 0.327,-0.977 0.202,-1.379c-0.118,-0.381 -0.313,-0.666 -0.358,-0.73l-2.532,-2.681Zm-57.842,-1.848c0.118,-0.084 0.274,-0.16 0.482,-0.213c1.088,-0.28 2.216,-0.622 3.384,-1.024c-0,-0 -0.032,-1.419 -0.032,-1.419c-5.428,-0.152 -11.42,-2.159 -13.925,-4.845c-1.247,-1.337 -2.34,-3.049 -3.251,-4.841c-0.1,-0.196 -0.022,-0.437 0.175,-0.537c0.197,-0.1 0.438,-0.022 0.538,0.175c0.876,1.723 1.923,3.372 3.123,4.658c2.458,2.635 8.438,4.536 13.736,4.597c0.011,0 0.023,0.001 0.034,0.002c0.852,0.008 1.686,-0.032 2.485,-0.125c5.734,-0.665 7.783,-2.802 9.303,-4.736c1.525,-1.941 3.009,-8.098 2.679,-11.379c-0.165,-1.643 -0.389,-6.736 -0.539,-10.441c-0.011,0.008 -0.022,0.016 -0.034,0.024c-0.231,0.151 -0.541,0.085 -0.692,-0.146c0,-0 -0.406,-0.622 -1.025,-1.117c-0.369,-0.294 -0.815,-0.555 -1.303,-0.548c-0.523,0.007 -1.056,0.34 -1.595,1.165c-0.151,0.232 -0.461,0.297 -0.692,0.146c-0.231,-0.151 -0.296,-0.461 -0.146,-0.692c0.794,-1.216 1.65,-1.609 2.42,-1.619c0.72,-0.009 1.396,0.332 1.94,0.767c0.506,0.404 0.894,0.879 1.092,1.145c-0.069,-1.748 -0.116,-3.037 -0.123,-3.238l-0.715,-4.123c-0.329,-1.17 -0.844,-2.892 -1.15,-3.733c-0.602,-1.654 -2.469,-4.458 -4.239,-4.395c-1.77,0.063 -3.934,2.257 -6.793,2.527c-2.86,0.269 -7.524,-0.972 -9.278,-1.047c-1.754,-0.076 -3.17,1.04 -5.715,4.369c-2.545,3.329 -2.073,8.172 -1.889,9.52c0.185,1.348 0.012,6.838 0.024,6.317c0.005,-0.279 -0.551,2.744 -1.875,4.028c-0.948,0.918 -2.776,0.213 -2.83,0.138c-1.298,-1.814 -2.786,-4.037 -5.234,-4.506c-1.327,-0.254 -2.491,0.263 -3.364,0.878c-0.688,0.536 -1.275,1.117 -1.532,1.714c-0.91,2.112 -0.87,5.489 0.162,7.278c1.033,1.792 3.273,4.181 5.755,4.536c2.375,0.339 3.823,-1.339 3.823,-1.339c0.108,-0.125 0.283,-0.172 0.439,-0.116c0.156,0.056 0.262,0.203 0.265,0.369l0.103,5.189c0.409,0.555 4.97,6.464 13.896,6.864c0.043,0.002 0.084,0.015 0.12,0.035c0.03,-0.018 0.066,-0.03 0.103,-0.034c0.678,-0.064 1.307,-0.14 1.89,-0.228Zm15.505,-28.87c0.552,0 1,1.2 1,2.678c-0,1.477 -0.448,2.677 -1,2.677c-0.552,-0 -1,-1.2 -1,-2.677c-0,-1.478 0.448,-2.678 1,-2.678Zm0.686,3.581c-0.088,0.684 -0.35,1.181 -0.659,1.181c-0.381,0 -0.691,-0.757 -0.691,-1.689c0,-0.094 0.003,-0.186 0.009,-0.276c-0.02,0.16 -0.032,0.331 -0.032,0.507c0,0.933 0.31,1.69 0.691,1.69c0.343,-0 0.628,-0.612 0.682,-1.413Zm-0.005,-1.477c0.002,-0.034 0.003,-0.069 0.003,-0.104c0,-0.353 -0.115,-0.638 -0.257,-0.638c-0.115,-0 -0.212,0.187 -0.245,0.446c-0.002,0.034 -0.003,0.069 -0.003,0.104c-0,0.352 0.115,0.638 0.257,0.638c0.115,0 0.212,-0.187 0.245,-0.446Zm-17.885,-3.307c-0.248,0.249 -0.652,0.251 -0.902,0.003c-0.25,-0.248 -0.251,-0.653 -0.003,-0.902c0,-0 4.36,-4.325 8.166,-0.501c0.248,0.25 0.247,0.654 -0.002,0.902c-0.25,0.248 -0.654,0.247 -0.902,-0.002c-2.966,-2.98 -6.357,0.5 -6.357,0.5Zm4.059,1.203c0.966,0 1.75,1.31 1.75,2.924c-0,1.613 -0.784,2.923 -1.75,2.923c-0.966,0 -1.75,-1.31 -1.75,-2.923c-0,-1.614 0.784,-2.924 1.75,-2.924Zm1.281,3.677c-0.165,0.874 -0.654,1.507 -1.23,1.507c-0.712,0 -1.29,-0.965 -1.29,-2.154c-0,-0.12 0.006,-0.238 0.017,-0.352c-0.038,0.204 -0.059,0.421 -0.059,0.647c-0,1.189 0.578,2.154 1.289,2.154c0.64,0 1.172,-0.78 1.273,-1.802Zm-0.01,-1.883c0.004,-0.043 0.006,-0.088 0.006,-0.133c0,-0.449 -0.215,-0.814 -0.479,-0.814c-0.215,0 -0.396,0.24 -0.457,0.569c-0.005,0.044 -0.007,0.088 -0.007,0.133c0,0.45 0.215,0.814 0.479,0.814c0.215,0 0.396,-0.239 0.458,-0.569Zm2.708,12.801c0.347,0.172 3.367,1.639 5.219,1.643c1.534,0.003 2.431,-0.7 2.847,-1.279c0.113,-0.157 0.2,-0.36 0.23,-0.434c-0.026,-0.177 0.045,-0.361 0.199,-0.474c0.223,-0.163 0.536,-0.115 0.699,0.108c0.068,0.093 0.155,0.304 0.077,0.606c-0.112,0.431 -0.641,1.375 -1.795,1.965c-0.582,0.298 -1.327,0.51 -2.259,0.508c-1.952,-0.005 -4.645,-1.103 -5.589,-1.68c-0.302,-0.184 -0.464,-0.369 -0.511,-0.465c-0.083,-0.171 -0.067,-0.32 -0.02,-0.44c0.101,-0.256 0.392,-0.382 0.648,-0.281c0.113,0.044 0.2,0.125 0.255,0.223Zm-2.935,20.11c-1.444,-4.216 -4.219,-4.954 -5.041,-5.082l-0.498,0.045c-0.625,0.477 -2.953,2.436 -4.304,6.086c0.045,0.017 0.087,0.047 0.118,0.089c-0,0 1.586,2.209 2.984,3.235c0.541,-0.127 2.884,-0.65 3.985,-0.478c0.086,0.013 0.167,0.027 0.245,0.042c0.314,0.029 0.598,0.083 0.833,0.169c0.128,0.047 0.243,0.103 0.342,0.169c0.379,-0.552 1.328,-2.138 1.292,-4.128c-0.001,-0.055 0.015,-0.105 0.044,-0.147Zm118.763,8.265c-4.856,3.485 -38.07,26.965 -45.087,31.643c-0.391,0.261 -0.88,0.371 -1.387,0.342c-0.668,-0.039 -1.364,-0.323 -1.837,-0.72c-0.45,-0.377 -1.231,-1.299 -1.997,-2.272c-0.602,-0.765 -1.027,-1.291 -1.436,-1.843c-0.019,-0.009 -0.127,-0.06 -0.197,-0.075c-0.211,-0.043 -0.466,-0.04 -0.629,0.074c-6.579,4.615 -35.185,24.766 -42.363,29.823c-0.199,0.141 -0.455,0.176 -0.685,0.093c-0.23,-0.082 -0.405,-0.272 -0.47,-0.507c-1.166,-4.244 -2.172,-8.731 -2.475,-12.385c-0.022,-0.263 0.097,-0.519 0.313,-0.673c9.927,-7.068 40.978,-29.152 48.455,-34.182c0.365,-0.246 0.82,-0.348 1.295,-0.317c0.605,0.041 1.239,0.303 1.676,0.657c0.579,0.469 1.779,1.93 2.658,3.054c0.158,0.203 0.424,0.269 0.688,0.279c0.328,0.014 0.669,-0.069 0.915,-0.23c5.45,-3.566 28.083,-19.868 33.397,-23.7c0.146,-0.105 0.244,-0.216 0.253,-0.346c0.01,-0.132 -0.064,-0.258 -0.169,-0.375c-0.679,-0.753 -1.537,-1.705 -1.856,-2.058c-0.373,-0.411 -0.427,-0.852 -0.335,-1.177c0.106,-0.371 0.413,-0.727 1.031,-0.793c2.943,-0.313 16.319,-2.602 21.997,-3.328c1.033,-0.132 1.683,0.171 2.004,0.586c0.347,0.447 0.434,1.146 0,1.997c-2.479,4.868 -8.345,16.839 -9.645,19.458c-0.193,0.389 -0.666,0.709 -1.174,0.658c-0.302,-0.03 -0.647,-0.176 -0.92,-0.597c-0.596,-0.917 -1.597,-2.456 -2.02,-3.086Zm3.015,1.865c1.67,-3.379 7.058,-14.366 9.408,-18.979c0.07,-0.137 0.112,-0.319 0.127,-0.393c-0.039,-0.013 -0.1,-0.03 -0.148,-0.035c-0.131,-0.014 -0.283,-0.008 -0.456,0.014c-5.336,0.682 -17.457,2.741 -21.367,3.252c0.405,0.449 0.974,1.081 1.453,1.612c0.406,0.451 0.59,0.981 0.551,1.493c-0.039,0.514 -0.297,1.034 -0.871,1.448c-5.324,3.839 -27.995,20.167 -33.454,23.739c-0.581,0.381 -1.43,0.565 -2.185,0.433c-0.564,-0.099 -1.073,-0.368 -1.421,-0.813c-0.805,-1.03 -1.889,-2.383 -2.42,-2.813c-0.183,-0.147 -0.435,-0.261 -0.689,-0.307c-0.179,-0.032 -0.364,-0.046 -0.501,0.046c-7.386,4.97 -37.792,26.592 -48.072,33.911c0.307,3.193 1.133,6.982 2.11,10.656c8.375,-5.901 35.151,-24.762 41.489,-29.208c0.469,-0.329 1.187,-0.44 1.793,-0.315c0.472,0.098 0.866,0.336 1.09,0.639c0.404,0.546 0.824,1.064 1.419,1.82c0.688,0.874 1.378,1.712 1.781,2.05c0.207,0.174 0.497,0.301 0.79,0.352c0.228,0.04 0.464,0.045 0.639,-0.072c7.06,-4.707 40.67,-28.47 45.144,-31.685c0.775,-0.558 1.556,-0.228 1.921,0.307c0.307,0.449 1.212,1.837 1.869,2.848Zm-29.357,75.254c0,-0.369 0.12,-0.693 0.293,-0.896c0.143,-0.167 0.324,-0.258 0.515,-0.258l0.272,-0c-0.459,-0.152 -0.792,-0.586 -0.792,-1.096l0,-2.945c0,-0.369 0.12,-0.694 0.293,-0.896c0.143,-0.168 0.324,-0.258 0.515,-0.258l0.312,-0c-0.48,-0.14 -0.831,-0.584 -0.831,-1.109l-0,-2.945c-0,-0.368 0.119,-0.693 0.292,-0.896c0.11,-0.127 0.241,-0.21 0.381,-0.243c-0.545,-0.091 -0.962,-0.566 -0.962,-1.138l0,-2.945c0,-0.369 0.12,-0.693 0.293,-0.896c0.143,-0.167 0.324,-0.258 0.515,-0.258l0.244,-0c-0.445,-0.16 -0.763,-0.587 -0.763,-1.087l-0,-2.944c-0,-0.369 0.119,-0.694 0.292,-0.897c0.144,-0.167 0.325,-0.258 0.516,-0.258l0.346,0c-0.498,-0.128 -0.866,-0.58 -0.866,-1.117l-0,-2.945c-0,-0.369 0.119,-0.694 0.293,-0.896c0.103,-0.121 0.225,-0.201 0.357,-0.237c-0.534,-0.102 -0.938,-0.571 -0.938,-1.134l-0,-2.945c-0,-0.369 0.119,-0.693 0.292,-0.896c0.144,-0.168 0.325,-0.258 0.516,-0.258l0.346,-0c-0,-0 1.785,-0 1.787,-0c0,-0 2.629,-0 2.631,-0c0,-0 2.691,-0 2.693,-0c0,-0 2.818,-0 2.821,-0c-0,-0 2.771,-0 2.773,-0c-0,-0 2.585,-0 2.588,-0l1.338,-0l0.346,-0c0.191,-0 0.372,0.09 0.515,0.258c0.174,0.203 0.293,0.527 0.293,0.896l0,2.945c0,0.53 -0.359,0.978 -0.846,1.113l0.326,-0c0.191,-0 0.372,0.09 0.516,0.258c0.173,0.202 0.292,0.527 0.292,0.896l0,2.945c0,0.567 -0.409,1.039 -0.949,1.136c0.136,0.034 0.262,0.116 0.368,0.239c0.174,0.203 0.293,0.528 0.293,0.897l0,2.944c0,0.546 -0.379,1.004 -0.888,1.124c0.112,0.041 0.217,0.116 0.307,0.221c0.173,0.203 0.293,0.527 0.293,0.896l-0,2.945c-0,0.545 -0.379,1.002 -0.887,1.123l0.367,0c0.191,0 0.372,0.091 0.515,0.258c0.174,0.203 0.293,0.528 0.293,0.896l0,2.945c0,0.56 -0.399,1.027 -0.929,1.132c0.128,0.037 0.247,0.117 0.348,0.235c0.173,0.202 0.293,0.527 0.293,0.896l-0,2.945c-0,0.551 -0.388,1.013 -0.905,1.127c0.119,0.04 0.229,0.117 0.324,0.227c0.173,0.203 0.293,0.527 0.293,0.896l-0,2.945c-0,0.535 -0.365,0.985 -0.858,1.116l0.28,-0l0.346,-0c0.191,-0 0.372,0.09 0.515,0.258c0.174,0.202 0.293,0.527 0.293,0.896l0,2.945c0,0.637 -0.517,1.154 -1.154,1.154l-16.631,0c-0.637,0 -1.154,-0.517 -1.154,-1.154l-0,-2.945c-0,-0.369 0.119,-0.694 0.292,-0.896c0.089,-0.104 0.193,-0.178 0.304,-0.22l-0.019,0c-0.637,0 -1.154,-0.517 -1.154,-1.154l0,-2.945Zm0.45,0.828l0,2.117c0,0.389 0.316,0.704 0.704,0.704l16.631,0c0.389,0 0.705,-0.315 0.705,-0.704l-0,-2.117l-1.847,-0l-0.033,2.24c-0.001,0.124 -0.104,0.223 -0.228,0.221c-0.124,-0.002 -0.223,-0.104 -0.221,-0.228l0.032,-2.233l-2.138,-0l-0.032,2.24c-0.002,0.124 -0.104,0.223 -0.229,0.221c-0.124,-0.002 -0.223,-0.104 -0.221,-0.228l0.032,-2.233l-2.323,-0l-0.033,2.24c-0.002,0.124 -0.104,0.223 -0.228,0.221c-0.124,-0.002 -0.224,-0.104 -0.222,-0.228l0.033,-2.233l-2.37,-0l-0.033,2.24c-0.002,0.124 -0.104,0.223 -0.228,0.221c-0.124,-0.002 -0.224,-0.104 -0.222,-0.228l0.033,-2.233l-2.243,-0l-0.033,2.24c-0.002,0.124 -0.104,0.223 -0.228,0.221c-0.125,-0.002 -0.224,-0.104 -0.222,-0.228l0.033,-2.233l-2.181,-0l-0.033,2.24c-0.002,0.124 -0.104,0.223 -0.228,0.221c-0.124,-0.002 -0.224,-0.104 -0.222,-0.228l0.033,-2.233l-2.238,-0Zm0.577,5.215l-0,2.117c-0,0.389 0.315,0.704 0.704,0.704l16.631,0c0.389,0 0.704,-0.315 0.704,-0.704l0,-2.117l-1.846,-0l-0.033,2.24c-0.002,0.124 -0.104,0.223 -0.228,0.221c-0.124,-0.002 -0.224,-0.104 -0.222,-0.228l0.033,-2.233l-2.138,-0l-0.033,2.24c-0.002,0.124 -0.104,0.223 -0.228,0.221c-0.124,-0.002 -0.224,-0.104 -0.222,-0.228l0.033,-2.233l-2.323,-0l-0.033,2.24c-0.002,0.124 -0.104,0.223 -0.228,0.221c-0.125,-0.002 -0.224,-0.104 -0.222,-0.228l0.032,-2.233l-2.37,-0l-0.032,2.24c-0.002,0.124 -0.104,0.223 -0.229,0.221c-0.124,-0.002 -0.223,-0.104 -0.221,-0.228l0.032,-2.233l-2.243,-0l-0.033,2.24c-0.001,0.124 -0.104,0.223 -0.228,0.221c-0.124,-0.002 -0.223,-0.104 -0.222,-0.228l0.033,-2.233l-2.181,-0l-0.032,2.24c-0.002,0.124 -0.104,0.223 -0.229,0.221c-0.124,-0.002 -0.223,-0.104 -0.221,-0.228l0.032,-2.233l-2.237,-0Zm-0,-36.454l-0,2.117c-0,0.389 0.315,0.704 0.704,0.704l16.631,0c0.389,0 0.704,-0.315 0.704,-0.704l0,-2.117l-1.846,-0l-0.033,2.24c-0.002,0.124 -0.104,0.223 -0.228,0.221c-0.124,-0.002 -0.224,-0.104 -0.222,-0.228l0.033,-2.233l-2.138,-0l-0.033,2.24c-0.002,0.124 -0.104,0.223 -0.228,0.221c-0.124,-0.002 -0.224,-0.104 -0.222,-0.228l0.033,-2.233l-2.323,-0l-0.033,2.24c-0.002,0.124 -0.104,0.223 -0.228,0.221c-0.125,-0.002 -0.224,-0.104 -0.222,-0.228l0.032,-2.233l-2.37,-0l-0.032,2.24c-0.002,0.124 -0.104,0.223 -0.229,0.221c-0.124,-0.002 -0.223,-0.104 -0.221,-0.228l0.032,-2.233l-2.243,-0l-0.033,2.24c-0.001,0.124 -0.104,0.223 -0.228,0.221c-0.124,-0.002 -0.223,-0.104 -0.222,-0.228l0.033,-2.233l-2.181,-0l-0.032,2.24c-0.002,0.124 -0.104,0.223 -0.229,0.221c-0.124,-0.002 -0.223,-0.104 -0.221,-0.228l0.032,-2.233l-2.237,-0Zm-0.289,15.614l0,2.117c0,0.389 0.316,0.704 0.705,0.704l16.631,0c0.388,0 0.704,-0.315 0.704,-0.704l-0,-2.117l-1.847,-0l-0.032,2.24c-0.002,0.124 -0.104,0.223 -0.229,0.221c-0.124,-0.002 -0.223,-0.104 -0.221,-0.228l0.032,-2.233l-2.137,-0l-0.033,2.24c-0.002,0.124 -0.104,0.223 -0.228,0.221c-0.124,-0.002 -0.224,-0.104 -0.222,-0.228l0.033,-2.233l-2.324,-0l-0.032,2.24c-0.002,0.124 -0.105,0.223 -0.229,0.221c-0.124,-0.002 -0.223,-0.104 -0.221,-0.228l0.032,-2.233l-2.37,-0l-0.033,2.24c-0.001,0.124 -0.104,0.223 -0.228,0.221c-0.124,-0.002 -0.223,-0.104 -0.222,-0.228l0.033,-2.233l-2.243,-0l-0.033,2.24c-0.002,0.124 -0.104,0.223 -0.228,0.221c-0.124,-0.002 -0.224,-0.104 -0.222,-0.228l0.033,-2.233l-2.181,-0l-0.033,2.24c-0.001,0.124 -0.104,0.223 -0.228,0.221c-0.124,-0.002 -0.223,-0.104 -0.222,-0.228l0.033,-2.233l-2.238,-0Zm0.577,-10.402l-0,2.117c-0,0.388 0.315,0.704 0.704,0.704l16.631,-0c0.389,-0 0.704,-0.316 0.704,-0.704l0,-2.117l-1.846,-0l-0.033,2.239c-0.002,0.125 -0.104,0.224 -0.228,0.222c-0.124,-0.002 -0.224,-0.104 -0.222,-0.228l0.033,-2.233l-2.138,-0l-0.032,2.239c-0.002,0.125 -0.105,0.224 -0.229,0.222c-0.124,-0.002 -0.223,-0.104 -0.221,-0.228l0.032,-2.233l-2.323,-0l-0.033,2.239c-0.002,0.125 -0.104,0.224 -0.228,0.222c-0.124,-0.002 -0.224,-0.104 -0.222,-0.228l0.033,-2.233l-2.37,-0l-0.033,2.239c-0.002,0.125 -0.104,0.224 -0.228,0.222c-0.124,-0.002 -0.224,-0.104 -0.222,-0.228l0.033,-2.233l-2.244,-0l-0.032,2.239c-0.002,0.125 -0.104,0.224 -0.229,0.222c-0.124,-0.002 -0.223,-0.104 -0.221,-0.228l0.032,-2.233l-2.18,-0l-0.033,2.239c-0.002,0.125 -0.104,0.224 -0.228,0.222c-0.124,-0.002 -0.224,-0.104 -0.222,-0.228l0.033,-2.233l-2.238,-0Zm-0.288,5.216l-0,2.117c-0,0.389 0.315,0.705 0.704,0.705l16.631,-0c0.389,-0 0.704,-0.316 0.704,-0.705l0,-2.117l-1.846,0l-0.033,2.24c-0.002,0.124 -0.104,0.224 -0.228,0.222c-0.124,-0.002 -0.224,-0.104 -0.222,-0.229l0.033,-2.233l-2.138,0l-0.033,2.24c-0.002,0.124 -0.104,0.224 -0.228,0.222c-0.124,-0.002 -0.224,-0.104 -0.222,-0.229l0.033,-2.233l-2.323,0l-0.033,2.24c-0.002,0.124 -0.104,0.224 -0.228,0.222c-0.125,-0.002 -0.224,-0.104 -0.222,-0.229l0.032,-2.233l-2.37,0l-0.032,2.24c-0.002,0.124 -0.104,0.224 -0.229,0.222c-0.124,-0.002 -0.223,-0.104 -0.221,-0.229l0.032,-2.233l-2.243,0l-0.033,2.24c-0.001,0.124 -0.104,0.224 -0.228,0.222c-0.124,-0.002 -0.223,-0.104 -0.222,-0.229l0.033,-2.233l-2.181,0l-0.032,2.24c-0.002,0.124 -0.104,0.224 -0.229,0.222c-0.124,-0.002 -0.223,-0.104 -0.221,-0.229l0.032,-2.233l-2.237,0Zm-0,10.408l-0,2.117c-0,0.389 0.315,0.704 0.704,0.704l16.631,0c0.389,0 0.704,-0.315 0.704,-0.704l0,-2.117l-1.846,0l-0.033,2.24c-0.002,0.124 -0.104,0.223 -0.228,0.221c-0.124,-0.001 -0.224,-0.104 -0.222,-0.228l0.033,-2.233l-2.138,0l-0.033,2.24c-0.002,0.124 -0.104,0.223 -0.228,0.221c-0.124,-0.001 -0.224,-0.104 -0.222,-0.228l0.033,-2.233l-2.323,0l-0.033,2.24c-0.002,0.124 -0.104,0.223 -0.228,0.221c-0.125,-0.001 -0.224,-0.104 -0.222,-0.228l0.032,-2.233l-2.37,0l-0.032,2.24c-0.002,0.124 -0.104,0.223 -0.229,0.221c-0.124,-0.001 -0.223,-0.104 -0.221,-0.228l0.032,-2.233l-2.243,0l-0.033,2.24c-0.001,0.124 -0.104,0.223 -0.228,0.221c-0.124,-0.001 -0.223,-0.104 -0.222,-0.228l0.033,-2.233l-2.181,0l-0.032,2.24c-0.002,0.124 -0.104,0.223 -0.229,0.221c-0.124,-0.001 -0.223,-0.104 -0.221,-0.228l0.032,-2.233l-2.237,0Zm-0.289,5.208l0,2.117c0,0.388 0.316,0.704 0.705,0.704l16.631,-0c0.388,-0 0.704,-0.316 0.704,-0.704l-0,-2.117l-1.847,-0l-0.032,2.239c-0.002,0.124 -0.104,0.224 -0.229,0.222c-0.124,-0.002 -0.223,-0.104 -0.221,-0.228l0.032,-2.233l-2.137,-0l-0.033,2.239c-0.002,0.124 -0.104,0.224 -0.228,0.222c-0.124,-0.002 -0.224,-0.104 -0.222,-0.228l0.033,-2.233l-2.324,-0l-0.032,2.239c-0.002,0.124 -0.105,0.224 -0.229,0.222c-0.124,-0.002 -0.223,-0.104 -0.221,-0.228l0.032,-2.233l-2.37,-0l-0.033,2.239c-0.001,0.124 -0.104,0.224 -0.228,0.222c-0.124,-0.002 -0.223,-0.104 -0.222,-0.228l0.033,-2.233l-2.243,-0l-0.033,2.239c-0.002,0.124 -0.104,0.224 -0.228,0.222c-0.124,-0.002 -0.224,-0.104 -0.222,-0.228l0.033,-2.233l-2.181,-0l-0.033,2.239c-0.001,0.124 -0.104,0.224 -0.228,0.222c-0.124,-0.002 -0.223,-0.104 -0.222,-0.228l0.033,-2.233l-2.238,-0Zm-0.958,-47.777c-0,-0.369 0.119,-0.694 0.293,-0.896c0.143,-0.168 0.324,-0.258 0.515,-0.258l0.346,-0c0,-0 1.785,-0 1.788,-0c-0,-0 2.628,-0 2.63,-0c0,-0 2.691,-0 2.694,-0c-0,-0 2.817,-0 2.82,-0c-0,-0 2.771,-0 2.773,-0c0,-0 2.586,-0 2.588,-0l1.338,-0l0.346,-0c0.191,-0 0.372,0.09 0.516,0.258c0.173,0.202 0.292,0.527 0.292,0.896l0,2.945c0,0.53 -0.358,0.978 -0.846,1.112l0.289,0c0.191,0 0.372,0.091 0.515,0.258c0.174,0.203 0.293,0.528 0.293,0.897l0,2.944c0,0.521 -0.345,0.962 -0.819,1.105l0.557,0c0.191,0 0.372,0.091 0.515,0.258c0.174,0.203 0.293,0.528 0.293,0.897l0,2.944c0,0.531 -0.359,0.978 -0.846,1.113l0.326,0c0.191,0 0.372,0.091 0.516,0.258c0.173,0.203 0.292,0.528 0.292,0.896l0,2.945c0,0.637 -0.517,1.154 -1.154,1.154l-16.631,0c-0.637,0 -1.154,-0.517 -1.154,-1.154l-0,-2.945c-0,-0.368 0.119,-0.693 0.293,-0.896c0.103,-0.12 0.225,-0.201 0.357,-0.237c-0.534,-0.101 -0.938,-0.57 -0.938,-1.134l-0,-2.944c-0,-0.369 0.119,-0.694 0.292,-0.897c0.082,-0.095 0.177,-0.166 0.278,-0.209c-0.62,-0.02 -1.117,-0.529 -1.117,-1.154l0,-2.944c0,-0.369 0.12,-0.694 0.293,-0.897c0.108,-0.125 0.236,-0.207 0.374,-0.241c-0.524,-0.109 -0.917,-0.574 -0.917,-1.129l-0,-2.945Zm0.45,0.828l-0,2.117c-0,0.388 0.315,0.704 0.704,0.704l16.631,-0c0.389,-0 0.704,-0.316 0.704,-0.704l0,-2.117l-1.846,-0l-0.033,2.239c-0.002,0.124 -0.104,0.224 -0.228,0.222c-0.124,-0.002 -0.224,-0.104 -0.222,-0.228l0.033,-2.233l-2.138,-0l-0.033,2.239c-0.001,0.124 -0.104,0.224 -0.228,0.222c-0.124,-0.002 -0.223,-0.104 -0.221,-0.228l0.032,-2.233l-2.323,-0l-0.033,2.239c-0.002,0.124 -0.104,0.224 -0.228,0.222c-0.124,-0.002 -0.224,-0.104 -0.222,-0.228l0.033,-2.233l-2.37,-0l-0.033,2.239c-0.002,0.124 -0.104,0.224 -0.228,0.222c-0.125,-0.002 -0.224,-0.104 -0.222,-0.228l0.033,-2.233l-2.244,-0l-0.032,2.239c-0.002,0.124 -0.104,0.224 -0.229,0.222c-0.124,-0.002 -0.223,-0.104 -0.221,-0.228l0.032,-2.233l-2.18,-0l-0.033,2.239c-0.002,0.124 -0.104,0.224 -0.228,0.222c-0.125,-0.002 -0.224,-0.104 -0.222,-0.228l0.033,-2.233l-2.238,-0Zm0.797,10.415l-0,2.117c-0,0.389 0.315,0.705 0.704,0.705l16.631,-0c0.389,-0 0.704,-0.316 0.704,-0.705l0,-2.117l-1.846,0l-0.033,2.24c-0.002,0.124 -0.104,0.224 -0.228,0.222c-0.124,-0.002 -0.224,-0.104 -0.222,-0.229l0.033,-2.233l-2.138,0l-0.033,2.24c-0.002,0.124 -0.104,0.224 -0.228,0.222c-0.124,-0.002 -0.224,-0.104 -0.222,-0.229l0.033,-2.233l-2.323,0l-0.033,2.24c-0.002,0.124 -0.104,0.224 -0.228,0.222c-0.125,-0.002 -0.224,-0.104 -0.222,-0.229l0.032,-2.233l-2.37,0l-0.032,2.24c-0.002,0.124 -0.104,0.224 -0.229,0.222c-0.124,-0.002 -0.223,-0.104 -0.221,-0.229l0.032,-2.233l-2.243,0l-0.033,2.24c-0.001,0.124 -0.104,0.224 -0.228,0.222c-0.124,-0.002 -0.223,-0.104 -0.222,-0.229l0.033,-2.233l-2.181,0l-0.032,2.24c-0.002,0.124 -0.104,0.224 -0.229,0.222c-0.124,-0.002 -0.223,-0.104 -0.221,-0.229l0.032,-2.233l-2.237,0Zm0.288,5.212l-0,2.117c-0,0.389 0.315,0.704 0.704,0.704l16.631,0c0.389,0 0.704,-0.315 0.704,-0.704l0,-2.117l-1.846,0l-0.033,2.24c-0.002,0.124 -0.104,0.223 -0.228,0.222c-0.124,-0.002 -0.224,-0.105 -0.222,-0.229l0.033,-2.233l-2.138,0l-0.032,2.24c-0.002,0.124 -0.105,0.223 -0.229,0.222c-0.124,-0.002 -0.223,-0.105 -0.221,-0.229l0.032,-2.233l-2.323,0l-0.033,2.24c-0.002,0.124 -0.104,0.223 -0.228,0.222c-0.124,-0.002 -0.224,-0.105 -0.222,-0.229l0.033,-2.233l-2.37,0l-0.033,2.24c-0.002,0.124 -0.104,0.223 -0.228,0.222c-0.124,-0.002 -0.224,-0.105 -0.222,-0.229l0.033,-2.233l-2.244,0l-0.032,2.24c-0.002,0.124 -0.104,0.223 -0.229,0.222c-0.124,-0.002 -0.223,-0.105 -0.221,-0.229l0.032,-2.233l-2.18,0l-0.033,2.24c-0.002,0.124 -0.104,0.223 -0.228,0.222c-0.124,-0.002 -0.224,-0.105 -0.222,-0.229l0.033,-2.233l-2.238,0Zm-0.835,-10.416l0,2.117c0,0.389 0.316,0.705 0.705,0.705l16.631,-0c0.389,-0 0.704,-0.316 0.704,-0.705l0,-2.117l-1.846,0l-0.033,2.24c-0.002,0.124 -0.104,0.224 -0.228,0.222c-0.125,-0.002 -0.224,-0.104 -0.222,-0.228l0.033,-2.234l-2.138,0l-0.033,2.24c-0.002,0.124 -0.104,0.224 -0.228,0.222c-0.124,-0.002 -0.224,-0.104 -0.222,-0.228l0.033,-2.234l-2.324,0l-0.032,2.24c-0.002,0.124 -0.104,0.224 -0.229,0.222c-0.124,-0.002 -0.223,-0.104 -0.221,-0.228l0.032,-2.234l-2.37,0l-0.032,2.24c-0.002,0.124 -0.104,0.224 -0.229,0.222c-0.124,-0.002 -0.223,-0.104 -0.221,-0.228l0.032,-2.234l-2.243,0l-0.033,2.24c-0.002,0.124 -0.104,0.224 -0.228,0.222c-0.124,-0.002 -0.223,-0.104 -0.222,-0.228l0.033,-2.234l-2.181,0l-0.032,2.24c-0.002,0.124 -0.104,0.224 -0.229,0.222c-0.124,-0.002 -0.223,-0.104 -0.221,-0.228l0.032,-2.234l-2.238,0Zm20.034,46.105c-0,-0.369 0.119,-0.693 0.292,-0.896c0.144,-0.167 0.325,-0.258 0.516,-0.258l0.272,-0c-0.46,-0.152 -0.792,-0.586 -0.792,-1.096l-0,-2.945c-0,-0.369 0.119,-0.694 0.293,-0.896c0.143,-0.168 0.324,-0.258 0.515,-0.258l0.312,-0c-0.481,-0.14 -0.832,-0.584 -0.832,-1.109l0,-2.945c0,-0.368 0.12,-0.693 0.293,-0.896c0.109,-0.127 0.24,-0.21 0.381,-0.243c-0.546,-0.091 -0.962,-0.566 -0.962,-1.138l-0,-2.945c-0,-0.369 0.119,-0.693 0.293,-0.896c0.143,-0.167 0.324,-0.258 0.515,-0.258l0.244,-0c-0.445,-0.16 -0.764,-0.587 -0.764,-1.087l0,-2.944c0,-0.369 0.12,-0.694 0.293,-0.897c0.143,-0.167 0.324,-0.258 0.515,-0.258l0.346,0c-0.497,-0.128 -0.866,-0.58 -0.866,-1.117l0,-2.945c0,-0.369 0.12,-0.694 0.293,-0.896c0.103,-0.121 0.225,-0.201 0.357,-0.237c-0.534,-0.102 -0.938,-0.571 -0.938,-1.134l0,-2.945c0,-0.369 0.12,-0.693 0.293,-0.896c0.143,-0.168 0.324,-0.258 0.515,-0.258l0.346,-0c0,-0 1.786,-0 1.788,-0c-0,-0 2.628,-0 2.631,-0c-0,-0 2.691,-0 2.693,-0c-0,-0 2.818,-0 2.82,-0c0,-0 2.771,-0 2.773,-0c0,-0 2.586,-0 2.588,-0l1.338,-0l0.347,-0c0.191,-0 0.372,0.09 0.515,0.258c0.173,0.203 0.293,0.527 0.293,0.896l-0,2.945c-0,0.53 -0.359,0.978 -0.847,1.113l0.327,-0c0.191,-0 0.372,0.09 0.515,0.258c0.174,0.202 0.293,0.527 0.293,0.896l-0,2.945c-0,0.567 -0.41,1.039 -0.949,1.136c0.136,0.034 0.262,0.116 0.368,0.239c0.173,0.203 0.293,0.528 0.293,0.897l-0,2.944c-0,0.546 -0.38,1.004 -0.889,1.124c0.113,0.041 0.218,0.116 0.308,0.221c0.173,0.203 0.292,0.527 0.292,0.896l0,2.945c0,0.545 -0.378,1.002 -0.886,1.123l0.367,0c0.191,0 0.372,0.091 0.515,0.258c0.173,0.203 0.293,0.528 0.293,0.896l-0,2.945c-0,0.56 -0.4,1.027 -0.929,1.132c0.128,0.037 0.247,0.117 0.348,0.235c0.173,0.202 0.292,0.527 0.292,0.896l0,2.945c0,0.551 -0.387,1.013 -0.905,1.127c0.119,0.04 0.23,0.117 0.324,0.227c0.174,0.203 0.293,0.527 0.293,0.896l0,2.945c0,0.535 -0.364,0.985 -0.858,1.116l0.28,-0l0.347,-0c0.191,-0 0.372,0.09 0.515,0.258c0.173,0.202 0.293,0.527 0.293,0.896l-0,2.945c-0,0.637 -0.517,1.154 -1.155,1.154l-16.631,0c-0.637,0 -1.154,-0.517 -1.154,-1.154l0,-2.945c0,-0.369 0.12,-0.694 0.293,-0.896c0.089,-0.104 0.192,-0.178 0.303,-0.22l-0.018,0c-0.637,0 -1.154,-0.517 -1.154,-1.154l-0,-2.945Zm0.738,-14.797l-0,2.117c-0,0.389 0.315,0.704 0.704,0.704l16.631,0c0.389,0 0.704,-0.315 0.704,-0.704l0,-2.117l-1.846,-0l-0.033,2.24c-0.002,0.124 -0.104,0.223 -0.228,0.221c-0.124,-0.002 -0.224,-0.104 -0.222,-0.228l0.033,-2.233l-2.138,-0l-0.032,2.24c-0.002,0.124 -0.105,0.223 -0.229,0.221c-0.124,-0.002 -0.223,-0.104 -0.221,-0.228l0.032,-2.233l-2.323,-0l-0.033,2.24c-0.002,0.124 -0.104,0.223 -0.228,0.221c-0.124,-0.002 -0.224,-0.104 -0.222,-0.228l0.033,-2.233l-2.37,-0l-0.033,2.24c-0.002,0.124 -0.104,0.223 -0.228,0.221c-0.124,-0.002 -0.224,-0.104 -0.222,-0.228l0.033,-2.233l-2.244,-0l-0.032,2.24c-0.002,0.124 -0.104,0.223 -0.229,0.221c-0.124,-0.002 -0.223,-0.104 -0.221,-0.228l0.032,-2.233l-2.18,-0l-0.033,2.24c-0.002,0.124 -0.104,0.223 -0.228,0.221c-0.124,-0.002 -0.224,-0.104 -0.222,-0.228l0.033,-2.233l-2.238,-0Zm-0,10.43l-0,2.117c-0,0.388 0.315,0.704 0.704,0.704l16.631,-0c0.389,-0 0.704,-0.316 0.704,-0.704l0,-2.117l-1.846,-0l-0.033,2.239c-0.002,0.124 -0.104,0.224 -0.228,0.222c-0.124,-0.002 -0.224,-0.104 -0.222,-0.228l0.033,-2.233l-2.138,-0l-0.032,2.239c-0.002,0.124 -0.105,0.224 -0.229,0.222c-0.124,-0.002 -0.223,-0.104 -0.221,-0.228l0.032,-2.233l-2.323,-0l-0.033,2.239c-0.002,0.124 -0.104,0.224 -0.228,0.222c-0.124,-0.002 -0.224,-0.104 -0.222,-0.228l0.033,-2.233l-2.37,-0l-0.033,2.239c-0.002,0.124 -0.104,0.224 -0.228,0.222c-0.124,-0.002 -0.224,-0.104 -0.222,-0.228l0.033,-2.233l-2.244,-0l-0.032,2.239c-0.002,0.124 -0.104,0.224 -0.229,0.222c-0.124,-0.002 -0.223,-0.104 -0.221,-0.228l0.032,-2.233l-2.18,-0l-0.033,2.239c-0.002,0.124 -0.104,0.224 -0.228,0.222c-0.124,-0.002 -0.224,-0.104 -0.222,-0.228l0.033,-2.233l-2.238,-0Zm0.288,-5.208l0,2.117c0,0.389 0.316,0.704 0.704,0.704l16.631,0c0.389,0 0.705,-0.315 0.705,-0.704l-0,-2.117l-1.847,0l-0.032,2.24c-0.002,0.124 -0.105,0.223 -0.229,0.221c-0.124,-0.001 -0.223,-0.104 -0.221,-0.228l0.032,-2.233l-2.137,0l-0.033,2.24c-0.002,0.124 -0.104,0.223 -0.229,0.221c-0.124,-0.001 -0.223,-0.104 -0.221,-0.228l0.032,-2.233l-2.323,0l-0.033,2.24c-0.002,0.124 -0.104,0.223 -0.228,0.221c-0.124,-0.001 -0.223,-0.104 -0.222,-0.228l0.033,-2.233l-2.37,0l-0.033,2.24c-0.002,0.124 -0.104,0.223 -0.228,0.221c-0.124,-0.001 -0.224,-0.104 -0.222,-0.228l0.033,-2.233l-2.243,0l-0.033,2.24c-0.002,0.124 -0.104,0.223 -0.228,0.221c-0.125,-0.001 -0.224,-0.104 -0.222,-0.228l0.033,-2.233l-2.181,0l-0.033,2.24c-0.002,0.124 -0.104,0.223 -0.228,0.221c-0.124,-0.001 -0.224,-0.104 -0.222,-0.228l0.033,-2.233l-2.238,0Zm0,15.618l0,2.117c0,0.389 0.316,0.704 0.704,0.704l16.631,0c0.389,0 0.705,-0.315 0.705,-0.704l-0,-2.117l-1.847,-0l-0.032,2.24c-0.002,0.124 -0.105,0.223 -0.229,0.221c-0.124,-0.002 -0.223,-0.104 -0.221,-0.228l0.032,-2.233l-2.137,-0l-0.033,2.24c-0.002,0.124 -0.104,0.223 -0.229,0.221c-0.124,-0.002 -0.223,-0.104 -0.221,-0.228l0.032,-2.233l-2.323,-0l-0.033,2.24c-0.002,0.124 -0.104,0.223 -0.228,0.221c-0.124,-0.002 -0.223,-0.104 -0.222,-0.228l0.033,-2.233l-2.37,-0l-0.033,2.24c-0.002,0.124 -0.104,0.223 -0.228,0.221c-0.124,-0.002 -0.224,-0.104 -0.222,-0.228l0.033,-2.233l-2.243,-0l-0.033,2.24c-0.002,0.124 -0.104,0.223 -0.228,0.221c-0.125,-0.002 -0.224,-0.104 -0.222,-0.228l0.033,-2.233l-2.181,-0l-0.033,2.24c-0.002,0.124 -0.104,0.223 -0.228,0.221c-0.124,-0.002 -0.224,-0.104 -0.222,-0.228l0.033,-2.233l-2.238,-0Zm-0.576,-5.215l-0,2.117c-0,0.389 0.315,0.704 0.704,0.704l16.631,0c0.389,0 0.704,-0.315 0.704,-0.704l0,-2.117l-1.846,-0l-0.033,2.24c-0.002,0.124 -0.104,0.223 -0.228,0.221c-0.124,-0.002 -0.224,-0.104 -0.222,-0.228l0.033,-2.233l-2.138,-0l-0.033,2.24c-0.002,0.124 -0.104,0.223 -0.228,0.221c-0.124,-0.002 -0.224,-0.104 -0.222,-0.228l0.033,-2.233l-2.323,-0l-0.033,2.24c-0.002,0.124 -0.104,0.223 -0.228,0.221c-0.125,-0.002 -0.224,-0.104 -0.222,-0.228l0.032,-2.233l-2.37,-0l-0.032,2.24c-0.002,0.124 -0.104,0.223 -0.229,0.221c-0.124,-0.002 -0.223,-0.104 -0.221,-0.228l0.032,-2.233l-2.243,-0l-0.033,2.24c-0.001,0.124 -0.104,0.223 -0.228,0.221c-0.124,-0.002 -0.223,-0.104 -0.222,-0.228l0.033,-2.233l-2.181,-0l-0.032,2.24c-0.002,0.124 -0.104,0.223 -0.229,0.221c-0.124,-0.002 -0.223,-0.104 -0.221,-0.228l0.032,-2.233l-2.237,-0Zm0.576,-20.811l0,2.117c0,0.389 0.316,0.705 0.704,0.705l16.631,-0c0.389,-0 0.705,-0.316 0.705,-0.705l-0,-2.117l-1.847,0l-0.032,2.24c-0.002,0.124 -0.105,0.224 -0.229,0.222c-0.124,-0.002 -0.223,-0.104 -0.221,-0.229l0.032,-2.233l-2.137,0l-0.033,2.24c-0.002,0.124 -0.104,0.224 -0.229,0.222c-0.124,-0.002 -0.223,-0.104 -0.221,-0.229l0.032,-2.233l-2.323,0l-0.033,2.24c-0.002,0.124 -0.104,0.224 -0.228,0.222c-0.124,-0.002 -0.223,-0.104 -0.222,-0.229l0.033,-2.233l-2.37,0l-0.033,2.24c-0.002,0.124 -0.104,0.224 -0.228,0.222c-0.124,-0.002 -0.224,-0.104 -0.222,-0.229l0.033,-2.233l-2.243,0l-0.033,2.24c-0.002,0.124 -0.104,0.224 -0.228,0.222c-0.125,-0.002 -0.224,-0.104 -0.222,-0.229l0.033,-2.233l-2.181,0l-0.033,2.24c-0.002,0.124 -0.104,0.224 -0.228,0.222c-0.124,-0.002 -0.224,-0.104 -0.222,-0.229l0.033,-2.233l-2.238,0Zm0,-10.428l0,2.117c0,0.389 0.316,0.704 0.704,0.704l16.631,0c0.389,0 0.705,-0.315 0.705,-0.704l-0,-2.117l-1.847,-0l-0.032,2.24c-0.002,0.124 -0.105,0.223 -0.229,0.221c-0.124,-0.002 -0.223,-0.104 -0.221,-0.228l0.032,-2.233l-2.137,-0l-0.033,2.24c-0.002,0.124 -0.104,0.223 -0.229,0.221c-0.124,-0.002 -0.223,-0.104 -0.221,-0.228l0.032,-2.233l-2.323,-0l-0.033,2.24c-0.002,0.124 -0.104,0.223 -0.228,0.221c-0.124,-0.002 -0.223,-0.104 -0.222,-0.228l0.033,-2.233l-2.37,-0l-0.033,2.24c-0.002,0.124 -0.104,0.223 -0.228,0.221c-0.124,-0.002 -0.224,-0.104 -0.222,-0.228l0.033,-2.233l-2.243,-0l-0.033,2.24c-0.002,0.124 -0.104,0.223 -0.228,0.221c-0.125,-0.002 -0.224,-0.104 -0.222,-0.228l0.033,-2.233l-2.181,-0l-0.033,2.24c-0.002,0.124 -0.104,0.223 -0.228,0.221c-0.124,-0.002 -0.224,-0.104 -0.222,-0.228l0.033,-2.233l-2.238,-0Zm0.288,5.212l0,2.117c0,0.388 0.316,0.704 0.705,0.704l16.631,-0c0.388,-0 0.704,-0.316 0.704,-0.704l-0,-2.117l-1.846,-0l-0.033,2.239c-0.002,0.125 -0.104,0.224 -0.228,0.222c-0.125,-0.002 -0.224,-0.104 -0.222,-0.228l0.032,-2.233l-2.137,-0l-0.033,2.239c-0.002,0.125 -0.104,0.224 -0.228,0.222c-0.124,-0.002 -0.224,-0.104 -0.222,-0.228l0.033,-2.233l-2.324,-0l-0.032,2.239c-0.002,0.125 -0.105,0.224 -0.229,0.222c-0.124,-0.002 -0.223,-0.104 -0.221,-0.228l0.032,-2.233l-2.37,-0l-0.033,2.239c-0.001,0.125 -0.104,0.224 -0.228,0.222c-0.124,-0.002 -0.223,-0.104 -0.221,-0.228l0.032,-2.233l-2.243,-0l-0.033,2.239c-0.002,0.125 -0.104,0.224 -0.228,0.222c-0.124,-0.002 -0.224,-0.104 -0.222,-0.228l0.033,-2.233l-2.181,-0l-0.033,2.239c-0.001,0.125 -0.104,0.224 -0.228,0.222c-0.124,-0.002 -0.223,-0.104 -0.221,-0.228l0.032,-2.233l-2.238,-0Zm-1.535,-26.945c0,-0.369 0.12,-0.694 0.293,-0.896c0.143,-0.168 0.324,-0.258 0.515,-0.258l0.347,-0c-0,-0 1.785,-0 1.787,-0c0,-0 2.629,-0 2.631,-0c-0,-0 2.691,-0 2.693,-0c0,-0 2.818,-0 2.82,-0c0,-0 2.771,-0 2.774,-0c-0,-0 2.585,-0 2.587,-0l1.339,-0l0.346,-0c0.191,-0 0.372,0.09 0.515,0.258c0.173,0.202 0.293,0.527 0.293,0.896l-0,2.945c-0,0.53 -0.359,0.978 -0.847,1.112l0.289,0c0.192,0 0.372,0.091 0.516,0.258c0.173,0.203 0.293,0.528 0.293,0.897l-0,2.944c-0,0.521 -0.346,0.962 -0.82,1.105l0.211,0l0.347,0c0.191,0 0.372,0.091 0.515,0.258c0.173,0.203 0.293,0.528 0.293,0.897l-0,2.944c-0,0.531 -0.359,0.978 -0.847,1.113l0.327,0c0.191,0 0.372,0.091 0.515,0.258c0.174,0.203 0.293,0.528 0.293,0.896l-0,2.945c-0,0.637 -0.517,1.154 -1.154,1.154l-16.631,0c-0.637,0 -1.155,-0.517 -1.155,-1.154l0,-2.945c0,-0.368 0.12,-0.693 0.293,-0.896c0.103,-0.12 0.225,-0.201 0.357,-0.237c-0.534,-0.101 -0.938,-0.57 -0.938,-1.134l0,-2.944c0,-0.369 0.12,-0.694 0.293,-0.897c0.082,-0.095 0.176,-0.166 0.278,-0.209c-0.62,-0.02 -1.117,-0.529 -1.117,-1.154l0,-2.944c0,-0.369 0.119,-0.694 0.293,-0.897c0.107,-0.125 0.235,-0.207 0.373,-0.241c-0.523,-0.109 -0.917,-0.574 -0.917,-1.129l0,-2.945Zm1.247,11.243l0,2.117c0,0.389 0.316,0.705 0.704,0.705l16.631,-0c0.389,-0 0.705,-0.316 0.705,-0.705l-0,-2.117l-1.847,0l-0.032,2.24c-0.002,0.124 -0.105,0.224 -0.229,0.222c-0.124,-0.002 -0.223,-0.104 -0.221,-0.229l0.032,-2.233l-2.137,0l-0.033,2.24c-0.002,0.124 -0.104,0.224 -0.229,0.222c-0.124,-0.002 -0.223,-0.104 -0.221,-0.229l0.032,-2.233l-2.323,0l-0.033,2.24c-0.002,0.124 -0.104,0.224 -0.228,0.222c-0.124,-0.002 -0.223,-0.104 -0.222,-0.229l0.033,-2.233l-2.37,0l-0.033,2.24c-0.002,0.124 -0.104,0.224 -0.228,0.222c-0.124,-0.002 -0.224,-0.104 -0.222,-0.229l0.033,-2.233l-2.243,0l-0.033,2.24c-0.002,0.124 -0.104,0.224 -0.228,0.222c-0.125,-0.002 -0.224,-0.104 -0.222,-0.229l0.033,-2.233l-2.181,0l-0.033,2.24c-0.002,0.124 -0.104,0.224 -0.228,0.222c-0.124,-0.002 -0.224,-0.104 -0.222,-0.229l0.033,-2.233l-2.238,0Zm-0.797,-10.415l0,2.117c0,0.388 0.316,0.704 0.705,0.704l16.631,-0c0.388,-0 0.704,-0.316 0.704,-0.704l-0,-2.117l-1.847,-0l-0.032,2.239c-0.002,0.124 -0.104,0.224 -0.229,0.222c-0.124,-0.002 -0.223,-0.104 -0.221,-0.228l0.032,-2.233l-2.137,-0l-0.033,2.239c-0.002,0.124 -0.104,0.224 -0.228,0.222c-0.124,-0.002 -0.224,-0.104 -0.222,-0.228l0.033,-2.233l-2.324,-0l-0.032,2.239c-0.002,0.124 -0.105,0.224 -0.229,0.222c-0.124,-0.002 -0.223,-0.104 -0.221,-0.228l0.032,-2.233l-2.37,-0l-0.033,2.239c-0.001,0.124 -0.104,0.224 -0.228,0.222c-0.124,-0.002 -0.223,-0.104 -0.222,-0.228l0.033,-2.233l-2.243,-0l-0.033,2.239c-0.002,0.124 -0.104,0.224 -0.228,0.222c-0.124,-0.002 -0.224,-0.104 -0.222,-0.228l0.033,-2.233l-2.181,-0l-0.033,2.239c-0.001,0.124 -0.104,0.224 -0.228,0.222c-0.124,-0.002 -0.223,-0.104 -0.222,-0.228l0.033,-2.233l-2.238,-0Zm1.085,15.627l0,2.117c0,0.389 0.316,0.704 0.705,0.704l16.631,0c0.388,0 0.704,-0.315 0.704,-0.704l-0,-2.117l-1.846,0l-0.033,2.24c-0.002,0.124 -0.104,0.223 -0.228,0.222c-0.125,-0.002 -0.224,-0.105 -0.222,-0.229l0.032,-2.233l-2.137,0l-0.033,2.24c-0.002,0.124 -0.104,0.223 -0.228,0.222c-0.124,-0.002 -0.224,-0.105 -0.222,-0.229l0.033,-2.233l-2.324,0l-0.032,2.24c-0.002,0.124 -0.105,0.223 -0.229,0.222c-0.124,-0.002 -0.223,-0.105 -0.221,-0.229l0.032,-2.233l-2.37,0l-0.033,2.24c-0.001,0.124 -0.104,0.223 -0.228,0.222c-0.124,-0.002 -0.223,-0.105 -0.221,-0.229l0.032,-2.233l-2.243,0l-0.033,2.24c-0.002,0.124 -0.104,0.223 -0.228,0.222c-0.124,-0.002 -0.224,-0.105 -0.222,-0.229l0.033,-2.233l-2.181,0l-0.033,2.24c-0.001,0.124 -0.104,0.223 -0.228,0.222c-0.124,-0.002 -0.223,-0.105 -0.221,-0.229l0.032,-2.233l-2.238,0Zm-0.834,-10.416l0,2.117c0,0.389 0.316,0.705 0.704,0.705l16.631,-0c0.389,-0 0.705,-0.316 0.705,-0.705l-0,-2.117l-1.847,0l-0.033,2.24c-0.001,0.124 -0.104,0.224 -0.228,0.222c-0.124,-0.002 -0.223,-0.104 -0.222,-0.228l0.033,-2.234l-2.138,0l-0.032,2.24c-0.002,0.124 -0.104,0.224 -0.229,0.222c-0.124,-0.002 -0.223,-0.104 -0.221,-0.228l0.032,-2.234l-2.323,0l-0.033,2.24c-0.002,0.124 -0.104,0.224 -0.228,0.222c-0.124,-0.002 -0.224,-0.104 -0.222,-0.228l0.033,-2.234l-2.37,0l-0.033,2.24c-0.002,0.124 -0.104,0.224 -0.228,0.222c-0.124,-0.002 -0.224,-0.104 -0.222,-0.228l0.033,-2.234l-2.243,0l-0.033,2.24c-0.002,0.124 -0.104,0.224 -0.228,0.222c-0.125,-0.002 -0.224,-0.104 -0.222,-0.228l0.033,-2.234l-2.181,0l-0.033,2.24c-0.002,0.124 -0.104,0.224 -0.228,0.222c-0.124,-0.002 -0.224,-0.104 -0.222,-0.228l0.033,-2.234l-2.238,0Zm-0.45,-11.299c0,-0.368 0.119,-0.693 0.293,-0.896c0.143,-0.167 0.324,-0.258 0.515,-0.258l0.291,0c-0.487,-0.135 -0.846,-0.582 -0.846,-1.113l-0,-2.945c-0,-0.368 0.119,-0.693 0.293,-0.896c0.143,-0.167 0.324,-0.258 0.515,-0.258l0.346,0c0,0 1.785,0 1.788,0c-0,0 2.628,0 2.63,0c0,0 2.691,0 2.694,0c-0,0 2.818,0 2.82,0c-0,0 2.771,0 2.773,0c0,0 2.586,0 2.588,0l1.338,0l0.346,0c0.191,0 0.372,0.091 0.516,0.258c0.173,0.203 0.292,0.528 0.292,0.896l0,2.945c0,0.556 -0.394,1.021 -0.918,1.13c0.138,0.034 0.266,0.116 0.373,0.241c0.173,0.203 0.293,0.528 0.293,0.896l-0,2.945c-0,0.637 -0.518,1.154 -1.155,1.154l-16.631,0c-0.637,0 -1.154,-0.517 -1.154,-1.154l0,-2.945Zm0.45,0.828l0,2.117c0,0.389 0.316,0.704 0.704,0.704l16.631,0c0.389,0 0.705,-0.315 0.705,-0.704l-0,-2.117l-1.847,0l-0.033,2.24c-0.001,0.124 -0.104,0.223 -0.228,0.221c-0.124,-0.001 -0.223,-0.104 -0.222,-0.228l0.033,-2.233l-2.138,0l-0.032,2.24c-0.002,0.124 -0.104,0.223 -0.229,0.221c-0.124,-0.001 -0.223,-0.104 -0.221,-0.228l0.032,-2.233l-2.323,0l-0.033,2.24c-0.002,0.124 -0.104,0.223 -0.228,0.221c-0.124,-0.001 -0.224,-0.104 -0.222,-0.228l0.033,-2.233l-2.37,0l-0.033,2.24c-0.002,0.124 -0.104,0.223 -0.228,0.221c-0.124,-0.001 -0.224,-0.104 -0.222,-0.228l0.033,-2.233l-2.243,0l-0.033,2.24c-0.002,0.124 -0.104,0.223 -0.228,0.221c-0.125,-0.001 -0.224,-0.104 -0.222,-0.228l0.033,-2.233l-2.181,0l-0.033,2.24c-0.002,0.124 -0.104,0.223 -0.228,0.221c-0.124,-0.001 -0.224,-0.104 -0.222,-0.228l0.033,-2.233l-2.238,0Zm0.253,-5.212l-0,2.117c-0,0.389 0.315,0.705 0.704,0.705l16.631,-0c0.389,-0 0.704,-0.316 0.704,-0.705l0,-2.117l-1.846,0l-0.033,2.24c-0.002,0.124 -0.104,0.223 -0.228,0.222c-0.124,-0.002 -0.223,-0.104 -0.222,-0.229l0.033,-2.233l-2.138,0l-0.032,2.24c-0.002,0.124 -0.105,0.223 -0.229,0.222c-0.124,-0.002 -0.223,-0.104 -0.221,-0.229l0.032,-2.233l-2.323,0l-0.033,2.24c-0.002,0.124 -0.104,0.223 -0.228,0.222c-0.124,-0.002 -0.224,-0.104 -0.222,-0.229l0.033,-2.233l-2.37,0l-0.033,2.24c-0.002,0.124 -0.104,0.223 -0.228,0.222c-0.124,-0.002 -0.224,-0.104 -0.222,-0.229l0.033,-2.233l-2.244,0l-0.032,2.24c-0.002,0.124 -0.104,0.223 -0.229,0.222c-0.124,-0.002 -0.223,-0.104 -0.221,-0.229l0.032,-2.233l-2.18,0l-0.033,2.24c-0.002,0.124 -0.104,0.223 -0.228,0.222c-0.124,-0.002 -0.224,-0.104 -0.222,-0.229l0.033,-2.233l-2.238,0Zm-41.664,30.549c-0,-0.369 0.119,-0.693 0.292,-0.896c0.144,-0.168 0.325,-0.258 0.516,-0.258l0.346,-0c-0,-0 1.785,-0 1.787,-0c0,-0 2.629,-0 2.631,-0c0,-0 2.691,-0 2.693,-0c0,-0 2.818,-0 2.82,-0c0,-0 2.772,-0 2.774,-0c-0,-0 2.585,-0 2.588,-0l1.338,-0l0.346,-0c0.191,-0 0.372,0.09 0.515,0.258c0.174,0.203 0.293,0.527 0.293,0.896l0,2.945c0,0.53 -0.359,0.978 -0.846,1.113l0.326,-0c0.191,-0 0.372,0.09 0.516,0.258c0.173,0.202 0.292,0.527 0.292,0.896l0,2.945c0,0.637 -0.517,1.154 -1.154,1.154l-16.631,-0c-0.637,-0 -1.154,-0.517 -1.154,-1.154l-0,-2.945c-0,-0.369 0.119,-0.694 0.293,-0.896c0.103,-0.121 0.225,-0.201 0.357,-0.237c-0.534,-0.102 -0.938,-0.571 -0.938,-1.134l-0,-2.945Zm0.45,0.828l-0,2.117c-0,0.389 0.315,0.704 0.704,0.704l16.631,0c0.389,0 0.704,-0.315 0.704,-0.704l0,-2.117l-1.846,-0l-0.033,2.24c-0.002,0.124 -0.104,0.223 -0.228,0.221c-0.124,-0.002 -0.224,-0.104 -0.222,-0.228l0.033,-2.233l-2.138,-0l-0.033,2.24c-0.002,0.124 -0.104,0.223 -0.228,0.221c-0.124,-0.002 -0.224,-0.104 -0.222,-0.228l0.033,-2.233l-2.323,-0l-0.033,2.24c-0.002,0.124 -0.104,0.223 -0.229,0.221c-0.124,-0.002 -0.223,-0.104 -0.221,-0.228l0.032,-2.233l-2.37,-0l-0.032,2.24c-0.002,0.124 -0.104,0.223 -0.229,0.221c-0.124,-0.002 -0.223,-0.104 -0.221,-0.228l0.032,-2.233l-2.243,-0l-0.033,2.24c-0.001,0.124 -0.104,0.223 -0.228,0.221c-0.124,-0.002 -0.223,-0.104 -0.222,-0.228l0.033,-2.233l-2.181,-0l-0.032,2.24c-0.002,0.124 -0.104,0.223 -0.229,0.221c-0.124,-0.002 -0.223,-0.104 -0.221,-0.228l0.032,-2.233l-2.237,-0Zm0.288,5.212l-0,2.117c-0,0.388 0.315,0.704 0.704,0.704l16.631,-0c0.389,-0 0.704,-0.316 0.704,-0.704l0,-2.117l-1.846,-0l-0.033,2.239c-0.002,0.125 -0.104,0.224 -0.228,0.222c-0.124,-0.002 -0.224,-0.104 -0.222,-0.228l0.033,-2.233l-2.138,-0l-0.033,2.239c-0.001,0.125 -0.104,0.224 -0.228,0.222c-0.124,-0.002 -0.223,-0.104 -0.221,-0.228l0.032,-2.233l-2.323,-0l-0.033,2.239c-0.002,0.125 -0.104,0.224 -0.228,0.222c-0.124,-0.002 -0.224,-0.104 -0.222,-0.228l0.033,-2.233l-2.37,-0l-0.033,2.239c-0.002,0.125 -0.104,0.224 -0.228,0.222c-0.125,-0.002 -0.224,-0.104 -0.222,-0.228l0.033,-2.233l-2.244,-0l-0.032,2.239c-0.002,0.125 -0.104,0.224 -0.229,0.222c-0.124,-0.002 -0.223,-0.104 -0.221,-0.228l0.032,-2.233l-2.18,-0l-0.033,2.239c-0.002,0.125 -0.104,0.224 -0.228,0.222c-0.125,-0.002 -0.224,-0.104 -0.222,-0.228l0.033,-2.233l-2.238,-0Zm-0.738,-16.529c-0,-0.369 0.119,-0.694 0.292,-0.897c0.144,-0.167 0.325,-0.258 0.516,-0.258l0.346,0c-0,0 1.785,0 1.787,0c0,0 2.629,0 2.631,0c0,0 2.691,0 2.693,0c0,0 2.818,0 2.82,0c0,0 2.772,0 2.774,0c-0,0 2.585,0 2.588,0l1.338,0l0.346,0c0.191,0 0.372,0.091 0.515,0.258c0.174,0.203 0.293,0.528 0.293,0.897l0,2.944c0,0.531 -0.359,0.978 -0.846,1.113l0.326,0c0.191,0 0.372,0.091 0.516,0.258c0.173,0.203 0.292,0.528 0.292,0.896l0,2.945c0,0.637 -0.517,1.154 -1.154,1.154l-16.631,0c-0.637,0 -1.154,-0.517 -1.154,-1.154l-0,-2.945c-0,-0.368 0.119,-0.693 0.293,-0.896c0.103,-0.12 0.225,-0.201 0.357,-0.237c-0.534,-0.101 -0.938,-0.57 -0.938,-1.134l-0,-2.944Zm0.738,6.039l-0,2.117c-0,0.389 0.315,0.704 0.704,0.704l16.631,0c0.389,0 0.704,-0.315 0.704,-0.704l0,-2.117l-1.846,0l-0.033,2.24c-0.002,0.124 -0.104,0.223 -0.228,0.222c-0.124,-0.002 -0.224,-0.105 -0.222,-0.229l0.033,-2.233l-2.138,0l-0.033,2.24c-0.001,0.124 -0.104,0.223 -0.228,0.222c-0.124,-0.002 -0.223,-0.105 -0.221,-0.229l0.032,-2.233l-2.323,0l-0.033,2.24c-0.002,0.124 -0.104,0.223 -0.228,0.222c-0.124,-0.002 -0.224,-0.105 -0.222,-0.229l0.033,-2.233l-2.37,0l-0.033,2.24c-0.002,0.124 -0.104,0.223 -0.228,0.222c-0.125,-0.002 -0.224,-0.105 -0.222,-0.229l0.033,-2.233l-2.244,0l-0.032,2.24c-0.002,0.124 -0.104,0.223 -0.229,0.222c-0.124,-0.002 -0.223,-0.105 -0.221,-0.229l0.032,-2.233l-2.18,0l-0.033,2.24c-0.002,0.124 -0.104,0.223 -0.228,0.222c-0.125,-0.002 -0.224,-0.105 -0.222,-0.229l0.033,-2.233l-2.238,0Zm-0.288,-5.212l-0,2.117c-0,0.389 0.315,0.705 0.704,0.705l16.631,-0c0.389,-0 0.704,-0.316 0.704,-0.705l0,-2.117l-1.846,0l-0.033,2.24c-0.002,0.124 -0.104,0.224 -0.228,0.222c-0.124,-0.002 -0.224,-0.104 -0.222,-0.229l0.033,-2.233l-2.138,0l-0.033,2.24c-0.002,0.124 -0.104,0.224 -0.228,0.222c-0.124,-0.002 -0.224,-0.104 -0.222,-0.229l0.033,-2.233l-2.323,0l-0.033,2.24c-0.002,0.124 -0.104,0.224 -0.229,0.222c-0.124,-0.002 -0.223,-0.104 -0.221,-0.229l0.032,-2.233l-2.37,0l-0.032,2.24c-0.002,0.124 -0.104,0.224 -0.229,0.222c-0.124,-0.002 -0.223,-0.104 -0.221,-0.229l0.032,-2.233l-2.243,0l-0.033,2.24c-0.001,0.124 -0.104,0.224 -0.228,0.222c-0.124,-0.002 -0.223,-0.104 -0.222,-0.229l0.033,-2.233l-2.181,0l-0.032,2.24c-0.002,0.124 -0.104,0.224 -0.229,0.222c-0.124,-0.002 -0.223,-0.104 -0.221,-0.229l0.032,-2.233l-2.237,0Zm-21.759,9.662c-0,-0.369 0.119,-0.693 0.293,-0.896c0.143,-0.168 0.324,-0.258 0.515,-0.258l0.346,-0c-0,-0 1.785,-0 1.788,-0c-0,-0 2.628,-0 2.63,-0c0,-0 2.691,-0 2.693,-0c0,-0 2.818,-0 2.821,-0c-0,-0 2.771,-0 2.773,-0c0,-0 2.586,-0 2.588,-0l1.338,-0l0.346,-0c0.191,-0 0.372,0.09 0.515,0.258c0.174,0.203 0.293,0.527 0.293,0.896l0,2.945c0,0.53 -0.358,0.978 -0.846,1.113l0.326,-0c0.191,-0 0.372,0.09 0.516,0.258c0.173,0.202 0.293,0.527 0.293,0.896l-0,2.945c-0,0.637 -0.518,1.154 -1.155,1.154l-16.631,-0c-0.637,-0 -1.154,-0.517 -1.154,-1.154l-0,-2.945c-0,-0.369 0.119,-0.694 0.293,-0.896c0.103,-0.121 0.225,-0.201 0.357,-0.237c-0.534,-0.102 -0.938,-0.571 -0.938,-1.134l-0,-2.945Zm0.45,0.828l-0,2.117c-0,0.389 0.315,0.704 0.704,0.704l16.631,0c0.389,0 0.704,-0.315 0.704,-0.704l0,-2.117l-1.846,-0l-0.033,2.24c-0.002,0.124 -0.104,0.223 -0.228,0.221c-0.124,-0.002 -0.224,-0.104 -0.222,-0.228l0.033,-2.233l-2.138,-0l-0.033,2.24c-0.001,0.124 -0.104,0.223 -0.228,0.221c-0.124,-0.002 -0.223,-0.104 -0.222,-0.228l0.033,-2.233l-2.323,-0l-0.033,2.24c-0.002,0.124 -0.104,0.223 -0.228,0.221c-0.125,-0.002 -0.224,-0.104 -0.222,-0.228l0.033,-2.233l-2.37,-0l-0.033,2.24c-0.002,0.124 -0.104,0.223 -0.228,0.221c-0.125,-0.002 -0.224,-0.104 -0.222,-0.228l0.032,-2.233l-2.243,-0l-0.033,2.24c-0.001,0.124 -0.104,0.223 -0.228,0.221c-0.124,-0.002 -0.223,-0.104 -0.221,-0.228l0.032,-2.233l-2.18,-0l-0.033,2.24c-0.002,0.124 -0.104,0.223 -0.228,0.221c-0.125,-0.002 -0.224,-0.104 -0.222,-0.228l0.032,-2.233l-2.237,-0Zm0.288,5.212l-0,2.117c-0,0.388 0.315,0.704 0.704,0.704l16.631,-0c0.389,-0 0.705,-0.316 0.705,-0.704l-0,-2.117l-1.847,-0l-0.033,2.239c-0.001,0.125 -0.104,0.224 -0.228,0.222c-0.124,-0.002 -0.223,-0.104 -0.222,-0.228l0.033,-2.233l-2.138,-0l-0.032,2.239c-0.002,0.125 -0.105,0.224 -0.229,0.222c-0.124,-0.002 -0.223,-0.104 -0.221,-0.228l0.032,-2.233l-2.323,-0l-0.033,2.239c-0.002,0.125 -0.104,0.224 -0.228,0.222c-0.124,-0.002 -0.224,-0.104 -0.222,-0.228l0.033,-2.233l-2.37,-0l-0.033,2.239c-0.002,0.125 -0.104,0.224 -0.228,0.222c-0.124,-0.002 -0.224,-0.104 -0.222,-0.228l0.033,-2.233l-2.244,-0l-0.032,2.239c-0.002,0.125 -0.104,0.224 -0.229,0.222c-0.124,-0.002 -0.223,-0.104 -0.221,-0.228l0.032,-2.233l-2.18,-0l-0.033,2.239c-0.002,0.125 -0.104,0.224 -0.228,0.222c-0.124,-0.002 -0.224,-0.104 -0.222,-0.228l0.033,-2.233l-2.238,-0Zm39.398,32.004c0.523,0.068 0.947,0.576 0.947,1.211c-0,0.683 -0.491,1.219 -1.067,1.219l-0.621,-0c-0.007,-0 -0.013,-0 -0.02,-0l-44.614,-0c-3.544,-0 -6.444,-3.394 -6.444,-7.598c0,-4.203 2.9,-7.597 6.444,-7.597l2.261,0c-2.611,-0.756 -4.587,-3.779 -4.587,-7.415c0,-4.209 2.648,-7.598 5.863,-7.598l40.423,0c0.006,0 0.012,0 0.018,0l0.563,0c0.526,0 0.99,0.53 0.99,1.219c-0,0.689 -0.464,1.219 -0.99,1.219l-0.335,0c-0.32,0.524 -1.481,2.587 -1.598,5.094c-0.119,2.525 0.898,4.675 1.167,5.196l0.203,0c-0.065,0 -0.124,0.025 -0.168,0.066c0.019,0.036 0.03,0.055 0.03,0.055c0.043,0.075 0.043,0.167 0.002,0.243l0.136,0.136l0,-0.471l0.563,-0c0.526,-0 0.99,0.53 0.99,1.219c-0,0.446 -0.194,0.825 -0.474,1.037l0.198,0c0.576,0 1.067,0.536 1.067,1.219c-0,0.514 -0.278,0.945 -0.661,1.126c-0.376,0.635 -1.436,2.621 -1.548,5.01c-0.137,2.907 1.232,5.317 1.232,5.317c0.016,0.029 0.026,0.061 0.03,0.093Zm-10.581,-15.05c-0.065,-0.1 -1.403,-2.973 -1.403,-5.08c0,-2.588 0.925,-4.379 1.445,-5.181l-31.394,-0c-2.151,-0 -3.86,2.314 -3.86,5.131c-0,2.816 1.709,5.13 3.86,5.13l31.352,0Zm9.84,15.542c0.082,-0 0.155,-0.04 0.2,-0.101c-0.072,0.09 -0.2,0.101 -0.2,0.101Zm-2.129,-23.128c0.34,-1.201 0.815,-2.155 1.106,-2.675l-7.168,-0c-0.108,0.147 -0.281,0.4 -0.473,0.755l5.578,-0c0.138,-0 0.25,0.112 0.25,0.25c0,0.138 -0.112,0.25 -0.25,0.25l-5.827,-0c-0.18,0.392 -0.359,0.863 -0.504,1.408l7.209,-0c0.028,-0 0.054,0.004 0.079,0.012Zm0.377,6.802c-0.063,-0.163 -0.127,-0.34 -0.191,-0.53l-6.196,-0c-0.138,-0 -0.25,-0.112 -0.25,-0.25c-0,-0.138 0.112,-0.25 0.25,-0.25l6.041,-0c-0.204,-0.709 -0.376,-1.551 -0.424,-2.465l-5.617,-0c-0.138,-0 -0.25,-0.112 -0.25,-0.25c-0,-0.138 0.112,-0.25 0.25,-0.25l5.603,-0c-0,-0.146 0.003,-0.293 0.01,-0.441c0.004,-0.087 0.009,-0.173 0.016,-0.259l-6.374,-0c-0.138,-0 -0.25,-0.112 -0.25,-0.25c-0,-0.138 0.112,-0.25 0.25,-0.25l6.424,-0c0.049,-0.388 0.12,-0.763 0.204,-1.119l-7.281,-0c-0.125,0.599 -0.206,1.274 -0.206,2.018c0,0.547 0.044,1.054 0.116,1.521l5.181,-0c0.138,-0 0.25,0.112 0.25,0.25c-0,0.138 -0.112,0.25 -0.25,0.25l-5.089,-0c0.205,0.97 0.529,1.736 0.815,2.275l6.968,-0Zm-6.465,15.797c-0.058,-0.083 -1.521,-3.119 -1.521,-5.256c0.001,-2.413 0.804,-4.133 1.334,-5.005l-36.335,-0c-2.378,-0 -4.286,2.309 -4.286,5.13c0,2.822 1.908,5.131 4.286,5.131l36.522,0Zm7.551,-7.61c0.313,-1.165 0.761,-2.112 1.067,-2.68l-0.298,0c-0.055,0.024 -0.103,0.029 -0.103,0.029l-6.81,-0c-0.12,0.177 -0.273,0.426 -0.435,0.741l5.677,0c0.138,0 0.25,0.112 0.25,0.25c-0,0.138 -0.112,0.25 -0.25,0.25l-5.913,0c-0.172,0.399 -0.34,0.87 -0.473,1.409l7.264,-0c0.008,-0 0.016,-0 0.024,0.001Zm-7.763,-7.687c0.077,0.119 0.143,0.214 0.195,0.284l6.566,0c0.16,-0.001 0.251,-0.002 0.251,-0.002c-0.043,-0.09 -0.092,-0.195 -0.144,-0.315c-0.036,0.021 -0.078,0.033 -0.123,0.033l-6.745,-0Zm1.614,15c0.053,0.077 0.098,0.137 0.132,0.182c-0,-0 6.771,-0.064 6.771,-0.064c-0.027,-0.055 -0.055,-0.117 -0.086,-0.184c-0.044,0.041 -0.103,0.066 -0.168,0.066l-6.649,-0Zm6.632,-0.5c-0.064,-0.161 -0.132,-0.338 -0.199,-0.531l-6.239,0c-0.138,0 -0.25,-0.112 -0.25,-0.25c-0,-0.138 0.112,-0.25 0.25,-0.25l6.076,0c-0.212,-0.7 -0.398,-1.543 -0.462,-2.464l-5.614,-0c-0.138,-0 -0.25,-0.112 -0.25,-0.25c-0,-0.138 0.112,-0.25 0.25,-0.25l5.592,-0c-0.004,-0.199 -0.001,-0.401 0.008,-0.604c0.002,-0.032 0.003,-0.064 0.005,-0.096l-6.351,-0c-0.138,-0 -0.25,-0.112 -0.25,-0.25c0,-0.138 0.112,-0.25 0.25,-0.25l6.393,-0c0.043,-0.387 0.107,-0.762 0.186,-1.119l-7.276,-0c-0.107,0.558 -0.174,1.177 -0.174,1.855c0,0.611 0.054,1.173 0.143,1.683l5.166,0c0.138,0 0.25,0.112 0.25,0.25c0,0.138 -0.112,0.25 -0.25,0.25l-5.065,0c0.229,0.994 0.578,1.76 0.868,2.276l6.943,-0Z"/><path d="M256,238.779l0,4.011c0,1.107 -0.899,2.006 -2.006,2.006l-241.398,-0c-1.107,-0 -2.006,-0.899 -2.006,-2.006l0,-4.011c0,-1.107 0.899,-2.005 2.006,-2.005l241.398,-0c1.107,-0 2.006,0.898 2.006,2.005Z"/></g></svg>